ISO-10303-21;
HEADER;
FILE_DESCRIPTION (( 'STEP AP214' ),
    '1' );
FILE_NAME ('CR2450.STEP',
    '2023-11-24T03:58:14',
    ( '' ),
    ( '' ),
    'SwSTEP 2.0',
    'SolidWorks 2021',
    '' );
FILE_SCHEMA (( 'AUTOMOTIVE_DESIGN' ));
ENDSEC;

DATA;
#1 = FACE_OUTER_BOUND ( 'NONE', #681, .T. ) ;
#2 = EDGE_LOOP ( 'NONE', ( #639, #514, #232, #155 ) ) ;
#3 = CIRCLE ( 'NONE', #97, 11.74999999999998579 ) ;
#4 = VECTOR ( 'NONE', #294, 1000.000000000000000 ) ;
#5 = DIRECTION ( 'NONE',  ( 4.886017300838478833E-15, 1.000000000000000000, -0.000000000000000000 ) ) ;
#6 = AXIS2_PLACEMENT_3D ( 'NONE', #135, #258, #23 ) ;
#7 = VERTEX_POINT ( 'NONE', #527 ) ;
#8 = DIRECTION ( 'NONE',  ( 4.886017300838478044E-15, 1.000000000000000000, -0.000000000000000000 ) ) ;
#9 = VERTEX_POINT ( 'NONE', #103 ) ;
#10 = FACE_OUTER_BOUND ( 'NONE', #735, .T. ) ;
#11 = ORIENTED_EDGE ( 'NONE', *, *, #93, .F. ) ;
#12 = EDGE_CURVE ( 'NONE', #57, #703, #158, .T. ) ;
#13 = PLANE ( 'NONE',  #678 ) ;
#14 = VERTEX_POINT ( 'NONE', #464 ) ;
#15 = EDGE_CURVE ( 'NONE', #508, #201, #509, .T. ) ;
#16 = DIRECTION ( 'NONE',  ( -4.886017300838478833E-15, -1.000000000000000000, 0.000000000000000000 ) ) ;
#17 = VERTEX_POINT ( 'NONE', #530 ) ;
#18 = CARTESIAN_POINT ( 'NONE',  ( -2.249999999999976019, 4.900000000000043876, -7.249999999999999112 ) ) ;
#19 = VECTOR ( 'NONE', #662, 1000.000000000000000 ) ;
#20 = VECTOR ( 'NONE', #713, 1000.000000000000000 ) ;
#21 = VERTEX_POINT ( 'NONE', #61 ) ;
#22 = EDGE_CURVE ( 'NONE', #455, #364, #687, .T. ) ;
#23 = DIRECTION ( 'NONE',  ( -1.000000000000000000, 4.886017300838478044E-15, 0.000000000000000000 ) ) ;
#24 = ORIENTED_EDGE ( 'NONE', *, *, #58, .F. ) ;
#25 = DIRECTION ( 'NONE',  ( -1.000000000000000000, 4.886017300838478044E-15, 0.000000000000000000 ) ) ;
#26 = DIRECTION ( 'NONE',  ( 4.886017300838478833E-15, 1.000000000000000000, -0.000000000000000000 ) ) ;
#27 = ORIENTED_EDGE ( 'NONE', *, *, #273, .T. ) ;
#28 = CARTESIAN_POINT ( 'NONE',  ( 0.2500000000000239253, 5.000000000000031974, -7.249999999999999112 ) ) ;
#29 = VECTOR ( 'NONE', #199, 1000.000000000000000 ) ;
#30 = ORIENTED_EDGE ( 'NONE', *, *, #497, .F. ) ;
#31 =( LENGTH_UNIT ( ) NAMED_UNIT ( * ) SI_UNIT ( .MILLI., .METRE. ) );
#32 = EDGE_CURVE ( 'NONE', #17, #364, #121, .T. ) ;
#33 = ORIENTED_EDGE ( 'NONE', *, *, #71, .F. ) ;
#34 = FACE_OUTER_BOUND ( 'NONE', #385, .T. ) ;
#35 = APPLICATION_PROTOCOL_DEFINITION ( 'draft international standard', 'automotive_design', 1998, #254 ) ;
#36 = VECTOR ( 'NONE', #538, 1000.000000000000000 ) ;
#37 = AXIS2_PLACEMENT_3D ( 'NONE', #730, #419, #620 ) ;
#38 = CIRCLE ( 'NONE', #50, 10.84999999999983444 ) ;
#39 = EDGE_CURVE ( 'NONE', #700, #267, #432, .T. ) ;
#40 = AXIS2_PLACEMENT_3D ( 'NONE', #663, #76, #140 ) ;
#41 = CARTESIAN_POINT ( 'NONE',  ( 0.2500000000000239253, 5.000000000000031974, -7.749999999999999112 ) ) ;
#42 = EDGE_CURVE ( 'NONE', #512, #77, #168, .T. ) ;
#43 = PLANE ( 'NONE',  #575 ) ;
#44 = DIRECTION ( 'NONE',  ( -1.000000000000000000, 4.886017300838478044E-15, 0.000000000000000000 ) ) ;
#45 = ORIENTED_EDGE ( 'NONE', *, *, #308, .T. ) ;
#46 = FACE_OUTER_BOUND ( 'NONE', #636, .T. ) ;
#47 = ORIENTED_EDGE ( 'NONE', *, *, #293, .F. ) ;
#48 = ORIENTED_EDGE ( 'NONE', *, *, #331, .T. ) ;
#49 = VECTOR ( 'NONE', #595, 1000.000000000000000 ) ;
#50 = AXIS2_PLACEMENT_3D ( 'NONE', #558, #561, #202 ) ;
#51 = FACE_OUTER_BOUND ( 'NONE', #554, .T. ) ;
#52 = DIRECTION ( 'NONE',  ( 0.000000000000000000, 0.000000000000000000, -1.000000000000000000 ) ) ;
#53 = VERTEX_POINT ( 'NONE', #415 ) ;
#54 = CARTESIAN_POINT ( 'NONE',  ( -0.2499999999999766298, 4.900000000000034106, -5.250000000000000000 ) ) ;
#55 = DIRECTION ( 'NONE',  ( -1.224646799147353207E-16, 5.983645448050432105E-31, 1.000000000000000000 ) ) ;
#56 = CARTESIAN_POINT ( 'NONE',  ( -0.2499999999999766298, 4.900000000000034106, -5.250000000000000000 ) ) ;
#57 = VERTEX_POINT ( 'NONE', #641 ) ;
#58 = EDGE_CURVE ( 'NONE', #406, #455, #359, .T. ) ;
#59 = VERTEX_POINT ( 'NONE', #287 ) ;
#60 = DIRECTION ( 'NONE',  ( 4.886017300838478044E-15, 1.000000000000000000, -0.000000000000000000 ) ) ;
#61 = CARTESIAN_POINT ( 'NONE',  ( 0.2500000000000239253, 5.000000000000031974, -7.749999999999999112 ) ) ;
#62 = ORIENTED_EDGE ( 'NONE', *, *, #286, .T. ) ;
#63 = ADVANCED_FACE ( 'NONE', ( #1 ), #374, .T. ) ;
#64 = TOROIDAL_SURFACE ( 'NONE', #109, 11.74999999999999112, 0.5000000000000000000 ) ;
#65 = CARTESIAN_POINT ( 'NONE',  ( 2.443008650419269157E-14, 5.000000000000061284, 0.000000000000000000 ) ) ;
#66 = CARTESIAN_POINT ( 'NONE',  ( 0.000000000000000000, 0.1500000000000528966, 0.000000000000000000 ) ) ;
#67 = ORIENTED_EDGE ( 'NONE', *, *, #461, .F. ) ;
#68 = ADVANCED_FACE ( 'NONE', ( #300 ), #13, .F. ) ;
#69 = FILL_AREA_STYLE ('',( #589 ) ) ;
#70 = DIRECTION ( 'NONE',  ( -4.886017300838478044E-15, -1.000000000000000000, 0.000000000000000000 ) ) ;
#71 = EDGE_CURVE ( 'NONE', #7, #259, #580, .T. ) ;
#72 = AXIS2_PLACEMENT_3D ( 'NONE', #95, #85, #207 ) ;
#73 = VECTOR ( 'NONE', #462, 1000.000000000000114 ) ;
#74 = AXIS2_PLACEMENT_3D ( 'NONE', #565, #732, #723 ) ;
#75 = ADVANCED_FACE ( 'NONE', ( #576 ), #685, .F. ) ;
#76 = DIRECTION ( 'NONE',  ( -0.000000000000000000, 0.000000000000000000, -1.000000000000000000 ) ) ;
#77 = VERTEX_POINT ( 'NONE', #522 ) ;
#78 = LINE ( 'NONE', #715, #49 ) ;
#79 = CARTESIAN_POINT ( 'NONE',  ( 2.443008650419241389E-14, 5.000000000000004441, 0.000000000000000000 ) ) ;
#80 = EDGE_LOOP ( 'NONE', ( #529, #652, #360, #714 ) ) ;
#81 = DIRECTION ( 'NONE',  ( 4.886017300838478044E-15, 1.000000000000000000, -0.000000000000000000 ) ) ;
#82 = FACE_OUTER_BOUND ( 'NONE', #162, .T. ) ;
#83 = ORIENTED_EDGE ( 'NONE', *, *, #393, .F. ) ;
#84 = CARTESIAN_POINT ( 'NONE',  ( -2.249999999999976019, 4.900000000000043876, -7.749999999999999112 ) ) ;
#85 = DIRECTION ( 'NONE',  ( -1.000000000000000000, 4.886017300838478833E-15, 2.710505431213762318E-17 ) ) ;
#86 = VECTOR ( 'NONE', #400, 1000.000000000000000 ) ;
#87 =( GEOMETRIC_REPRESENTATION_CONTEXT ( 3 ) GLOBAL_UNCERTAINTY_ASSIGNED_CONTEXT ( ( #677 ) ) GLOBAL_UNIT_ASSIGNED_CONTEXT ( ( #31, #727, #719 ) ) REPRESENTATION_CONTEXT ( 'NONE', 'WORKASPACE' ) );
#88 = ORIENTED_EDGE ( 'NONE', *, *, #404, .F. ) ;
#89 = PRESENTATION_LAYER_ASSIGNMENT (  '', '', ( #409 ) ) ;
#90 = PRODUCT ( 'CR2450', 'CR2450', '', ( #149 ) ) ;
#91 = FACE_OUTER_BOUND ( 'NONE', #583, .T. ) ;
#92 = EDGE_CURVE ( 'NONE', #358, #659, #411, .T. ) ;
#93 = EDGE_CURVE ( 'NONE', #17, #59, #134, .T. ) ;
#94 = PLANE ( 'NONE',  #445 ) ;
#95 = CARTESIAN_POINT ( 'NONE',  ( -0.2499999999999766298, 4.900000000000034106, -5.250000000000000000 ) ) ;
#96 =( NAMED_UNIT ( * ) SI_UNIT ( $, .STERADIAN. ) SOLID_ANGLE_UNIT ( ) );
#97 = AXIS2_PLACEMENT_3D ( 'NONE', #156, #60, #337 ) ;
#98 = LINE ( 'NONE', #702, #333 ) ;
#99 = CARTESIAN_POINT ( 'NONE',  ( 0.2500000000000234257, 4.900000000000032330, -7.749999999999999112 ) ) ;
#100 = PLANE ( 'NONE',  #467 ) ;
#101 = CARTESIAN_POINT ( 'NONE',  ( -12.24999999999996625, 5.000000000000063949, 0.000000000000000000 ) ) ;
#102 = ORIENTED_EDGE ( 'NONE', *, *, #250, .T. ) ;
#103 = CARTESIAN_POINT ( 'NONE',  ( 2.250000000000023537, 4.900000000000021672, -7.749999999999999112 ) ) ;
#104 = DIRECTION ( 'NONE',  ( 0.000000000000000000, 0.000000000000000000, -1.000000000000000000 ) ) ;
#105 = EDGE_CURVE ( 'NONE', #9, #57, #321, .T. ) ;
#106 = CARTESIAN_POINT ( 'NONE',  ( -2.249999999999976019, 4.900000000000043876, -7.749999999999999112 ) ) ;
#107 = VERTEX_POINT ( 'NONE', #129 ) ;
#108 = ORIENTED_EDGE ( 'NONE', *, *, #352, .T. ) ;
#109 = AXIS2_PLACEMENT_3D ( 'NONE', #241, #653, #25 ) ;
#110 = DIRECTION ( 'NONE',  ( 4.886017300838478833E-15, 1.000000000000000000, 0.000000000000000000 ) ) ;
#111 = VECTOR ( 'NONE', #590, 1000.000000000000000 ) ;
#112 = DIRECTION ( 'NONE',  ( 0.000000000000000000, 0.000000000000000000, -1.000000000000000000 ) ) ;
#113 = ORIENTED_EDGE ( 'NONE', *, *, #42, .T. ) ;
#114 = VERTEX_POINT ( 'NONE', #304 ) ;
#115 = LINE ( 'NONE', #354, #124 ) ;
#116 = ORIENTED_EDGE ( 'NONE', *, *, #504, .F. ) ;
#117 = ADVANCED_FACE ( 'NONE', ( #257 ), #362, .F. ) ;
#118 = DIRECTION ( 'NONE',  ( 4.886017300838478833E-15, 1.000000000000000000, -0.000000000000000000 ) ) ;
#119 = ORIENTED_EDGE ( 'NONE', *, *, #255, .T. ) ;
#120 = FACE_OUTER_BOUND ( 'NONE', #195, .T. ) ;
#121 = LINE ( 'NONE', #518, #407 ) ;
#122 = EDGE_CURVE ( 'NONE', #179, #659, #78, .T. ) ;
#123 = VECTOR ( 'NONE', #505, 1000.000000000000000 ) ;
#124 = VECTOR ( 'NONE', #112, 1000.000000000000000 ) ;
#125 = LINE ( 'NONE', #643, #551 ) ;
#126 = LINE ( 'NONE', #302, #433 ) ;
#127 = FACE_OUTER_BOUND ( 'NONE', #525, .T. ) ;
#128 = CARTESIAN_POINT ( 'NONE',  ( -0.2499999999999766853, 4.900000000000034106, -7.749999999999999112 ) ) ;
#129 = CARTESIAN_POINT ( 'NONE',  ( 10.84999999999983444, -1.042216968040580697E-16, 1.337926628068463074E-15 ) ) ;
#130 = CARTESIAN_POINT ( 'NONE',  ( 2.250000000000023537, 4.900000000000021672, -7.249999999999999112 ) ) ;
#131 = ORIENTED_EDGE ( 'NONE', *, *, #370, .F. ) ;
#132 = FACE_OUTER_BOUND ( 'NONE', #277, .T. ) ;
#133 = VECTOR ( 'NONE', #384, 1000.000000000000000 ) ;
#134 = LINE ( 'NONE', #194, #230 ) ;
#135 = CARTESIAN_POINT ( 'NONE',  ( 2.255140518769849223E-14, 4.500000000000062172, 0.000000000000000000 ) ) ;
#136 = ORIENTED_EDGE ( 'NONE', *, *, #12, .T. ) ;
#137 = LINE ( 'NONE', #84, #133 ) ;
#138 = CARTESIAN_POINT ( 'NONE',  ( 2.250000000000023537, 4.900000000000021672, -7.249999999999999112 ) ) ;
#139 = DIRECTION ( 'NONE',  ( 4.886017300838478044E-15, 1.000000000000000000, -0.000000000000000000 ) ) ;
#140 = DIRECTION ( 'NONE',  ( -1.000000000000000000, 0.000000000000000000, 0.000000000000000000 ) ) ;
#141 = ORIENTED_EDGE ( 'NONE', *, *, #725, .F. ) ;
#142 = CARTESIAN_POINT ( 'NONE',  ( 0.2500000000000234257, 4.900000000000032330, -7.749999999999999112 ) ) ;
#143 = SHAPE_DEFINITION_REPRESENTATION ( #741, #434 ) ;
#144 = SURFACE_SIDE_STYLE ('',( #190 ) ) ;
#145 = ORIENTED_EDGE ( 'NONE', *, *, #273, .F. ) ;
#146 = CIRCLE ( 'NONE', #571, 10.99999999999983480 ) ;
#147 = CARTESIAN_POINT ( 'NONE',  ( 10.99999999999983480, 0.1499999999999999944, 1.347111479062068289E-15 ) ) ;
#148 = EDGE_CURVE ( 'NONE', #703, #358, #422, .T. ) ;
#149 = PRODUCT_CONTEXT ( 'NONE', #154, 'mechanical' ) ;
#150 = DIRECTION ( 'NONE',  ( 4.886017300838478044E-15, 1.000000000000000000, -0.000000000000000000 ) ) ;
#151 = DIRECTION ( 'NONE',  ( 0.000000000000000000, 0.000000000000000000, -1.000000000000000000 ) ) ;
#152 = ORIENTED_EDGE ( 'NONE', *, *, #15, .T. ) ;
#153 = AXIS2_PLACEMENT_3D ( 'NONE', #226, #471, #698 ) ;
#154 = APPLICATION_CONTEXT ( 'automotive_design' ) ;
#155 = ORIENTED_EDGE ( 'NONE', *, *, #177, .T. ) ;
#156 = CARTESIAN_POINT ( 'NONE',  ( 2.443008650419269157E-14, 5.000000000000061284, 0.000000000000000000 ) ) ;
#157 = ORIENTED_EDGE ( 'NONE', *, *, #500, .T. ) ;
#158 = LINE ( 'NONE', #355, #86 ) ;
#159 = EDGE_CURVE ( 'NONE', #383, #512, #532, .T. ) ;
#160 = DIRECTION ( 'NONE',  ( 1.000000000000000000, 0.000000000000000000, 1.224646799147346305E-16 ) ) ;
#161 = CARTESIAN_POINT ( 'NONE',  ( 2.250000000000023981, 5.000000000000022204, -7.749999999999999112 ) ) ;
#162 = EDGE_LOOP ( 'NONE', ( #236, #627, #183, #664 ) ) ;
#163 = ORIENTED_EDGE ( 'NONE', *, *, #148, .T. ) ;
#164 = EDGE_CURVE ( 'NONE', #549, #466, #542, .T. ) ;
#165 = FACE_OUTER_BOUND ( 'NONE', #265, .T. ) ;
#166 = DIRECTION ( 'NONE',  ( 4.886017300838478833E-15, 1.000000000000000000, -0.000000000000000000 ) ) ;
#167 = ORIENTED_EDGE ( 'NONE', *, *, #443, .T. ) ;
#168 = LINE ( 'NONE', #348, #184 ) ;
#169 = AXIS2_PLACEMENT_3D ( 'NONE', #417, #81, #256 ) ;
#170 = FACE_OUTER_BOUND ( 'NONE', #80, .T. ) ;
#171 = ORIENTED_EDGE ( 'NONE', *, *, #725, .T. ) ;
#172 = EDGE_CURVE ( 'NONE', #201, #700, #657, .T. ) ;
#173 = CARTESIAN_POINT ( 'NONE',  ( -2.249999999999975575, 5.000000000000044409, -7.249999999999999112 ) ) ;
#174 = EDGE_LOOP ( 'NONE', ( #136, #163, #249, #157, #622, #416, #684, #578, #463, #62, #239, #240 ) ) ;
#175 = DIRECTION ( 'NONE',  ( -1.000000000000000000, 4.888766159571075678E-15, 0.000000000000000000 ) ) ;
#176 = ORIENTED_EDGE ( 'NONE', *, *, #365, .T. ) ;
#177 = EDGE_CURVE ( 'NONE', #703, #179, #418, .T. ) ;
#178 = ORIENTED_EDGE ( 'NONE', *, *, #448, .T. ) ;
#179 = VERTEX_POINT ( 'NONE', #606 ) ;
#180 = CARTESIAN_POINT ( 'NONE',  ( -10.99999999999983125, 0.4500000000001073697, 0.000000000000000000 ) ) ;
#181 = ORIENTED_EDGE ( 'NONE', *, *, #523, .F. ) ;
#182 = DIRECTION ( 'NONE',  ( -1.000000000000000000, 4.886302063724516996E-15, 0.000000000000000000 ) ) ;
#183 = ORIENTED_EDGE ( 'NONE', *, *, #15, .F. ) ;
#184 = VECTOR ( 'NONE', #694, 1000.000000000000000 ) ;
#185 = VECTOR ( 'NONE', #501, 1000.000000000000000 ) ;
#186 = SURFACE_SIDE_STYLE ('',( #477 ) ) ;
#187 = AXIS2_PLACEMENT_3D ( 'NONE', #600, #479, #188 ) ;
#188 = DIRECTION ( 'NONE',  ( -1.000000000000000000, 0.000000000000000000, 0.000000000000000000 ) ) ;
#189 = ADVANCED_FACE ( 'NONE', ( #320 ), #720, .F. ) ;
#190 = SURFACE_STYLE_FILL_AREA ( #665 ) ;
#191 = VERTEX_POINT ( 'NONE', #326 ) ;
#192 = EDGE_CURVE ( 'NONE', #659, #53, #272, .T. ) ;
#193 = DIRECTION ( 'NONE',  ( 4.886017300838478044E-15, 1.000000000000000000, -0.000000000000000000 ) ) ;
#194 = CARTESIAN_POINT ( 'NONE',  ( -0.2499999999999766298, 4.900000000000034106, -5.250000000000000000 ) ) ;
#195 = EDGE_LOOP ( 'NONE', ( #131, #297, #381, #424 ) ) ;
#196 = AXIS2_PLACEMENT_3D ( 'NONE', #212, #266, #610 ) ;
#197 = SURFACE_STYLE_USAGE ( .BOTH. , #186 ) ;
#198 = EDGE_CURVE ( 'NONE', #549, #695, #146, .T. ) ;
#199 = DIRECTION ( 'NONE',  ( -1.000000000000000000, 3.469446951953614189E-15, -0.000000000000000000 ) ) ;
#200 = CYLINDRICAL_SURFACE ( 'NONE', #378, 12.24999999999998934 ) ;
#201 = VERTEX_POINT ( 'NONE', #728 ) ;
#202 = DIRECTION ( 'NONE',  ( -1.000000000000000000, 4.886017300838478044E-15, 0.000000000000000000 ) ) ;
#203 = ORIENTED_EDGE ( 'NONE', *, *, #198, .F. ) ;
#204 = CARTESIAN_POINT ( 'NONE',  ( -0.2499999999999761580, 5.000000000000033751, -5.250000000000000000 ) ) ;
#205 = ORIENTED_EDGE ( 'NONE', *, *, #633, .F. ) ;
#206 = CARTESIAN_POINT ( 'NONE',  ( 0.2500000000000234257, 4.900000000000032330, -7.249999999999999112 ) ) ;
#207 = DIRECTION ( 'NONE',  ( -4.886017300838478833E-15, -1.000000000000000000, 0.000000000000000000 ) ) ;
#208 = AXIS2_PLACEMENT_3D ( 'NONE', #222, #8, #628 ) ;
#209 = CONICAL_SURFACE ( 'NONE', #631, 10.99999999999983302, 1.335251346074056933 ) ;
#210 = EDGE_CURVE ( 'NONE', #201, #508, #452, .T. ) ;
#211 = CYLINDRICAL_SURFACE ( 'NONE', #468, 10.99999999999983302 ) ;
#212 = CARTESIAN_POINT ( 'NONE',  ( 3.664512975629149228E-15, 0.7500000000000596190, 0.000000000000000000 ) ) ;
#213 = DIRECTION ( 'NONE',  ( 4.886017300838478044E-15, 1.000000000000000000, -0.000000000000000000 ) ) ;
#214 = CARTESIAN_POINT ( 'NONE',  ( -10.99999999999980815, 5.000000000000058620, 0.000000000000000000 ) ) ;
#215 = CARTESIAN_POINT ( 'NONE',  ( 2.443008650419241389E-14, 5.000000000000004441, 0.000000000000000000 ) ) ;
#216 = ORIENTED_EDGE ( 'NONE', *, *, #22, .T. ) ;
#217 = EDGE_CURVE ( 'NONE', #314, #21, #668, .T. ) ;
#218 = AXIS2_PLACEMENT_3D ( 'NONE', #531, #541, #427 ) ;
#219 = VECTOR ( 'NONE', #336, 1000.000000000000000 ) ;
#220 = CARTESIAN_POINT ( 'NONE',  ( 0.2500000000000234257, 4.900000000000032330, -7.249999999999999112 ) ) ;
#221 = ORIENTED_EDGE ( 'NONE', *, *, #331, .F. ) ;
#222 = CARTESIAN_POINT ( 'NONE',  ( 3.664512975629149228E-15, 0.7500000000000596190, 0.000000000000000000 ) ) ;
#223 = LINE ( 'NONE', #615, #219 ) ;
#224 = DIRECTION ( 'NONE',  ( 4.886017300838478044E-15, 1.000000000000000000, -0.000000000000000000 ) ) ;
#225 = ORIENTED_EDGE ( 'NONE', *, *, #217, .T. ) ;
#226 = CARTESIAN_POINT ( 'NONE',  ( 2.198707785377344071E-14, 4.500000000000058620, 0.000000000000000000 ) ) ;
#227 = CARTESIAN_POINT ( 'NONE',  ( 2.250000000000023981, 5.000000000000022204, -7.249999999999999112 ) ) ;
#228 = EDGE_CURVE ( 'NONE', #14, #9, #449, .T. ) ;
#229 = PLANE ( 'NONE',  #346 ) ;
#230 = VECTOR ( 'NONE', #474, 1000.000000000000000 ) ;
#231 = DIRECTION ( 'NONE',  ( 4.886017300838478044E-15, 1.000000000000000000, -0.000000000000000000 ) ) ;
#232 = ORIENTED_EDGE ( 'NONE', *, *, #148, .F. ) ;
#233 = CIRCLE ( 'NONE', #656, 0.1500000000000008271 ) ;
#234 = CIRCLE ( 'NONE', #40, 0.5000000000000004441 ) ;
#235 = CARTESIAN_POINT ( 'NONE',  ( -2.249999999999976019, 4.900000000000043876, -7.749999999999999112 ) ) ;
#236 = ORIENTED_EDGE ( 'NONE', *, *, #315, .T. ) ;
#237 = DIRECTION ( 'NONE',  ( 1.000000000000000000, -5.204170427930423650E-15, 0.000000000000000000 ) ) ;
#238 = EDGE_LOOP ( 'NONE', ( #167, #642, #323, #27 ) ) ;
#239 = ORIENTED_EDGE ( 'NONE', *, *, #228, .T. ) ;
#240 = ORIENTED_EDGE ( 'NONE', *, *, #105, .T. ) ;
#241 = CARTESIAN_POINT ( 'NONE',  ( 2.255140518769849223E-14, 4.500000000000062172, 0.000000000000000000 ) ) ;
#242 = ADVANCED_FACE ( 'NONE', ( #82 ), #444, .T. ) ;
#243 = LINE ( 'NONE', #130, #247 ) ;
#244 = VERTEX_POINT ( 'NONE', #340 ) ;
#245 = AXIS2_PLACEMENT_3D ( 'NONE', #65, #377, #699 ) ;
#246 = CARTESIAN_POINT ( 'NONE',  ( -0.2499999999999761580, 5.000000000000033751, -5.250000000000000000 ) ) ;
#247 = VECTOR ( 'NONE', #26, 1000.000000000000000 ) ;
#248 = CARTESIAN_POINT ( 'NONE',  ( -10.99999999999983480, 0.1500000000001074918, 0.000000000000000000 ) ) ;
#249 = ORIENTED_EDGE ( 'NONE', *, *, #611, .T. ) ;
#250 = EDGE_CURVE ( 'NONE', #59, #439, #520, .T. ) ;
#251 = CARTESIAN_POINT ( 'NONE',  ( 10.99999999999985789, 4.999999999999950262, 1.347111479062068091E-15 ) ) ;
#252 = FACE_OUTER_BOUND ( 'NONE', #476, .T. ) ;
#253 = ORIENTED_EDGE ( 'NONE', *, *, #308, .F. ) ;
#254 = APPLICATION_CONTEXT ( 'automotive_design' ) ;
#255 = EDGE_CURVE ( 'NONE', #301, #517, #3, .T. ) ;
#256 = DIRECTION ( 'NONE',  ( -1.000000000000000000, 4.883837967877959892E-15, 0.000000000000000000 ) ) ;
#257 = FACE_OUTER_BOUND ( 'NONE', #2, .T. ) ;
#258 = DIRECTION ( 'NONE',  ( 4.886017300838478044E-15, 1.000000000000000000, -0.000000000000000000 ) ) ;
#259 = VERTEX_POINT ( 'NONE', #410 ) ;
#260 = PLANE ( 'NONE',  #347 ) ;
#261 = AXIS2_PLACEMENT_3D ( 'NONE', #630, #350, #577 ) ;
#262 = ADVANCED_FACE ( 'NONE', ( #740 ), #229, .F. ) ;
#263 = AXIS2_PLACEMENT_3D ( 'NONE', #603, #70, #372 ) ;
#264 = APPLICATION_PROTOCOL_DEFINITION ( 'draft international standard', 'automotive_design', 1998, #154 ) ;
#265 = EDGE_LOOP ( 'NONE', ( #296, #597, #341, #601 ) ) ;
#266 = DIRECTION ( 'NONE',  ( 4.886017300838478044E-15, 1.000000000000000000, -0.000000000000000000 ) ) ;
#267 = VERTEX_POINT ( 'NONE', #749 ) ;
#268 = ADVANCED_FACE ( 'NONE', ( #170 ), #734, .T. ) ;
#269 = PRESENTATION_LAYER_ASSIGNMENT (  '', '', ( #692 ) ) ;
#270 = AXIS2_PLACEMENT_3D ( 'NONE', #515, #570, #110 ) ;
#271 = CARTESIAN_POINT ( 'NONE',  ( -0.2499999999999761580, 5.000000000000033751, -9.750000000000000000 ) ) ;
#272 = LINE ( 'NONE', #562, #629 ) ;
#273 = EDGE_CURVE ( 'NONE', #353, #53, #626, .T. ) ;
#274 = CARTESIAN_POINT ( 'NONE',  ( -0.2499999999999766853, 4.900000000000034106, -7.749999999999999112 ) ) ;
#275 = ORIENTED_EDGE ( 'NONE', *, *, #690, .F. ) ;
#276 = UNCERTAINTY_MEASURE_WITH_UNIT (LENGTH_MEASURE( 1.000000000000000082E-05 ), #506, 'distance_accuracy_value', 'NONE');
#277 = EDGE_LOOP ( 'NONE', ( #327, #693, #494, #205 ) ) ;
#278 = PLANE ( 'NONE',  #644 ) ;
#279 = ORIENTED_EDGE ( 'NONE', *, *, #250, .F. ) ;
#280 = AXIS2_PLACEMENT_3D ( 'NONE', #54, #291, #746 ) ;
#281 = VECTOR ( 'NONE', #696, 1000.000000000000000 ) ;
#282 = DIRECTION ( 'NONE',  ( 4.886017300838478833E-15, 1.000000000000000000, -0.000000000000000000 ) ) ;
#283 = CARTESIAN_POINT ( 'NONE',  ( 10.84999999999983444, 0.1499999999999998834, 1.328741777074857859E-15 ) ) ;
#284 = LINE ( 'NONE', #101, #454 ) ;
#285 = ORIENTED_EDGE ( 'NONE', *, *, #473, .F. ) ;
#286 = EDGE_CURVE ( 'NONE', #383, #14, #344, .T. ) ;
#287 = CARTESIAN_POINT ( 'NONE',  ( -0.2499999999999766298, 4.900000000000034106, -5.250000000000000000 ) ) ;
#288 = DIRECTION ( 'NONE',  ( 4.886017300838478044E-15, 1.000000000000000000, -0.000000000000000000 ) ) ;
#289 = CARTESIAN_POINT ( 'NONE',  ( 2.198707785377577416E-15, 0.4500000000000536349, 0.000000000000000000 ) ) ;
#290 = EDGE_LOOP ( 'NONE', ( #216, #356, #275, #582 ) ) ;
#291 = DIRECTION ( 'NONE',  ( 0.000000000000000000, 0.000000000000000000, 1.000000000000000000 ) ) ;
#292 = ORIENTED_EDGE ( 'NONE', *, *, #164, .F. ) ;
#293 = EDGE_CURVE ( 'NONE', #508, #267, #284, .T. ) ;
#294 = DIRECTION ( 'NONE',  ( 1.000000000000000000, -5.204170427930421283E-15, 0.000000000000000000 ) ) ;
#295 = ORIENTED_EDGE ( 'NONE', *, *, #92, .T. ) ;
#296 = ORIENTED_EDGE ( 'NONE', *, *, #523, .T. ) ;
#297 = ORIENTED_EDGE ( 'NONE', *, *, #39, .T. ) ;
#298 = CIRCLE ( 'NONE', #261, 0.5000000000000004441 ) ;
#299 = PLANE ( 'NONE',  #387 ) ;
#300 = FACE_OUTER_BOUND ( 'NONE', #174, .T. ) ;
#301 = VERTEX_POINT ( 'NONE', #617 ) ;
#302 = CARTESIAN_POINT ( 'NONE',  ( -0.2499999999999766298, 4.900000000000034106, -5.250000000000000000 ) ) ;
#303 = ADVANCED_FACE ( 'NONE', ( #46 ), #675, .F. ) ;
#304 = CARTESIAN_POINT ( 'NONE',  ( -2.249999999999975575, 5.000000000000044409, -7.749999999999999112 ) ) ;
#305 = SURFACE_STYLE_USAGE ( .BOTH. , #144 ) ;
#306 = ORIENTED_EDGE ( 'NONE', *, *, #286, .F. ) ;
#307 = CARTESIAN_POINT ( 'NONE',  ( -2.249999999999976019, 4.900000000000043876, -7.249999999999999112 ) ) ;
#308 = EDGE_CURVE ( 'NONE', #259, #512, #458, .T. ) ;
#309 = CARTESIAN_POINT ( 'NONE',  ( 2.250000000000023537, 4.900000000000021672, -7.749999999999999112 ) ) ;
#310 = ORIENTED_EDGE ( 'NONE', *, *, #105, .F. ) ;
#311 = VECTOR ( 'NONE', #5, 1000.000000000000000 ) ;
#312 = MECHANICAL_DESIGN_GEOMETRIC_PRESENTATION_REPRESENTATION (  '', ( #409 ), #718 ) ;
#313 = DIRECTION ( 'NONE',  ( 4.886017300838478833E-15, 1.000000000000000000, -0.000000000000000000 ) ) ;
#314 = VERTEX_POINT ( 'NONE', #161 ) ;
#315 = EDGE_CURVE ( 'NONE', #470, #466, #526, .T. ) ;
#316 = DIRECTION ( 'NONE',  ( 1.000000000000000000, -3.469446951953614189E-15, 0.000000000000000000 ) ) ;
#317 = DIRECTION ( 'NONE',  ( 1.000000000000000000, -5.204170427930423650E-15, 0.000000000000000000 ) ) ;
#318 = ORIENTED_EDGE ( 'NONE', *, *, #32, .T. ) ;
#319 = LINE ( 'NONE', #142, #598 ) ;
#320 = FACE_OUTER_BOUND ( 'NONE', #682, .T. ) ;
#321 = LINE ( 'NONE', #435, #536 ) ;
#322 =( NAMED_UNIT ( * ) PLANE_ANGLE_UNIT ( ) SI_UNIT ( $, .RADIAN. ) );
#323 = ORIENTED_EDGE ( 'NONE', *, *, #500, .F. ) ;
#324 = CIRCLE ( 'NONE', #245, 11.74999999999998579 ) ;
#325 = VECTOR ( 'NONE', #317, 1000.000000000000000 ) ;
#326 = CARTESIAN_POINT ( 'NONE',  ( -10.84999999999983444, 1.059223537313892871E-13, 0.000000000000000000 ) ) ;
#327 = ORIENTED_EDGE ( 'NONE', *, *, #655, .T. ) ;
#328 = CARTESIAN_POINT ( 'NONE',  ( -11.74999999999996270, 5.000000000000119016, 0.000000000000000000 ) ) ;
#329 = EDGE_LOOP ( 'NONE', ( #521, #480, #566, #442 ) ) ;
#330 = DIRECTION ( 'NONE',  ( 0.000000000000000000, 0.000000000000000000, -1.000000000000000000 ) ) ;
#331 = EDGE_CURVE ( 'NONE', #21, #179, #115, .T. ) ;
#332 = CARTESIAN_POINT ( 'NONE',  ( -2.249999999999976019, 4.900000000000043876, -7.249999999999999112 ) ) ;
#333 = VECTOR ( 'NONE', #363, 1000.000000000000000 ) ;
#334 = VECTOR ( 'NONE', #733, 1000.000000000000000 ) ;
#335 = ADVANCED_FACE ( 'NONE', ( #516 ), #278, .F. ) ;
#336 = DIRECTION ( 'NONE',  ( -0.000000000000000000, -0.000000000000000000, 1.000000000000000000 ) ) ;
#337 = DIRECTION ( 'NONE',  ( -1.000000000000000000, 4.871989336785932014E-15, 0.000000000000000000 ) ) ;
#338 = ORIENTED_EDGE ( 'NONE', *, *, #210, .F. ) ;
#339 = ORIENTED_EDGE ( 'NONE', *, *, #711, .T. ) ;
#340 = CARTESIAN_POINT ( 'NONE',  ( -2.249999999999976019, 4.900000000000043876, -7.749999999999999112 ) ) ;
#341 = ORIENTED_EDGE ( 'NONE', *, *, #655, .F. ) ;
#342 = DIRECTION ( 'NONE',  ( -1.000000000000000000, 4.886017300838478044E-15, 0.000000000000000000 ) ) ;
#343 = DIRECTION ( 'NONE',  ( 1.000000000000000000, -4.886017300838478833E-15, 0.000000000000000000 ) ) ;
#344 = LINE ( 'NONE', #220, #4 ) ;
#345 = ORIENTED_EDGE ( 'NONE', *, *, #633, .T. ) ;
#346 = AXIS2_PLACEMENT_3D ( 'NONE', #235, #151, #691 ) ;
#347 = AXIS2_PLACEMENT_3D ( 'NONE', #206, #492, #495 ) ;
#348 = CARTESIAN_POINT ( 'NONE',  ( 0.2500000000000239253, 5.000000000000031974, -7.249999999999999112 ) ) ;
#349 = VECTOR ( 'NONE', #104, 1000.000000000000000 ) ;
#350 = DIRECTION ( 'NONE',  ( -1.224646799147353207E-16, 5.983645448050432105E-31, 1.000000000000000000 ) ) ;
#351 = ORIENTED_EDGE ( 'NONE', *, *, #192, .F. ) ;
#352 = EDGE_CURVE ( 'NONE', #244, #114, #402, .T. ) ;
#353 = VERTEX_POINT ( 'NONE', #274 ) ;
#354 = CARTESIAN_POINT ( 'NONE',  ( 0.2500000000000239253, 5.000000000000031974, -7.749999999999999112 ) ) ;
#355 = CARTESIAN_POINT ( 'NONE',  ( 0.2500000000000234257, 4.900000000000032330, -7.749999999999999112 ) ) ;
#356 = ORIENTED_EDGE ( 'NONE', *, *, #32, .F. ) ;
#357 = CARTESIAN_POINT ( 'NONE',  ( -2.249999999999975575, 5.000000000000044409, -7.249999999999999112 ) ) ;
#358 = VERTEX_POINT ( 'NONE', #581 ) ;
#359 = LINE ( 'NONE', #469, #705 ) ;
#360 = ORIENTED_EDGE ( 'NONE', *, *, #293, .T. ) ;
#361 = LINE ( 'NONE', #585, #573 ) ;
#362 = PLANE ( 'NONE',  #375 ) ;
#363 = DIRECTION ( 'NONE',  ( -2.710505431213759852E-17, -0.000000000000000000, 1.000000000000000000 ) ) ;
#364 = VERTEX_POINT ( 'NONE', #680 ) ;
#365 = EDGE_CURVE ( 'NONE', #470, #508, #686, .T. ) ;
#366 = CARTESIAN_POINT ( 'NONE',  ( 2.198707785377344071E-14, 4.500000000000058620, 0.000000000000000000 ) ) ;
#367 = CARTESIAN_POINT ( 'NONE',  ( -0.2499999999999766298, 4.900000000000034106, -9.750000000000000000 ) ) ;
#368 = PLANE ( 'NONE',  #263 ) ;
#369 = DIRECTION ( 'NONE',  ( -4.886017300838478833E-15, -1.000000000000000000, 0.000000000000000000 ) ) ;
#370 = EDGE_CURVE ( 'NONE', #700, #301, #298, .T. ) ;
#371 = CARTESIAN_POINT ( 'NONE',  ( 0.2500000000000234257, 4.900000000000032330, -7.249999999999999112 ) ) ;
#372 = DIRECTION ( 'NONE',  ( 1.000000000000000000, -4.886017300838478044E-15, 0.000000000000000000 ) ) ;
#373 = ORIENTED_EDGE ( 'NONE', *, *, #497, .T. ) ;
#374 = TOROIDAL_SURFACE ( 'NONE', #689, 10.84999999999983444, 0.1500000000000003830 ) ;
#375 = AXIS2_PLACEMENT_3D ( 'NONE', #429, #380, #487 ) ;
#376 = VECTOR ( 'NONE', #635, 1000.000000000000000 ) ;
#377 = DIRECTION ( 'NONE',  ( 4.886017300838478044E-15, 1.000000000000000000, -0.000000000000000000 ) ) ;
#378 = AXIS2_PLACEMENT_3D ( 'NONE', #79, #488, #543 ) ;
#379 = PRODUCT_DEFINITION ( 'UNKNOWN', '', #671, #623 ) ;
#380 = DIRECTION ( 'NONE',  ( 0.000000000000000000, 0.000000000000000000, -1.000000000000000000 ) ) ;
#381 = ORIENTED_EDGE ( 'NONE', *, *, #736, .T. ) ;
#382 = DIRECTION ( 'NONE',  ( 0.000000000000000000, 0.000000000000000000, -1.000000000000000000 ) ) ;
#383 = VERTEX_POINT ( 'NONE', #594 ) ;
#384 = DIRECTION ( 'NONE',  ( -1.000000000000000000, 5.204170427930423650E-15, -0.000000000000000000 ) ) ;
#385 = EDGE_LOOP ( 'NONE', ( #292, #588, #345, #285 ) ) ;
#386 = EDGE_CURVE ( 'NONE', #59, #7, #126, .T. ) ;
#387 = AXIS2_PLACEMENT_3D ( 'NONE', #128, #484, #369 ) ;
#388 = DIRECTION ( 'NONE',  ( -2.710505431213759852E-17, -0.000000000000000000, 1.000000000000000000 ) ) ;
#389 = ORIENTED_EDGE ( 'NONE', *, *, #425, .F. ) ;
#390 = LINE ( 'NONE', #204, #185 ) ;
#391 = DIRECTION ( 'NONE',  ( -1.000000000000000000, 4.888766159571075678E-15, 0.000000000000000000 ) ) ;
#392 = DIRECTION ( 'NONE',  ( -1.000000000000000000, 4.886302063724516996E-15, 0.000000000000000000 ) ) ;
#393 = EDGE_CURVE ( 'NONE', #267, #700, #614, .T. ) ;
#394 = DIRECTION ( 'NONE',  ( -1.000000000000000000, 4.883837967877959892E-15, 0.000000000000000000 ) ) ;
#395 = CIRCLE ( 'NONE', #218, 10.84999999999983444 ) ;
#396 = ORIENTED_EDGE ( 'NONE', *, *, #159, .F. ) ;
#397 = FACE_OUTER_BOUND ( 'NONE', #557, .T. ) ;
#398 = DIRECTION ( 'NONE',  ( -1.000000000000000000, 4.885547748669379687E-15, 0.000000000000000000 ) ) ;
#399 = ORIENTED_EDGE ( 'NONE', *, *, #602, .F. ) ;
#400 = DIRECTION ( 'NONE',  ( 0.000000000000000000, 0.000000000000000000, -1.000000000000000000 ) ) ;
#401 = DIRECTION ( 'NONE',  ( 4.886017300838478833E-15, 1.000000000000000000, 0.000000000000000000 ) ) ;
#402 = LINE ( 'NONE', #106, #420 ) ;
#403 = ORIENTED_EDGE ( 'NONE', *, *, #42, .F. ) ;
#404 = EDGE_CURVE ( 'NONE', #466, #201, #125, .T. ) ;
#405 = DIRECTION ( 'NONE',  ( 4.886017300838478044E-15, 1.000000000000000000, -0.000000000000000000 ) ) ;
#406 = VERTEX_POINT ( 'NONE', #307 ) ;
#407 = VECTOR ( 'NONE', #118, 1000.000000000000000 ) ;
#408 = CARTESIAN_POINT ( 'NONE',  ( 0.2500000000000234257, 4.900000000000032330, -5.250000000000000000 ) ) ;
#409 = STYLED_ITEM ( 'NONE', ( #533 ), #434 ) ;
#410 = CARTESIAN_POINT ( 'NONE',  ( 0.2500000000000239253, 5.000000000000031974, -5.250000000000000000 ) ) ;
#411 = LINE ( 'NONE', #638, #36 ) ;
#412 = ORIENTED_EDGE ( 'NONE', *, *, #553, .F. ) ;
#413 = CYLINDRICAL_SURFACE ( 'NONE', #706, 10.99999999999983302 ) ;
#414 = ORIENTED_EDGE ( 'NONE', *, *, #386, .F. ) ;
#415 = CARTESIAN_POINT ( 'NONE',  ( -0.2499999999999762135, 5.000000000000033751, -7.749999999999999112 ) ) ;
#416 = ORIENTED_EDGE ( 'NONE', *, *, #690, .T. ) ;
#417 = CARTESIAN_POINT ( 'NONE',  ( 2.198707785377577416E-15, 0.4500000000000536349, 0.000000000000000000 ) ) ;
#418 = LINE ( 'NONE', #503, #478 ) ;
#419 = DIRECTION ( 'NONE',  ( 4.886017300838478044E-15, 1.000000000000000000, -0.000000000000000000 ) ) ;
#420 = VECTOR ( 'NONE', #166, 1000.000000000000000 ) ;
#421 =( GEOMETRIC_REPRESENTATION_CONTEXT ( 3 ) GLOBAL_UNCERTAINTY_ASSIGNED_CONTEXT ( ( #729 ) ) GLOBAL_UNIT_ASSIGNED_CONTEXT ( ( #658, #322, #593 ) ) REPRESENTATION_CONTEXT ( 'NONE', 'WORKASPACE' ) );
#422 = LINE ( 'NONE', #367, #29 ) ;
#423 = FACE_OUTER_BOUND ( 'NONE', #591, .T. ) ;
#424 = ORIENTED_EDGE ( 'NONE', *, *, #255, .F. ) ;
#425 = EDGE_CURVE ( 'NONE', #244, #406, #535, .T. ) ;
#426 = EDGE_LOOP ( 'NONE', ( #373, #33, #414, #102 ) ) ;
#427 = DIRECTION ( 'NONE',  ( -1.000000000000000000, 4.886017300838478044E-15, 0.000000000000000000 ) ) ;
#428 = ADVANCED_FACE ( 'NONE', ( #132 ), #413, .T. ) ;
#429 = CARTESIAN_POINT ( 'NONE',  ( -0.2499999999999766298, 4.900000000000034106, -9.750000000000000000 ) ) ;
#430 = CARTESIAN_POINT ( 'NONE',  ( -2.249999999999976019, 4.900000000000043876, -7.249999999999999112 ) ) ;
#431 = ORIENTED_EDGE ( 'NONE', *, *, #701, .T. ) ;
#432 = CIRCLE ( 'NONE', #153, 12.24999999999999112 ) ;
#433 = VECTOR ( 'NONE', #316, 1000.000000000000000 ) ;
#434 = ADVANCED_BREP_SHAPE_REPRESENTATION ( 'CR2450', ( #472, #74 ), #421 ) ;
#435 = CARTESIAN_POINT ( 'NONE',  ( 0.2500000000000234257, 4.900000000000032330, -7.749999999999999112 ) ) ;
#436 = DIRECTION ( 'NONE',  ( -1.000000000000000000, 4.886017300838478833E-15, 0.000000000000000000 ) ) ;
#437 = ORIENTED_EDGE ( 'NONE', *, *, #159, .T. ) ;
#438 = LINE ( 'NONE', #667, #481 ) ;
#439 = VERTEX_POINT ( 'NONE', #246 ) ;
#440 = ADVANCED_FACE ( 'NONE', ( #10 ), #299, .F. ) ;
#441 = DIRECTION ( 'NONE',  ( 4.886017300838478833E-15, 1.000000000000000000, 0.000000000000000000 ) ) ;
#442 = ORIENTED_EDGE ( 'NONE', *, *, #676, .T. ) ;
#443 = EDGE_CURVE ( 'NONE', #53, #114, #361, .T. ) ;
#444 = CONICAL_SURFACE ( 'NONE', #688, 10.99999999999983302, 1.335251346074056933 ) ;
#445 = AXIS2_PLACEMENT_3D ( 'NONE', #332, #475, #739 ) ;
#446 = CIRCLE ( 'NONE', #187, 0.1500000000000008271 ) ;
#447 = CARTESIAN_POINT ( 'NONE',  ( 2.443008650419241389E-14, 5.000000000000004441, 0.000000000000000000 ) ) ;
#448 = EDGE_CURVE ( 'NONE', #107, #191, #395, .T. ) ;
#449 = LINE ( 'NONE', #138, #550 ) ;
#450 = ADVANCED_FACE ( 'NONE', ( #120 ), #64, .T. ) ;
#451 = LINE ( 'NONE', #214, #334 ) ;
#452 = CIRCLE ( 'NONE', #196, 12.24999999999998757 ) ;
#453 = CARTESIAN_POINT ( 'NONE',  ( -0.2499999999999766853, 4.900000000000034106, -7.749999999999999112 ) ) ;
#454 = VECTOR ( 'NONE', #621, 1000.000000000000000 ) ;
#455 = VERTEX_POINT ( 'NONE', #357 ) ;
#456 = CARTESIAN_POINT ( 'NONE',  ( 1.685863302968433752E-14, 4.900000000000033218, 0.000000000000000000 ) ) ;
#457 = CARTESIAN_POINT ( 'NONE',  ( 0.2500000000000234257, 4.900000000000032330, -5.250000000000000000 ) ) ;
#458 = LINE ( 'NONE', #465, #376 ) ;
#459 = ORIENTED_EDGE ( 'NONE', *, *, #736, .F. ) ;
#460 = DIRECTION ( 'NONE',  ( -3.469446951953614189E-15, -1.000000000000000000, 0.000000000000000000 ) ) ;
#461 = EDGE_CURVE ( 'NONE', #517, #301, #324, .T. ) ;
#462 = DIRECTION ( 'NONE',  ( -0.9723873019805218121, 0.2333729524753059004, 0.000000000000000000 ) ) ;
#463 = ORIENTED_EDGE ( 'NONE', *, *, #553, .T. ) ;
#464 = CARTESIAN_POINT ( 'NONE',  ( 2.250000000000023537, 4.900000000000021672, -7.249999999999999112 ) ) ;
#465 = CARTESIAN_POINT ( 'NONE',  ( 0.2500000000000239253, 5.000000000000031974, -5.250000000000000000 ) ) ;
#466 = VERTEX_POINT ( 'NONE', #704 ) ;
#467 = AXIS2_PLACEMENT_3D ( 'NONE', #457, #343, #401 ) ;
#468 = AXIS2_PLACEMENT_3D ( 'NONE', #447, #150, #391 ) ;
#469 = CARTESIAN_POINT ( 'NONE',  ( -2.249999999999976019, 4.900000000000043876, -7.249999999999999112 ) ) ;
#470 = VERTEX_POINT ( 'NONE', #180 ) ;
#471 = DIRECTION ( 'NONE',  ( 4.886017300838478044E-15, 1.000000000000000000, -0.000000000000000000 ) ) ;
#472 = MANIFOLD_SOLID_BREP ( 'Cut-Extrude1', #737 ) ;
#473 = EDGE_CURVE ( 'NONE', #466, #470, #511, .T. ) ;
#474 = DIRECTION ( 'NONE',  ( 2.710505431213762318E-17, -0.000000000000000000, 1.000000000000000000 ) ) ;
#475 = DIRECTION ( 'NONE',  ( 0.000000000000000000, 0.000000000000000000, 1.000000000000000000 ) ) ;
#476 = EDGE_LOOP ( 'NONE', ( #152, #724, #83, #47 ) ) ;
#477 = SURFACE_STYLE_FILL_AREA ( #69 ) ;
#478 = VECTOR ( 'NONE', #609, 1000.000000000000000 ) ;
#479 = DIRECTION ( 'NONE',  ( -0.000000000000000000, 0.000000000000000000, -1.000000000000000000 ) ) ;
#480 = ORIENTED_EDGE ( 'NONE', *, *, #701, .F. ) ;
#481 = VECTOR ( 'NONE', #330, 1000.000000000000000 ) ;
#482 = DIRECTION ( 'NONE',  ( 4.886017300838478044E-15, 1.000000000000000000, -0.000000000000000000 ) ) ;
#483 = ORIENTED_EDGE ( 'NONE', *, *, #661, .F. ) ;
#484 = DIRECTION ( 'NONE',  ( -1.000000000000000000, 4.886017300838478833E-15, -2.710505431213760161E-17 ) ) ;
#485 = FACE_BOUND ( 'NONE', #632, .T. ) ;
#486 = EDGE_LOOP ( 'NONE', ( #88, #574, #176, #338 ) ) ;
#487 = DIRECTION ( 'NONE',  ( -1.000000000000000000, 0.000000000000000000, -0.000000000000000000 ) ) ;
#488 = DIRECTION ( 'NONE',  ( 4.886017300838478044E-15, 1.000000000000000000, -0.000000000000000000 ) ) ;
#489 = EDGE_LOOP ( 'NONE', ( #742, #24, #389, #108 ) ) ;
#490 = VECTOR ( 'NONE', #313, 1000.000000000000000 ) ;
#491 = MECHANICAL_DESIGN_GEOMETRIC_PRESENTATION_REPRESENTATION (  '', ( #692 ), #87 ) ;
#492 = DIRECTION ( 'NONE',  ( 0.000000000000000000, 0.000000000000000000, 1.000000000000000000 ) ) ;
#493 = FILL_AREA_STYLE_COLOUR ( '', #660 ) ;
#494 = ORIENTED_EDGE ( 'NONE', *, *, #315, .F. ) ;
#495 = DIRECTION ( 'NONE',  ( 1.000000000000000000, 0.000000000000000000, -0.000000000000000000 ) ) ;
#496 =( NAMED_UNIT ( * ) PLANE_ANGLE_UNIT ( ) SI_UNIT ( $, .RADIAN. ) );
#497 = EDGE_CURVE ( 'NONE', #439, #259, #390, .T. ) ;
#498 = ORIENTED_EDGE ( 'NONE', *, *, #504, .T. ) ;
#499 = PLANE ( 'NONE',  #670 ) ;
#500 = EDGE_CURVE ( 'NONE', #353, #244, #137, .T. ) ;
#501 = DIRECTION ( 'NONE',  ( 1.000000000000000000, -3.469446951953614189E-15, 0.000000000000000000 ) ) ;
#502 = COLOUR_RGB ( '',0.7921568627450980005, 0.8196078431372548767, 0.9333333333333333481 ) ;
#503 = CARTESIAN_POINT ( 'NONE',  ( 0.2500000000000234257, 4.900000000000032330, -9.750000000000000000 ) ) ;
#504 = EDGE_CURVE ( 'NONE', #57, #21, #319, .T. ) ;
#505 = DIRECTION ( 'NONE',  ( -1.000000000000000000, 5.204170427930421283E-15, -0.000000000000000000 ) ) ;
#506 =( LENGTH_UNIT ( ) NAMED_UNIT ( * ) SI_UNIT ( .MILLI., .METRE. ) );
#507 = DIRECTION ( 'NONE',  ( -1.000000000000000000, 4.883837967877959892E-15, 0.000000000000000000 ) ) ;
#508 = VERTEX_POINT ( 'NONE', #605 ) ;
#509 = CIRCLE ( 'NONE', #208, 12.24999999999998757 ) ;
#510 = DIRECTION ( 'NONE',  ( 4.886017300838478044E-15, 1.000000000000000000, -0.000000000000000000 ) ) ;
#511 = CIRCLE ( 'NONE', #169, 10.99999999999983302 ) ;
#512 = VERTEX_POINT ( 'NONE', #28 ) ;
#513 = ADVANCED_FACE ( 'NONE', ( #91 ), #260, .F. ) ;
#514 = ORIENTED_EDGE ( 'NONE', *, *, #92, .F. ) ;
#515 = CARTESIAN_POINT ( 'NONE',  ( 0.2500000000000234257, 4.900000000000032330, -7.749999999999999112 ) ) ;
#516 = FACE_OUTER_BOUND ( 'NONE', #750, .T. ) ;
#517 = VERTEX_POINT ( 'NONE', #328 ) ;
#518 = CARTESIAN_POINT ( 'NONE',  ( -0.2499999999999766853, 4.900000000000034106, -7.249999999999999112 ) ) ;
#519 = LINE ( 'NONE', #227, #349 ) ;
#520 = LINE ( 'NONE', #56, #654 ) ;
#521 = ORIENTED_EDGE ( 'NONE', *, *, #619, .T. ) ;
#522 = CARTESIAN_POINT ( 'NONE',  ( 2.250000000000023981, 5.000000000000022204, -7.249999999999999112 ) ) ;
#523 = EDGE_CURVE ( 'NONE', #191, #107, #38, .T. ) ;
#524 = DIRECTION ( 'NONE',  ( -1.000000000000000000, 0.000000000000000000, -0.000000000000000000 ) ) ;
#525 = EDGE_LOOP ( 'NONE', ( #534, #119 ) ) ;
#526 = CIRCLE ( 'NONE', #560, 10.99999999999983302 ) ;
#527 = CARTESIAN_POINT ( 'NONE',  ( 0.2500000000000234257, 4.900000000000032330, -5.250000000000000000 ) ) ;
#528 = ORIENTED_EDGE ( 'NONE', *, *, #393, .T. ) ;
#529 = ORIENTED_EDGE ( 'NONE', *, *, #172, .F. ) ;
#530 = CARTESIAN_POINT ( 'NONE',  ( -0.2499999999999766853, 4.900000000000034106, -7.249999999999999112 ) ) ;
#531 = CARTESIAN_POINT ( 'NONE',  ( 2.588449845256444987E-28, 5.290906601729261638E-14, 0.000000000000000000 ) ) ;
#532 = LINE ( 'NONE', #371, #490 ) ;
#533 = PRESENTATION_STYLE_ASSIGNMENT (( #305 ) ) ;
#534 = ORIENTED_EDGE ( 'NONE', *, *, #461, .T. ) ;
#535 = LINE ( 'NONE', #18, #281 ) ;
#536 = VECTOR ( 'NONE', #710, 1000.000000000000000 ) ;
#537 = ADVANCED_FACE ( 'NONE', ( #555 ), #499, .F. ) ;
#538 = DIRECTION ( 'NONE',  ( 4.886017300838478833E-15, 1.000000000000000000, -0.000000000000000000 ) ) ;
#539 = CARTESIAN_POINT ( 'NONE',  ( -0.2499999999999761580, 5.000000000000033751, -5.250000000000000000 ) ) ;
#540 = TOROIDAL_SURFACE ( 'NONE', #37, 10.84999999999983444, 0.1500000000000003830 ) ;
#541 = DIRECTION ( 'NONE',  ( 4.886017300838478044E-15, 1.000000000000000000, -0.000000000000000000 ) ) ;
#542 = LINE ( 'NONE', #251, #19 ) ;
#543 = DIRECTION ( 'NONE',  ( -1.000000000000000000, 4.885547748669379687E-15, 0.000000000000000000 ) ) ;
#544 = ORIENTED_EDGE ( 'NONE', *, *, #22, .F. ) ;
#545 = CARTESIAN_POINT ( 'NONE',  ( 12.25000000000001421, 4.499999999999999112, 1.500192328955507734E-15 ) ) ;
#546 = ORIENTED_EDGE ( 'NONE', *, *, #443, .F. ) ;
#547 = DIRECTION ( 'NONE',  ( 4.886017300838478833E-15, 1.000000000000000000, -0.000000000000000000 ) ) ;
#548 = CARTESIAN_POINT ( 'NONE',  ( 7.329025951260338057E-16, 0.1500000000000537292, 0.000000000000000000 ) ) ;
#549 = VERTEX_POINT ( 'NONE', #147 ) ;
#550 = VECTOR ( 'NONE', #382, 1000.000000000000000 ) ;
#551 = VECTOR ( 'NONE', #640, 1000.000000000000114 ) ;
#552 = CIRCLE ( 'NONE', #616, 10.99999999999983480 ) ;
#553 = EDGE_CURVE ( 'NONE', #7, #383, #438, .T. ) ;
#554 = EDGE_LOOP ( 'NONE', ( #45, #396, #412, #604 ) ) ;
#555 = FACE_OUTER_BOUND ( 'NONE', #329, .T. ) ;
#556 = ADVANCED_FACE ( 'NONE', ( #34 ), #211, .T. ) ;
#557 = EDGE_LOOP ( 'NONE', ( #48, #634, #607, #498 ) ) ;
#558 = CARTESIAN_POINT ( 'NONE',  ( 2.588449845256444987E-28, 5.290906601729261638E-14, 0.000000000000000000 ) ) ;
#559 = VECTOR ( 'NONE', #282, 1000.000000000000000 ) ;
#560 = AXIS2_PLACEMENT_3D ( 'NONE', #744, #564, #507 ) ;
#561 = DIRECTION ( 'NONE',  ( 4.886017300838478044E-15, 1.000000000000000000, -0.000000000000000000 ) ) ;
#562 = CARTESIAN_POINT ( 'NONE',  ( -0.2499999999999762135, 5.000000000000033751, -7.749999999999999112 ) ) ;
#563 = FACE_OUTER_BOUND ( 'NONE', #489, .T. ) ;
#564 = DIRECTION ( 'NONE',  ( 4.886017300838478044E-15, 1.000000000000000000, -0.000000000000000000 ) ) ;
#565 = CARTESIAN_POINT ( 'NONE',  ( 0.000000000000000000, 0.000000000000000000, 0.000000000000000000 ) ) ;
#566 = ORIENTED_EDGE ( 'NONE', *, *, #228, .F. ) ;
#567 = ADVANCED_FACE ( 'NONE', ( #612 ), #94, .F. ) ;
#568 = DIRECTION ( 'NONE',  ( 4.886017300838478833E-15, 1.000000000000000000, -0.000000000000000000 ) ) ;
#569 = DIRECTION ( 'NONE',  ( 4.886017300838478833E-15, 1.000000000000000000, -0.000000000000000000 ) ) ;
#570 = DIRECTION ( 'NONE',  ( 1.000000000000000000, -4.886017300838478833E-15, 0.000000000000000000 ) ) ;
#571 = AXIS2_PLACEMENT_3D ( 'NONE', #548, #213, #392 ) ;
#572 = CARTESIAN_POINT ( 'NONE',  ( -10.99999999999983125, 0.4500000000001073697, 0.000000000000000000 ) ) ;
#573 = VECTOR ( 'NONE', #712, 1000.000000000000000 ) ;
#574 = ORIENTED_EDGE ( 'NONE', *, *, #473, .T. ) ;
#575 = AXIS2_PLACEMENT_3D ( 'NONE', #596, #436, #16 ) ;
#576 = FACE_OUTER_BOUND ( 'NONE', #426, .T. ) ;
#577 = DIRECTION ( 'NONE',  ( 1.000000000000000000, 0.000000000000000000, 1.224646799147353454E-16 ) ) ;
#578 = ORIENTED_EDGE ( 'NONE', *, *, #386, .T. ) ;
#579 = ADVANCED_FACE ( 'NONE', ( #165 ), #540, .T. ) ;
#580 = LINE ( 'NONE', #408, #559 ) ;
#581 = CARTESIAN_POINT ( 'NONE',  ( -0.2499999999999766298, 4.900000000000034106, -9.750000000000000000 ) ) ;
#582 = ORIENTED_EDGE ( 'NONE', *, *, #58, .T. ) ;
#583 = EDGE_LOOP ( 'NONE', ( #113, #618, #306, #437 ) ) ;
#584 = ADVANCED_FACE ( 'NONE', ( #679 ), #209, .T. ) ;
#585 = CARTESIAN_POINT ( 'NONE',  ( -2.249999999999975575, 5.000000000000044409, -7.749999999999999112 ) ) ;
#586 = VECTOR ( 'NONE', #139, 1000.000000000000000 ) ;
#587 = AXIS2_PLACEMENT_3D ( 'NONE', #366, #193, #648 ) ;
#588 = ORIENTED_EDGE ( 'NONE', *, *, #198, .T. ) ;
#589 = FILL_AREA_STYLE_COLOUR ( '', #502 ) ;
#590 = DIRECTION ( 'NONE',  ( 2.710505431213762318E-17, -0.000000000000000000, 1.000000000000000000 ) ) ;
#591 = EDGE_LOOP ( 'NONE', ( #528, #647, #67, #459 ) ) ;
#592 = ADVANCED_FACE ( 'NONE', ( #51 ), #100, .F. ) ;
#593 =( NAMED_UNIT ( * ) SI_UNIT ( $, .STERADIAN. ) SOLID_ANGLE_UNIT ( ) );
#594 = CARTESIAN_POINT ( 'NONE',  ( 0.2500000000000234257, 4.900000000000032330, -7.249999999999999112 ) ) ;
#595 = DIRECTION ( 'NONE',  ( -1.000000000000000000, 3.469446951953614189E-15, -0.000000000000000000 ) ) ;
#596 = CARTESIAN_POINT ( 'NONE',  ( -2.249999999999976019, 4.900000000000043876, -7.249999999999999112 ) ) ;
#597 = ORIENTED_EDGE ( 'NONE', *, *, #602, .T. ) ;
#598 = VECTOR ( 'NONE', #547, 1000.000000000000000 ) ;
#599 = CARTESIAN_POINT ( 'NONE',  ( 12.25000000000001421, 4.999999999999944933, 1.500192328955506551E-15 ) ) ;
#600 = CARTESIAN_POINT ( 'NONE',  ( -10.84999999999983444, 0.1500000000001059097, 0.000000000000000000 ) ) ;
#601 = ORIENTED_EDGE ( 'NONE', *, *, #711, .F. ) ;
#602 = EDGE_CURVE ( 'NONE', #107, #549, #233, .T. ) ;
#603 = CARTESIAN_POINT ( 'NONE',  ( 11.75000000000001066, 4.999999999999976019, 0.000000000000000000 ) ) ;
#604 = ORIENTED_EDGE ( 'NONE', *, *, #71, .T. ) ;
#605 = CARTESIAN_POINT ( 'NONE',  ( -12.24999999999998401, 0.7500000000001194600, 0.000000000000000000 ) ) ;
#606 = CARTESIAN_POINT ( 'NONE',  ( 0.2500000000000245359, 5.000000000000031974, -9.750000000000000000 ) ) ;
#607 = ORIENTED_EDGE ( 'NONE', *, *, #12, .F. ) ;
#608 = AXIS2_PLACEMENT_3D ( 'NONE', #215, #405, #398 ) ;
#609 = DIRECTION ( 'NONE',  ( 4.886017300838478833E-15, 1.000000000000000000, -0.000000000000000000 ) ) ;
#610 = DIRECTION ( 'NONE',  ( -1.000000000000000000, 4.885547748669379687E-15, 0.000000000000000000 ) ) ;
#611 = EDGE_CURVE ( 'NONE', #358, #353, #98, .T. ) ;
#612 = FACE_OUTER_BOUND ( 'NONE', #290, .T. ) ;
#613 = VECTOR ( 'NONE', #237, 1000.000000000000000 ) ;
#614 = CIRCLE ( 'NONE', #587, 12.24999999999999112 ) ;
#615 = CARTESIAN_POINT ( 'NONE',  ( -2.249999999999975575, 5.000000000000044409, -7.249999999999999112 ) ) ;
#616 = AXIS2_PLACEMENT_3D ( 'NONE', #743, #748, #182 ) ;
#617 = CARTESIAN_POINT ( 'NONE',  ( 11.75000000000001066, 5.000000000000004441, 1.469576158976822567E-15 ) ) ;
#618 = ORIENTED_EDGE ( 'NONE', *, *, #676, .F. ) ;
#619 = EDGE_CURVE ( 'NONE', #77, #314, #519, .T. ) ;
#620 = DIRECTION ( 'NONE',  ( -1.000000000000000000, 4.886017300838478044E-15, 0.000000000000000000 ) ) ;
#621 = DIRECTION ( 'NONE',  ( 4.886017300838478044E-15, 1.000000000000000000, -0.000000000000000000 ) ) ;
#622 = ORIENTED_EDGE ( 'NONE', *, *, #425, .T. ) ;
#623 = PRODUCT_DEFINITION_CONTEXT ( 'detailed design', #254, 'design' ) ;
#624 = DIRECTION ( 'NONE',  ( 1.000000000000000000, -3.469446951953614189E-15, 0.000000000000000000 ) ) ;
#625 = CARTESIAN_POINT ( 'NONE',  ( 2.198707785377577416E-15, 0.4500000000000536349, 0.000000000000000000 ) ) ;
#626 = LINE ( 'NONE', #453, #311 ) ;
#627 = ORIENTED_EDGE ( 'NONE', *, *, #404, .T. ) ;
#628 = DIRECTION ( 'NONE',  ( -1.000000000000000000, 4.885547748669379687E-15, 0.000000000000000000 ) ) ;
#629 = VECTOR ( 'NONE', #388, 1000.000000000000000 ) ;
#630 = CARTESIAN_POINT ( 'NONE',  ( 11.75000000000001421, 4.500000000000004441, 1.438959988998138977E-15 ) ) ;
#631 = AXIS2_PLACEMENT_3D ( 'NONE', #625, #288, #646 ) ;
#632 = EDGE_LOOP ( 'NONE', ( #669, #221, #721, #745, #403, #253, #30, #141, #544, #483, #546, #351 ) ) ;
#633 = EDGE_CURVE ( 'NONE', #695, #470, #451, .T. ) ;
#634 = ORIENTED_EDGE ( 'NONE', *, *, #177, .F. ) ;
#635 = DIRECTION ( 'NONE',  ( 0.000000000000000000, 0.000000000000000000, -1.000000000000000000 ) ) ;
#636 = EDGE_LOOP ( 'NONE', ( #225, #116, #310, #431 ) ) ;
#637 = ADVANCED_FACE ( 'NONE', ( #397 ), #674, .F. ) ;
#638 = CARTESIAN_POINT ( 'NONE',  ( -0.2499999999999766298, 4.900000000000034106, -9.750000000000000000 ) ) ;
#639 = ORIENTED_EDGE ( 'NONE', *, *, #122, .T. ) ;
#640 = DIRECTION ( 'NONE',  ( 0.9723873019805240325, 0.2333729524752964080, 1.190830996901977942E-16 ) ) ;
#641 = CARTESIAN_POINT ( 'NONE',  ( 0.2500000000000234257, 4.900000000000032330, -7.749999999999999112 ) ) ;
#642 = ORIENTED_EDGE ( 'NONE', *, *, #352, .F. ) ;
#643 = CARTESIAN_POINT ( 'NONE',  ( 10.99999999999983480, 0.4499999999999999556, 1.347111479062068091E-15 ) ) ;
#644 = AXIS2_PLACEMENT_3D ( 'NONE', #683, #224, #44 ) ;
#645 = TOROIDAL_SURFACE ( 'NONE', #6, 11.74999999999999112, 0.5000000000000000000 ) ;
#646 = DIRECTION ( 'NONE',  ( -1.000000000000000000, 4.883837967877959892E-15, 0.000000000000000000 ) ) ;
#647 = ORIENTED_EDGE ( 'NONE', *, *, #370, .T. ) ;
#648 = DIRECTION ( 'NONE',  ( -1.000000000000000000, 4.885547748669378898E-15, 0.000000000000000000 ) ) ;
#649 = LINE ( 'NONE', #430, #325 ) ;
#650 = PRODUCT_RELATED_PRODUCT_CATEGORY ( 'part', '', ( #90 ) ) ;
#651 = LINE ( 'NONE', #309, #20 ) ;
#652 = ORIENTED_EDGE ( 'NONE', *, *, #210, .T. ) ;
#653 = DIRECTION ( 'NONE',  ( 4.886017300838478044E-15, 1.000000000000000000, -0.000000000000000000 ) ) ;
#654 = VECTOR ( 'NONE', #568, 1000.000000000000000 ) ;
#655 = EDGE_CURVE ( 'NONE', #695, #549, #552, .T. ) ;
#656 = AXIS2_PLACEMENT_3D ( 'NONE', #283, #55, #160 ) ;
#657 = LINE ( 'NONE', #599, #586 ) ;
#658 =( LENGTH_UNIT ( ) NAMED_UNIT ( * ) SI_UNIT ( .MILLI., .METRE. ) );
#659 = VERTEX_POINT ( 'NONE', #271 ) ;
#660 = COLOUR_RGB ( '',0.7921568627450980005, 0.8196078431372548767, 0.9333333333333333481 ) ;
#661 = EDGE_CURVE ( 'NONE', #114, #455, #223, .T. ) ;
#662 = DIRECTION ( 'NONE',  ( 4.886017300838478044E-15, 1.000000000000000000, -0.000000000000000000 ) ) ;
#663 = CARTESIAN_POINT ( 'NONE',  ( -11.74999999999996803, 4.500000000000119016, 0.000000000000000000 ) ) ;
#664 = ORIENTED_EDGE ( 'NONE', *, *, #365, .F. ) ;
#665 = FILL_AREA_STYLE ('',( #493 ) ) ;
#666 = ORIENTED_EDGE ( 'NONE', *, *, #192, .T. ) ;
#667 = CARTESIAN_POINT ( 'NONE',  ( 0.2500000000000234257, 4.900000000000032330, -5.250000000000000000 ) ) ;
#668 = LINE ( 'NONE', #41, #123 ) ;
#669 = ORIENTED_EDGE ( 'NONE', *, *, #122, .F. ) ;
#670 = AXIS2_PLACEMENT_3D ( 'NONE', #726, #722, #441 ) ;
#671 = PRODUCT_DEFINITION_FORMATION_WITH_SPECIFIED_SOURCE ( 'ANY', '', #90, .NOT_KNOWN. ) ;
#672 = ADVANCED_FACE ( 'NONE', ( #563 ), #43, .F. ) ;
#673 = PRESENTATION_STYLE_ASSIGNMENT (( #197 ) ) ;
#674 = PLANE ( 'NONE',  #270 ) ;
#675 = PLANE ( 'NONE',  #738 ) ;
#676 = EDGE_CURVE ( 'NONE', #14, #77, #243, .T. ) ;
#677 = UNCERTAINTY_MEASURE_WITH_UNIT (LENGTH_MEASURE( 1.000000000000000082E-05 ), #31, 'distance_accuracy_value', 'NONE');
#678 = AXIS2_PLACEMENT_3D ( 'NONE', #456, #460, #624 ) ;
#679 = FACE_OUTER_BOUND ( 'NONE', #486, .T. ) ;
#680 = CARTESIAN_POINT ( 'NONE',  ( -0.2499999999999762135, 5.000000000000033751, -7.249999999999999112 ) ) ;
#681 = EDGE_LOOP ( 'NONE', ( #399, #178, #339, #203 ) ) ;
#682 = EDGE_LOOP ( 'NONE', ( #171, #279, #11, #318 ) ) ;
#683 = CARTESIAN_POINT ( 'NONE',  ( 1.295119204727021552E-28, 2.650664385704833851E-14, 0.000000000000000000 ) ) ;
#684 = ORIENTED_EDGE ( 'NONE', *, *, #93, .T. ) ;
#685 = PLANE ( 'NONE',  #280 ) ;
#686 = LINE ( 'NONE', #572, #73 ) ;
#687 = LINE ( 'NONE', #173, #613 ) ;
#688 = AXIS2_PLACEMENT_3D ( 'NONE', #289, #510, #394 ) ;
#689 = AXIS2_PLACEMENT_3D ( 'NONE', #66, #231, #342 ) ;
#690 = EDGE_CURVE ( 'NONE', #406, #17, #649, .T. ) ;
#691 = DIRECTION ( 'NONE',  ( -1.000000000000000000, 0.000000000000000000, -0.000000000000000000 ) ) ;
#692 = STYLED_ITEM ( 'NONE', ( #673 ), #472 ) ;
#693 = ORIENTED_EDGE ( 'NONE', *, *, #164, .T. ) ;
#694 = DIRECTION ( 'NONE',  ( 1.000000000000000000, -5.204170427930421283E-15, 0.000000000000000000 ) ) ;
#695 = VERTEX_POINT ( 'NONE', #248 ) ;
#696 = DIRECTION ( 'NONE',  ( -0.000000000000000000, -0.000000000000000000, 1.000000000000000000 ) ) ;
#697 = ORIENTED_EDGE ( 'NONE', *, *, #611, .F. ) ;
#698 = DIRECTION ( 'NONE',  ( -1.000000000000000000, 4.885547748669378898E-15, 0.000000000000000000 ) ) ;
#699 = DIRECTION ( 'NONE',  ( -1.000000000000000000, 4.871989336785932014E-15, 0.000000000000000000 ) ) ;
#700 = VERTEX_POINT ( 'NONE', #545 ) ;
#701 = EDGE_CURVE ( 'NONE', #9, #314, #651, .T. ) ;
#702 = CARTESIAN_POINT ( 'NONE',  ( -0.2499999999999766853, 4.900000000000034106, -7.749999999999999112 ) ) ;
#703 = VERTEX_POINT ( 'NONE', #716 ) ;
#704 = CARTESIAN_POINT ( 'NONE',  ( 10.99999999999983480, 0.4499999999999999556, 1.347111479062068486E-15 ) ) ;
#705 = VECTOR ( 'NONE', #569, 1000.000000000000000 ) ;
#706 = AXIS2_PLACEMENT_3D ( 'NONE', #709, #482, #175 ) ;
#707 = LINE ( 'NONE', #539, #111 ) ;
#708 = ADVANCED_FACE ( 'NONE', ( #485, #127 ), #368, .F. ) ;
#709 = CARTESIAN_POINT ( 'NONE',  ( 2.443008650419241389E-14, 5.000000000000004441, 0.000000000000000000 ) ) ;
#710 = DIRECTION ( 'NONE',  ( -1.000000000000000000, 5.204170427930421283E-15, -0.000000000000000000 ) ) ;
#711 = EDGE_CURVE ( 'NONE', #191, #695, #446, .T. ) ;
#712 = DIRECTION ( 'NONE',  ( -1.000000000000000000, 5.204170427930423650E-15, -0.000000000000000000 ) ) ;
#713 = DIRECTION ( 'NONE',  ( 4.886017300838478833E-15, 1.000000000000000000, -0.000000000000000000 ) ) ;
#714 = ORIENTED_EDGE ( 'NONE', *, *, #39, .F. ) ;
#715 = CARTESIAN_POINT ( 'NONE',  ( -0.2499999999999761580, 5.000000000000033751, -9.750000000000000000 ) ) ;
#716 = CARTESIAN_POINT ( 'NONE',  ( 0.2500000000000234257, 4.900000000000032330, -9.750000000000000000 ) ) ;
#717 = ORIENTED_EDGE ( 'NONE', *, *, #448, .F. ) ;
#718 =( GEOMETRIC_REPRESENTATION_CONTEXT ( 3 ) GLOBAL_UNCERTAINTY_ASSIGNED_CONTEXT ( ( #276 ) ) GLOBAL_UNIT_ASSIGNED_CONTEXT ( ( #506, #496, #96 ) ) REPRESENTATION_CONTEXT ( 'NONE', 'WORKASPACE' ) );
#719 =( NAMED_UNIT ( * ) SI_UNIT ( $, .STERADIAN. ) SOLID_ANGLE_UNIT ( ) );
#720 = PLANE ( 'NONE',  #72 ) ;
#721 = ORIENTED_EDGE ( 'NONE', *, *, #217, .F. ) ;
#722 = DIRECTION ( 'NONE',  ( 1.000000000000000000, -4.886017300838478833E-15, 0.000000000000000000 ) ) ;
#723 = DIRECTION ( 'NONE',  ( 1.000000000000000000, 0.000000000000000000, 0.000000000000000000 ) ) ;
#724 = ORIENTED_EDGE ( 'NONE', *, *, #172, .T. ) ;
#725 = EDGE_CURVE ( 'NONE', #364, #439, #707, .T. ) ;
#726 = CARTESIAN_POINT ( 'NONE',  ( 2.250000000000023537, 4.900000000000021672, -7.249999999999999112 ) ) ;
#727 =( NAMED_UNIT ( * ) PLANE_ANGLE_UNIT ( ) SI_UNIT ( $, .RADIAN. ) );
#728 = CARTESIAN_POINT ( 'NONE',  ( 12.24999999999999112, 0.7499999999999997780, 1.500192328955506354E-15 ) ) ;
#729 = UNCERTAINTY_MEASURE_WITH_UNIT (LENGTH_MEASURE( 1.000000000000000082E-05 ), #658, 'distance_accuracy_value', 'NONE');
#730 = CARTESIAN_POINT ( 'NONE',  ( 0.000000000000000000, 0.1500000000000528966, 0.000000000000000000 ) ) ;
#731 = ADVANCED_FACE ( 'NONE', ( #252 ), #200, .T. ) ;
#732 = DIRECTION ( 'NONE',  ( 0.000000000000000000, 0.000000000000000000, 1.000000000000000000 ) ) ;
#733 = DIRECTION ( 'NONE',  ( 4.886017300838478044E-15, 1.000000000000000000, -0.000000000000000000 ) ) ;
#734 = CYLINDRICAL_SURFACE ( 'NONE', #608, 12.24999999999998934 ) ;
#735 = EDGE_LOOP ( 'NONE', ( #666, #145, #697, #295 ) ) ;
#736 = EDGE_CURVE ( 'NONE', #267, #517, #234, .T. ) ;
#737 = CLOSED_SHELL ( 'NONE', ( #747, #731, #242, #428, #579, #335, #63, #556, #584, #268, #450, #708, #637, #303, #537, #513, #592, #75, #189, #567, #672, #262, #440, #117, #68 ) ) ;
#738 = AXIS2_PLACEMENT_3D ( 'NONE', #99, #52, #524 ) ;
#739 = DIRECTION ( 'NONE',  ( 1.000000000000000000, 0.000000000000000000, -0.000000000000000000 ) ) ;
#740 = FACE_OUTER_BOUND ( 'NONE', #238, .T. ) ;
#741 = PRODUCT_DEFINITION_SHAPE ( 'NONE', 'NONE',  #379 ) ;
#742 = ORIENTED_EDGE ( 'NONE', *, *, #661, .T. ) ;
#743 = CARTESIAN_POINT ( 'NONE',  ( 7.329025951260338057E-16, 0.1500000000000537292, 0.000000000000000000 ) ) ;
#744 = CARTESIAN_POINT ( 'NONE',  ( 2.198707785377577416E-15, 0.4500000000000536349, 0.000000000000000000 ) ) ;
#745 = ORIENTED_EDGE ( 'NONE', *, *, #619, .F. ) ;
#746 = DIRECTION ( 'NONE',  ( 1.000000000000000000, 0.000000000000000000, -0.000000000000000000 ) ) ;
#747 = ADVANCED_FACE ( 'NONE', ( #423 ), #645, .T. ) ;
#748 = DIRECTION ( 'NONE',  ( 4.886017300838478044E-15, 1.000000000000000000, -0.000000000000000000 ) ) ;
#749 = CARTESIAN_POINT ( 'NONE',  ( -12.24999999999996980, 4.500000000000118128, 0.000000000000000000 ) ) ;
#750 = EDGE_LOOP ( 'NONE', ( #181, #717 ) ) ;
ENDSEC;
END-ISO-10303-21;
