%TF.GenerationSoftware,KiCad,Pcbnew,10.0.3*%
%TF.CreationDate,2026-08-24T20:33:41-04:00*%
%TF.ProjectId,02_Power_Board,30325f50-6f77-4657-925f-426f6172642e,rev?*%
%TF.SameCoordinates,Original*%
%TF.FileFunction,Copper,L4,Bot*%
%TF.FilePolarity,Positive*%
%FSLAX46Y46*%
G04 Gerber Fmt 4.6, Leading zero omitted, Abs format (unit mm)*
G04 Created by KiCad (PCBNEW 10.0.3) date 2026-08-24 20:33:41*
%MOMM*%
%LPD*%
G01*
G04 APERTURE LIST*
%TA.AperFunction,Conductor*%
%ADD10C,0.200000*%
%TD*%
%TA.AperFunction,EtchedComponent*%
%ADD11C,0.000000*%
%TD*%
%TA.AperFunction,ComponentPad*%
%ADD12R,1.605000X1.605000*%
%TD*%
%TA.AperFunction,ComponentPad*%
%ADD13C,1.605000*%
%TD*%
%TA.AperFunction,ComponentPad*%
%ADD14C,2.209500*%
%TD*%
%TA.AperFunction,ComponentPad*%
%ADD15C,6.400000*%
%TD*%
%TA.AperFunction,ComponentPad*%
%ADD16C,1.650000*%
%TD*%
%TA.AperFunction,ComponentPad*%
%ADD17C,1.530000*%
%TD*%
%TA.AperFunction,ViaPad*%
%ADD18C,0.600000*%
%TD*%
%TA.AperFunction,ViaPad*%
%ADD19C,2.000000*%
%TD*%
%TA.AperFunction,ViaPad*%
%ADD20C,1.000000*%
%TD*%
%TA.AperFunction,Conductor*%
%ADD21C,1.000000*%
%TD*%
%TA.AperFunction,Conductor*%
%ADD22C,1.500000*%
%TD*%
%TA.AperFunction,Conductor*%
%ADD23C,0.400000*%
%TD*%
%TA.AperFunction,Conductor*%
%ADD24C,0.600000*%
%TD*%
G04 APERTURE END LIST*
%TO.N,+3V3*%
D10*
X59040000Y-76605000D02*
X62960000Y-76605000D01*
X62960000Y-102365000D01*
X59040000Y-102365000D01*
X59040000Y-76605000D01*
%TA.AperFunction,Conductor*%
G36*
X59040000Y-76605000D02*
G01*
X62960000Y-76605000D01*
X62960000Y-102365000D01*
X59040000Y-102365000D01*
X59040000Y-76605000D01*
G37*
%TD.AperFunction*%
%TO.N,VIN*%
X73200000Y-99700000D02*
X77000000Y-99700000D01*
X77000000Y-101800000D01*
X73200000Y-101800000D01*
X73200000Y-99700000D01*
%TA.AperFunction,Conductor*%
G36*
X73200000Y-99700000D02*
G01*
X77000000Y-99700000D01*
X77000000Y-101800000D01*
X73200000Y-101800000D01*
X73200000Y-99700000D01*
G37*
%TD.AperFunction*%
%TA.AperFunction,Conductor*%
%TO.N,Net-(PMIC6-VPOS)*%
G36*
X124554044Y-78900000D02*
G01*
X126045956Y-78900000D01*
X126045956Y-81700000D01*
X124554044Y-81700000D01*
X124554044Y-78900000D01*
G37*
%TD.AperFunction*%
%TA.AperFunction,Conductor*%
G36*
X138308088Y-77005000D02*
G01*
X139800000Y-77005000D01*
X139800000Y-79805000D01*
X138308088Y-79805000D01*
X138308088Y-77005000D01*
G37*
%TD.AperFunction*%
%TA.AperFunction,Conductor*%
%TO.N,Net-(PMIC6-VNEG)*%
G36*
X158554044Y-73850000D02*
G01*
X160045956Y-73850000D01*
X160045956Y-76650000D01*
X158554044Y-76650000D01*
X158554044Y-73850000D01*
G37*
%TD.AperFunction*%
%TA.AperFunction,Conductor*%
G36*
X161708088Y-77000000D02*
G01*
X163200000Y-77000000D01*
X163200000Y-79800000D01*
X161708088Y-79800000D01*
X161708088Y-77000000D01*
G37*
%TD.AperFunction*%
D11*
%TA.AperFunction,EtchedComponent*%
%TD*%
%TO.C,G\u002A\u002A\u002A*%
G36*
X232855916Y-95004570D02*
G01*
X232852986Y-95007500D01*
X232850055Y-95004570D01*
X232852987Y-95001640D01*
X232855916Y-95004570D01*
G37*
%TD.AperFunction*%
%TA.AperFunction,EtchedComponent*%
%TO.C,G\u002A\u002A\u002A*%
G36*
X236477789Y-97401571D02*
G01*
X236474859Y-97404501D01*
X236471929Y-97401571D01*
X236474859Y-97398639D01*
X236477789Y-97401571D01*
G37*
%TD.AperFunction*%
%TA.AperFunction,EtchedComponent*%
G36*
X235405293Y-97269706D02*
G01*
X235404870Y-97272809D01*
X235401386Y-97273613D01*
X235400684Y-97272754D01*
X235401386Y-97265799D01*
X235403149Y-97264882D01*
X235405293Y-97269706D01*
G37*
%TD.AperFunction*%
%TD*%
D12*
%TO.P,J4,1*%
%TO.N,GPIO21*%
X115500000Y-133910001D03*
D13*
%TO.P,J4,2*%
%TO.N,GPIO22*%
X112960000Y-133910001D03*
%TO.P,J4,3*%
%TO.N,GPIO19*%
X110420000Y-133910001D03*
%TO.P,J4,4*%
%TO.N,TXD0*%
X107880000Y-133910001D03*
%TO.P,J4,5*%
%TO.N,RXD0*%
X105340000Y-133910001D03*
%TO.P,J4,6*%
%TO.N,GPIO5*%
X102800000Y-133910001D03*
%TO.P,J4,7*%
%TO.N,GPIO8*%
X100260000Y-133910001D03*
%TO.P,J4,8*%
%TO.N,GPIO7*%
X97720000Y-133910001D03*
%TO.P,J4,9*%
%TO.N,GPIO20*%
X95180000Y-133910001D03*
%TO.P,J4,10*%
%TO.N,GPIO4{slash}ADC2_CH0*%
X92640000Y-133910001D03*
%TO.P,J4,11*%
%TO.N,GPIO0{slash}ADC2_CH1*%
X90100000Y-133910001D03*
%TO.P,J4,12*%
%TO.N,GPIO2{slash}ADC2_CH2*%
X87560000Y-133910001D03*
%TO.P,J4,13*%
%TO.N,GPIO15{slash}ADC2_CH3*%
X85020000Y-133910001D03*
%TO.P,J4,14*%
%TO.N,GPIO13{slash}ADC2_CH4*%
X82480000Y-133910001D03*
%TO.P,J4,15*%
%TO.N,GPIO12{slash}ADC2_CH5*%
X79940000Y-133910001D03*
%TO.P,J4,16*%
%TO.N,GPIO14{slash}ADC2_CH6*%
X77400000Y-133910001D03*
%TO.P,J4,17*%
%TO.N,GPIO27{slash}ADC2_CH7*%
X74860000Y-133910001D03*
%TO.P,J4,18*%
%TO.N,GND*%
X72320000Y-133910001D03*
%TO.P,J4,19*%
X69780000Y-133910001D03*
%TO.P,J4,20*%
X67240000Y-133910001D03*
%TO.P,J4,21*%
X64700000Y-133910001D03*
%TO.P,J4,22*%
X62160000Y-133910001D03*
%TO.P,J4,23*%
X59620000Y-133910001D03*
%TO.P,J4,24*%
X57080000Y-133910001D03*
%TD*%
D14*
%TO.P,J16,1*%
%TO.N,Net-(PMIC6-VNEG)*%
X178790000Y-86250000D03*
%TO.P,J16,2*%
%TO.N,Net-(PMIC8-IN)*%
X173710000Y-86250000D03*
%TD*%
%TO.P,J18,1*%
%TO.N,Net-(PMIC8-IN)*%
X160000000Y-86460000D03*
%TO.P,J18,2*%
%TO.N,Net-(J18-Pad2)*%
X160000000Y-91540000D03*
%TD*%
%TO.P,J10,1*%
%TO.N,Net-(PMIC5-EN)*%
X159500000Y-125670000D03*
%TO.P,J10,2*%
%TO.N,Net-(J10-Pad2)*%
X159500000Y-130750000D03*
%TD*%
D15*
%TO.P,MH2,1,1_1*%
%TO.N,GND*%
X55000000Y-145000000D03*
%TD*%
D14*
%TO.P,J12,1*%
%TO.N,Net-(PMIC6-VPOS)*%
X121210000Y-86000000D03*
%TO.P,J12,2*%
%TO.N,Net-(PMIC7-IN)*%
X126290000Y-86000000D03*
%TD*%
D12*
%TO.P,J2,1*%
%TO.N,AIN3*%
X115500000Y-111049999D03*
D13*
%TO.P,J2,2*%
%TO.N,AIN2*%
X112960000Y-111049999D03*
%TO.P,J2,3*%
%TO.N,AIN0*%
X110420000Y-111049999D03*
%TO.P,J2,4*%
%TO.N,GPIO39{slash}ADC1_CH3*%
X107880000Y-111049999D03*
%TO.P,J2,5*%
%TO.N,EN*%
X105340000Y-111049999D03*
%TO.P,J2,6*%
%TO.N,GPIO34{slash}ADC1_CH6*%
X102800000Y-111049999D03*
%TO.P,J2,7*%
%TO.N,GPIO35{slash}ADC1_CH7*%
X100260000Y-111049999D03*
%TO.P,J2,8*%
%TO.N,GPIO32{slash}ADC1_CH4{slash}XTAL32_IN*%
X97720000Y-111049999D03*
%TO.P,J2,9*%
%TO.N,GPIO33{slash}ADC1_CH5{slash}XTAL32_OUT*%
X95180000Y-111049999D03*
%TO.P,J2,10*%
%TO.N,GPIO25{slash}ADC2_CH8{slash}DAC_1*%
X92640000Y-111049999D03*
%TO.P,J2,11*%
%TO.N,GPIO26{slash}ADC2_CH9{slash}DAC_2*%
X90100000Y-111049999D03*
%TO.P,J2,12*%
%TO.N,+3V3*%
X87560000Y-111049999D03*
%TO.P,J2,13*%
X85020000Y-111049999D03*
%TO.P,J2,14*%
%TO.N,VIN*%
X82480000Y-111049999D03*
%TO.P,J2,15*%
%TO.N,VBUS*%
X79940000Y-111049999D03*
%TO.P,J2,16*%
%TO.N,VUSB*%
X77400000Y-111049999D03*
%TO.P,J2,17*%
%TO.N,GND*%
X74860000Y-111049999D03*
%TO.P,J2,18*%
X72320000Y-111049999D03*
%TO.P,J2,19*%
X69780000Y-111049999D03*
%TO.P,J2,20*%
X67240000Y-111049999D03*
%TO.P,J2,21*%
%TO.N,AIN1*%
X64700000Y-111049999D03*
%TO.P,J2,22*%
%TO.N,AIN0*%
X62160000Y-111049999D03*
%TO.P,J2,23*%
%TO.N,AIN3*%
X59620000Y-111049999D03*
%TO.P,J2,24*%
%TO.N,AIN2*%
X57080000Y-111049999D03*
%TD*%
D14*
%TO.P,J14,1*%
%TO.N,Net-(PMIC7-IN)*%
X140000000Y-86460000D03*
%TO.P,J14,2*%
%TO.N,Net-(J14-Pad2)*%
X140000000Y-91540000D03*
%TD*%
D16*
%TO.P,J3,1*%
%TO.N,GPIO21*%
X115500000Y-138909999D03*
%TO.P,J3,2*%
%TO.N,GPIO22*%
X112960000Y-138909999D03*
%TO.P,J3,3*%
%TO.N,GPIO19*%
X110420000Y-138909999D03*
%TO.P,J3,4*%
%TO.N,TXD0*%
X107880000Y-138909999D03*
%TO.P,J3,5*%
%TO.N,RXD0*%
X105340000Y-138909999D03*
%TO.P,J3,6*%
%TO.N,GPIO5*%
X102800000Y-138909999D03*
%TO.P,J3,7*%
%TO.N,GPIO8*%
X100260000Y-138909999D03*
%TO.P,J3,8*%
%TO.N,GPIO7*%
X97720000Y-138909999D03*
%TO.P,J3,9*%
%TO.N,GPIO20*%
X95180000Y-138909999D03*
%TO.P,J3,10*%
%TO.N,GPIO4{slash}ADC2_CH0*%
X92640000Y-138909999D03*
%TO.P,J3,11*%
%TO.N,GPIO0{slash}ADC2_CH1*%
X90100000Y-138909999D03*
%TO.P,J3,12*%
%TO.N,GPIO2{slash}ADC2_CH2*%
X87560000Y-138909999D03*
%TO.P,J3,13*%
%TO.N,GPIO15{slash}ADC2_CH3*%
X85020000Y-138909999D03*
%TO.P,J3,14*%
%TO.N,GPIO13{slash}ADC2_CH4*%
X82480000Y-138909999D03*
%TO.P,J3,15*%
%TO.N,GPIO12{slash}ADC2_CH5*%
X79940000Y-138909999D03*
%TO.P,J3,16*%
%TO.N,GPIO14{slash}ADC2_CH6*%
X77400000Y-138909999D03*
%TO.P,J3,17*%
%TO.N,GPIO27{slash}ADC2_CH7*%
X74860000Y-138909999D03*
%TO.P,J3,18*%
%TO.N,GND*%
X72320000Y-138909999D03*
%TO.P,J3,19*%
X69780000Y-138909999D03*
%TO.P,J3,20*%
X67240000Y-138909999D03*
%TO.P,J3,21*%
X64700000Y-138909999D03*
%TO.P,J3,22*%
X62160000Y-138909999D03*
%TO.P,J3,23*%
X59620000Y-138909999D03*
%TO.P,J3,24*%
X57080000Y-138909999D03*
%TD*%
%TO.P,J21,1*%
%TO.N,GND*%
X242130000Y-142500000D03*
%TO.P,J21,2*%
%TO.N,+3V3*%
X239590000Y-142500000D03*
%TO.P,J21,3*%
%TO.N,GND*%
X237050000Y-142500000D03*
%TO.P,J21,4*%
X234510000Y-142500000D03*
%TO.P,J21,5*%
%TO.N,+12V*%
X231970000Y-142500000D03*
%TO.P,J21,6*%
%TO.N,-12V*%
X229430000Y-142500000D03*
%TO.P,J21,7*%
%TO.N,+3V3*%
X226890000Y-142500000D03*
%TO.P,J21,8*%
%TO.N,GPIO27{slash}ADC2_CH7*%
X224350000Y-142500000D03*
%TO.P,J21,9*%
%TO.N,GPIO14{slash}ADC2_CH6*%
X221810000Y-142500000D03*
%TO.P,J21,10*%
%TO.N,GPIO13{slash}ADC2_CH4*%
X219270000Y-142500000D03*
%TO.P,J21,11*%
%TO.N,GND*%
X216730000Y-142500000D03*
%TO.P,J21,12*%
X214190000Y-142500000D03*
%TO.P,J21,13*%
X211650000Y-142500000D03*
%TO.P,J21,14*%
X209110000Y-142500000D03*
%TO.P,J21,15*%
X206570000Y-142500000D03*
%TO.P,J21,16*%
%TO.N,GPIO25{slash}ADC2_CH8{slash}DAC_1*%
X204030000Y-142500000D03*
%TO.P,J21,17*%
%TO.N,GPIO26{slash}ADC2_CH9{slash}DAC_2*%
X201490000Y-142500000D03*
%TO.P,J21,18*%
%TO.N,AIN0*%
X198950000Y-142500000D03*
%TO.P,J21,19*%
%TO.N,GND*%
X196410000Y-142500000D03*
%TO.P,J21,20*%
X193870000Y-142500000D03*
%TD*%
D15*
%TO.P,MH1,1,1_1*%
%TO.N,GND*%
X55000000Y-55000000D03*
%TD*%
%TO.P,MH3,1,1_1*%
%TO.N,GND*%
X255000000Y-55000000D03*
%TD*%
D14*
%TO.P,J9,1*%
%TO.N,Net-(PMIC5-EN)*%
X152000000Y-125710000D03*
%TO.P,J9,2*%
%TO.N,GND*%
X152000000Y-130790000D03*
%TD*%
D16*
%TO.P,J23,1*%
%TO.N,GND*%
X242130000Y-57500000D03*
%TO.P,J23,2*%
%TO.N,+3V3*%
X239590000Y-57500000D03*
%TO.P,J23,3*%
%TO.N,AIN1*%
X237050000Y-57500000D03*
%TO.P,J23,4*%
%TO.N,-2V5*%
X234510000Y-57500000D03*
%TO.P,J23,5*%
%TO.N,+12V*%
X231970000Y-57500000D03*
%TO.P,J23,6*%
%TO.N,-12V*%
X229430000Y-57500000D03*
%TO.P,J23,7*%
%TO.N,GND*%
X226890000Y-57500000D03*
%TO.P,J23,8*%
X224350000Y-57500000D03*
%TO.P,J23,9*%
X221810000Y-57500000D03*
%TO.P,J23,10*%
X219270000Y-57500000D03*
%TO.P,J23,11*%
%TO.N,+3V3*%
X216730000Y-57500000D03*
%TO.P,J23,12*%
%TO.N,GPIO32{slash}ADC1_CH4{slash}XTAL32_IN*%
X214190000Y-57500000D03*
%TO.P,J23,13*%
%TO.N,GPIO33{slash}ADC1_CH5{slash}XTAL32_OUT*%
X211650000Y-57500000D03*
%TO.P,J23,14*%
%TO.N,GPIO4{slash}ADC2_CH0*%
X209110000Y-57500000D03*
%TO.P,J23,15*%
%TO.N,GPIO19*%
X206570000Y-57500000D03*
%TO.P,J23,16*%
%TO.N,GPIO25{slash}ADC2_CH8{slash}DAC_1*%
X204030000Y-57500000D03*
%TO.P,J23,17*%
%TO.N,GPIO26{slash}ADC2_CH9{slash}DAC_2*%
X201490000Y-57500000D03*
%TO.P,J23,18*%
%TO.N,GND*%
X198950000Y-57500000D03*
%TO.P,J23,19*%
X196410000Y-57500000D03*
%TO.P,J23,20*%
X193870000Y-57500000D03*
%TD*%
D14*
%TO.P,J17,1*%
%TO.N,Net-(PMIC8-IN)*%
X167500000Y-86460000D03*
%TO.P,J17,2*%
%TO.N,GND*%
X167500000Y-91540000D03*
%TD*%
%TO.P,J11,1*%
%TO.N,Net-(J10-Pad2)*%
X159500000Y-136670000D03*
%TO.P,J11,2*%
%TO.N,GND*%
X159500000Y-141750000D03*
%TD*%
D16*
%TO.P,J1,1*%
%TO.N,AIN3*%
X115500000Y-105789998D03*
%TO.P,J1,2*%
%TO.N,AIN2*%
X112960000Y-105789998D03*
%TO.P,J1,3*%
%TO.N,AIN0*%
X110420000Y-105789998D03*
%TO.P,J1,4*%
%TO.N,GPIO39{slash}ADC1_CH3*%
X107880000Y-105789998D03*
%TO.P,J1,5*%
%TO.N,EN*%
X105340000Y-105789998D03*
%TO.P,J1,6*%
%TO.N,GPIO34{slash}ADC1_CH6*%
X102800000Y-105789998D03*
%TO.P,J1,7*%
%TO.N,GPIO35{slash}ADC1_CH7*%
X100260000Y-105789998D03*
%TO.P,J1,8*%
%TO.N,GPIO32{slash}ADC1_CH4{slash}XTAL32_IN*%
X97720000Y-105789998D03*
%TO.P,J1,9*%
%TO.N,GPIO33{slash}ADC1_CH5{slash}XTAL32_OUT*%
X95180000Y-105789998D03*
%TO.P,J1,10*%
%TO.N,GPIO25{slash}ADC2_CH8{slash}DAC_1*%
X92640000Y-105789998D03*
%TO.P,J1,11*%
%TO.N,GPIO26{slash}ADC2_CH9{slash}DAC_2*%
X90100000Y-105789998D03*
%TO.P,J1,12*%
%TO.N,+3V3*%
X87560000Y-105789998D03*
%TO.P,J1,13*%
X85020000Y-105789998D03*
%TO.P,J1,14*%
%TO.N,VIN*%
X82480000Y-105789998D03*
%TO.P,J1,15*%
%TO.N,VBUS*%
X79940000Y-105789998D03*
%TO.P,J1,16*%
%TO.N,VUSB*%
X77400000Y-105789998D03*
%TO.P,J1,17*%
%TO.N,GND*%
X74860000Y-105789998D03*
%TO.P,J1,18*%
X72320000Y-105789998D03*
%TO.P,J1,19*%
X69780000Y-105789998D03*
%TO.P,J1,20*%
X67240000Y-105789998D03*
%TO.P,J1,21*%
%TO.N,AIN1*%
X64700000Y-105789998D03*
%TO.P,J1,22*%
%TO.N,AIN0*%
X62160000Y-105789998D03*
%TO.P,J1,23*%
%TO.N,AIN3*%
X59620000Y-105789998D03*
%TO.P,J1,24*%
%TO.N,AIN2*%
X57080000Y-105789998D03*
%TD*%
D14*
%TO.P,J8,1*%
%TO.N,Net-(PMIC4-VOUT)*%
X140710000Y-125210000D03*
%TO.P,J8,2*%
%TO.N,Net-(PMIC5-EN)*%
X145790000Y-125210000D03*
%TD*%
D17*
%TO.P,J22,1*%
%TO.N,GND*%
X242130000Y-65000000D03*
%TO.P,J22,2*%
%TO.N,+3V3*%
X239590000Y-65000000D03*
%TO.P,J22,3*%
%TO.N,AIN1*%
X237050000Y-65000000D03*
%TO.P,J22,4*%
%TO.N,-2V5*%
X234510000Y-65000000D03*
%TO.P,J22,5*%
%TO.N,+12V*%
X231970000Y-65000000D03*
%TO.P,J22,6*%
%TO.N,-12V*%
X229430000Y-65000000D03*
%TO.P,J22,7*%
%TO.N,GND*%
X226890000Y-65000000D03*
%TO.P,J22,8*%
X224350000Y-65000000D03*
%TO.P,J22,9*%
X221810000Y-65000000D03*
%TO.P,J22,10*%
X219270000Y-65000000D03*
%TO.P,J22,11*%
%TO.N,+3V3*%
X216730000Y-65000000D03*
%TO.P,J22,12*%
%TO.N,GPIO32{slash}ADC1_CH4{slash}XTAL32_IN*%
X214190000Y-65000000D03*
%TO.P,J22,13*%
%TO.N,GPIO33{slash}ADC1_CH5{slash}XTAL32_OUT*%
X211650000Y-65000000D03*
%TO.P,J22,14*%
%TO.N,GPIO4{slash}ADC2_CH0*%
X209110000Y-65000000D03*
%TO.P,J22,15*%
%TO.N,GPIO19*%
X206570000Y-65000000D03*
%TO.P,J22,16*%
%TO.N,GPIO25{slash}ADC2_CH8{slash}DAC_1*%
X204030000Y-65000000D03*
%TO.P,J22,17*%
%TO.N,GPIO26{slash}ADC2_CH9{slash}DAC_2*%
X201490000Y-65000000D03*
%TO.P,J22,18*%
%TO.N,GND*%
X198950000Y-65000000D03*
%TO.P,J22,19*%
X196410000Y-65000000D03*
%TO.P,J22,20*%
X193870000Y-65000000D03*
%TD*%
D14*
%TO.P,J19,1*%
%TO.N,Net-(J18-Pad2)*%
X160000000Y-97210000D03*
%TO.P,J19,2*%
%TO.N,GND*%
X160000000Y-102290000D03*
%TD*%
%TO.P,J13,1*%
%TO.N,Net-(PMIC7-IN)*%
X132500000Y-86460000D03*
%TO.P,J13,2*%
%TO.N,GND*%
X132500000Y-91540000D03*
%TD*%
D17*
%TO.P,J20,1*%
%TO.N,GND*%
X242130000Y-135000000D03*
%TO.P,J20,2*%
%TO.N,+3V3*%
X239590000Y-135000000D03*
%TO.P,J20,3*%
%TO.N,GND*%
X237050000Y-135000000D03*
%TO.P,J20,4*%
X234510000Y-135000000D03*
%TO.P,J20,5*%
%TO.N,+12V*%
X231970000Y-135000000D03*
%TO.P,J20,6*%
%TO.N,-12V*%
X229430000Y-135000000D03*
%TO.P,J20,7*%
%TO.N,+3V3*%
X226890000Y-135000000D03*
%TO.P,J20,8*%
%TO.N,GPIO27{slash}ADC2_CH7*%
X224350000Y-135000000D03*
%TO.P,J20,9*%
%TO.N,GPIO14{slash}ADC2_CH6*%
X221810000Y-135000000D03*
%TO.P,J20,10*%
%TO.N,GPIO13{slash}ADC2_CH4*%
X219270000Y-135000000D03*
%TO.P,J20,11*%
%TO.N,GND*%
X216730000Y-135000000D03*
%TO.P,J20,12*%
X214190000Y-135000000D03*
%TO.P,J20,13*%
X211650000Y-135000000D03*
%TO.P,J20,14*%
X209110000Y-135000000D03*
%TO.P,J20,15*%
X206570000Y-135000000D03*
%TO.P,J20,16*%
%TO.N,GPIO25{slash}ADC2_CH8{slash}DAC_1*%
X204030000Y-135000000D03*
%TO.P,J20,17*%
%TO.N,GPIO26{slash}ADC2_CH9{slash}DAC_2*%
X201490000Y-135000000D03*
%TO.P,J20,18*%
%TO.N,AIN0*%
X198950000Y-135000000D03*
%TO.P,J20,19*%
%TO.N,GND*%
X196410000Y-135000000D03*
%TO.P,J20,20*%
X193870000Y-135000000D03*
%TD*%
D15*
%TO.P,MH4,1,1_1*%
%TO.N,GND*%
X255000000Y-145000000D03*
%TD*%
D14*
%TO.P,J15,1*%
%TO.N,Net-(J14-Pad2)*%
X140000000Y-97160000D03*
%TO.P,J15,2*%
%TO.N,GND*%
X140000000Y-102240000D03*
%TD*%
D18*
%TO.N,Net-(PMIC1-STAT2)*%
X65100000Y-87815000D03*
X70200000Y-86400000D03*
%TO.N,+3V3*%
X61040000Y-96495000D03*
X61120000Y-89155000D03*
X61090000Y-82105000D03*
%TO.N,GND*%
X182000000Y-94000000D03*
D19*
X179500000Y-142000000D03*
X193100000Y-76500000D03*
D18*
X163500000Y-116250000D03*
X153500000Y-113750000D03*
D19*
X109700000Y-66300000D03*
X177600000Y-97600000D03*
X157300000Y-59200000D03*
X55600000Y-63200000D03*
X132900000Y-77700000D03*
D18*
X79350000Y-89075000D03*
D19*
X168300000Y-74300000D03*
X152600000Y-139950000D03*
X134500000Y-70200000D03*
X164300000Y-54800000D03*
X214500000Y-84400000D03*
X246300000Y-74400000D03*
X111700000Y-80700000D03*
D18*
X166500000Y-111250000D03*
D19*
X83700000Y-143300000D03*
X121700000Y-95900000D03*
X236650000Y-88500000D03*
X176000000Y-136250000D03*
D18*
X124404500Y-72521650D03*
X143500000Y-116250000D03*
X73125000Y-88150000D03*
D19*
X67200000Y-145600000D03*
D18*
X147250000Y-118750000D03*
D19*
X150400000Y-63800000D03*
X113500000Y-86900000D03*
X115000000Y-66200000D03*
X163800000Y-69900000D03*
X177500000Y-55100000D03*
D18*
X149250000Y-76750000D03*
D19*
X105200000Y-62200000D03*
X197000000Y-129200000D03*
X146600000Y-83200000D03*
X100800000Y-84000000D03*
D18*
X161000000Y-113750000D03*
D19*
X58000000Y-123100000D03*
D18*
X148300000Y-72800000D03*
D19*
X170000000Y-62500000D03*
D18*
X105800000Y-86300000D03*
D19*
X235750000Y-103250000D03*
X86800000Y-126200000D03*
D18*
X74300000Y-90700000D03*
D19*
X64800000Y-85100000D03*
X246800000Y-83500000D03*
X188700000Y-112000000D03*
X116950000Y-54800000D03*
D18*
X150750000Y-78250000D03*
D19*
X249800000Y-114500000D03*
X210000000Y-126500000D03*
X100700000Y-66200000D03*
X104100000Y-94200000D03*
D18*
X140400000Y-81600000D03*
D19*
X83600000Y-78000000D03*
X141100000Y-55100000D03*
D18*
X182000000Y-113250000D03*
D19*
X80412352Y-83426953D03*
D18*
X146750000Y-111250000D03*
D19*
X61350000Y-53800000D03*
X179750000Y-120750000D03*
D18*
X163750000Y-114000000D03*
D19*
X95600000Y-62200000D03*
D18*
X157000000Y-111250000D03*
D19*
X96400000Y-81200000D03*
D18*
X186500000Y-63000000D03*
X136000000Y-116250000D03*
D19*
X211000000Y-95600000D03*
X155750000Y-95000000D03*
D18*
X145000000Y-78500000D03*
D19*
X164400000Y-125800000D03*
D18*
X150800000Y-76750000D03*
X75000000Y-90000000D03*
D19*
X246100000Y-124800000D03*
X88400000Y-73100000D03*
D18*
X75800000Y-90700000D03*
D19*
X143100000Y-62400000D03*
D18*
X176000000Y-113750000D03*
D19*
X249400000Y-65800000D03*
X141300000Y-69200000D03*
D18*
X136250000Y-113750000D03*
X149250000Y-78250000D03*
D19*
X81900000Y-72700000D03*
X221600000Y-126500000D03*
X249100000Y-135700000D03*
X109700000Y-62300000D03*
X82400000Y-95000000D03*
X196200000Y-85900000D03*
X98600000Y-57200000D03*
D18*
X157250000Y-116250000D03*
X120654500Y-72421650D03*
D19*
X97400000Y-143000000D03*
D18*
X120654500Y-74721650D03*
X143500000Y-80800000D03*
D19*
X170500000Y-54900000D03*
X155250000Y-99500000D03*
X135000000Y-100500000D03*
X157700000Y-69600000D03*
D18*
X124454500Y-77071650D03*
X140250000Y-111250000D03*
X152900000Y-71800000D03*
D19*
X75900000Y-124600000D03*
D18*
X151400000Y-73200000D03*
D19*
X236100000Y-111700000D03*
D18*
X122504500Y-72521650D03*
D19*
X177800000Y-80900000D03*
X125900000Y-101200000D03*
X156400000Y-83600000D03*
X108700000Y-102600000D03*
X69100000Y-124100000D03*
X100600000Y-62200000D03*
X78800000Y-144900000D03*
X222300000Y-114500000D03*
X224200000Y-85600000D03*
D18*
X122554500Y-77121650D03*
D19*
X137000000Y-119500000D03*
D18*
X142750000Y-119250000D03*
D19*
X167500000Y-141800000D03*
X61200000Y-72100000D03*
X67300000Y-87900000D03*
D18*
X75800000Y-89300000D03*
D19*
X246500000Y-102000000D03*
D18*
X142250000Y-77000000D03*
D19*
X158750000Y-119500000D03*
X123400000Y-55200000D03*
X177750000Y-93000000D03*
D18*
X124404500Y-74771650D03*
D19*
X192100000Y-97300000D03*
X65100000Y-78300000D03*
X64550001Y-92304868D03*
X99100000Y-73000000D03*
X213900000Y-114250000D03*
D18*
X139700000Y-80600000D03*
D19*
X113000000Y-93600000D03*
X95600000Y-66300000D03*
X124000000Y-142700000D03*
X154750000Y-90000000D03*
D18*
X74300000Y-89300000D03*
D19*
X151500000Y-55100000D03*
X209800000Y-73300000D03*
X54700000Y-70400000D03*
X119600000Y-116700000D03*
D18*
X175250000Y-111250000D03*
D19*
X126700000Y-111700000D03*
X249500000Y-91100000D03*
X76200000Y-83100000D03*
X141500000Y-136650000D03*
X109900000Y-72800000D03*
D18*
X150000000Y-77500000D03*
D19*
X196100000Y-105600000D03*
X150700000Y-101900000D03*
X223800000Y-73000000D03*
X105200000Y-66300000D03*
X165700000Y-98400000D03*
X80800000Y-56900000D03*
D18*
X120654500Y-77071650D03*
D19*
X113003641Y-143192511D03*
D18*
X183750000Y-93750000D03*
D19*
X236100000Y-125000000D03*
X114900000Y-62300000D03*
X213300000Y-119800000D03*
D18*
X122504500Y-74772450D03*
D19*
X90200000Y-56900000D03*
D18*
%TO.N,Net-(PMIC6-VPOS)*%
X139054044Y-78405000D03*
X125300000Y-80300000D03*
X125300000Y-81200000D03*
X139054044Y-79305000D03*
X125300000Y-79300000D03*
X139054044Y-77505000D03*
%TO.N,GPIO34{slash}ADC1_CH6*%
X64250000Y-89000000D03*
%TO.N,GPIO35{slash}ADC1_CH7*%
X64200000Y-96520000D03*
%TO.N,VUSB*%
X78950000Y-94300000D03*
X79425000Y-89975000D03*
%TO.N,Net-(PMIC6-ENN)*%
X150250000Y-81000000D03*
X153250000Y-79750000D03*
%TO.N,Net-(PMIC1-STAT1{slash}\u002ALBO)*%
X69700000Y-82600000D03*
X72300000Y-86400000D03*
%TO.N,Net-(PMIC6-VNEG)*%
X162450000Y-79400000D03*
X159300000Y-74250000D03*
X159304044Y-75250000D03*
X162454044Y-78400000D03*
X162450000Y-77350000D03*
X159300000Y-76250000D03*
%TO.N,Net-(PMIC1-~{PG})*%
X73230000Y-82920000D03*
X70860000Y-80550000D03*
D20*
%TO.N,AIN3*%
X86250000Y-119750000D03*
D18*
%TO.N,GPIO39{slash}ADC1_CH3*%
X67000000Y-79750000D03*
%TO.N,GPIO32{slash}ADC1_CH4{slash}XTAL32_IN*%
X100350000Y-121600000D03*
%TO.N,GPIO33{slash}ADC1_CH5{slash}XTAL32_OUT*%
X98000000Y-121750000D03*
D20*
%TO.N,GPIO25{slash}ADC2_CH8{slash}DAC_1*%
X128000000Y-125250000D03*
%TO.N,GPIO26{slash}ADC2_CH9{slash}DAC_2*%
X125500000Y-127000000D03*
D18*
%TO.N,VIN*%
X76400000Y-100100000D03*
X73800000Y-100100000D03*
X63790000Y-99345000D03*
X75100000Y-100700000D03*
X76400000Y-101300000D03*
X73800000Y-101300000D03*
%TD*%
%TO.N,+3V3*%
D21*
X239590000Y-135000000D02*
X239590000Y-65000000D01*
X61000000Y-89485000D02*
X61000000Y-92515000D01*
X239590000Y-57500000D02*
X239590000Y-65000000D01*
X74630002Y-95400000D02*
X63900000Y-95400000D01*
X63900000Y-95400000D02*
X61000000Y-92500000D01*
X239590000Y-142500000D02*
X239590000Y-135000000D01*
X85020000Y-105789998D02*
X74630002Y-95400000D01*
X61000000Y-92500000D02*
X61000000Y-89485000D01*
%TO.N,Net-(PMIC6-VPOS)*%
D22*
X137159044Y-80300000D02*
X139054044Y-78405000D01*
X125300000Y-80300000D02*
X137159044Y-80300000D01*
%TO.N,-12V*%
D21*
X229430000Y-142500000D02*
X229430000Y-135000000D01*
X229430000Y-65000000D02*
X229430000Y-57500000D01*
X229430000Y-135000000D02*
X229430000Y-65000000D01*
%TO.N,VUSB*%
D23*
X80075000Y-90625000D02*
X80075000Y-93525000D01*
X79300000Y-94300000D02*
X78950000Y-94300000D01*
X79425000Y-89975000D02*
X80075000Y-90625000D01*
X80075000Y-93525000D02*
X79300000Y-94300000D01*
%TO.N,Net-(PMIC6-VNEG)*%
D22*
X162450000Y-78400000D02*
X160900000Y-78400000D01*
D10*
X162454044Y-78400000D02*
X162450000Y-78400000D01*
D22*
X160900000Y-78400000D02*
X159300000Y-76800000D01*
D21*
X159300000Y-76800000D02*
X159300000Y-75250000D01*
%TO.N,+12V*%
X231970000Y-135000000D02*
X231970000Y-142500000D01*
X231970000Y-57500000D02*
X231970000Y-65000000D01*
X231970000Y-65000000D02*
X231970000Y-135000000D01*
%TO.N,AIN1*%
X237050000Y-57500000D02*
X237050000Y-65000000D01*
%TO.N,VIN*%
D24*
X63790000Y-99345000D02*
X65040000Y-99345000D01*
X65040000Y-99345000D02*
X66315000Y-100620000D01*
X66395000Y-100700000D02*
X75100000Y-100700000D01*
X66315000Y-100620000D02*
X66395000Y-100700000D01*
%TO.N,-2V5*%
D21*
X234510000Y-65000000D02*
X234510000Y-57500000D01*
%TD*%
M02*
