M48
INCH
T1C0.0118
T2C0.0197
T3C0.0394
T4C0.0402
T5C0.0421
T6C0.0433
T7C0.0580
T8C0.1260
%
G90
G05
T1
X2.4031Y-3.799
X2.4051Y-3.2325
X2.4063Y-3.51
X2.5114Y-3.9112
X2.5276Y-3.8
X2.5295Y-3.5039
X2.563Y-3.4573
X2.6378Y-3.1398
X2.7441Y-3.252
X2.7638Y-3.4016
X2.7898Y-3.1713
X2.8465Y-3.4016
X2.8789Y-3.4705
X2.8831Y-3.2646
X2.9055Y-3.9409
X2.9055Y-3.9882
X2.9252Y-3.5157
X2.9252Y-3.5709
X2.9528Y-3.5433
X2.9567Y-3.9646
X2.9843Y-3.5157
X2.9843Y-3.5709
X3.0079Y-3.9409
X3.0079Y-3.9882
X3.1083Y-3.7126
X3.124Y-3.5069
X3.127Y-3.5423
X3.8583Y-4.7933
X3.9508Y-4.7874
X4.1654Y-3.3976
X4.7502Y-2.8512
X4.7502Y-2.9418
X4.7502Y-3.0343
X4.823Y-2.8552
X4.823Y-2.9438
X4.825Y-3.0363
X4.8978Y-2.8552
X4.8978Y-2.9438
X4.8998Y-3.0343
X4.9331Y-3.122
X4.9331Y-3.1614
X4.9331Y-3.1969
X5.3543Y-4.5768
X5.3642Y-4.4783
X5.4746Y-3.0514
X5.4746Y-3.0868
X5.4746Y-3.1222
X5.5Y-3.1732
X5.5217Y-4.3799
X5.5276Y-3.2126
X5.6004Y-3.0315
X5.6201Y-4.6949
X5.6496Y-3.1811
X5.6496Y-4.5768
X5.7087Y-3.0906
X5.7776Y-4.3799
X5.7972Y-4.6752
X5.8386Y-2.8661
X5.876Y-3.0217
X5.876Y-3.0807
X5.9055Y-3.0512
X5.9154Y-3.189
X5.935Y-3.0807
X5.937Y-3.0217
X5.9606Y-2.8819
X6.0197Y-2.8268
X6.0335Y-3.1398
X6.0433Y-4.4783
X6.1811Y-4.3799
X6.1909Y-4.5768
X6.2717Y-2.9232
X6.2717Y-3.002
X6.2718Y-2.9626
X6.3386Y-4.4783
X6.3957Y-3.0453
X6.3957Y-3.126
X6.3958Y-3.0866
X6.437Y-4.5768
X6.4469Y-4.4882
X6.5551Y-4.3799
X6.8996Y-4.3799
X6.9291Y-4.4783
X7.1654Y-3.7008
X7.1654Y-4.4587
X7.2343Y-3.6909
X7.3425Y-2.4803
T2
X3.3957Y-4.7146
X4.9409Y-5.0
X5.0394Y-4.9311
T3
X2.1535Y-2.7717
X2.189Y-2.4882
X2.2835Y-4.8465
X2.4094Y-2.8386
X2.4154Y-2.1181
X2.5413Y-3.634
X2.5512Y-3.3504
X2.563Y-3.0827
X2.6457Y-5.7323
X2.6496Y-3.4606
X2.7205Y-4.8858
X2.9882Y-4.9055
X3.0Y-3.2717
X3.1024Y-5.7047
X3.1658Y-3.2845
X3.1811Y-2.2402
X3.2244Y-2.8622
X3.2441Y-3.7402
X3.2913Y-3.0709
X3.2953Y-5.6417
X3.4173Y-4.9685
X3.4803Y-2.878
X3.5512Y-2.2402
X3.7638Y-2.4488
X3.7638Y-2.6102
X3.7953Y-3.1969
X3.8346Y-5.6299
X3.8819Y-2.252
X3.9016Y-2.874
X3.9606Y-2.4488
X3.9646Y-2.6063
X3.9685Y-3.3071
X4.0984Y-3.7087
X4.1417Y-2.4488
X4.1417Y-2.6102
X4.2795Y-4.0394
X4.3189Y-2.4528
X4.3189Y-2.6102
X4.3268Y-2.8661
X4.3976Y-3.1772
X4.4488Y-3.685
X4.449Y-5.6375
X4.4685Y-3.4213
X4.5236Y-2.4528
X4.5276Y-2.6063
X4.6043Y-2.1575
X4.7087Y-4.5945
X4.7913Y-3.7756
X4.8583Y-2.1732
X4.8819Y-5.6181
X4.9567Y-3.9843
X4.9882Y-4.3976
X5.2323Y-3.0591
X5.2953Y-2.7638
X5.315Y-3.9567
X5.3937Y-4.7047
X5.5551Y-2.1693
X5.563Y-2.7244
X5.5709Y-5.3799
X5.6339Y-2.4567
X5.7717Y-3.2756
X5.9213Y-2.5118
X5.9331Y-4.0118
X5.9646Y-2.1693
X6.0079Y-5.5098
X6.0925Y-3.5433
X6.1122Y-3.9173
X6.1319Y-3.7402
X6.1575Y-3.2913
X6.1929Y-2.3307
X6.2087Y-2.7402
X6.25Y-4.7047
X6.4488Y-2.752
X6.4685Y-2.1575
X6.4724Y-4.9528
X6.5236Y-3.874
X6.5945Y-5.5827
X6.626Y-2.9252
X6.6929Y-2.4606
X6.7126Y-2.1614
X6.9291Y-5.3642
X6.9882Y-2.1693
X6.9921Y-3.8425
X6.998Y-3.6614
X7.0Y-3.185
X7.0669Y-5.5906
X7.0768Y-4.7539
X7.4291Y-4.4094
X7.563Y-3.8307
X7.6024Y-3.0118
X7.7205Y-4.1575
X7.7244Y-3.3819
X7.7559Y-5.0866
X8.2598Y-2.8858
X8.2677Y-4.9803
X8.3071Y-3.7638
X8.3976Y-4.7165
X8.4213Y-4.498
X8.4449Y-3.3228
X8.7244Y-4.9803
X8.752Y-4.5079
X8.811Y-2.874
X8.8268Y-3.3701
X9.2815Y-4.065
X9.2953Y-4.3976
X9.2953Y-4.9213
X9.3169Y-3.4843
X9.689Y-4.9134
X9.6969Y-2.9291
X9.7047Y-4.0157
X9.7165Y-3.2874
X9.8071Y-5.3425
X9.8189Y-2.5906
X9.8228Y-3.5866
X9.8346Y-4.5079
T4
X7.6327Y-2.5591
X7.6327Y-5.315
X7.7327Y-2.5591
X7.7327Y-5.315
X7.8327Y-2.5591
X7.8327Y-5.315
X7.9327Y-2.5591
X7.9327Y-5.315
X8.0327Y-2.5591
X8.0327Y-5.315
X8.1327Y-2.5591
X8.1327Y-5.315
X8.2327Y-2.5591
X8.2327Y-5.315
X8.3327Y-2.5591
X8.3327Y-5.315
X8.4327Y-2.5591
X8.4327Y-5.315
X8.5327Y-2.5591
X8.5327Y-5.315
X8.6327Y-2.5591
X8.6327Y-5.315
X8.7327Y-2.5591
X8.7327Y-5.315
X8.8327Y-2.5591
X8.8327Y-5.315
X8.9327Y-2.5591
X8.9327Y-5.315
X9.0327Y-2.5591
X9.0327Y-5.315
X9.1327Y-2.5591
X9.1327Y-5.315
X9.2327Y-2.5591
X9.2327Y-5.315
X9.3327Y-2.5591
X9.3327Y-5.315
X9.4327Y-2.5591
X9.4327Y-5.315
X9.5327Y-2.5591
X9.5327Y-5.315
T5
X2.2472Y-4.372
X2.2472Y-5.272
X2.3472Y-4.372
X2.3472Y-5.272
X2.4472Y-4.372
X2.4472Y-5.272
X2.5472Y-4.372
X2.5472Y-5.272
X2.6472Y-4.372
X2.6472Y-5.272
X2.7472Y-4.372
X2.7472Y-5.272
X2.8472Y-4.372
X2.8472Y-5.272
X2.9472Y-4.372
X2.9472Y-5.272
X3.0472Y-4.372
X3.0472Y-5.272
X3.1472Y-4.372
X3.1472Y-5.272
X3.2472Y-4.372
X3.2472Y-5.272
X3.3472Y-4.372
X3.3472Y-5.272
X3.4472Y-4.372
X3.4472Y-5.272
X3.5472Y-4.372
X3.5472Y-5.272
X3.6472Y-4.372
X3.6472Y-5.272
X3.7472Y-4.372
X3.7472Y-5.272
X3.8472Y-4.372
X3.8472Y-5.272
X3.9472Y-4.372
X3.9472Y-5.272
X4.0472Y-4.372
X4.0472Y-5.272
X4.1472Y-4.372
X4.1472Y-5.272
X4.2472Y-4.372
X4.2472Y-5.272
X4.3472Y-4.372
X4.3472Y-5.272
X4.4472Y-4.372
X4.4472Y-5.272
X4.5472Y-4.372
X4.5472Y-5.272
T6
X2.2472Y-4.165
X2.2472Y-5.4689
X2.3472Y-4.165
X2.3472Y-5.4689
X2.4472Y-4.165
X2.4472Y-5.4689
X2.5472Y-4.165
X2.5472Y-5.4689
X2.6472Y-4.165
X2.6472Y-5.4689
X2.7472Y-4.165
X2.7472Y-5.4689
X2.8472Y-4.165
X2.8472Y-5.4689
X2.9472Y-4.165
X2.9472Y-5.4689
X3.0472Y-4.165
X3.0472Y-5.4689
X3.1472Y-4.165
X3.1472Y-5.4689
X3.2472Y-4.165
X3.2472Y-5.4689
X3.3472Y-4.165
X3.3472Y-5.4689
X3.4472Y-4.165
X3.4472Y-5.4689
X3.5472Y-4.165
X3.5472Y-5.4689
X3.6472Y-4.165
X3.6472Y-5.4689
X3.7472Y-4.165
X3.7472Y-5.4689
X3.8472Y-4.165
X3.8472Y-5.4689
X3.9472Y-4.165
X3.9472Y-5.4689
X4.0472Y-4.165
X4.0472Y-5.4689
X4.1472Y-4.165
X4.1472Y-5.4689
X4.2472Y-4.165
X4.2472Y-5.4689
X4.3472Y-4.165
X4.3472Y-5.4689
X4.4472Y-4.165
X4.4472Y-5.4689
X4.5472Y-4.165
X4.5472Y-5.4689
X7.6327Y-2.2638
X7.6327Y-5.6102
X7.7327Y-2.2638
X7.7327Y-5.6102
X7.8327Y-2.2638
X7.8327Y-5.6102
X7.9327Y-2.2638
X7.9327Y-5.6102
X8.0327Y-2.2638
X8.0327Y-5.6102
X8.1327Y-2.2638
X8.1327Y-5.6102
X8.2327Y-2.2638
X8.2327Y-5.6102
X8.3327Y-2.2638
X8.3327Y-5.6102
X8.4327Y-2.2638
X8.4327Y-5.6102
X8.5327Y-2.2638
X8.5327Y-5.6102
X8.6327Y-2.2638
X8.6327Y-5.6102
X8.7327Y-2.2638
X8.7327Y-5.6102
X8.8327Y-2.2638
X8.8327Y-5.6102
X8.9327Y-2.2638
X8.9327Y-5.6102
X9.0327Y-2.2638
X9.0327Y-5.6102
X9.1327Y-2.2638
X9.1327Y-5.6102
X9.2327Y-2.2638
X9.2327Y-5.6102
X9.3327Y-2.2638
X9.3327Y-5.6102
X9.4327Y-2.2638
X9.4327Y-5.6102
X9.5327Y-2.2638
X9.5327Y-5.6102
T7
X4.772Y-3.3858
X4.972Y-3.3858
X5.2165Y-3.4039
X5.2165Y-3.6039
X5.5118Y-3.4039
X5.5118Y-3.6039
X5.5118Y-3.8252
X5.5118Y-4.0252
X5.5398Y-4.9295
X5.7398Y-4.9295
X5.9843Y-4.9492
X5.9843Y-5.1492
X6.2795Y-4.9476
X6.2795Y-5.1476
X6.2795Y-5.3807
X6.2795Y-5.5807
X6.2992Y-3.4039
X6.2992Y-3.6039
X6.2992Y-3.8272
X6.2992Y-4.0272
X6.5945Y-3.4039
X6.5945Y-3.6039
X6.839Y-3.3957
X7.039Y-3.3957
T8
X2.1654Y-2.1654
X2.1654Y-5.7087
X10.0394Y-2.1654
X10.0394Y-5.7087
M30
