%TF.GenerationSoftware,KiCad,Pcbnew,10.0.3*%
%TF.CreationDate,2026-08-24T20:33:41-04:00*%
%TF.ProjectId,02_Power_Board,30325f50-6f77-4657-925f-426f6172642e,rev?*%
%TF.SameCoordinates,Original*%
%TF.FileFunction,Copper,L3,Inr*%
%TF.FilePolarity,Positive*%
%FSLAX46Y46*%
G04 Gerber Fmt 4.6, Leading zero omitted, Abs format (unit mm)*
G04 Created by KiCad (PCBNEW 10.0.3) date 2026-08-24 20:33:41*
%MOMM*%
%LPD*%
G01*
G04 APERTURE LIST*
%TA.AperFunction,ComponentPad*%
%ADD10R,1.605000X1.605000*%
%TD*%
%TA.AperFunction,ComponentPad*%
%ADD11C,1.605000*%
%TD*%
%TA.AperFunction,ComponentPad*%
%ADD12C,2.209500*%
%TD*%
%TA.AperFunction,ComponentPad*%
%ADD13C,6.400000*%
%TD*%
%TA.AperFunction,ComponentPad*%
%ADD14C,1.650000*%
%TD*%
%TA.AperFunction,ComponentPad*%
%ADD15C,1.530000*%
%TD*%
%TA.AperFunction,ViaPad*%
%ADD16C,0.600000*%
%TD*%
%TA.AperFunction,ViaPad*%
%ADD17C,2.000000*%
%TD*%
%TA.AperFunction,ViaPad*%
%ADD18C,1.000000*%
%TD*%
%TA.AperFunction,Conductor*%
%ADD19C,0.600000*%
%TD*%
%TA.AperFunction,Conductor*%
%ADD20C,1.000000*%
%TD*%
%TA.AperFunction,Conductor*%
%ADD21C,0.500000*%
%TD*%
%TA.AperFunction,Conductor*%
%ADD22C,0.400000*%
%TD*%
G04 APERTURE END LIST*
D10*
%TO.N,GPIO21*%
%TO.C,J4*%
X115500000Y-133910001D03*
D11*
%TO.N,GPIO22*%
X112960000Y-133910001D03*
%TO.N,GPIO19*%
X110420000Y-133910001D03*
%TO.N,TXD0*%
X107880000Y-133910001D03*
%TO.N,RXD0*%
X105340000Y-133910001D03*
%TO.N,GPIO5*%
X102800000Y-133910001D03*
%TO.N,GPIO8*%
X100260000Y-133910001D03*
%TO.N,GPIO7*%
X97720000Y-133910001D03*
%TO.N,GPIO20*%
X95180000Y-133910001D03*
%TO.N,GPIO4{slash}ADC2_CH0*%
X92640000Y-133910001D03*
%TO.N,GPIO0{slash}ADC2_CH1*%
X90100000Y-133910001D03*
%TO.N,GPIO2{slash}ADC2_CH2*%
X87560000Y-133910001D03*
%TO.N,GPIO15{slash}ADC2_CH3*%
X85020000Y-133910001D03*
%TO.N,GPIO13{slash}ADC2_CH4*%
X82480000Y-133910001D03*
%TO.N,GPIO12{slash}ADC2_CH5*%
X79940000Y-133910001D03*
%TO.N,GPIO14{slash}ADC2_CH6*%
X77400000Y-133910001D03*
%TO.N,GPIO27{slash}ADC2_CH7*%
X74860000Y-133910001D03*
%TO.N,GND*%
X72320000Y-133910001D03*
X69780000Y-133910001D03*
X67240000Y-133910001D03*
X64700000Y-133910001D03*
X62160000Y-133910001D03*
X59620000Y-133910001D03*
X57080000Y-133910001D03*
%TD*%
D12*
%TO.N,Net-(PMIC6-VNEG)*%
%TO.C,J16*%
X178790000Y-86250000D03*
%TO.N,Net-(PMIC8-IN)*%
X173710000Y-86250000D03*
%TD*%
%TO.N,Net-(PMIC8-IN)*%
%TO.C,J18*%
X160000000Y-86460000D03*
%TO.N,Net-(J18-Pad2)*%
X160000000Y-91540000D03*
%TD*%
%TO.N,Net-(PMIC5-EN)*%
%TO.C,J10*%
X159500000Y-125670000D03*
%TO.N,Net-(J10-Pad2)*%
X159500000Y-130750000D03*
%TD*%
D13*
%TO.N,GND*%
%TO.C,MH2*%
X55000000Y-145000000D03*
%TD*%
D12*
%TO.N,Net-(PMIC6-VPOS)*%
%TO.C,J12*%
X121210000Y-86000000D03*
%TO.N,Net-(PMIC7-IN)*%
X126290000Y-86000000D03*
%TD*%
D10*
%TO.N,AIN3*%
%TO.C,J2*%
X115500000Y-111049999D03*
D11*
%TO.N,AIN2*%
X112960000Y-111049999D03*
%TO.N,AIN0*%
X110420000Y-111049999D03*
%TO.N,GPIO39{slash}ADC1_CH3*%
X107880000Y-111049999D03*
%TO.N,EN*%
X105340000Y-111049999D03*
%TO.N,GPIO34{slash}ADC1_CH6*%
X102800000Y-111049999D03*
%TO.N,GPIO35{slash}ADC1_CH7*%
X100260000Y-111049999D03*
%TO.N,GPIO32{slash}ADC1_CH4{slash}XTAL32_IN*%
X97720000Y-111049999D03*
%TO.N,GPIO33{slash}ADC1_CH5{slash}XTAL32_OUT*%
X95180000Y-111049999D03*
%TO.N,GPIO25{slash}ADC2_CH8{slash}DAC_1*%
X92640000Y-111049999D03*
%TO.N,GPIO26{slash}ADC2_CH9{slash}DAC_2*%
X90100000Y-111049999D03*
%TO.N,+3V3*%
X87560000Y-111049999D03*
X85020000Y-111049999D03*
%TO.N,VIN*%
X82480000Y-111049999D03*
%TO.N,VBUS*%
X79940000Y-111049999D03*
%TO.N,VUSB*%
X77400000Y-111049999D03*
%TO.N,GND*%
X74860000Y-111049999D03*
X72320000Y-111049999D03*
X69780000Y-111049999D03*
X67240000Y-111049999D03*
%TO.N,AIN1*%
X64700000Y-111049999D03*
%TO.N,AIN0*%
X62160000Y-111049999D03*
%TO.N,AIN3*%
X59620000Y-111049999D03*
%TO.N,AIN2*%
X57080000Y-111049999D03*
%TD*%
D12*
%TO.N,Net-(PMIC7-IN)*%
%TO.C,J14*%
X140000000Y-86460000D03*
%TO.N,Net-(J14-Pad2)*%
X140000000Y-91540000D03*
%TD*%
D14*
%TO.N,GPIO21*%
%TO.C,J3*%
X115500000Y-138909999D03*
%TO.N,GPIO22*%
X112960000Y-138909999D03*
%TO.N,GPIO19*%
X110420000Y-138909999D03*
%TO.N,TXD0*%
X107880000Y-138909999D03*
%TO.N,RXD0*%
X105340000Y-138909999D03*
%TO.N,GPIO5*%
X102800000Y-138909999D03*
%TO.N,GPIO8*%
X100260000Y-138909999D03*
%TO.N,GPIO7*%
X97720000Y-138909999D03*
%TO.N,GPIO20*%
X95180000Y-138909999D03*
%TO.N,GPIO4{slash}ADC2_CH0*%
X92640000Y-138909999D03*
%TO.N,GPIO0{slash}ADC2_CH1*%
X90100000Y-138909999D03*
%TO.N,GPIO2{slash}ADC2_CH2*%
X87560000Y-138909999D03*
%TO.N,GPIO15{slash}ADC2_CH3*%
X85020000Y-138909999D03*
%TO.N,GPIO13{slash}ADC2_CH4*%
X82480000Y-138909999D03*
%TO.N,GPIO12{slash}ADC2_CH5*%
X79940000Y-138909999D03*
%TO.N,GPIO14{slash}ADC2_CH6*%
X77400000Y-138909999D03*
%TO.N,GPIO27{slash}ADC2_CH7*%
X74860000Y-138909999D03*
%TO.N,GND*%
X72320000Y-138909999D03*
X69780000Y-138909999D03*
X67240000Y-138909999D03*
X64700000Y-138909999D03*
X62160000Y-138909999D03*
X59620000Y-138909999D03*
X57080000Y-138909999D03*
%TD*%
%TO.N,GND*%
%TO.C,J21*%
X242130000Y-142500000D03*
%TO.N,+3V3*%
X239590000Y-142500000D03*
%TO.N,GND*%
X237050000Y-142500000D03*
X234510000Y-142500000D03*
%TO.N,+12V*%
X231970000Y-142500000D03*
%TO.N,-12V*%
X229430000Y-142500000D03*
%TO.N,+3V3*%
X226890000Y-142500000D03*
%TO.N,GPIO27{slash}ADC2_CH7*%
X224350000Y-142500000D03*
%TO.N,GPIO14{slash}ADC2_CH6*%
X221810000Y-142500000D03*
%TO.N,GPIO13{slash}ADC2_CH4*%
X219270000Y-142500000D03*
%TO.N,GND*%
X216730000Y-142500000D03*
X214190000Y-142500000D03*
X211650000Y-142500000D03*
X209110000Y-142500000D03*
X206570000Y-142500000D03*
%TO.N,GPIO25{slash}ADC2_CH8{slash}DAC_1*%
X204030000Y-142500000D03*
%TO.N,GPIO26{slash}ADC2_CH9{slash}DAC_2*%
X201490000Y-142500000D03*
%TO.N,AIN0*%
X198950000Y-142500000D03*
%TO.N,GND*%
X196410000Y-142500000D03*
X193870000Y-142500000D03*
%TD*%
D13*
%TO.N,GND*%
%TO.C,MH1*%
X55000000Y-55000000D03*
%TD*%
%TO.N,GND*%
%TO.C,MH3*%
X255000000Y-55000000D03*
%TD*%
D12*
%TO.N,Net-(PMIC5-EN)*%
%TO.C,J9*%
X152000000Y-125710000D03*
%TO.N,GND*%
X152000000Y-130790000D03*
%TD*%
D14*
%TO.N,GND*%
%TO.C,J23*%
X242130000Y-57500000D03*
%TO.N,+3V3*%
X239590000Y-57500000D03*
%TO.N,AIN1*%
X237050000Y-57500000D03*
%TO.N,-2V5*%
X234510000Y-57500000D03*
%TO.N,+12V*%
X231970000Y-57500000D03*
%TO.N,-12V*%
X229430000Y-57500000D03*
%TO.N,GND*%
X226890000Y-57500000D03*
X224350000Y-57500000D03*
X221810000Y-57500000D03*
X219270000Y-57500000D03*
%TO.N,+3V3*%
X216730000Y-57500000D03*
%TO.N,GPIO32{slash}ADC1_CH4{slash}XTAL32_IN*%
X214190000Y-57500000D03*
%TO.N,GPIO33{slash}ADC1_CH5{slash}XTAL32_OUT*%
X211650000Y-57500000D03*
%TO.N,GPIO4{slash}ADC2_CH0*%
X209110000Y-57500000D03*
%TO.N,GPIO19*%
X206570000Y-57500000D03*
%TO.N,GPIO25{slash}ADC2_CH8{slash}DAC_1*%
X204030000Y-57500000D03*
%TO.N,GPIO26{slash}ADC2_CH9{slash}DAC_2*%
X201490000Y-57500000D03*
%TO.N,GND*%
X198950000Y-57500000D03*
X196410000Y-57500000D03*
X193870000Y-57500000D03*
%TD*%
D12*
%TO.N,Net-(PMIC8-IN)*%
%TO.C,J17*%
X167500000Y-86460000D03*
%TO.N,GND*%
X167500000Y-91540000D03*
%TD*%
%TO.N,Net-(J10-Pad2)*%
%TO.C,J11*%
X159500000Y-136670000D03*
%TO.N,GND*%
X159500000Y-141750000D03*
%TD*%
D14*
%TO.N,AIN3*%
%TO.C,J1*%
X115500000Y-105789998D03*
%TO.N,AIN2*%
X112960000Y-105789998D03*
%TO.N,AIN0*%
X110420000Y-105789998D03*
%TO.N,GPIO39{slash}ADC1_CH3*%
X107880000Y-105789998D03*
%TO.N,EN*%
X105340000Y-105789998D03*
%TO.N,GPIO34{slash}ADC1_CH6*%
X102800000Y-105789998D03*
%TO.N,GPIO35{slash}ADC1_CH7*%
X100260000Y-105789998D03*
%TO.N,GPIO32{slash}ADC1_CH4{slash}XTAL32_IN*%
X97720000Y-105789998D03*
%TO.N,GPIO33{slash}ADC1_CH5{slash}XTAL32_OUT*%
X95180000Y-105789998D03*
%TO.N,GPIO25{slash}ADC2_CH8{slash}DAC_1*%
X92640000Y-105789998D03*
%TO.N,GPIO26{slash}ADC2_CH9{slash}DAC_2*%
X90100000Y-105789998D03*
%TO.N,+3V3*%
X87560000Y-105789998D03*
X85020000Y-105789998D03*
%TO.N,VIN*%
X82480000Y-105789998D03*
%TO.N,VBUS*%
X79940000Y-105789998D03*
%TO.N,VUSB*%
X77400000Y-105789998D03*
%TO.N,GND*%
X74860000Y-105789998D03*
X72320000Y-105789998D03*
X69780000Y-105789998D03*
X67240000Y-105789998D03*
%TO.N,AIN1*%
X64700000Y-105789998D03*
%TO.N,AIN0*%
X62160000Y-105789998D03*
%TO.N,AIN3*%
X59620000Y-105789998D03*
%TO.N,AIN2*%
X57080000Y-105789998D03*
%TD*%
D12*
%TO.N,Net-(PMIC4-VOUT)*%
%TO.C,J8*%
X140710000Y-125210000D03*
%TO.N,Net-(PMIC5-EN)*%
X145790000Y-125210000D03*
%TD*%
D15*
%TO.N,GND*%
%TO.C,J22*%
X242130000Y-65000000D03*
%TO.N,+3V3*%
X239590000Y-65000000D03*
%TO.N,AIN1*%
X237050000Y-65000000D03*
%TO.N,-2V5*%
X234510000Y-65000000D03*
%TO.N,+12V*%
X231970000Y-65000000D03*
%TO.N,-12V*%
X229430000Y-65000000D03*
%TO.N,GND*%
X226890000Y-65000000D03*
X224350000Y-65000000D03*
X221810000Y-65000000D03*
X219270000Y-65000000D03*
%TO.N,+3V3*%
X216730000Y-65000000D03*
%TO.N,GPIO32{slash}ADC1_CH4{slash}XTAL32_IN*%
X214190000Y-65000000D03*
%TO.N,GPIO33{slash}ADC1_CH5{slash}XTAL32_OUT*%
X211650000Y-65000000D03*
%TO.N,GPIO4{slash}ADC2_CH0*%
X209110000Y-65000000D03*
%TO.N,GPIO19*%
X206570000Y-65000000D03*
%TO.N,GPIO25{slash}ADC2_CH8{slash}DAC_1*%
X204030000Y-65000000D03*
%TO.N,GPIO26{slash}ADC2_CH9{slash}DAC_2*%
X201490000Y-65000000D03*
%TO.N,GND*%
X198950000Y-65000000D03*
X196410000Y-65000000D03*
X193870000Y-65000000D03*
%TD*%
D12*
%TO.N,Net-(J18-Pad2)*%
%TO.C,J19*%
X160000000Y-97210000D03*
%TO.N,GND*%
X160000000Y-102290000D03*
%TD*%
%TO.N,Net-(PMIC7-IN)*%
%TO.C,J13*%
X132500000Y-86460000D03*
%TO.N,GND*%
X132500000Y-91540000D03*
%TD*%
D15*
%TO.N,GND*%
%TO.C,J20*%
X242130000Y-135000000D03*
%TO.N,+3V3*%
X239590000Y-135000000D03*
%TO.N,GND*%
X237050000Y-135000000D03*
X234510000Y-135000000D03*
%TO.N,+12V*%
X231970000Y-135000000D03*
%TO.N,-12V*%
X229430000Y-135000000D03*
%TO.N,+3V3*%
X226890000Y-135000000D03*
%TO.N,GPIO27{slash}ADC2_CH7*%
X224350000Y-135000000D03*
%TO.N,GPIO14{slash}ADC2_CH6*%
X221810000Y-135000000D03*
%TO.N,GPIO13{slash}ADC2_CH4*%
X219270000Y-135000000D03*
%TO.N,GND*%
X216730000Y-135000000D03*
X214190000Y-135000000D03*
X211650000Y-135000000D03*
X209110000Y-135000000D03*
X206570000Y-135000000D03*
%TO.N,GPIO25{slash}ADC2_CH8{slash}DAC_1*%
X204030000Y-135000000D03*
%TO.N,GPIO26{slash}ADC2_CH9{slash}DAC_2*%
X201490000Y-135000000D03*
%TO.N,AIN0*%
X198950000Y-135000000D03*
%TO.N,GND*%
X196410000Y-135000000D03*
X193870000Y-135000000D03*
%TD*%
D13*
%TO.N,GND*%
%TO.C,MH4*%
X255000000Y-145000000D03*
%TD*%
D12*
%TO.N,Net-(J14-Pad2)*%
%TO.C,J15*%
X140000000Y-97160000D03*
%TO.N,GND*%
X140000000Y-102240000D03*
%TD*%
D16*
%TO.N,Net-(PMIC1-STAT2)*%
X65100000Y-87815000D03*
X70200000Y-86400000D03*
%TO.N,+3V3*%
X61040000Y-96495000D03*
X61120000Y-89155000D03*
X61090000Y-82105000D03*
%TO.N,GND*%
X182000000Y-94000000D03*
D17*
X179500000Y-142000000D03*
X193100000Y-76500000D03*
D16*
X163500000Y-116250000D03*
X153500000Y-113750000D03*
D17*
X109700000Y-66300000D03*
X177600000Y-97600000D03*
X157300000Y-59200000D03*
X55600000Y-63200000D03*
X132900000Y-77700000D03*
D16*
X79350000Y-89075000D03*
D17*
X168300000Y-74300000D03*
X152600000Y-139950000D03*
X134500000Y-70200000D03*
X164300000Y-54800000D03*
X214500000Y-84400000D03*
X246300000Y-74400000D03*
X111700000Y-80700000D03*
D16*
X166500000Y-111250000D03*
D17*
X83700000Y-143300000D03*
X121700000Y-95900000D03*
X236650000Y-88500000D03*
X176000000Y-136250000D03*
D16*
X124404500Y-72521650D03*
X143500000Y-116250000D03*
X73125000Y-88150000D03*
D17*
X67200000Y-145600000D03*
D16*
X147250000Y-118750000D03*
D17*
X150400000Y-63800000D03*
X113500000Y-86900000D03*
X115000000Y-66200000D03*
X163800000Y-69900000D03*
X177500000Y-55100000D03*
D16*
X149250000Y-76750000D03*
D17*
X105200000Y-62200000D03*
X197000000Y-129200000D03*
X146600000Y-83200000D03*
X100800000Y-84000000D03*
D16*
X161000000Y-113750000D03*
D17*
X58000000Y-123100000D03*
D16*
X148300000Y-72800000D03*
D17*
X170000000Y-62500000D03*
D16*
X105800000Y-86300000D03*
D17*
X235750000Y-103250000D03*
X86800000Y-126200000D03*
D16*
X74300000Y-90700000D03*
D17*
X64800000Y-85100000D03*
X246800000Y-83500000D03*
X188700000Y-112000000D03*
X116950000Y-54800000D03*
D16*
X150750000Y-78250000D03*
D17*
X249800000Y-114500000D03*
X210000000Y-126500000D03*
X100700000Y-66200000D03*
X104100000Y-94200000D03*
D16*
X140400000Y-81600000D03*
D17*
X83600000Y-78000000D03*
X141100000Y-55100000D03*
D16*
X182000000Y-113250000D03*
D17*
X80412352Y-83426953D03*
D16*
X146750000Y-111250000D03*
D17*
X61350000Y-53800000D03*
X179750000Y-120750000D03*
D16*
X163750000Y-114000000D03*
D17*
X95600000Y-62200000D03*
D16*
X157000000Y-111250000D03*
D17*
X96400000Y-81200000D03*
D16*
X186500000Y-63000000D03*
X136000000Y-116250000D03*
D17*
X211000000Y-95600000D03*
X155750000Y-95000000D03*
D16*
X145000000Y-78500000D03*
D17*
X164400000Y-125800000D03*
D16*
X150800000Y-76750000D03*
X75000000Y-90000000D03*
D17*
X246100000Y-124800000D03*
X88400000Y-73100000D03*
D16*
X75800000Y-90700000D03*
D17*
X143100000Y-62400000D03*
D16*
X176000000Y-113750000D03*
D17*
X249400000Y-65800000D03*
X141300000Y-69200000D03*
D16*
X136250000Y-113750000D03*
X149250000Y-78250000D03*
D17*
X81900000Y-72700000D03*
X221600000Y-126500000D03*
X249100000Y-135700000D03*
X109700000Y-62300000D03*
X82400000Y-95000000D03*
X196200000Y-85900000D03*
X98600000Y-57200000D03*
D16*
X157250000Y-116250000D03*
X120654500Y-72421650D03*
D17*
X97400000Y-143000000D03*
D16*
X120654500Y-74721650D03*
X143500000Y-80800000D03*
D17*
X170500000Y-54900000D03*
X155250000Y-99500000D03*
X135000000Y-100500000D03*
X157700000Y-69600000D03*
D16*
X124454500Y-77071650D03*
X140250000Y-111250000D03*
X152900000Y-71800000D03*
D17*
X75900000Y-124600000D03*
D16*
X151400000Y-73200000D03*
D17*
X236100000Y-111700000D03*
D16*
X122504500Y-72521650D03*
D17*
X177800000Y-80900000D03*
X125900000Y-101200000D03*
X156400000Y-83600000D03*
X108700000Y-102600000D03*
X69100000Y-124100000D03*
X100600000Y-62200000D03*
X78800000Y-144900000D03*
X222300000Y-114500000D03*
X224200000Y-85600000D03*
D16*
X122554500Y-77121650D03*
D17*
X137000000Y-119500000D03*
D16*
X142750000Y-119250000D03*
D17*
X167500000Y-141800000D03*
X61200000Y-72100000D03*
X67300000Y-87900000D03*
D16*
X75800000Y-89300000D03*
D17*
X246500000Y-102000000D03*
D16*
X142250000Y-77000000D03*
D17*
X158750000Y-119500000D03*
X123400000Y-55200000D03*
X177750000Y-93000000D03*
D16*
X124404500Y-74771650D03*
D17*
X192100000Y-97300000D03*
X65100000Y-78300000D03*
X64550001Y-92304868D03*
X99100000Y-73000000D03*
X213900000Y-114250000D03*
D16*
X139700000Y-80600000D03*
D17*
X113000000Y-93600000D03*
X95600000Y-66300000D03*
X124000000Y-142700000D03*
X154750000Y-90000000D03*
D16*
X74300000Y-89300000D03*
D17*
X151500000Y-55100000D03*
X209800000Y-73300000D03*
X54700000Y-70400000D03*
X119600000Y-116700000D03*
D16*
X175250000Y-111250000D03*
D17*
X126700000Y-111700000D03*
X249500000Y-91100000D03*
X76200000Y-83100000D03*
X141500000Y-136650000D03*
X109900000Y-72800000D03*
D16*
X150000000Y-77500000D03*
D17*
X196100000Y-105600000D03*
X150700000Y-101900000D03*
X223800000Y-73000000D03*
X105200000Y-66300000D03*
X165700000Y-98400000D03*
X80800000Y-56900000D03*
D16*
X120654500Y-77071650D03*
D17*
X113003641Y-143192511D03*
D16*
X183750000Y-93750000D03*
D17*
X236100000Y-125000000D03*
X114900000Y-62300000D03*
X213300000Y-119800000D03*
D16*
X122504500Y-74772450D03*
D17*
X90200000Y-56900000D03*
D16*
%TO.N,Net-(PMIC6-VPOS)*%
X139054044Y-78405000D03*
X125300000Y-80300000D03*
X125300000Y-81200000D03*
X139054044Y-79305000D03*
X125300000Y-79300000D03*
X139054044Y-77505000D03*
%TO.N,GPIO34{slash}ADC1_CH6*%
X64250000Y-89000000D03*
%TO.N,GPIO35{slash}ADC1_CH7*%
X64200000Y-96520000D03*
%TO.N,VUSB*%
X78950000Y-94300000D03*
X79425000Y-89975000D03*
%TO.N,Net-(PMIC6-ENN)*%
X150250000Y-81000000D03*
X153250000Y-79750000D03*
%TO.N,Net-(PMIC1-STAT1{slash}\u002ALBO)*%
X69700000Y-82600000D03*
X72300000Y-86400000D03*
%TO.N,Net-(PMIC6-VNEG)*%
X162450000Y-79400000D03*
X159300000Y-74250000D03*
X159304044Y-75250000D03*
X162454044Y-78400000D03*
X162450000Y-77350000D03*
X159300000Y-76250000D03*
%TO.N,Net-(PMIC1-~{PG})*%
X73230000Y-82920000D03*
X70860000Y-80550000D03*
D18*
%TO.N,AIN3*%
X86250000Y-119750000D03*
D16*
%TO.N,GPIO39{slash}ADC1_CH3*%
X67000000Y-79750000D03*
%TO.N,GPIO32{slash}ADC1_CH4{slash}XTAL32_IN*%
X100350000Y-121600000D03*
%TO.N,GPIO33{slash}ADC1_CH5{slash}XTAL32_OUT*%
X98000000Y-121750000D03*
D18*
%TO.N,GPIO25{slash}ADC2_CH8{slash}DAC_1*%
X128000000Y-125250000D03*
%TO.N,GPIO26{slash}ADC2_CH9{slash}DAC_2*%
X125500000Y-127000000D03*
D16*
%TO.N,VIN*%
X76400000Y-100100000D03*
X73800000Y-100100000D03*
X63790000Y-99345000D03*
X75100000Y-100700000D03*
X76400000Y-101300000D03*
X73800000Y-101300000D03*
%TD*%
%TO.N,Net-(PMIC1-STAT2)*%
D19*
X65100000Y-87815000D02*
X66515000Y-86400000D01*
X66515000Y-86400000D02*
X70200000Y-86400000D01*
%TO.N,+3V3*%
D20*
X226890000Y-142500000D02*
X226890000Y-135000000D01*
X85020000Y-106049999D02*
X85020000Y-111049999D01*
X87560000Y-106049999D02*
X87560000Y-111049999D01*
%TO.N,GPIO34{slash}ADC1_CH6*%
D21*
X72250000Y-97000000D02*
X94255001Y-97000000D01*
X64250000Y-89000000D02*
X72250000Y-97000000D01*
X102800000Y-105544999D02*
X102800000Y-105789998D01*
D20*
X102800000Y-106049999D02*
X102800000Y-111049999D01*
D21*
X94255001Y-97000000D02*
X102800000Y-105544999D01*
%TO.N,GPIO35{slash}ADC1_CH7*%
X92970002Y-98500000D02*
X100260000Y-105789998D01*
X65770000Y-96520000D02*
X67750000Y-98500000D01*
X67750000Y-98500000D02*
X92970002Y-98500000D01*
X64200000Y-96520000D02*
X65770000Y-96520000D01*
D20*
X100260000Y-106049999D02*
X100260000Y-111049999D01*
%TO.N,VUSB*%
X77400000Y-111049999D02*
X77400000Y-106049999D01*
%TO.N,Net-(PMIC6-ENN)*%
D19*
X150250000Y-81000000D02*
X150870000Y-80380000D01*
X152620000Y-80380000D02*
X153250000Y-79750000D01*
X150870000Y-80380000D02*
X152620000Y-80380000D01*
%TO.N,GPIO21*%
D20*
X115500000Y-138909999D02*
X115500000Y-133910001D01*
%TO.N,GPIO22*%
X112960000Y-138909999D02*
X112960000Y-133910001D01*
%TO.N,GPIO19*%
D22*
X187500000Y-109500000D02*
X187500000Y-61250000D01*
D20*
X110420000Y-138909999D02*
X110420000Y-133910001D01*
D22*
X179500000Y-117500000D02*
X187500000Y-109500000D01*
X110420000Y-133910001D02*
X112830001Y-131500000D01*
X187500000Y-61250000D02*
X193250000Y-55500000D01*
X193250000Y-55500000D02*
X204570000Y-55500000D01*
D20*
X206570000Y-65000000D02*
X206570000Y-57500000D01*
D22*
X112830001Y-131500000D02*
X118500000Y-131500000D01*
X132500000Y-117500000D02*
X179500000Y-117500000D01*
X204570000Y-55500000D02*
X206570000Y-57500000D01*
X118500000Y-131500000D02*
X132500000Y-117500000D01*
%TO.N,TXD0*%
D20*
X107880000Y-133910001D02*
X107880000Y-138909999D01*
%TO.N,RXD0*%
X105340000Y-133910001D02*
X105340000Y-138909999D01*
%TO.N,GPIO5*%
X102800000Y-133910001D02*
X102800000Y-138909999D01*
%TO.N,GPIO8*%
X100260000Y-133910001D02*
X100260000Y-138909999D01*
%TO.N,GPIO7*%
X97720000Y-138909999D02*
X97720000Y-133910001D01*
%TO.N,GPIO20*%
X95180000Y-133910001D02*
X95180000Y-138909999D01*
%TO.N,GPIO4{slash}ADC2_CH0*%
D22*
X185000000Y-108250000D02*
X185000000Y-61500000D01*
X132500000Y-115000000D02*
X178250000Y-115000000D01*
X94700000Y-130000000D02*
X117500000Y-130000000D01*
D20*
X209110000Y-57500000D02*
X209110000Y-65000000D01*
D22*
X192000000Y-54500000D02*
X206110000Y-54500000D01*
X92640000Y-133910001D02*
X92640000Y-132060000D01*
X206110000Y-54500000D02*
X209110000Y-57500000D01*
X92640000Y-132060000D02*
X94700000Y-130000000D01*
X185000000Y-61500000D02*
X192000000Y-54500000D01*
X117500000Y-130000000D02*
X132500000Y-115000000D01*
D20*
X92640000Y-138909999D02*
X92640000Y-133910001D01*
D22*
X178250000Y-115000000D02*
X185000000Y-108250000D01*
%TO.N,GPIO0{slash}ADC2_CH1*%
D20*
X90100000Y-133910001D02*
X90100000Y-138909999D01*
%TO.N,GPIO2{slash}ADC2_CH2*%
X87560000Y-138909999D02*
X87560000Y-133910001D01*
%TO.N,GPIO15{slash}ADC2_CH3*%
X85020000Y-133910001D02*
X85020000Y-138909999D01*
%TO.N,GPIO13{slash}ADC2_CH4*%
D19*
X216970000Y-144800000D02*
X88370001Y-144800000D01*
D20*
X219270000Y-142500000D02*
X219270000Y-135000000D01*
D19*
X88370001Y-144800000D02*
X82480000Y-138909999D01*
D20*
X82480000Y-138909999D02*
X82480000Y-133910001D01*
D19*
X219270000Y-142500000D02*
X216970000Y-144800000D01*
%TO.N,GPIO12{slash}ADC2_CH5*%
D20*
X79940000Y-133910001D02*
X79940000Y-138909999D01*
%TO.N,GPIO14{slash}ADC2_CH6*%
D19*
X217310000Y-147000000D02*
X84250000Y-147000000D01*
D20*
X221810000Y-142500000D02*
X221810000Y-135000000D01*
D19*
X221810000Y-142500000D02*
X217310000Y-147000000D01*
D20*
X77400000Y-138909999D02*
X77400000Y-133910001D01*
D19*
X77400000Y-140150000D02*
X77400000Y-138909999D01*
X84250000Y-147000000D02*
X77400000Y-140150000D01*
%TO.N,GPIO27{slash}ADC2_CH7*%
X224350000Y-142500000D02*
X218150000Y-148700000D01*
D20*
X74860000Y-133910001D02*
X74860000Y-138909999D01*
D19*
X218150000Y-148700000D02*
X79700000Y-148700000D01*
D20*
X224350000Y-142500000D02*
X224350000Y-135000000D01*
D19*
X79700000Y-148700000D02*
X74860000Y-143860000D01*
X74860000Y-143860000D02*
X74860000Y-138909999D01*
%TO.N,Net-(PMIC1-STAT1{slash}\u002ALBO)*%
X72300000Y-85200000D02*
X72300000Y-86400000D01*
X69700000Y-82600000D02*
X72300000Y-85200000D01*
%TO.N,AIN1*%
D20*
X64700000Y-106049999D02*
X64700000Y-111049999D01*
%TO.N,Net-(PMIC1-~{PG})*%
D19*
X73230000Y-82920000D02*
X70860000Y-80550000D01*
%TO.N,AIN3*%
D20*
X59620000Y-106049999D02*
X59620000Y-111049999D01*
X109750000Y-119750000D02*
X115500000Y-114000000D01*
X115500000Y-106049999D02*
X115500000Y-111049999D01*
X115500000Y-114000000D02*
X115500000Y-111049999D01*
X86250000Y-119750000D02*
X109750000Y-119750000D01*
%TO.N,AIN2*%
X112960000Y-112169999D02*
X112960000Y-111049999D01*
X57080000Y-106049999D02*
X57080000Y-111049999D01*
X57080000Y-111049999D02*
X57000000Y-111129999D01*
X57000000Y-112250000D02*
X61689999Y-116939999D01*
X108190000Y-116939999D02*
X112960000Y-112169999D01*
X61689999Y-116939999D02*
X108190000Y-116939999D01*
X112960000Y-111049999D02*
X112960000Y-106049999D01*
X57000000Y-111129999D02*
X57000000Y-112250000D01*
%TO.N,AIN0*%
X110420000Y-111049999D02*
X110420000Y-106049999D01*
X62160000Y-111049999D02*
X65350000Y-114239999D01*
X65350000Y-114239999D02*
X107230000Y-114239999D01*
X62160000Y-106049999D02*
X62160000Y-111049999D01*
X107230000Y-114239999D02*
X110420000Y-111049999D01*
%TO.N,GPIO39{slash}ADC1_CH3*%
D19*
X67000000Y-79750000D02*
X81840002Y-79750000D01*
D20*
X107880000Y-106049999D02*
X107880000Y-111049999D01*
D19*
X81840002Y-79750000D02*
X107880000Y-105789998D01*
%TO.N,EN*%
D20*
X105340000Y-106049999D02*
X105340000Y-111049999D01*
%TO.N,GPIO32{slash}ADC1_CH4{slash}XTAL32_IN*%
D22*
X132500000Y-110000000D02*
X177500000Y-110000000D01*
D20*
X97720000Y-106049999D02*
X97720000Y-111049999D01*
D22*
X181000000Y-60500000D02*
X189500000Y-52000000D01*
X208690000Y-52000000D02*
X214190000Y-57500000D01*
X100350000Y-121600000D02*
X120900000Y-121600000D01*
X120900000Y-121600000D02*
X132500000Y-110000000D01*
X189500000Y-52000000D02*
X208690000Y-52000000D01*
X181000000Y-106500000D02*
X181000000Y-60500000D01*
X177500000Y-110000000D02*
X181000000Y-106500000D01*
D20*
X214190000Y-57500000D02*
X214190000Y-65000000D01*
%TO.N,GPIO33{slash}ADC1_CH5{slash}XTAL32_OUT*%
D22*
X190500000Y-53250000D02*
X207400000Y-53250000D01*
X183000000Y-107000000D02*
X183000000Y-60750000D01*
X183000000Y-60750000D02*
X190500000Y-53250000D01*
D20*
X211650000Y-65000000D02*
X211650000Y-57500000D01*
D22*
X98000000Y-121750000D02*
X100250000Y-124000000D01*
X177500000Y-112500000D02*
X183000000Y-107000000D01*
X100250000Y-124000000D02*
X121000000Y-124000000D01*
X121000000Y-124000000D02*
X132500000Y-112500000D01*
X132500000Y-112500000D02*
X177500000Y-112500000D01*
D20*
X95180000Y-106049999D02*
X95180000Y-111049999D01*
D22*
X207400000Y-53250000D02*
X211650000Y-57500000D01*
%TO.N,GPIO25{slash}ADC2_CH8{slash}DAC_1*%
D20*
X190500000Y-137750000D02*
X202000000Y-137750000D01*
X202000000Y-137750000D02*
X204030000Y-135720000D01*
X204030000Y-65000000D02*
X204030000Y-135000000D01*
X128000000Y-125250000D02*
X131500000Y-121750000D01*
X204030000Y-135720000D02*
X204030000Y-135000000D01*
X131500000Y-121750000D02*
X174500000Y-121750000D01*
X92640000Y-106049999D02*
X92640000Y-111049999D01*
X174500000Y-121750000D02*
X190500000Y-137750000D01*
X204030000Y-57500000D02*
X204030000Y-65000000D01*
%TO.N,GPIO26{slash}ADC2_CH9{slash}DAC_2*%
X90100000Y-106049999D02*
X90100000Y-111049999D01*
X201490000Y-142500000D02*
X201490000Y-141240000D01*
X201490000Y-65000000D02*
X201490000Y-57500000D01*
X199240000Y-140250000D02*
X188000000Y-140250000D01*
X201490000Y-142500000D02*
X199240000Y-140250000D01*
X181000000Y-133250000D02*
X131750000Y-133250000D01*
X201490000Y-135000000D02*
X201490000Y-65000000D01*
X201490000Y-135000000D02*
X201490000Y-136260000D01*
X188000000Y-140250000D02*
X181000000Y-133250000D01*
X131750000Y-133250000D02*
X125500000Y-127000000D01*
%TO.N,VIN*%
X82480000Y-106049999D02*
X82480000Y-111049999D01*
%TO.N,VBUS*%
X79940000Y-111049999D02*
X79940000Y-106049999D01*
%TD*%
M02*
