%TF.GenerationSoftware,KiCad,Pcbnew,10.0.3*%
%TF.CreationDate,2026-08-24T20:33:41-04:00*%
%TF.ProjectId,02_Power_Board,30325f50-6f77-4657-925f-426f6172642e,rev?*%
%TF.SameCoordinates,Original*%
%TF.FileFunction,Soldermask,Bot*%
%TF.FilePolarity,Negative*%
%FSLAX46Y46*%
G04 Gerber Fmt 4.6, Leading zero omitted, Abs format (unit mm)*
G04 Created by KiCad (PCBNEW 10.0.3) date 2026-08-24 20:33:41*
%MOMM*%
%LPD*%
G01*
G04 APERTURE LIST*
G04 Aperture macros list*
%AMRoundRect*
0 Rectangle with rounded corners*
0 $1 Rounding radius*
0 $2 $3 $4 $5 $6 $7 $8 $9 X,Y pos of 4 corners*
0 Add a 4 corners polygon primitive as box body*
4,1,4,$2,$3,$4,$5,$6,$7,$8,$9,$2,$3,0*
0 Add four circle primitives for the rounded corners*
1,1,$1+$1,$2,$3*
1,1,$1+$1,$4,$5*
1,1,$1+$1,$6,$7*
1,1,$1+$1,$8,$9*
0 Add four rect primitives between the rounded corners*
20,1,$1+$1,$2,$3,$4,$5,0*
20,1,$1+$1,$4,$5,$6,$7,0*
20,1,$1+$1,$6,$7,$8,$9,0*
20,1,$1+$1,$8,$9,$2,$3,0*%
G04 Aperture macros list end*
%ADD10C,3.450000*%
%ADD11C,2.390000*%
%ADD12RoundRect,0.102000X0.802500X0.802500X-0.802500X0.802500X-0.802500X-0.802500X0.802500X-0.802500X0*%
%ADD13C,1.809000*%
%ADD14C,2.413500*%
%ADD15C,6.400000*%
%ADD16C,1.854000*%
%ADD17C,1.734000*%
G04 APERTURE END LIST*
D10*
%TO.C,J5*%
X105240000Y-57000000D03*
X74760000Y-73000000D03*
D11*
X70120000Y-57000000D03*
%TD*%
D12*
%TO.C,J4*%
X115500000Y-133910001D03*
D13*
X112960000Y-133910001D03*
X110420000Y-133910001D03*
X107880000Y-133910001D03*
X105340000Y-133910001D03*
X102800000Y-133910001D03*
X100260000Y-133910001D03*
X97720000Y-133910001D03*
X95180000Y-133910001D03*
X92640000Y-133910001D03*
X90100000Y-133910001D03*
X87560000Y-133910001D03*
X85020000Y-133910001D03*
X82480000Y-133910001D03*
X79940000Y-133910001D03*
X77400000Y-133910001D03*
X74860000Y-133910001D03*
X72320000Y-133910001D03*
X69780000Y-133910001D03*
X67240000Y-133910001D03*
X64700000Y-133910001D03*
X62160000Y-133910001D03*
X59620000Y-133910001D03*
X57080000Y-133910001D03*
%TD*%
D14*
%TO.C,J16*%
X178790000Y-86250000D03*
X173710000Y-86250000D03*
%TD*%
%TO.C,J18*%
X160000000Y-86460000D03*
X160000000Y-91540000D03*
%TD*%
%TO.C,J10*%
X159500000Y-125670000D03*
X159500000Y-130750000D03*
%TD*%
D15*
%TO.C,MH2*%
X55000000Y-145000000D03*
%TD*%
D14*
%TO.C,J12*%
X121210000Y-86000000D03*
X126290000Y-86000000D03*
%TD*%
D12*
%TO.C,J2*%
X115500000Y-111049999D03*
D13*
X112960000Y-111049999D03*
X110420000Y-111049999D03*
X107880000Y-111049999D03*
X105340000Y-111049999D03*
X102800000Y-111049999D03*
X100260000Y-111049999D03*
X97720000Y-111049999D03*
X95180000Y-111049999D03*
X92640000Y-111049999D03*
X90100000Y-111049999D03*
X87560000Y-111049999D03*
X85020000Y-111049999D03*
X82480000Y-111049999D03*
X79940000Y-111049999D03*
X77400000Y-111049999D03*
X74860000Y-111049999D03*
X72320000Y-111049999D03*
X69780000Y-111049999D03*
X67240000Y-111049999D03*
X64700000Y-111049999D03*
X62160000Y-111049999D03*
X59620000Y-111049999D03*
X57080000Y-111049999D03*
%TD*%
D14*
%TO.C,J14*%
X140000000Y-86460000D03*
X140000000Y-91540000D03*
%TD*%
D16*
%TO.C,J3*%
X115500000Y-138909999D03*
X112960000Y-138909999D03*
X110420000Y-138909999D03*
X107880000Y-138909999D03*
X105340000Y-138909999D03*
X102800000Y-138909999D03*
X100260000Y-138909999D03*
X97720000Y-138909999D03*
X95180000Y-138909999D03*
X92640000Y-138909999D03*
X90100000Y-138909999D03*
X87560000Y-138909999D03*
X85020000Y-138909999D03*
X82480000Y-138909999D03*
X79940000Y-138909999D03*
X77400000Y-138909999D03*
X74860000Y-138909999D03*
X72320000Y-138909999D03*
X69780000Y-138909999D03*
X67240000Y-138909999D03*
X64700000Y-138909999D03*
X62160000Y-138909999D03*
X59620000Y-138909999D03*
X57080000Y-138909999D03*
%TD*%
%TO.C,J21*%
X242130000Y-142500000D03*
X239590000Y-142500000D03*
X237050000Y-142500000D03*
X234510000Y-142500000D03*
X231970000Y-142500000D03*
X229430000Y-142500000D03*
X226890000Y-142500000D03*
X224350000Y-142500000D03*
X221810000Y-142500000D03*
X219270000Y-142500000D03*
X216730000Y-142500000D03*
X214190000Y-142500000D03*
X211650000Y-142500000D03*
X209110000Y-142500000D03*
X206570000Y-142500000D03*
X204030000Y-142500000D03*
X201490000Y-142500000D03*
X198950000Y-142500000D03*
X196410000Y-142500000D03*
X193870000Y-142500000D03*
%TD*%
D15*
%TO.C,MH1*%
X55000000Y-55000000D03*
%TD*%
%TO.C,MH3*%
X255000000Y-55000000D03*
%TD*%
D14*
%TO.C,J9*%
X152000000Y-125710000D03*
X152000000Y-130790000D03*
%TD*%
D16*
%TO.C,J23*%
X242130000Y-57500000D03*
X239590000Y-57500000D03*
X237050000Y-57500000D03*
X234510000Y-57500000D03*
X231970000Y-57500000D03*
X229430000Y-57500000D03*
X226890000Y-57500000D03*
X224350000Y-57500000D03*
X221810000Y-57500000D03*
X219270000Y-57500000D03*
X216730000Y-57500000D03*
X214190000Y-57500000D03*
X211650000Y-57500000D03*
X209110000Y-57500000D03*
X206570000Y-57500000D03*
X204030000Y-57500000D03*
X201490000Y-57500000D03*
X198950000Y-57500000D03*
X196410000Y-57500000D03*
X193870000Y-57500000D03*
%TD*%
D14*
%TO.C,J17*%
X167500000Y-86460000D03*
X167500000Y-91540000D03*
%TD*%
%TO.C,J11*%
X159500000Y-136670000D03*
X159500000Y-141750000D03*
%TD*%
D16*
%TO.C,J1*%
X115500000Y-105789998D03*
X112960000Y-105789998D03*
X110420000Y-105789998D03*
X107880000Y-105789998D03*
X105340000Y-105789998D03*
X102800000Y-105789998D03*
X100260000Y-105789998D03*
X97720000Y-105789998D03*
X95180000Y-105789998D03*
X92640000Y-105789998D03*
X90100000Y-105789998D03*
X87560000Y-105789998D03*
X85020000Y-105789998D03*
X82480000Y-105789998D03*
X79940000Y-105789998D03*
X77400000Y-105789998D03*
X74860000Y-105789998D03*
X72320000Y-105789998D03*
X69780000Y-105789998D03*
X67240000Y-105789998D03*
X64700000Y-105789998D03*
X62160000Y-105789998D03*
X59620000Y-105789998D03*
X57080000Y-105789998D03*
%TD*%
D14*
%TO.C,J8*%
X140710000Y-125210000D03*
X145790000Y-125210000D03*
%TD*%
D17*
%TO.C,J22*%
X242130000Y-65000000D03*
X239590000Y-65000000D03*
X237050000Y-65000000D03*
X234510000Y-65000000D03*
X231970000Y-65000000D03*
X229430000Y-65000000D03*
X226890000Y-65000000D03*
X224350000Y-65000000D03*
X221810000Y-65000000D03*
X219270000Y-65000000D03*
X216730000Y-65000000D03*
X214190000Y-65000000D03*
X211650000Y-65000000D03*
X209110000Y-65000000D03*
X206570000Y-65000000D03*
X204030000Y-65000000D03*
X201490000Y-65000000D03*
X198950000Y-65000000D03*
X196410000Y-65000000D03*
X193870000Y-65000000D03*
%TD*%
D14*
%TO.C,J19*%
X160000000Y-97210000D03*
X160000000Y-102290000D03*
%TD*%
%TO.C,J13*%
X132500000Y-86460000D03*
X132500000Y-91540000D03*
%TD*%
D17*
%TO.C,J20*%
X242130000Y-135000000D03*
X239590000Y-135000000D03*
X237050000Y-135000000D03*
X234510000Y-135000000D03*
X231970000Y-135000000D03*
X229430000Y-135000000D03*
X226890000Y-135000000D03*
X224350000Y-135000000D03*
X221810000Y-135000000D03*
X219270000Y-135000000D03*
X216730000Y-135000000D03*
X214190000Y-135000000D03*
X211650000Y-135000000D03*
X209110000Y-135000000D03*
X206570000Y-135000000D03*
X204030000Y-135000000D03*
X201490000Y-135000000D03*
X198950000Y-135000000D03*
X196410000Y-135000000D03*
X193870000Y-135000000D03*
%TD*%
D15*
%TO.C,MH4*%
X255000000Y-145000000D03*
%TD*%
D14*
%TO.C,J15*%
X140000000Y-97160000D03*
X140000000Y-102240000D03*
%TD*%
M02*
