%TF.GenerationSoftware,KiCad,Pcbnew,10.0.3*%
%TF.CreationDate,2026-08-24T20:33:41-04:00*%
%TF.ProjectId,02_Power_Board,30325f50-6f77-4657-925f-426f6172642e,rev?*%
%TF.SameCoordinates,Original*%
%TF.FileFunction,Paste,Top*%
%TF.FilePolarity,Positive*%
%FSLAX46Y46*%
G04 Gerber Fmt 4.6, Leading zero omitted, Abs format (unit mm)*
G04 Created by KiCad (PCBNEW 10.0.3) date 2026-08-24 20:33:41*
%MOMM*%
%LPD*%
G01*
G04 APERTURE LIST*
G04 Aperture macros list*
%AMRoundRect*
0 Rectangle with rounded corners*
0 $1 Rounding radius*
0 $2 $3 $4 $5 $6 $7 $8 $9 X,Y pos of 4 corners*
0 Add a 4 corners polygon primitive as box body*
4,1,4,$2,$3,$4,$5,$6,$7,$8,$9,$2,$3,0*
0 Add four circle primitives for the rounded corners*
1,1,$1+$1,$2,$3*
1,1,$1+$1,$4,$5*
1,1,$1+$1,$6,$7*
1,1,$1+$1,$8,$9*
0 Add four rect primitives between the rounded corners*
20,1,$1+$1,$2,$3,$4,$5,0*
20,1,$1+$1,$4,$5,$6,$7,0*
20,1,$1+$1,$6,$7,$8,$9,0*
20,1,$1+$1,$8,$9,$2,$3,0*%
G04 Aperture macros list end*
%ADD10R,7.316426X6.319476*%
%ADD11R,7.340000X6.350000*%
%ADD12R,0.510000X0.600000*%
%ADD13RoundRect,0.072500X-0.217500X0.532500X-0.217500X-0.532500X0.217500X-0.532500X0.217500X0.532500X0*%
%ADD14R,0.540000X0.600000*%
%ADD15R,0.600000X0.510000*%
%ADD16R,1.040000X0.460000*%
%ADD17R,3.800000X2.030000*%
%ADD18R,0.960000X0.930000*%
%ADD19R,2.794000X0.939800*%
%ADD20R,7.239000X6.832600*%
%ADD21RoundRect,0.075000X0.540000X0.225000X-0.540000X0.225000X-0.540000X-0.225000X0.540000X-0.225000X0*%
%ADD22R,0.800000X0.800000*%
%ADD23R,0.400000X0.351000*%
%ADD24R,0.400000X0.341000*%
%ADD25RoundRect,0.147500X-0.147500X0.457500X-0.147500X-0.457500X0.147500X-0.457500X0.147500X0.457500X0*%
%ADD26R,2.700000X3.600000*%
%ADD27R,1.530000X2.720000*%
%ADD28R,1.110000X1.470000*%
%ADD29R,1.470000X1.110000*%
%ADD30R,0.930000X0.960000*%
%ADD31RoundRect,0.065000X0.355000X0.065000X-0.355000X0.065000X-0.355000X-0.065000X0.355000X-0.065000X0*%
%ADD32RoundRect,0.065000X0.065000X0.355000X-0.065000X0.355000X-0.065000X-0.355000X0.065000X-0.355000X0*%
%ADD33R,0.600000X0.540000*%
%ADD34R,1.270000X3.430000*%
%ADD35R,1.210000X1.820000*%
%ADD36RoundRect,0.055000X-0.680000X-0.165000X0.680000X-0.165000X0.680000X0.165000X-0.680000X0.165000X0*%
%ADD37O,0.240000X0.599999*%
%ADD38O,0.599999X0.240000*%
%ADD39R,3.330000X1.310000*%
%ADD40R,1.820000X1.210000*%
G04 APERTURE END LIST*
D10*
%TO.C,J5*%
X113368213Y-64984747D03*
D11*
X66620000Y-65000000D03*
%TD*%
D12*
%TO.C,R7*%
X62500000Y-95570000D03*
X61610000Y-95570000D03*
%TD*%
D13*
%TO.C,PMIC4*%
X150950000Y-113745000D03*
X150000000Y-113745000D03*
X149050000Y-113745000D03*
X149050000Y-116255000D03*
X150000000Y-116255000D03*
X150950000Y-116255000D03*
%TD*%
D14*
%TO.C,C12*%
X169118835Y-116100000D03*
X169982835Y-116100000D03*
%TD*%
D15*
%TO.C,R1*%
X82800000Y-88130000D03*
X82800000Y-89020000D03*
%TD*%
D16*
%TO.C,D5*%
X144690000Y-81400000D03*
X142310000Y-81400000D03*
%TD*%
D17*
%TO.C,TP11*%
X130000000Y-98100000D03*
%TD*%
D18*
%TO.C,C11*%
X151278000Y-118250000D03*
X149722000Y-118250000D03*
%TD*%
D19*
%TO.C,PMIC8*%
X169984900Y-72709999D03*
D20*
X176500000Y-75000000D03*
D19*
X169984900Y-77290001D03*
%TD*%
D12*
%TO.C,R4*%
X59635000Y-88095000D03*
X60525000Y-88095000D03*
%TD*%
D15*
%TO.C,R3*%
X78250000Y-89020000D03*
X78250000Y-88130000D03*
%TD*%
%TO.C,R28*%
X149104307Y-71003171D03*
X149104307Y-71893173D03*
%TD*%
D17*
%TO.C,TP15*%
X105000000Y-80000000D03*
%TD*%
D21*
%TO.C,Q2*%
X62090000Y-93745000D03*
X62090000Y-91845000D03*
X59970000Y-92795000D03*
%TD*%
D14*
%TO.C,C22*%
X145568000Y-74500000D03*
X146432000Y-74500000D03*
%TD*%
D22*
%TO.C,D3*%
X56830000Y-85295001D03*
X55230000Y-85295001D03*
%TD*%
D12*
%TO.C,R24*%
X151943172Y-81004307D03*
X151053172Y-81004307D03*
%TD*%
%TO.C,R11*%
X55585000Y-94295000D03*
X56475000Y-94295000D03*
%TD*%
D15*
%TO.C,R27*%
X146000000Y-77503172D03*
X146000000Y-78393172D03*
%TD*%
D12*
%TO.C,R14*%
X71645000Y-89060000D03*
X70755000Y-89060000D03*
%TD*%
D17*
%TO.C,TP8*%
X170000000Y-106500000D03*
%TD*%
%TO.C,TP2*%
X90000000Y-100000000D03*
%TD*%
D12*
%TO.C,R13*%
X55583400Y-101793399D03*
X56473400Y-101793399D03*
%TD*%
D15*
%TO.C,R25*%
X141000000Y-77505000D03*
X141000000Y-78395000D03*
%TD*%
D17*
%TO.C,TP16*%
X150000000Y-97500000D03*
%TD*%
D15*
%TO.C,R2*%
X80500000Y-88130000D03*
X80500000Y-89020000D03*
%TD*%
D17*
%TO.C,TP12*%
X135000000Y-74900000D03*
%TD*%
D23*
%TO.C,C18*%
X141014981Y-75534098D03*
D24*
X141014981Y-74938098D03*
%TD*%
D17*
%TO.C,TP14*%
X165000000Y-75100000D03*
%TD*%
D25*
%TO.C,PMIC3*%
X130950000Y-117745000D03*
X130000000Y-117745000D03*
X129050000Y-117745000D03*
X129050000Y-120255000D03*
X130950000Y-120255000D03*
%TD*%
D12*
%TO.C,R9*%
X62504999Y-81095000D03*
X61614999Y-81095000D03*
%TD*%
D14*
%TO.C,C20*%
X130432000Y-100000000D03*
X129568000Y-100000000D03*
%TD*%
D17*
%TO.C,TP3*%
X90000000Y-80000000D03*
%TD*%
D26*
%TO.C,L1*%
X125850000Y-62500000D03*
X134150000Y-62500000D03*
%TD*%
D12*
%TO.C,R12*%
X55585000Y-86745000D03*
X56475000Y-86745000D03*
%TD*%
D22*
%TO.C,D1*%
X56830000Y-78295000D03*
X55230000Y-78295000D03*
%TD*%
D27*
%TO.C,C2*%
X76275657Y-94300000D03*
X73593657Y-94300000D03*
%TD*%
D22*
%TO.C,D4*%
X56830000Y-100295000D03*
X55230000Y-100295000D03*
%TD*%
D12*
%TO.C,R21*%
X109810000Y-89400003D03*
X108920000Y-89400003D03*
%TD*%
D18*
%TO.C,C26*%
X168800000Y-79200000D03*
X170356000Y-79200000D03*
%TD*%
D17*
%TO.C,TP5*%
X130000000Y-106250000D03*
%TD*%
D28*
%TO.C,C9*%
X130950000Y-122250000D03*
X132750000Y-122250000D03*
%TD*%
D29*
%TO.C,C10*%
X147000000Y-116250000D03*
X147000000Y-114450000D03*
%TD*%
D12*
%TO.C,R6*%
X59560000Y-95570000D03*
X60450000Y-95570000D03*
%TD*%
D22*
%TO.C,D2*%
X56830000Y-92795000D03*
X55230000Y-92795000D03*
%TD*%
D12*
%TO.C,R18*%
X100355000Y-90660000D03*
X101245000Y-90660000D03*
%TD*%
%TO.C,R17*%
X100355000Y-89451672D03*
X101245000Y-89451672D03*
%TD*%
D14*
%TO.C,C19*%
X145568000Y-75950000D03*
X146432000Y-75950000D03*
%TD*%
D25*
%TO.C,PMIC5*%
X170950000Y-117745000D03*
X170000000Y-117745000D03*
X169050000Y-117745000D03*
X169050000Y-120255000D03*
X170950000Y-120255000D03*
%TD*%
D12*
%TO.C,R19*%
X102445001Y-87300000D03*
X101554999Y-87300000D03*
%TD*%
%TO.C,R20*%
X101604999Y-92450000D03*
X102495001Y-92450000D03*
%TD*%
D15*
%TO.C,R26*%
X143590000Y-78393172D03*
X143590000Y-77503172D03*
%TD*%
D30*
%TO.C,C23*%
X146000000Y-72778000D03*
X146000000Y-71222000D03*
%TD*%
D18*
%TO.C,C4*%
X107222000Y-87200000D03*
X108778000Y-87200000D03*
%TD*%
D31*
%TO.C,PMIC1*%
X76935000Y-91000000D03*
X76935000Y-90500000D03*
X76935000Y-90000000D03*
X76935000Y-89500000D03*
X76935000Y-89000000D03*
D32*
X76000000Y-88065000D03*
X75500000Y-88065000D03*
X75000000Y-88065000D03*
X74500000Y-88065000D03*
X74000000Y-88065000D03*
D31*
X73065000Y-89000000D03*
X73065000Y-89500000D03*
X73065000Y-90000000D03*
X73065000Y-90500000D03*
X73065000Y-91000000D03*
D32*
X74000000Y-91935000D03*
X74500000Y-91935000D03*
X75000000Y-91935000D03*
X75500000Y-91935000D03*
X76000000Y-91935000D03*
%TD*%
D21*
%TO.C,Q3*%
X62090000Y-79245000D03*
X62090000Y-77345000D03*
X59970000Y-78295000D03*
%TD*%
D17*
%TO.C,TP7*%
X150000000Y-106250000D03*
%TD*%
D33*
%TO.C,C8*%
X129050000Y-121786000D03*
X129050000Y-122650000D03*
%TD*%
D12*
%TO.C,R8*%
X59560000Y-81095000D03*
X60450000Y-81095000D03*
%TD*%
D17*
%TO.C,TP6*%
X130000000Y-135000000D03*
%TD*%
D12*
%TO.C,R5*%
X62575000Y-88095000D03*
X61685000Y-88095000D03*
%TD*%
D33*
%TO.C,C24*%
X153995693Y-71882000D03*
X153995693Y-71018000D03*
%TD*%
D17*
%TO.C,TP9*%
X169750000Y-135000000D03*
%TD*%
D34*
%TO.C,J6*%
X102460000Y-98540000D03*
X105000000Y-101460000D03*
X107540000Y-98540000D03*
%TD*%
D35*
%TO.C,C1*%
X78984657Y-91575000D03*
X81884657Y-91575000D03*
%TD*%
D12*
%TO.C,R22*%
X108915000Y-90610000D03*
X109805000Y-90610000D03*
%TD*%
D14*
%TO.C,C7*%
X130043000Y-116300000D03*
X130907000Y-116300000D03*
%TD*%
D36*
%TO.C,OPA1*%
X102850000Y-89025000D03*
X102850000Y-89675000D03*
X102850000Y-90325000D03*
X102850000Y-90975000D03*
X107150000Y-90975000D03*
X107150000Y-90325000D03*
X107150000Y-89675000D03*
X107150000Y-89025000D03*
%TD*%
D14*
%TO.C,C25*%
X170432000Y-100000000D03*
X169568000Y-100000000D03*
%TD*%
D16*
%TO.C,D6*%
X157190000Y-77500000D03*
X154810000Y-77500000D03*
%TD*%
D17*
%TO.C,TP10*%
X150000000Y-88500000D03*
%TD*%
D37*
%TO.C,PMIC6*%
X148750000Y-79399999D03*
X149249999Y-79399999D03*
X149750000Y-79399999D03*
X150250000Y-79399999D03*
X150750001Y-79399999D03*
X151250000Y-79399999D03*
D38*
X151899999Y-78750000D03*
X151899999Y-78250001D03*
X151899999Y-77750000D03*
X151899999Y-77250000D03*
X151899999Y-76749999D03*
X151899999Y-76250000D03*
D37*
X151250000Y-75600001D03*
X150750001Y-75600001D03*
X150250000Y-75600001D03*
X149750000Y-75600001D03*
X149249999Y-75600001D03*
X148750000Y-75600001D03*
D38*
X148100001Y-76250000D03*
X148100001Y-76749999D03*
X148100001Y-77250000D03*
X148100001Y-77750000D03*
X148100001Y-78250001D03*
X148100001Y-78750000D03*
%TD*%
D35*
%TO.C,C3*%
X68400000Y-92100000D03*
X71300000Y-92100000D03*
%TD*%
D26*
%TO.C,L2*%
X174150000Y-62500000D03*
X165850000Y-62500000D03*
%TD*%
D21*
%TO.C,Q1*%
X62090000Y-86245000D03*
X62090000Y-84345000D03*
X59970000Y-85295000D03*
%TD*%
D39*
%TO.C,R16*%
X90000000Y-86999000D03*
X90000000Y-93001000D03*
%TD*%
D35*
%TO.C,C16*%
X157450000Y-81200000D03*
X154550000Y-81200000D03*
%TD*%
D12*
%TO.C,R15*%
X71645000Y-90274999D03*
X70755000Y-90274999D03*
%TD*%
D28*
%TO.C,C14*%
X170950000Y-122300000D03*
X172750000Y-122300000D03*
%TD*%
D18*
%TO.C,C21*%
X129878000Y-70500000D03*
X128322000Y-70500000D03*
%TD*%
D12*
%TO.C,R30*%
X154445000Y-74500000D03*
X153555000Y-74500000D03*
%TD*%
D40*
%TO.C,C15*%
X122500000Y-67200000D03*
X122500000Y-64300000D03*
%TD*%
D19*
%TO.C,PMIC7*%
X128968800Y-77062451D03*
D20*
X122453700Y-74772450D03*
D19*
X128968800Y-72482449D03*
%TD*%
D33*
%TO.C,C13*%
X169050000Y-121900000D03*
X169050000Y-122764000D03*
%TD*%
D21*
%TO.C,Q4*%
X62090000Y-101245000D03*
X62090000Y-99345000D03*
X59970000Y-100295000D03*
%TD*%
D17*
%TO.C,TP13*%
X170000000Y-98000000D03*
%TD*%
%TO.C,TP1*%
X75000000Y-80000000D03*
%TD*%
D15*
%TO.C,R29*%
X151600000Y-71895000D03*
X151600000Y-71005000D03*
%TD*%
D14*
%TO.C,C17*%
X148568000Y-81000000D03*
X149432000Y-81000000D03*
%TD*%
D12*
%TO.C,R10*%
X55539999Y-79695000D03*
X56429999Y-79695000D03*
%TD*%
M02*
