%TF.GenerationSoftware,KiCad,Pcbnew,9.0.7*%
%TF.CreationDate,2026-03-19T23:29:39-04:00*%
%TF.ProjectId,Adapter Board,41646170-7465-4722-9042-6f6172642e6b,rev?*%
%TF.SameCoordinates,Original*%
%TF.FileFunction,Soldermask,Bot*%
%TF.FilePolarity,Negative*%
%FSLAX46Y46*%
G04 Gerber Fmt 4.6, Leading zero omitted, Abs format (unit mm)*
G04 Created by KiCad (PCBNEW 9.0.7) date 2026-03-19 23:29:39*
%MOMM*%
%LPD*%
G01*
G04 APERTURE LIST*
G04 Aperture macros list*
%AMRoundRect*
0 Rectangle with rounded corners*
0 $1 Rounding radius*
0 $2 $3 $4 $5 $6 $7 $8 $9 X,Y pos of 4 corners*
0 Add a 4 corners polygon primitive as box body*
4,1,4,$2,$3,$4,$5,$6,$7,$8,$9,$2,$3,0*
0 Add four circle primitives for the rounded corners*
1,1,$1+$1,$2,$3*
1,1,$1+$1,$4,$5*
1,1,$1+$1,$6,$7*
1,1,$1+$1,$8,$9*
0 Add four rect primitives between the rounded corners*
20,1,$1+$1,$2,$3,$4,$5,0*
20,1,$1+$1,$4,$5,$6,$7,0*
20,1,$1+$1,$6,$7,$8,$9,0*
20,1,$1+$1,$8,$9,$2,$3,0*%
G04 Aperture macros list end*
%ADD10RoundRect,0.102000X0.685000X-0.685000X0.685000X0.685000X-0.685000X0.685000X-0.685000X-0.685000X0*%
%ADD11C,1.574000*%
%ADD12C,1.524000*%
%ADD13C,2.413000*%
%ADD14C,4.400000*%
G04 APERTURE END LIST*
D10*
%TO.C,J2*%
X132540000Y-117620001D03*
D11*
X130000000Y-117620001D03*
X127460000Y-117620001D03*
X132540000Y-115080001D03*
X130000000Y-115080001D03*
X127460000Y-115080001D03*
X132540000Y-112540001D03*
X130000000Y-112540001D03*
X127460000Y-112540001D03*
X132540000Y-110000001D03*
X130000000Y-110000001D03*
X127460000Y-110000001D03*
X132540000Y-107460001D03*
X130000000Y-107460001D03*
X127460000Y-107460001D03*
X132540000Y-104920001D03*
X130000000Y-104920001D03*
X127460000Y-104920001D03*
X132540000Y-102380001D03*
X130000000Y-102380001D03*
X127460000Y-102380001D03*
X132540000Y-99840001D03*
X130000000Y-99840001D03*
X127460000Y-99840001D03*
X132540000Y-97300001D03*
X130000000Y-97300001D03*
X127460000Y-97300001D03*
X132540000Y-94760001D03*
X130000000Y-94760001D03*
X127460000Y-94760001D03*
X132540000Y-92220001D03*
X130000000Y-92220001D03*
X127460000Y-92220001D03*
%TD*%
D12*
%TO.C,J3*%
X130000000Y-82386500D03*
D13*
X126200000Y-74586501D03*
X133800000Y-74586501D03*
%TD*%
D12*
%TO.C,J5*%
X146500000Y-82386500D03*
D13*
X142700000Y-74586501D03*
X150300000Y-74586501D03*
%TD*%
D12*
%TO.C,J4*%
X113500000Y-82386500D03*
D13*
X109700000Y-74586501D03*
X117300000Y-74586501D03*
%TD*%
D14*
%TO.C,MH1*%
X105000000Y-125000000D03*
X105000000Y-75000000D03*
X155000000Y-75000000D03*
X155000000Y-125000000D03*
%TD*%
M02*
