M48
INCH
T1C0.0118
T2C0.0400
T3C0.0402
T4C0.0750
T5C0.0866
%
G90
G05
T1
X4.0689Y-3.1634
X4.2598Y-3.2657
X4.3228Y-3.8622
X4.3307Y-4.6831
X4.3346Y-3.4764
X4.3425Y-4.5118
X4.3504Y-3.7303
X4.3976Y-4.9075
X4.5276Y-3.4331
X4.6063Y-3.3465
X4.6142Y-3.8228
X4.7638Y-4.6437
X4.7657Y-3.8661
X4.8494Y-4.9281
X4.9193Y-3.3248
X5.0827Y-4.8465
X5.1634Y-4.9803
X5.2657Y-3.3917
X5.2835Y-4.8563
X5.3543Y-3.8386
X5.3543Y-3.937
X5.374Y-3.2717
X5.4134Y-4.0354
X5.4134Y-4.1339
X5.4134Y-4.2323
X5.4134Y-4.3307
X5.4134Y-4.4291
X5.4134Y-4.5276
X5.4409Y-4.7165
X5.4933Y-4.9325
X5.5118Y-3.937
X5.5118Y-4.0354
X5.5118Y-4.1339
X5.5118Y-4.2323
X5.5118Y-4.3307
X5.5118Y-4.4291
X5.5709Y-3.7992
X5.7008Y-5.0157
X5.7087Y-3.7992
X5.7087Y-4.3701
X5.7087Y-4.4685
X5.8543Y-4.2854
X5.8583Y-4.3957
X5.8642Y-3.8012
X5.937Y-4.9331
X5.9665Y-4.2047
X5.9665Y-4.3248
X5.9737Y-4.6711
X5.9783Y-3.3898
X6.0768Y-3.2106
X6.1575Y-4.7323
X6.2106Y-4.9862
T2
X4.4685Y-3.2436
X5.1181Y-3.2436
X5.7677Y-3.2436
T3
X5.0181Y-3.6307
X5.0181Y-3.7307
X5.0181Y-3.8307
X5.0181Y-3.9307
X5.0181Y-4.0307
X5.0181Y-4.1307
X5.0181Y-4.2307
X5.0181Y-4.3307
X5.0181Y-4.4307
X5.0181Y-4.5307
X5.0181Y-4.6307
X5.1181Y-3.6307
X5.1181Y-3.7307
X5.1181Y-3.8307
X5.1181Y-3.9307
X5.1181Y-4.0307
X5.1181Y-4.1307
X5.1181Y-4.2307
X5.1181Y-4.3307
X5.1181Y-4.4307
X5.1181Y-4.5307
X5.1181Y-4.6307
X5.2181Y-3.6307
X5.2181Y-3.7307
X5.2181Y-3.8307
X5.2181Y-3.9307
X5.2181Y-4.0307
X5.2181Y-4.1307
X5.2181Y-4.2307
X5.2181Y-4.3307
X5.2181Y-4.4307
X5.2181Y-4.5307
X5.2181Y-4.6307
T4
X4.3189Y-2.9365
X4.6181Y-2.9365
X4.9685Y-2.9365
X5.2677Y-2.9365
X5.6181Y-2.9365
X5.9173Y-2.9365
T5
X4.1339Y-2.9528
X4.1339Y-4.9213
X6.1024Y-2.9528
X6.1024Y-4.9213
M30
