%TF.GenerationSoftware,KiCad,Pcbnew,9.0.7*%
%TF.CreationDate,2026-03-19T23:29:39-04:00*%
%TF.ProjectId,Adapter Board,41646170-7465-4722-9042-6f6172642e6b,rev?*%
%TF.SameCoordinates,Original*%
%TF.FileFunction,Copper,L2,Bot*%
%TF.FilePolarity,Positive*%
%FSLAX46Y46*%
G04 Gerber Fmt 4.6, Leading zero omitted, Abs format (unit mm)*
G04 Created by KiCad (PCBNEW 9.0.7) date 2026-03-19 23:29:39*
%MOMM*%
%LPD*%
G01*
G04 APERTURE LIST*
%TA.AperFunction,EtchedComponent*%
%ADD10C,0.000000*%
%TD*%
%TA.AperFunction,ComponentPad*%
%ADD11R,1.370000X1.370000*%
%TD*%
%TA.AperFunction,ComponentPad*%
%ADD12C,1.370000*%
%TD*%
%TA.AperFunction,ComponentPad*%
%ADD13C,1.524000*%
%TD*%
%TA.AperFunction,ComponentPad*%
%ADD14C,2.413000*%
%TD*%
%TA.AperFunction,ComponentPad*%
%ADD15C,4.400000*%
%TD*%
%TA.AperFunction,ViaPad*%
%ADD16C,0.600000*%
%TD*%
G04 APERTURE END LIST*
D10*
%TA.AperFunction,EtchedComponent*%
%TO.C,G\u002A\u002A\u002A*%
G36*
X117132183Y-107413754D02*
G01*
X117129253Y-107416685D01*
X117126323Y-107413754D01*
X117129253Y-107410824D01*
X117132183Y-107413754D01*
G37*
%TD.AperFunction*%
%TA.AperFunction,EtchedComponent*%
G36*
X119529184Y-103791881D02*
G01*
X119526254Y-103794811D01*
X119523323Y-103791881D01*
X119526254Y-103788951D01*
X119529184Y-103791881D01*
G37*
%TD.AperFunction*%
%TA.AperFunction,EtchedComponent*%
G36*
X119397492Y-104861870D02*
G01*
X119398296Y-104865354D01*
X119397437Y-104866056D01*
X119390482Y-104865354D01*
X119389565Y-104863591D01*
X119394389Y-104861447D01*
X119397492Y-104861870D01*
G37*
%TD.AperFunction*%
%TD*%
D11*
%TO.P,J2,1*%
%TO.N,VGATE_SMU*%
X132540000Y-117620001D03*
D12*
%TO.P,J2,2*%
%TO.N,Net-(J2-Pad2)*%
X130000000Y-117620001D03*
%TO.P,J2,3*%
%TO.N,VGATE_MCU*%
X127460000Y-117620001D03*
%TO.P,J2,4*%
%TO.N,Net-(J3-SIG)*%
X132540000Y-115080001D03*
%TO.P,J2,5*%
%TO.N,Net-(J2-Pad5)*%
X130000000Y-115080001D03*
%TO.P,J2,6*%
%TO.N,Net-(J1-Pad36)*%
X127460000Y-115080001D03*
%TO.P,J2,7*%
%TO.N,Net-(J3-SIG)*%
X132540000Y-112540001D03*
%TO.P,J2,8*%
%TO.N,Net-(J2-Pad8)*%
X130000000Y-112540001D03*
%TO.P,J2,9*%
%TO.N,Net-(J1-Pad34)*%
X127460000Y-112540001D03*
%TO.P,J2,10*%
%TO.N,Net-(J3-SIG)*%
X132540000Y-110000001D03*
%TO.P,J2,11*%
%TO.N,Net-(J2-Pad11)*%
X130000000Y-110000001D03*
%TO.P,J2,12*%
%TO.N,Net-(J1-Pad32)*%
X127460000Y-110000001D03*
%TO.P,J2,13*%
%TO.N,Net-(J3-SIG)*%
X132540000Y-107460001D03*
%TO.P,J2,14*%
%TO.N,Net-(J2-Pad14)*%
X130000000Y-107460001D03*
%TO.P,J2,15*%
%TO.N,Net-(J1-Pad30)*%
X127460000Y-107460001D03*
%TO.P,J2,16*%
%TO.N,Net-(J3-SIG)*%
X132540000Y-104920001D03*
%TO.P,J2,17*%
%TO.N,Net-(J2-Pad17)*%
X130000000Y-104920001D03*
%TO.P,J2,18*%
%TO.N,Net-(J1-Pad28)*%
X127460000Y-104920001D03*
%TO.P,J2,19*%
%TO.N,Net-(J3-SIG)*%
X132540000Y-102380001D03*
%TO.P,J2,20*%
%TO.N,Net-(J2-Pad20)*%
X130000000Y-102380001D03*
%TO.P,J2,21*%
%TO.N,Net-(J1-Pad26)*%
X127460000Y-102380001D03*
%TO.P,J2,22*%
%TO.N,Net-(J3-SIG)*%
X132540000Y-99840001D03*
%TO.P,J2,23*%
%TO.N,Net-(J2-Pad23)*%
X130000000Y-99840001D03*
%TO.P,J2,24*%
%TO.N,Net-(J1-Pad24)*%
X127460000Y-99840001D03*
%TO.P,J2,25*%
%TO.N,Net-(J3-SIG)*%
X132540000Y-97300001D03*
%TO.P,J2,26*%
%TO.N,Net-(J2-Pad26)*%
X130000000Y-97300001D03*
%TO.P,J2,27*%
%TO.N,Net-(J1-Pad22)*%
X127460000Y-97300001D03*
%TO.P,J2,28*%
%TO.N,Net-(J3-SIG)*%
X132540000Y-94760001D03*
%TO.P,J2,29*%
%TO.N,Net-(J2-Pad29)*%
X130000000Y-94760001D03*
%TO.P,J2,30*%
%TO.N,Net-(J1-Pad20)*%
X127460000Y-94760001D03*
%TO.P,J2,31*%
%TO.N,VSOURCE_SMU*%
X132540000Y-92220001D03*
%TO.P,J2,32*%
%TO.N,Net-(J2-Pad32)*%
X130000000Y-92220001D03*
%TO.P,J2,33*%
%TO.N,VSOURCE_MCU*%
X127460000Y-92220001D03*
%TD*%
D13*
%TO.P,J3,1,SIG*%
%TO.N,Net-(J3-SIG)*%
X130000000Y-82386500D03*
D14*
%TO.P,J3,2,SHD*%
%TO.N,GND*%
X126200000Y-74586501D03*
%TO.P,J3,3,SHD*%
X133800000Y-74586501D03*
%TD*%
D13*
%TO.P,J5,1,SIG*%
%TO.N,VSOURCE_SMU*%
X146500000Y-82386500D03*
D14*
%TO.P,J5,2,SHD*%
%TO.N,GND*%
X142700000Y-74586501D03*
%TO.P,J5,3,SHD*%
X150300000Y-74586501D03*
%TD*%
D13*
%TO.P,J4,1,SIG*%
%TO.N,VGATE_SMU*%
X113500000Y-82386500D03*
D14*
%TO.P,J4,2,SHD*%
%TO.N,GND*%
X109700000Y-74586501D03*
%TO.P,J4,3,SHD*%
X117300000Y-74586501D03*
%TD*%
D15*
%TO.P,MH1,MH1*%
%TO.N,GND*%
X105000000Y-125000000D03*
%TO.P,MH1,MH2*%
X105000000Y-75000000D03*
%TO.P,MH1,MH3*%
X155000000Y-75000000D03*
%TO.P,MH1,MH4*%
X155000000Y-125000000D03*
%TD*%
D16*
%TO.N,GND*%
X151732892Y-118646567D03*
X121050000Y-98200000D03*
X151850000Y-86100000D03*
X111700000Y-124650000D03*
X134200000Y-123350000D03*
X140000000Y-107500000D03*
X108200000Y-82950000D03*
X140000000Y-100000000D03*
X124950000Y-84450000D03*
X148700000Y-108850000D03*
X123175689Y-125172538D03*
X109800000Y-98100000D03*
X145000000Y-113500000D03*
X110000000Y-118950000D03*
X136000000Y-97500000D03*
X148950000Y-96550000D03*
X117000000Y-85000000D03*
X154350000Y-81550000D03*
X144800000Y-127400000D03*
X110300000Y-114600000D03*
X150800000Y-125300000D03*
X137500000Y-112500000D03*
X110500000Y-94750000D03*
X110100000Y-88300000D03*
X148800000Y-111650000D03*
X137500000Y-110000000D03*
X140000000Y-112500000D03*
X137500000Y-102500000D03*
X137500000Y-115000000D03*
X145000000Y-96500000D03*
X133750000Y-86150000D03*
X137500000Y-105000000D03*
X140000000Y-110000000D03*
X140000000Y-105000000D03*
X138200000Y-119800000D03*
X156400000Y-120200000D03*
X117200000Y-97100000D03*
X136000000Y-100000000D03*
X141500000Y-96500000D03*
X151550000Y-106800000D03*
X136500000Y-83100000D03*
X139529628Y-125286578D03*
X129100000Y-123100000D03*
X137500000Y-107500000D03*
X151550000Y-109850000D03*
X131150000Y-126500000D03*
X103350000Y-80350000D03*
X145000000Y-111000000D03*
X157750000Y-126650000D03*
X115000000Y-87200000D03*
X140000000Y-102500000D03*
X121000000Y-117950000D03*
%TD*%
%TA.AperFunction,Conductor*%
%TO.N,GND*%
G36*
X159458691Y-70519407D02*
G01*
X159494655Y-70568907D01*
X159499500Y-70599500D01*
X159499500Y-129400500D01*
X159480593Y-129458691D01*
X159431093Y-129494655D01*
X159400500Y-129499500D01*
X100599500Y-129499500D01*
X100541309Y-129480593D01*
X100505345Y-129431093D01*
X100500500Y-129400500D01*
X100500500Y-117537708D01*
X126624500Y-117537708D01*
X126624500Y-117702293D01*
X126656607Y-117863706D01*
X126656607Y-117863708D01*
X126719586Y-118015754D01*
X126719592Y-118015766D01*
X126784976Y-118113618D01*
X126811024Y-118152601D01*
X126927400Y-118268977D01*
X126985740Y-118307958D01*
X127064234Y-118360408D01*
X127064246Y-118360414D01*
X127072235Y-118363723D01*
X127216294Y-118423394D01*
X127377710Y-118455501D01*
X127377711Y-118455501D01*
X127542289Y-118455501D01*
X127542290Y-118455501D01*
X127703706Y-118423394D01*
X127855758Y-118360412D01*
X127855760Y-118360410D01*
X127855765Y-118360408D01*
X127916496Y-118319828D01*
X127992600Y-118268977D01*
X128108976Y-118152601D01*
X128174005Y-118055277D01*
X128200407Y-118015766D01*
X128200413Y-118015754D01*
X128263393Y-117863707D01*
X128295500Y-117702291D01*
X128295500Y-117537711D01*
X128295499Y-117537708D01*
X129164500Y-117537708D01*
X129164500Y-117702293D01*
X129196607Y-117863706D01*
X129196607Y-117863708D01*
X129259586Y-118015754D01*
X129259592Y-118015766D01*
X129324976Y-118113618D01*
X129351024Y-118152601D01*
X129467400Y-118268977D01*
X129525740Y-118307958D01*
X129604234Y-118360408D01*
X129604246Y-118360414D01*
X129612235Y-118363723D01*
X129756294Y-118423394D01*
X129917710Y-118455501D01*
X129917711Y-118455501D01*
X130082289Y-118455501D01*
X130082290Y-118455501D01*
X130243706Y-118423394D01*
X130395758Y-118360412D01*
X130395760Y-118360410D01*
X130395765Y-118360408D01*
X130456496Y-118319828D01*
X130532600Y-118268977D01*
X130648976Y-118152601D01*
X130714005Y-118055277D01*
X130740407Y-118015766D01*
X130740413Y-118015754D01*
X130803393Y-117863707D01*
X130835500Y-117702291D01*
X130835500Y-117537711D01*
X130803393Y-117376295D01*
X130740411Y-117224243D01*
X130740407Y-117224235D01*
X130687957Y-117145741D01*
X130648976Y-117087401D01*
X130532600Y-116971025D01*
X130493617Y-116944977D01*
X130456496Y-116920173D01*
X131704500Y-116920173D01*
X131704500Y-118319828D01*
X131713232Y-118363721D01*
X131713233Y-118363723D01*
X131746496Y-118413505D01*
X131796278Y-118446768D01*
X131807327Y-118448965D01*
X131840172Y-118455500D01*
X131840178Y-118455500D01*
X131840180Y-118455501D01*
X131840181Y-118455501D01*
X133239819Y-118455501D01*
X133239820Y-118455501D01*
X133239821Y-118455500D01*
X133239827Y-118455500D01*
X133261623Y-118451163D01*
X133283722Y-118446768D01*
X133333504Y-118413505D01*
X133366767Y-118363723D01*
X133375500Y-118319821D01*
X133375500Y-116920181D01*
X133375499Y-116920179D01*
X133375499Y-116920173D01*
X133367426Y-116879593D01*
X133366767Y-116876279D01*
X133333504Y-116826497D01*
X133318704Y-116816608D01*
X133283724Y-116793235D01*
X133283720Y-116793233D01*
X133239827Y-116784501D01*
X133239820Y-116784501D01*
X131840180Y-116784501D01*
X131840172Y-116784501D01*
X131796279Y-116793233D01*
X131796275Y-116793235D01*
X131746498Y-116826495D01*
X131746494Y-116826499D01*
X131713234Y-116876276D01*
X131713232Y-116876280D01*
X131704500Y-116920173D01*
X130456496Y-116920173D01*
X130395765Y-116879593D01*
X130395753Y-116879587D01*
X130243706Y-116816608D01*
X130082292Y-116784501D01*
X130082290Y-116784501D01*
X129917710Y-116784501D01*
X129917707Y-116784501D01*
X129756294Y-116816608D01*
X129756292Y-116816608D01*
X129604246Y-116879587D01*
X129604234Y-116879593D01*
X129467400Y-116971025D01*
X129467396Y-116971028D01*
X129351027Y-117087397D01*
X129351024Y-117087401D01*
X129259592Y-117224235D01*
X129259586Y-117224247D01*
X129196607Y-117376293D01*
X129196607Y-117376295D01*
X129164500Y-117537708D01*
X128295499Y-117537708D01*
X128263393Y-117376295D01*
X128200411Y-117224243D01*
X128200407Y-117224235D01*
X128147957Y-117145741D01*
X128108976Y-117087401D01*
X127992600Y-116971025D01*
X127953617Y-116944977D01*
X127855765Y-116879593D01*
X127855753Y-116879587D01*
X127703706Y-116816608D01*
X127542292Y-116784501D01*
X127542290Y-116784501D01*
X127377710Y-116784501D01*
X127377707Y-116784501D01*
X127216294Y-116816608D01*
X127216292Y-116816608D01*
X127064246Y-116879587D01*
X127064234Y-116879593D01*
X126927400Y-116971025D01*
X126927396Y-116971028D01*
X126811027Y-117087397D01*
X126811024Y-117087401D01*
X126719592Y-117224235D01*
X126719586Y-117224247D01*
X126656607Y-117376293D01*
X126656607Y-117376295D01*
X126624500Y-117537708D01*
X100500500Y-117537708D01*
X100500500Y-114997708D01*
X126624500Y-114997708D01*
X126624500Y-115162293D01*
X126656607Y-115323706D01*
X126656607Y-115323708D01*
X126719586Y-115475754D01*
X126719592Y-115475766D01*
X126784976Y-115573618D01*
X126811024Y-115612601D01*
X126927400Y-115728977D01*
X126985740Y-115767958D01*
X127064234Y-115820408D01*
X127064246Y-115820414D01*
X127120411Y-115843678D01*
X127216294Y-115883394D01*
X127377710Y-115915501D01*
X127377711Y-115915501D01*
X127542289Y-115915501D01*
X127542290Y-115915501D01*
X127703706Y-115883394D01*
X127855758Y-115820412D01*
X127855760Y-115820410D01*
X127855765Y-115820408D01*
X127895276Y-115794006D01*
X127992600Y-115728977D01*
X128108976Y-115612601D01*
X128174005Y-115515277D01*
X128200407Y-115475766D01*
X128200413Y-115475754D01*
X128263393Y-115323707D01*
X128295500Y-115162291D01*
X128295500Y-114997711D01*
X128295499Y-114997708D01*
X129164500Y-114997708D01*
X129164500Y-115162293D01*
X129196607Y-115323706D01*
X129196607Y-115323708D01*
X129259586Y-115475754D01*
X129259592Y-115475766D01*
X129324976Y-115573618D01*
X129351024Y-115612601D01*
X129467400Y-115728977D01*
X129525740Y-115767958D01*
X129604234Y-115820408D01*
X129604246Y-115820414D01*
X129660411Y-115843678D01*
X129756294Y-115883394D01*
X129917710Y-115915501D01*
X129917711Y-115915501D01*
X130082289Y-115915501D01*
X130082290Y-115915501D01*
X130243706Y-115883394D01*
X130395758Y-115820412D01*
X130395760Y-115820410D01*
X130395765Y-115820408D01*
X130435276Y-115794006D01*
X130532600Y-115728977D01*
X130648976Y-115612601D01*
X130714005Y-115515277D01*
X130740407Y-115475766D01*
X130740413Y-115475754D01*
X130803393Y-115323707D01*
X130835500Y-115162291D01*
X130835500Y-114997711D01*
X130835499Y-114997708D01*
X131704500Y-114997708D01*
X131704500Y-115162293D01*
X131736607Y-115323706D01*
X131736607Y-115323708D01*
X131799586Y-115475754D01*
X131799592Y-115475766D01*
X131864976Y-115573618D01*
X131891024Y-115612601D01*
X132007400Y-115728977D01*
X132065740Y-115767958D01*
X132144234Y-115820408D01*
X132144246Y-115820414D01*
X132200411Y-115843678D01*
X132296294Y-115883394D01*
X132457710Y-115915501D01*
X132457711Y-115915501D01*
X132622289Y-115915501D01*
X132622290Y-115915501D01*
X132783706Y-115883394D01*
X132935758Y-115820412D01*
X132935760Y-115820410D01*
X132935765Y-115820408D01*
X132975276Y-115794006D01*
X133072600Y-115728977D01*
X133188976Y-115612601D01*
X133254005Y-115515277D01*
X133280407Y-115475766D01*
X133280413Y-115475754D01*
X133343393Y-115323707D01*
X133375500Y-115162291D01*
X133375500Y-114997711D01*
X133343393Y-114836295D01*
X133280411Y-114684243D01*
X133280407Y-114684235D01*
X133227957Y-114605741D01*
X133188976Y-114547401D01*
X133072600Y-114431025D01*
X133033617Y-114404977D01*
X132935765Y-114339593D01*
X132935753Y-114339587D01*
X132783706Y-114276608D01*
X132622292Y-114244501D01*
X132622290Y-114244501D01*
X132457710Y-114244501D01*
X132457707Y-114244501D01*
X132296294Y-114276608D01*
X132296292Y-114276608D01*
X132144246Y-114339587D01*
X132144234Y-114339593D01*
X132007400Y-114431025D01*
X132007396Y-114431028D01*
X131891027Y-114547397D01*
X131891024Y-114547401D01*
X131799592Y-114684235D01*
X131799586Y-114684247D01*
X131736607Y-114836293D01*
X131736607Y-114836295D01*
X131704500Y-114997708D01*
X130835499Y-114997708D01*
X130803393Y-114836295D01*
X130740411Y-114684243D01*
X130740407Y-114684235D01*
X130687957Y-114605741D01*
X130648976Y-114547401D01*
X130532600Y-114431025D01*
X130493617Y-114404977D01*
X130395765Y-114339593D01*
X130395753Y-114339587D01*
X130243706Y-114276608D01*
X130082292Y-114244501D01*
X130082290Y-114244501D01*
X129917710Y-114244501D01*
X129917707Y-114244501D01*
X129756294Y-114276608D01*
X129756292Y-114276608D01*
X129604246Y-114339587D01*
X129604234Y-114339593D01*
X129467400Y-114431025D01*
X129467396Y-114431028D01*
X129351027Y-114547397D01*
X129351024Y-114547401D01*
X129259592Y-114684235D01*
X129259586Y-114684247D01*
X129196607Y-114836293D01*
X129196607Y-114836295D01*
X129164500Y-114997708D01*
X128295499Y-114997708D01*
X128263393Y-114836295D01*
X128200411Y-114684243D01*
X128200407Y-114684235D01*
X128147957Y-114605741D01*
X128108976Y-114547401D01*
X127992600Y-114431025D01*
X127953617Y-114404977D01*
X127855765Y-114339593D01*
X127855753Y-114339587D01*
X127703706Y-114276608D01*
X127542292Y-114244501D01*
X127542290Y-114244501D01*
X127377710Y-114244501D01*
X127377707Y-114244501D01*
X127216294Y-114276608D01*
X127216292Y-114276608D01*
X127064246Y-114339587D01*
X127064234Y-114339593D01*
X126927400Y-114431025D01*
X126927396Y-114431028D01*
X126811027Y-114547397D01*
X126811024Y-114547401D01*
X126719592Y-114684235D01*
X126719586Y-114684247D01*
X126656607Y-114836293D01*
X126656607Y-114836295D01*
X126624500Y-114997708D01*
X100500500Y-114997708D01*
X100500500Y-112457708D01*
X126624500Y-112457708D01*
X126624500Y-112622293D01*
X126656607Y-112783706D01*
X126656607Y-112783708D01*
X126719586Y-112935754D01*
X126719592Y-112935766D01*
X126784976Y-113033618D01*
X126811024Y-113072601D01*
X126927400Y-113188977D01*
X126985740Y-113227958D01*
X127064234Y-113280408D01*
X127064246Y-113280414D01*
X127120411Y-113303678D01*
X127216294Y-113343394D01*
X127377710Y-113375501D01*
X127377711Y-113375501D01*
X127542289Y-113375501D01*
X127542290Y-113375501D01*
X127703706Y-113343394D01*
X127855758Y-113280412D01*
X127855760Y-113280410D01*
X127855765Y-113280408D01*
X127895276Y-113254006D01*
X127992600Y-113188977D01*
X128108976Y-113072601D01*
X128174005Y-112975277D01*
X128200407Y-112935766D01*
X128200413Y-112935754D01*
X128263393Y-112783707D01*
X128295500Y-112622291D01*
X128295500Y-112457711D01*
X128295499Y-112457708D01*
X129164500Y-112457708D01*
X129164500Y-112622293D01*
X129196607Y-112783706D01*
X129196607Y-112783708D01*
X129259586Y-112935754D01*
X129259592Y-112935766D01*
X129324976Y-113033618D01*
X129351024Y-113072601D01*
X129467400Y-113188977D01*
X129525740Y-113227958D01*
X129604234Y-113280408D01*
X129604246Y-113280414D01*
X129660411Y-113303678D01*
X129756294Y-113343394D01*
X129917710Y-113375501D01*
X129917711Y-113375501D01*
X130082289Y-113375501D01*
X130082290Y-113375501D01*
X130243706Y-113343394D01*
X130395758Y-113280412D01*
X130395760Y-113280410D01*
X130395765Y-113280408D01*
X130435276Y-113254006D01*
X130532600Y-113188977D01*
X130648976Y-113072601D01*
X130714005Y-112975277D01*
X130740407Y-112935766D01*
X130740413Y-112935754D01*
X130803393Y-112783707D01*
X130835500Y-112622291D01*
X130835500Y-112457711D01*
X130835499Y-112457708D01*
X131704500Y-112457708D01*
X131704500Y-112622293D01*
X131736607Y-112783706D01*
X131736607Y-112783708D01*
X131799586Y-112935754D01*
X131799592Y-112935766D01*
X131864976Y-113033618D01*
X131891024Y-113072601D01*
X132007400Y-113188977D01*
X132065740Y-113227958D01*
X132144234Y-113280408D01*
X132144246Y-113280414D01*
X132200411Y-113303678D01*
X132296294Y-113343394D01*
X132457710Y-113375501D01*
X132457711Y-113375501D01*
X132622289Y-113375501D01*
X132622290Y-113375501D01*
X132783706Y-113343394D01*
X132935758Y-113280412D01*
X132935760Y-113280410D01*
X132935765Y-113280408D01*
X132975276Y-113254006D01*
X133072600Y-113188977D01*
X133188976Y-113072601D01*
X133254005Y-112975277D01*
X133280407Y-112935766D01*
X133280413Y-112935754D01*
X133343393Y-112783707D01*
X133375500Y-112622291D01*
X133375500Y-112457711D01*
X133343393Y-112296295D01*
X133280411Y-112144243D01*
X133280407Y-112144235D01*
X133227957Y-112065741D01*
X133188976Y-112007401D01*
X133072600Y-111891025D01*
X133033617Y-111864977D01*
X132935765Y-111799593D01*
X132935753Y-111799587D01*
X132783706Y-111736608D01*
X132622292Y-111704501D01*
X132622290Y-111704501D01*
X132457710Y-111704501D01*
X132457707Y-111704501D01*
X132296294Y-111736608D01*
X132296292Y-111736608D01*
X132144246Y-111799587D01*
X132144234Y-111799593D01*
X132007400Y-111891025D01*
X132007396Y-111891028D01*
X131891027Y-112007397D01*
X131891024Y-112007401D01*
X131799592Y-112144235D01*
X131799586Y-112144247D01*
X131736607Y-112296293D01*
X131736607Y-112296295D01*
X131704500Y-112457708D01*
X130835499Y-112457708D01*
X130803393Y-112296295D01*
X130740411Y-112144243D01*
X130740407Y-112144235D01*
X130687957Y-112065741D01*
X130648976Y-112007401D01*
X130532600Y-111891025D01*
X130493617Y-111864977D01*
X130395765Y-111799593D01*
X130395753Y-111799587D01*
X130243706Y-111736608D01*
X130082292Y-111704501D01*
X130082290Y-111704501D01*
X129917710Y-111704501D01*
X129917707Y-111704501D01*
X129756294Y-111736608D01*
X129756292Y-111736608D01*
X129604246Y-111799587D01*
X129604234Y-111799593D01*
X129467400Y-111891025D01*
X129467396Y-111891028D01*
X129351027Y-112007397D01*
X129351024Y-112007401D01*
X129259592Y-112144235D01*
X129259586Y-112144247D01*
X129196607Y-112296293D01*
X129196607Y-112296295D01*
X129164500Y-112457708D01*
X128295499Y-112457708D01*
X128263393Y-112296295D01*
X128200411Y-112144243D01*
X128200407Y-112144235D01*
X128147957Y-112065741D01*
X128108976Y-112007401D01*
X127992600Y-111891025D01*
X127953617Y-111864977D01*
X127855765Y-111799593D01*
X127855753Y-111799587D01*
X127703706Y-111736608D01*
X127542292Y-111704501D01*
X127542290Y-111704501D01*
X127377710Y-111704501D01*
X127377707Y-111704501D01*
X127216294Y-111736608D01*
X127216292Y-111736608D01*
X127064246Y-111799587D01*
X127064234Y-111799593D01*
X126927400Y-111891025D01*
X126927396Y-111891028D01*
X126811027Y-112007397D01*
X126811024Y-112007401D01*
X126719592Y-112144235D01*
X126719586Y-112144247D01*
X126656607Y-112296293D01*
X126656607Y-112296295D01*
X126624500Y-112457708D01*
X100500500Y-112457708D01*
X100500500Y-109917708D01*
X126624500Y-109917708D01*
X126624500Y-110082293D01*
X126656607Y-110243706D01*
X126656607Y-110243708D01*
X126719586Y-110395754D01*
X126719592Y-110395766D01*
X126784976Y-110493618D01*
X126811024Y-110532601D01*
X126927400Y-110648977D01*
X126985740Y-110687958D01*
X127064234Y-110740408D01*
X127064246Y-110740414D01*
X127120411Y-110763678D01*
X127216294Y-110803394D01*
X127377710Y-110835501D01*
X127377711Y-110835501D01*
X127542289Y-110835501D01*
X127542290Y-110835501D01*
X127703706Y-110803394D01*
X127855758Y-110740412D01*
X127855760Y-110740410D01*
X127855765Y-110740408D01*
X127895276Y-110714006D01*
X127992600Y-110648977D01*
X128108976Y-110532601D01*
X128174005Y-110435277D01*
X128200407Y-110395766D01*
X128200413Y-110395754D01*
X128263393Y-110243707D01*
X128295500Y-110082291D01*
X128295500Y-109917711D01*
X128295499Y-109917708D01*
X129164500Y-109917708D01*
X129164500Y-110082293D01*
X129196607Y-110243706D01*
X129196607Y-110243708D01*
X129259586Y-110395754D01*
X129259592Y-110395766D01*
X129324976Y-110493618D01*
X129351024Y-110532601D01*
X129467400Y-110648977D01*
X129525740Y-110687958D01*
X129604234Y-110740408D01*
X129604246Y-110740414D01*
X129660411Y-110763678D01*
X129756294Y-110803394D01*
X129917710Y-110835501D01*
X129917711Y-110835501D01*
X130082289Y-110835501D01*
X130082290Y-110835501D01*
X130243706Y-110803394D01*
X130395758Y-110740412D01*
X130395760Y-110740410D01*
X130395765Y-110740408D01*
X130435276Y-110714006D01*
X130532600Y-110648977D01*
X130648976Y-110532601D01*
X130714005Y-110435277D01*
X130740407Y-110395766D01*
X130740413Y-110395754D01*
X130803393Y-110243707D01*
X130835500Y-110082291D01*
X130835500Y-109917711D01*
X130835499Y-109917708D01*
X131704500Y-109917708D01*
X131704500Y-110082293D01*
X131736607Y-110243706D01*
X131736607Y-110243708D01*
X131799586Y-110395754D01*
X131799592Y-110395766D01*
X131864976Y-110493618D01*
X131891024Y-110532601D01*
X132007400Y-110648977D01*
X132065740Y-110687958D01*
X132144234Y-110740408D01*
X132144246Y-110740414D01*
X132200411Y-110763678D01*
X132296294Y-110803394D01*
X132457710Y-110835501D01*
X132457711Y-110835501D01*
X132622289Y-110835501D01*
X132622290Y-110835501D01*
X132783706Y-110803394D01*
X132935758Y-110740412D01*
X132935760Y-110740410D01*
X132935765Y-110740408D01*
X132975276Y-110714006D01*
X133072600Y-110648977D01*
X133188976Y-110532601D01*
X133254005Y-110435277D01*
X133280407Y-110395766D01*
X133280413Y-110395754D01*
X133343393Y-110243707D01*
X133375500Y-110082291D01*
X133375500Y-109917711D01*
X133343393Y-109756295D01*
X133280411Y-109604243D01*
X133280407Y-109604235D01*
X133227957Y-109525741D01*
X133188976Y-109467401D01*
X133072600Y-109351025D01*
X133033617Y-109324977D01*
X132935765Y-109259593D01*
X132935753Y-109259587D01*
X132783706Y-109196608D01*
X132622292Y-109164501D01*
X132622290Y-109164501D01*
X132457710Y-109164501D01*
X132457707Y-109164501D01*
X132296294Y-109196608D01*
X132296292Y-109196608D01*
X132144246Y-109259587D01*
X132144234Y-109259593D01*
X132007400Y-109351025D01*
X132007396Y-109351028D01*
X131891027Y-109467397D01*
X131891024Y-109467401D01*
X131799592Y-109604235D01*
X131799586Y-109604247D01*
X131736607Y-109756293D01*
X131736607Y-109756295D01*
X131704500Y-109917708D01*
X130835499Y-109917708D01*
X130803393Y-109756295D01*
X130740411Y-109604243D01*
X130740407Y-109604235D01*
X130687957Y-109525741D01*
X130648976Y-109467401D01*
X130532600Y-109351025D01*
X130493617Y-109324977D01*
X130395765Y-109259593D01*
X130395753Y-109259587D01*
X130243706Y-109196608D01*
X130082292Y-109164501D01*
X130082290Y-109164501D01*
X129917710Y-109164501D01*
X129917707Y-109164501D01*
X129756294Y-109196608D01*
X129756292Y-109196608D01*
X129604246Y-109259587D01*
X129604234Y-109259593D01*
X129467400Y-109351025D01*
X129467396Y-109351028D01*
X129351027Y-109467397D01*
X129351024Y-109467401D01*
X129259592Y-109604235D01*
X129259586Y-109604247D01*
X129196607Y-109756293D01*
X129196607Y-109756295D01*
X129164500Y-109917708D01*
X128295499Y-109917708D01*
X128263393Y-109756295D01*
X128200411Y-109604243D01*
X128200407Y-109604235D01*
X128147957Y-109525741D01*
X128108976Y-109467401D01*
X127992600Y-109351025D01*
X127953617Y-109324977D01*
X127855765Y-109259593D01*
X127855753Y-109259587D01*
X127703706Y-109196608D01*
X127542292Y-109164501D01*
X127542290Y-109164501D01*
X127377710Y-109164501D01*
X127377707Y-109164501D01*
X127216294Y-109196608D01*
X127216292Y-109196608D01*
X127064246Y-109259587D01*
X127064234Y-109259593D01*
X126927400Y-109351025D01*
X126927396Y-109351028D01*
X126811027Y-109467397D01*
X126811024Y-109467401D01*
X126719592Y-109604235D01*
X126719586Y-109604247D01*
X126656607Y-109756293D01*
X126656607Y-109756295D01*
X126624500Y-109917708D01*
X100500500Y-109917708D01*
X100500500Y-107390709D01*
X116922119Y-107390709D01*
X116922119Y-107390710D01*
X116932343Y-107481593D01*
X116980989Y-107559042D01*
X116983906Y-107561960D01*
X116983912Y-107561965D01*
X116983918Y-107561971D01*
X116983932Y-107561982D01*
X117019947Y-107590703D01*
X117019948Y-107590704D01*
X117019949Y-107590704D01*
X117019950Y-107590705D01*
X117106279Y-107620897D01*
X117197158Y-107610641D01*
X117274588Y-107561971D01*
X117277518Y-107559040D01*
X117306185Y-107523087D01*
X117336391Y-107436763D01*
X117329737Y-107377708D01*
X126624500Y-107377708D01*
X126624500Y-107542293D01*
X126656607Y-107703706D01*
X126656607Y-107703708D01*
X126719586Y-107855754D01*
X126719592Y-107855766D01*
X126784976Y-107953618D01*
X126811024Y-107992601D01*
X126927400Y-108108977D01*
X126985740Y-108147958D01*
X127064234Y-108200408D01*
X127064246Y-108200414D01*
X127120411Y-108223678D01*
X127216294Y-108263394D01*
X127377710Y-108295501D01*
X127377711Y-108295501D01*
X127542289Y-108295501D01*
X127542290Y-108295501D01*
X127703706Y-108263394D01*
X127855758Y-108200412D01*
X127855760Y-108200410D01*
X127855765Y-108200408D01*
X127895276Y-108174006D01*
X127992600Y-108108977D01*
X128108976Y-107992601D01*
X128174005Y-107895277D01*
X128200407Y-107855766D01*
X128200413Y-107855754D01*
X128263393Y-107703707D01*
X128295500Y-107542291D01*
X128295500Y-107377711D01*
X128295499Y-107377708D01*
X129164500Y-107377708D01*
X129164500Y-107542293D01*
X129196607Y-107703706D01*
X129196607Y-107703708D01*
X129259586Y-107855754D01*
X129259592Y-107855766D01*
X129324976Y-107953618D01*
X129351024Y-107992601D01*
X129467400Y-108108977D01*
X129525740Y-108147958D01*
X129604234Y-108200408D01*
X129604246Y-108200414D01*
X129660411Y-108223678D01*
X129756294Y-108263394D01*
X129917710Y-108295501D01*
X129917711Y-108295501D01*
X130082289Y-108295501D01*
X130082290Y-108295501D01*
X130243706Y-108263394D01*
X130395758Y-108200412D01*
X130395760Y-108200410D01*
X130395765Y-108200408D01*
X130435276Y-108174006D01*
X130532600Y-108108977D01*
X130648976Y-107992601D01*
X130714005Y-107895277D01*
X130740407Y-107855766D01*
X130740413Y-107855754D01*
X130803393Y-107703707D01*
X130835500Y-107542291D01*
X130835500Y-107377711D01*
X130835499Y-107377708D01*
X131704500Y-107377708D01*
X131704500Y-107542293D01*
X131736607Y-107703706D01*
X131736607Y-107703708D01*
X131799586Y-107855754D01*
X131799592Y-107855766D01*
X131864976Y-107953618D01*
X131891024Y-107992601D01*
X132007400Y-108108977D01*
X132065740Y-108147958D01*
X132144234Y-108200408D01*
X132144246Y-108200414D01*
X132200411Y-108223678D01*
X132296294Y-108263394D01*
X132457710Y-108295501D01*
X132457711Y-108295501D01*
X132622289Y-108295501D01*
X132622290Y-108295501D01*
X132783706Y-108263394D01*
X132935758Y-108200412D01*
X132935760Y-108200410D01*
X132935765Y-108200408D01*
X132975276Y-108174006D01*
X133072600Y-108108977D01*
X133188976Y-107992601D01*
X133254005Y-107895277D01*
X133280407Y-107855766D01*
X133280413Y-107855754D01*
X133343393Y-107703707D01*
X133375500Y-107542291D01*
X133375500Y-107377711D01*
X133343393Y-107216295D01*
X133280411Y-107064243D01*
X133280407Y-107064235D01*
X133227957Y-106985741D01*
X133188976Y-106927401D01*
X133072600Y-106811025D01*
X133033617Y-106784977D01*
X132935765Y-106719593D01*
X132935753Y-106719587D01*
X132783706Y-106656608D01*
X132622292Y-106624501D01*
X132622290Y-106624501D01*
X132457710Y-106624501D01*
X132457707Y-106624501D01*
X132296294Y-106656608D01*
X132296292Y-106656608D01*
X132144246Y-106719587D01*
X132144234Y-106719593D01*
X132007400Y-106811025D01*
X132007396Y-106811028D01*
X131891027Y-106927397D01*
X131891024Y-106927401D01*
X131799592Y-107064235D01*
X131799586Y-107064247D01*
X131736607Y-107216293D01*
X131736607Y-107216295D01*
X131704500Y-107377708D01*
X130835499Y-107377708D01*
X130803393Y-107216295D01*
X130740411Y-107064243D01*
X130740407Y-107064235D01*
X130687957Y-106985741D01*
X130648976Y-106927401D01*
X130532600Y-106811025D01*
X130493617Y-106784977D01*
X130395765Y-106719593D01*
X130395753Y-106719587D01*
X130243706Y-106656608D01*
X130082292Y-106624501D01*
X130082290Y-106624501D01*
X129917710Y-106624501D01*
X129917707Y-106624501D01*
X129756294Y-106656608D01*
X129756292Y-106656608D01*
X129604246Y-106719587D01*
X129604234Y-106719593D01*
X129467400Y-106811025D01*
X129467396Y-106811028D01*
X129351027Y-106927397D01*
X129351024Y-106927401D01*
X129259592Y-107064235D01*
X129259586Y-107064247D01*
X129196607Y-107216293D01*
X129196607Y-107216295D01*
X129164500Y-107377708D01*
X128295499Y-107377708D01*
X128263393Y-107216295D01*
X128200411Y-107064243D01*
X128200407Y-107064235D01*
X128147957Y-106985741D01*
X128108976Y-106927401D01*
X127992600Y-106811025D01*
X127953617Y-106784977D01*
X127855765Y-106719593D01*
X127855753Y-106719587D01*
X127703706Y-106656608D01*
X127542292Y-106624501D01*
X127542290Y-106624501D01*
X127377710Y-106624501D01*
X127377707Y-106624501D01*
X127216294Y-106656608D01*
X127216292Y-106656608D01*
X127064246Y-106719587D01*
X127064234Y-106719593D01*
X126927400Y-106811025D01*
X126927396Y-106811028D01*
X126811027Y-106927397D01*
X126811024Y-106927401D01*
X126719592Y-107064235D01*
X126719586Y-107064247D01*
X126656607Y-107216293D01*
X126656607Y-107216295D01*
X126624500Y-107377708D01*
X117329737Y-107377708D01*
X117326151Y-107345882D01*
X117277493Y-107268444D01*
X117274563Y-107265514D01*
X117238586Y-107236822D01*
X117238585Y-107236821D01*
X117152265Y-107206616D01*
X117152262Y-107206616D01*
X117061381Y-107216856D01*
X117061380Y-107216856D01*
X116983946Y-107265511D01*
X116981009Y-107268448D01*
X116952339Y-107304392D01*
X116922119Y-107390709D01*
X100500500Y-107390709D01*
X100500500Y-104869924D01*
X119184163Y-104869924D01*
X119184163Y-104869925D01*
X119207249Y-104958413D01*
X119207252Y-104958420D01*
X119208168Y-104960180D01*
X119208178Y-104960199D01*
X119217759Y-104976696D01*
X119217761Y-104976699D01*
X119283176Y-105040613D01*
X119369845Y-105069815D01*
X119372163Y-105070049D01*
X119376796Y-105070517D01*
X119376798Y-105070516D01*
X119376800Y-105070517D01*
X119445558Y-105065842D01*
X119527477Y-105025178D01*
X119528336Y-105024476D01*
X119559269Y-104993095D01*
X119598753Y-104910601D01*
X119598578Y-104837708D01*
X126624500Y-104837708D01*
X126624500Y-105002293D01*
X126656607Y-105163706D01*
X126656607Y-105163708D01*
X126719586Y-105315754D01*
X126719592Y-105315766D01*
X126784976Y-105413618D01*
X126811024Y-105452601D01*
X126927400Y-105568977D01*
X126985740Y-105607958D01*
X127064234Y-105660408D01*
X127064246Y-105660414D01*
X127120411Y-105683678D01*
X127216294Y-105723394D01*
X127377710Y-105755501D01*
X127377711Y-105755501D01*
X127542289Y-105755501D01*
X127542290Y-105755501D01*
X127703706Y-105723394D01*
X127855758Y-105660412D01*
X127855760Y-105660410D01*
X127855765Y-105660408D01*
X127895276Y-105634006D01*
X127992600Y-105568977D01*
X128108976Y-105452601D01*
X128174005Y-105355277D01*
X128200407Y-105315766D01*
X128200413Y-105315754D01*
X128263393Y-105163707D01*
X128295500Y-105002291D01*
X128295500Y-104837711D01*
X128295499Y-104837708D01*
X129164500Y-104837708D01*
X129164500Y-105002293D01*
X129196607Y-105163706D01*
X129196607Y-105163708D01*
X129259586Y-105315754D01*
X129259592Y-105315766D01*
X129324976Y-105413618D01*
X129351024Y-105452601D01*
X129467400Y-105568977D01*
X129525740Y-105607958D01*
X129604234Y-105660408D01*
X129604246Y-105660414D01*
X129660411Y-105683678D01*
X129756294Y-105723394D01*
X129917710Y-105755501D01*
X129917711Y-105755501D01*
X130082289Y-105755501D01*
X130082290Y-105755501D01*
X130243706Y-105723394D01*
X130395758Y-105660412D01*
X130395760Y-105660410D01*
X130395765Y-105660408D01*
X130435276Y-105634006D01*
X130532600Y-105568977D01*
X130648976Y-105452601D01*
X130714005Y-105355277D01*
X130740407Y-105315766D01*
X130740413Y-105315754D01*
X130803393Y-105163707D01*
X130835500Y-105002291D01*
X130835500Y-104837711D01*
X130835499Y-104837708D01*
X131704500Y-104837708D01*
X131704500Y-105002293D01*
X131736607Y-105163706D01*
X131736607Y-105163708D01*
X131799586Y-105315754D01*
X131799592Y-105315766D01*
X131864976Y-105413618D01*
X131891024Y-105452601D01*
X132007400Y-105568977D01*
X132065740Y-105607958D01*
X132144234Y-105660408D01*
X132144246Y-105660414D01*
X132200411Y-105683678D01*
X132296294Y-105723394D01*
X132457710Y-105755501D01*
X132457711Y-105755501D01*
X132622289Y-105755501D01*
X132622290Y-105755501D01*
X132783706Y-105723394D01*
X132935758Y-105660412D01*
X132935760Y-105660410D01*
X132935765Y-105660408D01*
X132975276Y-105634006D01*
X133072600Y-105568977D01*
X133188976Y-105452601D01*
X133254005Y-105355277D01*
X133280407Y-105315766D01*
X133280413Y-105315754D01*
X133343393Y-105163707D01*
X133375500Y-105002291D01*
X133375500Y-104837711D01*
X133343393Y-104676295D01*
X133280411Y-104524243D01*
X133280407Y-104524235D01*
X133227957Y-104445741D01*
X133188976Y-104387401D01*
X133072600Y-104271025D01*
X133033617Y-104244977D01*
X132935765Y-104179593D01*
X132935753Y-104179587D01*
X132783706Y-104116608D01*
X132622292Y-104084501D01*
X132622290Y-104084501D01*
X132457710Y-104084501D01*
X132457707Y-104084501D01*
X132296294Y-104116608D01*
X132296292Y-104116608D01*
X132144246Y-104179587D01*
X132144234Y-104179593D01*
X132007400Y-104271025D01*
X132007396Y-104271028D01*
X131891027Y-104387397D01*
X131891024Y-104387401D01*
X131799592Y-104524235D01*
X131799586Y-104524247D01*
X131736607Y-104676293D01*
X131736607Y-104676295D01*
X131704500Y-104837708D01*
X130835499Y-104837708D01*
X130803393Y-104676295D01*
X130740411Y-104524243D01*
X130740407Y-104524235D01*
X130687957Y-104445741D01*
X130648976Y-104387401D01*
X130532600Y-104271025D01*
X130493617Y-104244977D01*
X130395765Y-104179593D01*
X130395753Y-104179587D01*
X130243706Y-104116608D01*
X130082292Y-104084501D01*
X130082290Y-104084501D01*
X129917710Y-104084501D01*
X129917707Y-104084501D01*
X129756294Y-104116608D01*
X129756292Y-104116608D01*
X129604246Y-104179587D01*
X129604234Y-104179593D01*
X129467400Y-104271025D01*
X129467396Y-104271028D01*
X129351027Y-104387397D01*
X129351024Y-104387401D01*
X129259592Y-104524235D01*
X129259586Y-104524247D01*
X129196607Y-104676293D01*
X129196607Y-104676295D01*
X129164500Y-104837708D01*
X128295499Y-104837708D01*
X128263393Y-104676295D01*
X128200411Y-104524243D01*
X128200407Y-104524235D01*
X128147957Y-104445741D01*
X128108976Y-104387401D01*
X127992600Y-104271025D01*
X127953617Y-104244977D01*
X127855765Y-104179593D01*
X127855753Y-104179587D01*
X127703706Y-104116608D01*
X127542292Y-104084501D01*
X127542290Y-104084501D01*
X127377710Y-104084501D01*
X127377707Y-104084501D01*
X127216294Y-104116608D01*
X127216292Y-104116608D01*
X127064246Y-104179587D01*
X127064234Y-104179593D01*
X126927400Y-104271025D01*
X126927396Y-104271028D01*
X126811027Y-104387397D01*
X126811024Y-104387401D01*
X126719592Y-104524235D01*
X126719586Y-104524247D01*
X126656607Y-104676293D01*
X126656607Y-104676295D01*
X126624500Y-104837708D01*
X119598578Y-104837708D01*
X119598533Y-104819145D01*
X119597729Y-104815661D01*
X119573992Y-104756618D01*
X119526583Y-104706948D01*
X119510848Y-104690462D01*
X119510846Y-104690461D01*
X119468047Y-104674357D01*
X119425247Y-104658252D01*
X119422154Y-104657831D01*
X119422152Y-104657830D01*
X119422146Y-104657830D01*
X119400671Y-104656043D01*
X119400670Y-104656043D01*
X119400669Y-104656043D01*
X119310933Y-104673657D01*
X119310928Y-104673659D01*
X119306096Y-104675806D01*
X119256548Y-104706948D01*
X119201757Y-104780175D01*
X119201756Y-104780178D01*
X119184163Y-104869924D01*
X100500500Y-104869924D01*
X100500500Y-103768905D01*
X119319111Y-103768905D01*
X119319111Y-103768906D01*
X119319111Y-103768907D01*
X119329367Y-103859786D01*
X119378037Y-103937216D01*
X119378038Y-103937217D01*
X119378041Y-103937221D01*
X119380943Y-103940121D01*
X119380968Y-103940146D01*
X119416921Y-103968813D01*
X119457217Y-103982913D01*
X119503241Y-103999018D01*
X119503241Y-103999017D01*
X119503245Y-103999019D01*
X119594126Y-103988779D01*
X119671564Y-103940121D01*
X119674494Y-103937191D01*
X119703186Y-103901214D01*
X119733392Y-103814890D01*
X119723152Y-103724009D01*
X119674494Y-103646571D01*
X119671564Y-103643641D01*
X119635616Y-103614968D01*
X119635615Y-103614967D01*
X119549298Y-103584747D01*
X119549297Y-103584747D01*
X119458414Y-103594971D01*
X119380965Y-103643617D01*
X119378047Y-103646534D01*
X119378025Y-103646560D01*
X119349304Y-103682575D01*
X119349303Y-103682576D01*
X119319111Y-103768905D01*
X100500500Y-103768905D01*
X100500500Y-102297708D01*
X126624500Y-102297708D01*
X126624500Y-102462293D01*
X126656607Y-102623706D01*
X126656607Y-102623708D01*
X126719586Y-102775754D01*
X126719592Y-102775766D01*
X126784976Y-102873618D01*
X126811024Y-102912601D01*
X126927400Y-103028977D01*
X126985740Y-103067958D01*
X127064234Y-103120408D01*
X127064246Y-103120414D01*
X127120411Y-103143678D01*
X127216294Y-103183394D01*
X127377710Y-103215501D01*
X127377711Y-103215501D01*
X127542289Y-103215501D01*
X127542290Y-103215501D01*
X127703706Y-103183394D01*
X127855758Y-103120412D01*
X127855760Y-103120410D01*
X127855765Y-103120408D01*
X127895276Y-103094006D01*
X127992600Y-103028977D01*
X128108976Y-102912601D01*
X128174005Y-102815277D01*
X128200407Y-102775766D01*
X128200413Y-102775754D01*
X128263393Y-102623707D01*
X128295500Y-102462291D01*
X128295500Y-102297711D01*
X128295499Y-102297708D01*
X129164500Y-102297708D01*
X129164500Y-102462293D01*
X129196607Y-102623706D01*
X129196607Y-102623708D01*
X129259586Y-102775754D01*
X129259592Y-102775766D01*
X129324976Y-102873618D01*
X129351024Y-102912601D01*
X129467400Y-103028977D01*
X129525740Y-103067958D01*
X129604234Y-103120408D01*
X129604246Y-103120414D01*
X129660411Y-103143678D01*
X129756294Y-103183394D01*
X129917710Y-103215501D01*
X129917711Y-103215501D01*
X130082289Y-103215501D01*
X130082290Y-103215501D01*
X130243706Y-103183394D01*
X130395758Y-103120412D01*
X130395760Y-103120410D01*
X130395765Y-103120408D01*
X130435276Y-103094006D01*
X130532600Y-103028977D01*
X130648976Y-102912601D01*
X130714005Y-102815277D01*
X130740407Y-102775766D01*
X130740413Y-102775754D01*
X130803393Y-102623707D01*
X130835500Y-102462291D01*
X130835500Y-102297711D01*
X130835499Y-102297708D01*
X131704500Y-102297708D01*
X131704500Y-102462293D01*
X131736607Y-102623706D01*
X131736607Y-102623708D01*
X131799586Y-102775754D01*
X131799592Y-102775766D01*
X131864976Y-102873618D01*
X131891024Y-102912601D01*
X132007400Y-103028977D01*
X132065740Y-103067958D01*
X132144234Y-103120408D01*
X132144246Y-103120414D01*
X132200411Y-103143678D01*
X132296294Y-103183394D01*
X132457710Y-103215501D01*
X132457711Y-103215501D01*
X132622289Y-103215501D01*
X132622290Y-103215501D01*
X132783706Y-103183394D01*
X132935758Y-103120412D01*
X132935760Y-103120410D01*
X132935765Y-103120408D01*
X132975276Y-103094006D01*
X133072600Y-103028977D01*
X133188976Y-102912601D01*
X133254005Y-102815277D01*
X133280407Y-102775766D01*
X133280413Y-102775754D01*
X133343393Y-102623707D01*
X133375500Y-102462291D01*
X133375500Y-102297711D01*
X133343393Y-102136295D01*
X133280411Y-101984243D01*
X133280407Y-101984235D01*
X133227957Y-101905741D01*
X133188976Y-101847401D01*
X133072600Y-101731025D01*
X133033617Y-101704977D01*
X132935765Y-101639593D01*
X132935753Y-101639587D01*
X132783706Y-101576608D01*
X132622292Y-101544501D01*
X132622290Y-101544501D01*
X132457710Y-101544501D01*
X132457707Y-101544501D01*
X132296294Y-101576608D01*
X132296292Y-101576608D01*
X132144246Y-101639587D01*
X132144234Y-101639593D01*
X132007400Y-101731025D01*
X132007396Y-101731028D01*
X131891027Y-101847397D01*
X131891024Y-101847401D01*
X131799592Y-101984235D01*
X131799586Y-101984247D01*
X131736607Y-102136293D01*
X131736607Y-102136295D01*
X131704500Y-102297708D01*
X130835499Y-102297708D01*
X130803393Y-102136295D01*
X130740411Y-101984243D01*
X130740407Y-101984235D01*
X130687957Y-101905741D01*
X130648976Y-101847401D01*
X130532600Y-101731025D01*
X130493617Y-101704977D01*
X130395765Y-101639593D01*
X130395753Y-101639587D01*
X130243706Y-101576608D01*
X130082292Y-101544501D01*
X130082290Y-101544501D01*
X129917710Y-101544501D01*
X129917707Y-101544501D01*
X129756294Y-101576608D01*
X129756292Y-101576608D01*
X129604246Y-101639587D01*
X129604234Y-101639593D01*
X129467400Y-101731025D01*
X129467396Y-101731028D01*
X129351027Y-101847397D01*
X129351024Y-101847401D01*
X129259592Y-101984235D01*
X129259586Y-101984247D01*
X129196607Y-102136293D01*
X129196607Y-102136295D01*
X129164500Y-102297708D01*
X128295499Y-102297708D01*
X128263393Y-102136295D01*
X128200411Y-101984243D01*
X128200407Y-101984235D01*
X128147957Y-101905741D01*
X128108976Y-101847401D01*
X127992600Y-101731025D01*
X127953617Y-101704977D01*
X127855765Y-101639593D01*
X127855753Y-101639587D01*
X127703706Y-101576608D01*
X127542292Y-101544501D01*
X127542290Y-101544501D01*
X127377710Y-101544501D01*
X127377707Y-101544501D01*
X127216294Y-101576608D01*
X127216292Y-101576608D01*
X127064246Y-101639587D01*
X127064234Y-101639593D01*
X126927400Y-101731025D01*
X126927396Y-101731028D01*
X126811027Y-101847397D01*
X126811024Y-101847401D01*
X126719592Y-101984235D01*
X126719586Y-101984247D01*
X126656607Y-102136293D01*
X126656607Y-102136295D01*
X126624500Y-102297708D01*
X100500500Y-102297708D01*
X100500500Y-99757708D01*
X126624500Y-99757708D01*
X126624500Y-99922293D01*
X126656607Y-100083706D01*
X126656607Y-100083708D01*
X126719586Y-100235754D01*
X126719592Y-100235766D01*
X126784976Y-100333618D01*
X126811024Y-100372601D01*
X126927400Y-100488977D01*
X126985740Y-100527958D01*
X127064234Y-100580408D01*
X127064246Y-100580414D01*
X127120411Y-100603678D01*
X127216294Y-100643394D01*
X127377710Y-100675501D01*
X127377711Y-100675501D01*
X127542289Y-100675501D01*
X127542290Y-100675501D01*
X127703706Y-100643394D01*
X127855758Y-100580412D01*
X127855760Y-100580410D01*
X127855765Y-100580408D01*
X127895276Y-100554006D01*
X127992600Y-100488977D01*
X128108976Y-100372601D01*
X128174005Y-100275277D01*
X128200407Y-100235766D01*
X128200413Y-100235754D01*
X128263393Y-100083707D01*
X128295500Y-99922291D01*
X128295500Y-99757711D01*
X128295499Y-99757708D01*
X129164500Y-99757708D01*
X129164500Y-99922293D01*
X129196607Y-100083706D01*
X129196607Y-100083708D01*
X129259586Y-100235754D01*
X129259592Y-100235766D01*
X129324976Y-100333618D01*
X129351024Y-100372601D01*
X129467400Y-100488977D01*
X129525740Y-100527958D01*
X129604234Y-100580408D01*
X129604246Y-100580414D01*
X129660411Y-100603678D01*
X129756294Y-100643394D01*
X129917710Y-100675501D01*
X129917711Y-100675501D01*
X130082289Y-100675501D01*
X130082290Y-100675501D01*
X130243706Y-100643394D01*
X130395758Y-100580412D01*
X130395760Y-100580410D01*
X130395765Y-100580408D01*
X130435276Y-100554006D01*
X130532600Y-100488977D01*
X130648976Y-100372601D01*
X130714005Y-100275277D01*
X130740407Y-100235766D01*
X130740413Y-100235754D01*
X130803393Y-100083707D01*
X130835500Y-99922291D01*
X130835500Y-99757711D01*
X130835499Y-99757708D01*
X131704500Y-99757708D01*
X131704500Y-99922293D01*
X131736607Y-100083706D01*
X131736607Y-100083708D01*
X131799586Y-100235754D01*
X131799592Y-100235766D01*
X131864976Y-100333618D01*
X131891024Y-100372601D01*
X132007400Y-100488977D01*
X132065740Y-100527958D01*
X132144234Y-100580408D01*
X132144246Y-100580414D01*
X132200411Y-100603678D01*
X132296294Y-100643394D01*
X132457710Y-100675501D01*
X132457711Y-100675501D01*
X132622289Y-100675501D01*
X132622290Y-100675501D01*
X132783706Y-100643394D01*
X132935758Y-100580412D01*
X132935760Y-100580410D01*
X132935765Y-100580408D01*
X132975276Y-100554006D01*
X133072600Y-100488977D01*
X133188976Y-100372601D01*
X133254005Y-100275277D01*
X133280407Y-100235766D01*
X133280413Y-100235754D01*
X133343393Y-100083707D01*
X133375500Y-99922291D01*
X133375500Y-99757711D01*
X133343393Y-99596295D01*
X133280411Y-99444243D01*
X133280407Y-99444235D01*
X133227957Y-99365741D01*
X133188976Y-99307401D01*
X133072600Y-99191025D01*
X133033617Y-99164977D01*
X132935765Y-99099593D01*
X132935753Y-99099587D01*
X132783706Y-99036608D01*
X132622292Y-99004501D01*
X132622290Y-99004501D01*
X132457710Y-99004501D01*
X132457707Y-99004501D01*
X132296294Y-99036608D01*
X132296292Y-99036608D01*
X132144246Y-99099587D01*
X132144234Y-99099593D01*
X132007400Y-99191025D01*
X132007396Y-99191028D01*
X131891027Y-99307397D01*
X131891024Y-99307401D01*
X131799592Y-99444235D01*
X131799586Y-99444247D01*
X131736607Y-99596293D01*
X131736607Y-99596295D01*
X131704500Y-99757708D01*
X130835499Y-99757708D01*
X130803393Y-99596295D01*
X130740411Y-99444243D01*
X130740407Y-99444235D01*
X130687957Y-99365741D01*
X130648976Y-99307401D01*
X130532600Y-99191025D01*
X130493617Y-99164977D01*
X130395765Y-99099593D01*
X130395753Y-99099587D01*
X130243706Y-99036608D01*
X130082292Y-99004501D01*
X130082290Y-99004501D01*
X129917710Y-99004501D01*
X129917707Y-99004501D01*
X129756294Y-99036608D01*
X129756292Y-99036608D01*
X129604246Y-99099587D01*
X129604234Y-99099593D01*
X129467400Y-99191025D01*
X129467396Y-99191028D01*
X129351027Y-99307397D01*
X129351024Y-99307401D01*
X129259592Y-99444235D01*
X129259586Y-99444247D01*
X129196607Y-99596293D01*
X129196607Y-99596295D01*
X129164500Y-99757708D01*
X128295499Y-99757708D01*
X128263393Y-99596295D01*
X128200411Y-99444243D01*
X128200407Y-99444235D01*
X128147957Y-99365741D01*
X128108976Y-99307401D01*
X127992600Y-99191025D01*
X127953617Y-99164977D01*
X127855765Y-99099593D01*
X127855753Y-99099587D01*
X127703706Y-99036608D01*
X127542292Y-99004501D01*
X127542290Y-99004501D01*
X127377710Y-99004501D01*
X127377707Y-99004501D01*
X127216294Y-99036608D01*
X127216292Y-99036608D01*
X127064246Y-99099587D01*
X127064234Y-99099593D01*
X126927400Y-99191025D01*
X126927396Y-99191028D01*
X126811027Y-99307397D01*
X126811024Y-99307401D01*
X126719592Y-99444235D01*
X126719586Y-99444247D01*
X126656607Y-99596293D01*
X126656607Y-99596295D01*
X126624500Y-99757708D01*
X100500500Y-99757708D01*
X100500500Y-97217708D01*
X126624500Y-97217708D01*
X126624500Y-97382293D01*
X126656607Y-97543706D01*
X126656607Y-97543708D01*
X126719586Y-97695754D01*
X126719592Y-97695766D01*
X126784976Y-97793618D01*
X126811024Y-97832601D01*
X126927400Y-97948977D01*
X126985740Y-97987958D01*
X127064234Y-98040408D01*
X127064246Y-98040414D01*
X127120411Y-98063678D01*
X127216294Y-98103394D01*
X127377710Y-98135501D01*
X127377711Y-98135501D01*
X127542289Y-98135501D01*
X127542290Y-98135501D01*
X127703706Y-98103394D01*
X127855758Y-98040412D01*
X127855760Y-98040410D01*
X127855765Y-98040408D01*
X127895276Y-98014006D01*
X127992600Y-97948977D01*
X128108976Y-97832601D01*
X128174005Y-97735277D01*
X128200407Y-97695766D01*
X128200413Y-97695754D01*
X128263393Y-97543707D01*
X128295500Y-97382291D01*
X128295500Y-97217711D01*
X128295499Y-97217708D01*
X129164500Y-97217708D01*
X129164500Y-97382293D01*
X129196607Y-97543706D01*
X129196607Y-97543708D01*
X129259586Y-97695754D01*
X129259592Y-97695766D01*
X129324976Y-97793618D01*
X129351024Y-97832601D01*
X129467400Y-97948977D01*
X129525740Y-97987958D01*
X129604234Y-98040408D01*
X129604246Y-98040414D01*
X129660411Y-98063678D01*
X129756294Y-98103394D01*
X129917710Y-98135501D01*
X129917711Y-98135501D01*
X130082289Y-98135501D01*
X130082290Y-98135501D01*
X130243706Y-98103394D01*
X130395758Y-98040412D01*
X130395760Y-98040410D01*
X130395765Y-98040408D01*
X130435276Y-98014006D01*
X130532600Y-97948977D01*
X130648976Y-97832601D01*
X130714005Y-97735277D01*
X130740407Y-97695766D01*
X130740413Y-97695754D01*
X130803393Y-97543707D01*
X130835500Y-97382291D01*
X130835500Y-97217711D01*
X130835499Y-97217708D01*
X131704500Y-97217708D01*
X131704500Y-97382293D01*
X131736607Y-97543706D01*
X131736607Y-97543708D01*
X131799586Y-97695754D01*
X131799592Y-97695766D01*
X131864976Y-97793618D01*
X131891024Y-97832601D01*
X132007400Y-97948977D01*
X132065740Y-97987958D01*
X132144234Y-98040408D01*
X132144246Y-98040414D01*
X132200411Y-98063678D01*
X132296294Y-98103394D01*
X132457710Y-98135501D01*
X132457711Y-98135501D01*
X132622289Y-98135501D01*
X132622290Y-98135501D01*
X132783706Y-98103394D01*
X132935758Y-98040412D01*
X132935760Y-98040410D01*
X132935765Y-98040408D01*
X132975276Y-98014006D01*
X133072600Y-97948977D01*
X133188976Y-97832601D01*
X133254005Y-97735277D01*
X133280407Y-97695766D01*
X133280413Y-97695754D01*
X133343393Y-97543707D01*
X133375500Y-97382291D01*
X133375500Y-97217711D01*
X133343393Y-97056295D01*
X133280411Y-96904243D01*
X133280407Y-96904235D01*
X133227957Y-96825741D01*
X133188976Y-96767401D01*
X133072600Y-96651025D01*
X133033617Y-96624977D01*
X132935765Y-96559593D01*
X132935753Y-96559587D01*
X132783706Y-96496608D01*
X132622292Y-96464501D01*
X132622290Y-96464501D01*
X132457710Y-96464501D01*
X132457707Y-96464501D01*
X132296294Y-96496608D01*
X132296292Y-96496608D01*
X132144246Y-96559587D01*
X132144234Y-96559593D01*
X132007400Y-96651025D01*
X132007396Y-96651028D01*
X131891027Y-96767397D01*
X131891024Y-96767401D01*
X131799592Y-96904235D01*
X131799586Y-96904247D01*
X131736607Y-97056293D01*
X131736607Y-97056295D01*
X131704500Y-97217708D01*
X130835499Y-97217708D01*
X130803393Y-97056295D01*
X130740411Y-96904243D01*
X130740407Y-96904235D01*
X130687957Y-96825741D01*
X130648976Y-96767401D01*
X130532600Y-96651025D01*
X130493617Y-96624977D01*
X130395765Y-96559593D01*
X130395753Y-96559587D01*
X130243706Y-96496608D01*
X130082292Y-96464501D01*
X130082290Y-96464501D01*
X129917710Y-96464501D01*
X129917707Y-96464501D01*
X129756294Y-96496608D01*
X129756292Y-96496608D01*
X129604246Y-96559587D01*
X129604234Y-96559593D01*
X129467400Y-96651025D01*
X129467396Y-96651028D01*
X129351027Y-96767397D01*
X129351024Y-96767401D01*
X129259592Y-96904235D01*
X129259586Y-96904247D01*
X129196607Y-97056293D01*
X129196607Y-97056295D01*
X129164500Y-97217708D01*
X128295499Y-97217708D01*
X128263393Y-97056295D01*
X128200411Y-96904243D01*
X128200407Y-96904235D01*
X128147957Y-96825741D01*
X128108976Y-96767401D01*
X127992600Y-96651025D01*
X127953617Y-96624977D01*
X127855765Y-96559593D01*
X127855753Y-96559587D01*
X127703706Y-96496608D01*
X127542292Y-96464501D01*
X127542290Y-96464501D01*
X127377710Y-96464501D01*
X127377707Y-96464501D01*
X127216294Y-96496608D01*
X127216292Y-96496608D01*
X127064246Y-96559587D01*
X127064234Y-96559593D01*
X126927400Y-96651025D01*
X126927396Y-96651028D01*
X126811027Y-96767397D01*
X126811024Y-96767401D01*
X126719592Y-96904235D01*
X126719586Y-96904247D01*
X126656607Y-97056293D01*
X126656607Y-97056295D01*
X126624500Y-97217708D01*
X100500500Y-97217708D01*
X100500500Y-94677708D01*
X126624500Y-94677708D01*
X126624500Y-94842293D01*
X126656607Y-95003706D01*
X126656607Y-95003708D01*
X126719586Y-95155754D01*
X126719592Y-95155766D01*
X126784976Y-95253618D01*
X126811024Y-95292601D01*
X126927400Y-95408977D01*
X126985740Y-95447958D01*
X127064234Y-95500408D01*
X127064246Y-95500414D01*
X127120411Y-95523678D01*
X127216294Y-95563394D01*
X127377710Y-95595501D01*
X127377711Y-95595501D01*
X127542289Y-95595501D01*
X127542290Y-95595501D01*
X127703706Y-95563394D01*
X127855758Y-95500412D01*
X127855760Y-95500410D01*
X127855765Y-95500408D01*
X127895276Y-95474006D01*
X127992600Y-95408977D01*
X128108976Y-95292601D01*
X128174005Y-95195277D01*
X128200407Y-95155766D01*
X128200413Y-95155754D01*
X128263393Y-95003707D01*
X128295500Y-94842291D01*
X128295500Y-94677711D01*
X128295499Y-94677708D01*
X129164500Y-94677708D01*
X129164500Y-94842293D01*
X129196607Y-95003706D01*
X129196607Y-95003708D01*
X129259586Y-95155754D01*
X129259592Y-95155766D01*
X129324976Y-95253618D01*
X129351024Y-95292601D01*
X129467400Y-95408977D01*
X129525740Y-95447958D01*
X129604234Y-95500408D01*
X129604246Y-95500414D01*
X129660411Y-95523678D01*
X129756294Y-95563394D01*
X129917710Y-95595501D01*
X129917711Y-95595501D01*
X130082289Y-95595501D01*
X130082290Y-95595501D01*
X130243706Y-95563394D01*
X130395758Y-95500412D01*
X130395760Y-95500410D01*
X130395765Y-95500408D01*
X130435276Y-95474006D01*
X130532600Y-95408977D01*
X130648976Y-95292601D01*
X130714005Y-95195277D01*
X130740407Y-95155766D01*
X130740413Y-95155754D01*
X130803393Y-95003707D01*
X130835500Y-94842291D01*
X130835500Y-94677711D01*
X130835499Y-94677708D01*
X131704500Y-94677708D01*
X131704500Y-94842293D01*
X131736607Y-95003706D01*
X131736607Y-95003708D01*
X131799586Y-95155754D01*
X131799592Y-95155766D01*
X131864976Y-95253618D01*
X131891024Y-95292601D01*
X132007400Y-95408977D01*
X132065740Y-95447958D01*
X132144234Y-95500408D01*
X132144246Y-95500414D01*
X132200411Y-95523678D01*
X132296294Y-95563394D01*
X132457710Y-95595501D01*
X132457711Y-95595501D01*
X132622289Y-95595501D01*
X132622290Y-95595501D01*
X132783706Y-95563394D01*
X132935758Y-95500412D01*
X132935760Y-95500410D01*
X132935765Y-95500408D01*
X132975276Y-95474006D01*
X133072600Y-95408977D01*
X133188976Y-95292601D01*
X133254005Y-95195277D01*
X133280407Y-95155766D01*
X133280413Y-95155754D01*
X133343393Y-95003707D01*
X133375500Y-94842291D01*
X133375500Y-94677711D01*
X133343393Y-94516295D01*
X133280411Y-94364243D01*
X133280407Y-94364235D01*
X133227957Y-94285741D01*
X133188976Y-94227401D01*
X133072600Y-94111025D01*
X133033617Y-94084977D01*
X132935765Y-94019593D01*
X132935753Y-94019587D01*
X132783706Y-93956608D01*
X132622292Y-93924501D01*
X132622290Y-93924501D01*
X132457710Y-93924501D01*
X132457707Y-93924501D01*
X132296294Y-93956608D01*
X132296292Y-93956608D01*
X132144246Y-94019587D01*
X132144234Y-94019593D01*
X132007400Y-94111025D01*
X132007396Y-94111028D01*
X131891027Y-94227397D01*
X131891024Y-94227401D01*
X131799592Y-94364235D01*
X131799586Y-94364247D01*
X131736607Y-94516293D01*
X131736607Y-94516295D01*
X131704500Y-94677708D01*
X130835499Y-94677708D01*
X130803393Y-94516295D01*
X130740411Y-94364243D01*
X130740407Y-94364235D01*
X130687957Y-94285741D01*
X130648976Y-94227401D01*
X130532600Y-94111025D01*
X130493617Y-94084977D01*
X130395765Y-94019593D01*
X130395753Y-94019587D01*
X130243706Y-93956608D01*
X130082292Y-93924501D01*
X130082290Y-93924501D01*
X129917710Y-93924501D01*
X129917707Y-93924501D01*
X129756294Y-93956608D01*
X129756292Y-93956608D01*
X129604246Y-94019587D01*
X129604234Y-94019593D01*
X129467400Y-94111025D01*
X129467396Y-94111028D01*
X129351027Y-94227397D01*
X129351024Y-94227401D01*
X129259592Y-94364235D01*
X129259586Y-94364247D01*
X129196607Y-94516293D01*
X129196607Y-94516295D01*
X129164500Y-94677708D01*
X128295499Y-94677708D01*
X128263393Y-94516295D01*
X128200411Y-94364243D01*
X128200407Y-94364235D01*
X128147957Y-94285741D01*
X128108976Y-94227401D01*
X127992600Y-94111025D01*
X127953617Y-94084977D01*
X127855765Y-94019593D01*
X127855753Y-94019587D01*
X127703706Y-93956608D01*
X127542292Y-93924501D01*
X127542290Y-93924501D01*
X127377710Y-93924501D01*
X127377707Y-93924501D01*
X127216294Y-93956608D01*
X127216292Y-93956608D01*
X127064246Y-94019587D01*
X127064234Y-94019593D01*
X126927400Y-94111025D01*
X126927396Y-94111028D01*
X126811027Y-94227397D01*
X126811024Y-94227401D01*
X126719592Y-94364235D01*
X126719586Y-94364247D01*
X126656607Y-94516293D01*
X126656607Y-94516295D01*
X126624500Y-94677708D01*
X100500500Y-94677708D01*
X100500500Y-92137708D01*
X126624500Y-92137708D01*
X126624500Y-92302293D01*
X126656607Y-92463706D01*
X126656607Y-92463708D01*
X126719586Y-92615754D01*
X126719592Y-92615766D01*
X126784976Y-92713618D01*
X126811024Y-92752601D01*
X126927400Y-92868977D01*
X126985740Y-92907958D01*
X127064234Y-92960408D01*
X127064246Y-92960414D01*
X127120411Y-92983678D01*
X127216294Y-93023394D01*
X127377710Y-93055501D01*
X127377711Y-93055501D01*
X127542289Y-93055501D01*
X127542290Y-93055501D01*
X127703706Y-93023394D01*
X127855758Y-92960412D01*
X127855760Y-92960410D01*
X127855765Y-92960408D01*
X127895276Y-92934006D01*
X127992600Y-92868977D01*
X128108976Y-92752601D01*
X128174005Y-92655277D01*
X128200407Y-92615766D01*
X128200413Y-92615754D01*
X128263393Y-92463707D01*
X128295500Y-92302291D01*
X128295500Y-92137711D01*
X128295499Y-92137708D01*
X129164500Y-92137708D01*
X129164500Y-92302293D01*
X129196607Y-92463706D01*
X129196607Y-92463708D01*
X129259586Y-92615754D01*
X129259592Y-92615766D01*
X129324976Y-92713618D01*
X129351024Y-92752601D01*
X129467400Y-92868977D01*
X129525740Y-92907958D01*
X129604234Y-92960408D01*
X129604246Y-92960414D01*
X129660411Y-92983678D01*
X129756294Y-93023394D01*
X129917710Y-93055501D01*
X129917711Y-93055501D01*
X130082289Y-93055501D01*
X130082290Y-93055501D01*
X130243706Y-93023394D01*
X130395758Y-92960412D01*
X130395760Y-92960410D01*
X130395765Y-92960408D01*
X130435276Y-92934006D01*
X130532600Y-92868977D01*
X130648976Y-92752601D01*
X130714005Y-92655277D01*
X130740407Y-92615766D01*
X130740413Y-92615754D01*
X130803393Y-92463707D01*
X130835500Y-92302291D01*
X130835500Y-92137711D01*
X130835499Y-92137708D01*
X131704500Y-92137708D01*
X131704500Y-92302293D01*
X131736607Y-92463706D01*
X131736607Y-92463708D01*
X131799586Y-92615754D01*
X131799592Y-92615766D01*
X131864976Y-92713618D01*
X131891024Y-92752601D01*
X132007400Y-92868977D01*
X132065740Y-92907958D01*
X132144234Y-92960408D01*
X132144246Y-92960414D01*
X132200411Y-92983678D01*
X132296294Y-93023394D01*
X132457710Y-93055501D01*
X132457711Y-93055501D01*
X132622289Y-93055501D01*
X132622290Y-93055501D01*
X132783706Y-93023394D01*
X132935758Y-92960412D01*
X132935760Y-92960410D01*
X132935765Y-92960408D01*
X132975276Y-92934006D01*
X133072600Y-92868977D01*
X133188976Y-92752601D01*
X133254005Y-92655277D01*
X133280407Y-92615766D01*
X133280413Y-92615754D01*
X133343393Y-92463707D01*
X133375500Y-92302291D01*
X133375500Y-92137711D01*
X133343393Y-91976295D01*
X133280411Y-91824243D01*
X133280407Y-91824235D01*
X133227957Y-91745741D01*
X133188976Y-91687401D01*
X133072600Y-91571025D01*
X133033617Y-91544977D01*
X132935765Y-91479593D01*
X132935753Y-91479587D01*
X132783706Y-91416608D01*
X132622292Y-91384501D01*
X132622290Y-91384501D01*
X132457710Y-91384501D01*
X132457707Y-91384501D01*
X132296294Y-91416608D01*
X132296292Y-91416608D01*
X132144246Y-91479587D01*
X132144234Y-91479593D01*
X132007400Y-91571025D01*
X132007396Y-91571028D01*
X131891027Y-91687397D01*
X131891024Y-91687401D01*
X131799592Y-91824235D01*
X131799586Y-91824247D01*
X131736607Y-91976293D01*
X131736607Y-91976295D01*
X131704500Y-92137708D01*
X130835499Y-92137708D01*
X130803393Y-91976295D01*
X130740411Y-91824243D01*
X130740407Y-91824235D01*
X130687957Y-91745741D01*
X130648976Y-91687401D01*
X130532600Y-91571025D01*
X130493617Y-91544977D01*
X130395765Y-91479593D01*
X130395753Y-91479587D01*
X130243706Y-91416608D01*
X130082292Y-91384501D01*
X130082290Y-91384501D01*
X129917710Y-91384501D01*
X129917707Y-91384501D01*
X129756294Y-91416608D01*
X129756292Y-91416608D01*
X129604246Y-91479587D01*
X129604234Y-91479593D01*
X129467400Y-91571025D01*
X129467396Y-91571028D01*
X129351027Y-91687397D01*
X129351024Y-91687401D01*
X129259592Y-91824235D01*
X129259586Y-91824247D01*
X129196607Y-91976293D01*
X129196607Y-91976295D01*
X129164500Y-92137708D01*
X128295499Y-92137708D01*
X128263393Y-91976295D01*
X128200411Y-91824243D01*
X128200407Y-91824235D01*
X128147957Y-91745741D01*
X128108976Y-91687401D01*
X127992600Y-91571025D01*
X127953617Y-91544977D01*
X127855765Y-91479593D01*
X127855753Y-91479587D01*
X127703706Y-91416608D01*
X127542292Y-91384501D01*
X127542290Y-91384501D01*
X127377710Y-91384501D01*
X127377707Y-91384501D01*
X127216294Y-91416608D01*
X127216292Y-91416608D01*
X127064246Y-91479587D01*
X127064234Y-91479593D01*
X126927400Y-91571025D01*
X126927396Y-91571028D01*
X126811027Y-91687397D01*
X126811024Y-91687401D01*
X126719592Y-91824235D01*
X126719586Y-91824247D01*
X126656607Y-91976293D01*
X126656607Y-91976295D01*
X126624500Y-92137708D01*
X100500500Y-92137708D01*
X100500500Y-82296624D01*
X112587500Y-82296624D01*
X112587500Y-82476375D01*
X112622567Y-82652665D01*
X112622567Y-82652667D01*
X112691350Y-82818726D01*
X112691356Y-82818738D01*
X112762766Y-82925609D01*
X112791215Y-82968185D01*
X112918315Y-83095285D01*
X112982032Y-83137859D01*
X113067761Y-83195143D01*
X113067773Y-83195149D01*
X113129116Y-83220557D01*
X113233834Y-83263933D01*
X113410127Y-83299000D01*
X113410128Y-83299000D01*
X113589872Y-83299000D01*
X113589873Y-83299000D01*
X113766166Y-83263933D01*
X113932231Y-83195147D01*
X113932233Y-83195145D01*
X113932238Y-83195143D01*
X113975391Y-83166308D01*
X114081685Y-83095285D01*
X114208785Y-82968185D01*
X114279808Y-82861891D01*
X114308643Y-82818738D01*
X114308649Y-82818726D01*
X114377433Y-82652666D01*
X114412500Y-82476373D01*
X114412500Y-82296627D01*
X114412499Y-82296624D01*
X129087500Y-82296624D01*
X129087500Y-82476375D01*
X129122567Y-82652665D01*
X129122567Y-82652667D01*
X129191350Y-82818726D01*
X129191356Y-82818738D01*
X129262766Y-82925609D01*
X129291215Y-82968185D01*
X129418315Y-83095285D01*
X129482032Y-83137859D01*
X129567761Y-83195143D01*
X129567773Y-83195149D01*
X129629116Y-83220557D01*
X129733834Y-83263933D01*
X129910127Y-83299000D01*
X129910128Y-83299000D01*
X130089872Y-83299000D01*
X130089873Y-83299000D01*
X130266166Y-83263933D01*
X130432231Y-83195147D01*
X130432233Y-83195145D01*
X130432238Y-83195143D01*
X130475391Y-83166308D01*
X130581685Y-83095285D01*
X130708785Y-82968185D01*
X130779808Y-82861891D01*
X130808643Y-82818738D01*
X130808649Y-82818726D01*
X130877433Y-82652666D01*
X130912500Y-82476373D01*
X130912500Y-82296627D01*
X130912499Y-82296624D01*
X145587500Y-82296624D01*
X145587500Y-82476375D01*
X145622567Y-82652665D01*
X145622567Y-82652667D01*
X145691350Y-82818726D01*
X145691356Y-82818738D01*
X145762766Y-82925609D01*
X145791215Y-82968185D01*
X145918315Y-83095285D01*
X145982032Y-83137859D01*
X146067761Y-83195143D01*
X146067773Y-83195149D01*
X146129116Y-83220557D01*
X146233834Y-83263933D01*
X146410127Y-83299000D01*
X146410128Y-83299000D01*
X146589872Y-83299000D01*
X146589873Y-83299000D01*
X146766166Y-83263933D01*
X146932231Y-83195147D01*
X146932233Y-83195145D01*
X146932238Y-83195143D01*
X146975391Y-83166308D01*
X147081685Y-83095285D01*
X147208785Y-82968185D01*
X147279808Y-82861891D01*
X147308643Y-82818738D01*
X147308649Y-82818726D01*
X147377433Y-82652666D01*
X147412500Y-82476373D01*
X147412500Y-82296627D01*
X147377433Y-82120334D01*
X147308647Y-81954269D01*
X147308643Y-81954261D01*
X147251359Y-81868532D01*
X147208785Y-81804815D01*
X147081685Y-81677715D01*
X147039109Y-81649266D01*
X146932238Y-81577856D01*
X146932226Y-81577850D01*
X146766166Y-81509067D01*
X146589875Y-81474000D01*
X146589873Y-81474000D01*
X146410127Y-81474000D01*
X146410124Y-81474000D01*
X146233834Y-81509067D01*
X146233832Y-81509067D01*
X146067773Y-81577850D01*
X146067761Y-81577856D01*
X145918315Y-81677715D01*
X145918311Y-81677718D01*
X145791218Y-81804811D01*
X145791215Y-81804815D01*
X145691356Y-81954261D01*
X145691350Y-81954273D01*
X145622567Y-82120332D01*
X145622567Y-82120334D01*
X145587500Y-82296624D01*
X130912499Y-82296624D01*
X130877433Y-82120334D01*
X130808647Y-81954269D01*
X130808643Y-81954261D01*
X130751359Y-81868532D01*
X130708785Y-81804815D01*
X130581685Y-81677715D01*
X130539109Y-81649266D01*
X130432238Y-81577856D01*
X130432226Y-81577850D01*
X130266166Y-81509067D01*
X130089875Y-81474000D01*
X130089873Y-81474000D01*
X129910127Y-81474000D01*
X129910124Y-81474000D01*
X129733834Y-81509067D01*
X129733832Y-81509067D01*
X129567773Y-81577850D01*
X129567761Y-81577856D01*
X129418315Y-81677715D01*
X129418311Y-81677718D01*
X129291218Y-81804811D01*
X129291215Y-81804815D01*
X129191356Y-81954261D01*
X129191350Y-81954273D01*
X129122567Y-82120332D01*
X129122567Y-82120334D01*
X129087500Y-82296624D01*
X114412499Y-82296624D01*
X114377433Y-82120334D01*
X114308647Y-81954269D01*
X114308643Y-81954261D01*
X114251359Y-81868532D01*
X114208785Y-81804815D01*
X114081685Y-81677715D01*
X114039109Y-81649266D01*
X113932238Y-81577856D01*
X113932226Y-81577850D01*
X113766166Y-81509067D01*
X113589875Y-81474000D01*
X113589873Y-81474000D01*
X113410127Y-81474000D01*
X113410124Y-81474000D01*
X113233834Y-81509067D01*
X113233832Y-81509067D01*
X113067773Y-81577850D01*
X113067761Y-81577856D01*
X112918315Y-81677715D01*
X112918311Y-81677718D01*
X112791218Y-81804811D01*
X112791215Y-81804815D01*
X112691356Y-81954261D01*
X112691350Y-81954273D01*
X112622567Y-82120332D01*
X112622567Y-82120334D01*
X112587500Y-82296624D01*
X100500500Y-82296624D01*
X100500500Y-70599500D01*
X100519407Y-70541309D01*
X100568907Y-70505345D01*
X100599500Y-70500500D01*
X159400500Y-70500500D01*
X159458691Y-70519407D01*
G37*
%TD.AperFunction*%
%TD*%
M02*
