%TF.GenerationSoftware,KiCad,Pcbnew,9.0.7*%
%TF.CreationDate,2026-03-19T23:29:39-04:00*%
%TF.ProjectId,Adapter Board,41646170-7465-4722-9042-6f6172642e6b,rev?*%
%TF.SameCoordinates,Original*%
%TF.FileFunction,Soldermask,Top*%
%TF.FilePolarity,Negative*%
%FSLAX46Y46*%
G04 Gerber Fmt 4.6, Leading zero omitted, Abs format (unit mm)*
G04 Created by KiCad (PCBNEW 9.0.7) date 2026-03-19 23:29:39*
%MOMM*%
%LPD*%
G01*
G04 APERTURE LIST*
G04 Aperture macros list*
%AMRoundRect*
0 Rectangle with rounded corners*
0 $1 Rounding radius*
0 $2 $3 $4 $5 $6 $7 $8 $9 X,Y pos of 4 corners*
0 Add a 4 corners polygon primitive as box body*
4,1,4,$2,$3,$4,$5,$6,$7,$8,$9,$2,$3,0*
0 Add four circle primitives for the rounded corners*
1,1,$1+$1,$2,$3*
1,1,$1+$1,$4,$5*
1,1,$1+$1,$6,$7*
1,1,$1+$1,$8,$9*
0 Add four rect primitives between the rounded corners*
20,1,$1+$1,$2,$3,$4,$5,0*
20,1,$1+$1,$4,$5,$6,$7,0*
20,1,$1+$1,$6,$7,$8,$9,0*
20,1,$1+$1,$8,$9,$2,$3,0*%
%AMFreePoly0*
4,1,37,0.638266,1.438321,0.655944,1.430999,0.702941,1.390862,0.710067,1.376876,0.717389,1.359198,0.725000,1.320932,0.725000,-1.729068,0.717389,-1.767334,0.710067,-1.785012,0.669930,-1.832009,0.655944,-1.839135,0.638266,-1.846457,0.600000,-1.854068,-0.700000,-1.854068,-0.738266,-1.846457,-0.755944,-1.839135,-0.802941,-1.798998,-0.810067,-1.785012,-0.817389,-1.767334,-0.825000,-1.729069,
-0.825009,-1.004068,-1.800010,-1.004068,-1.838276,-0.996457,-1.855954,-0.989135,-1.902951,-0.948998,-1.910077,-0.935012,-1.917399,-0.917334,-1.925010,-0.879068,-1.925010,1.320932,-1.917399,1.359198,-1.910077,1.376876,-1.869940,1.423873,-1.855954,1.430999,-1.838276,1.438321,-1.800010,1.445932,0.600000,1.445932,0.638266,1.438321,0.638266,1.438321,$1*%
%AMFreePoly1*
4,1,37,1.813266,1.406793,1.830944,1.399471,1.877941,1.359334,1.885067,1.345348,1.892389,1.327670,1.900000,1.289404,1.900000,-0.910596,1.892389,-0.948862,1.885067,-0.966540,1.844930,-1.013537,1.830944,-1.020663,1.813266,-1.027985,1.775000,-1.035596,0.799999,-1.035596,0.799990,-1.760597,0.792377,-1.798867,0.785054,-1.816545,0.744915,-1.863539,0.730935,-1.870662,0.713258,-1.877984,
0.674990,-1.885596,-0.625010,-1.885596,-0.663276,-1.877985,-0.680954,-1.870663,-0.727951,-1.830526,-0.735077,-1.816540,-0.742399,-1.798862,-0.750010,-1.760596,-0.750010,1.289404,-0.742399,1.327670,-0.735077,1.345348,-0.694940,1.392345,-0.680954,1.399471,-0.663276,1.406793,-0.625010,1.414404,1.775000,1.414404,1.813266,1.406793,1.813266,1.406793,$1*%
%AMFreePoly2*
4,1,32,0.859954,1.282520,0.897008,1.231520,0.902000,1.200000,0.902000,-1.200000,0.882520,-1.259954,0.831520,-1.297008,0.800000,-1.302000,-0.749600,-1.302000,-0.751983,-1.303214,-0.760963,-1.306934,-0.800000,-1.314700,-1.600000,-1.314700,-1.639037,-1.306934,-1.648017,-1.303214,-1.695951,-1.262272,-1.703214,-1.248017,-1.706934,-1.239037,-1.714700,-1.200000,-1.714700,0.400000,-1.706934,0.439037,
-1.703214,0.448017,-1.662272,0.495951,-1.648017,0.503214,-1.639037,0.506934,-1.600000,0.514700,-0.902000,0.514700,-0.902000,1.200000,-0.882520,1.259954,-0.831520,1.297008,-0.800000,1.302000,0.800000,1.302000,0.859954,1.282520,0.859954,1.282520,$1*%
%AMFreePoly3*
4,1,32,0.859954,1.282520,0.897008,1.231520,0.902000,1.200000,0.902000,0.514700,1.600000,0.514700,1.639037,0.506934,1.648017,0.503214,1.695951,0.462272,1.703214,0.448017,1.706934,0.439037,1.714700,0.400000,1.714700,-1.200000,1.706934,-1.239037,1.703214,-1.248017,1.662272,-1.295951,1.648017,-1.303214,1.639037,-1.306934,1.600000,-1.314700,0.800000,-1.314700,0.760963,-1.306934,
0.751983,-1.303214,0.750562,-1.302000,-0.800000,-1.302000,-0.859954,-1.282520,-0.897008,-1.231520,-0.902000,-1.200000,-0.902000,1.200000,-0.882520,1.259954,-0.831520,1.297008,-0.800000,1.302000,0.800000,1.302000,0.859954,1.282520,0.859954,1.282520,$1*%
G04 Aperture macros list end*
%ADD10C,0.025400*%
%ADD11RoundRect,0.102000X0.685000X-0.685000X0.685000X0.685000X-0.685000X0.685000X-0.685000X-0.685000X0*%
%ADD12C,1.574000*%
%ADD13C,1.524000*%
%ADD14C,2.413000*%
%ADD15RoundRect,0.010000X0.400000X-0.140000X0.400000X0.140000X-0.400000X0.140000X-0.400000X-0.140000X0*%
%ADD16RoundRect,0.010000X0.400000X-0.139999X0.400000X0.139999X-0.400000X0.139999X-0.400000X-0.139999X0*%
%ADD17FreePoly0,90.000000*%
%ADD18FreePoly1,90.000000*%
%ADD19RoundRect,0.025000X-0.304800X-1.028700X0.304800X-1.028700X0.304800X1.028700X-0.304800X1.028700X0*%
%ADD20RoundRect,0.015000X-0.600000X0.140000X-0.600000X-0.140000X0.600000X-0.140000X0.600000X0.140000X0*%
%ADD21RoundRect,0.015000X-0.600000X0.150000X-0.600000X-0.150000X0.600000X-0.150000X0.600000X0.150000X0*%
%ADD22RoundRect,0.015000X-0.600000X0.139999X-0.600000X-0.139999X0.600000X-0.139999X0.600000X0.139999X0*%
%ADD23FreePoly2,270.000000*%
%ADD24FreePoly3,270.000000*%
%ADD25RoundRect,0.025000X0.304800X1.028700X-0.304800X1.028700X-0.304800X-1.028700X0.304800X-1.028700X0*%
%ADD26C,4.400000*%
G04 APERTURE END LIST*
D10*
%TO.C,J1*%
X104526000Y-88750000D02*
X102926000Y-88750000D01*
X102926000Y-87950000D01*
X104526000Y-87950000D01*
X104526000Y-88750000D01*
G36*
X104526000Y-88750000D02*
G01*
X102926000Y-88750000D01*
X102926000Y-87950000D01*
X104526000Y-87950000D01*
X104526000Y-88750000D01*
G37*
%TD*%
D11*
%TO.C,J2*%
X132540000Y-117620001D03*
D12*
X130000000Y-117620001D03*
X127460000Y-117620001D03*
X132540000Y-115080001D03*
X130000000Y-115080001D03*
X127460000Y-115080001D03*
X132540000Y-112540001D03*
X130000000Y-112540001D03*
X127460000Y-112540001D03*
X132540000Y-110000001D03*
X130000000Y-110000001D03*
X127460000Y-110000001D03*
X132540000Y-107460001D03*
X130000000Y-107460001D03*
X127460000Y-107460001D03*
X132540000Y-104920001D03*
X130000000Y-104920001D03*
X127460000Y-104920001D03*
X132540000Y-102380001D03*
X130000000Y-102380001D03*
X127460000Y-102380001D03*
X132540000Y-99840001D03*
X130000000Y-99840001D03*
X127460000Y-99840001D03*
X132540000Y-97300001D03*
X130000000Y-97300001D03*
X127460000Y-97300001D03*
X132540000Y-94760001D03*
X130000000Y-94760001D03*
X127460000Y-94760001D03*
X132540000Y-92220001D03*
X130000000Y-92220001D03*
X127460000Y-92220001D03*
%TD*%
D13*
%TO.C,J3*%
X130000000Y-82386500D03*
D14*
X126200000Y-74586501D03*
X133800000Y-74586501D03*
%TD*%
D15*
%TO.C,J6*%
X153565200Y-102499995D03*
X153565200Y-101999995D03*
X153565200Y-101499995D03*
D16*
X153565200Y-100999994D03*
D15*
X153565200Y-100499995D03*
X153565200Y-99999995D03*
X153565200Y-99499995D03*
X153565200Y-98999995D03*
X153565200Y-98499995D03*
X153565200Y-97999995D03*
X153565200Y-97499995D03*
D17*
X155265200Y-104349995D03*
D18*
X155240200Y-95624995D03*
%TD*%
D13*
%TO.C,J5*%
X146500000Y-82386500D03*
D14*
X142700000Y-74586501D03*
X150300000Y-74586501D03*
%TD*%
D19*
%TO.C,J9*%
X143730000Y-88171200D03*
X146270000Y-91828800D03*
%TD*%
D13*
%TO.C,J4*%
X113500000Y-82386500D03*
D14*
X109700000Y-74586501D03*
X117300000Y-74586501D03*
%TD*%
D20*
%TO.C,J1*%
X106825590Y-91250000D03*
X106825590Y-91750000D03*
X106825590Y-92250000D03*
X106825590Y-92750000D03*
X106825590Y-93250000D03*
X106825590Y-93750000D03*
D21*
X106825590Y-94250020D03*
X106825590Y-94750020D03*
D20*
X106825590Y-95250000D03*
X106825590Y-95750000D03*
X106825590Y-96250000D03*
X106825590Y-96750000D03*
X106825590Y-97250000D03*
X106825590Y-97750000D03*
X106825590Y-98250000D03*
X106825590Y-98750000D03*
X106825590Y-99250000D03*
D22*
X106825590Y-99750001D03*
D20*
X106825590Y-100250000D03*
X106825590Y-100750000D03*
X106825590Y-101250000D03*
X106825590Y-101750000D03*
X106825590Y-102250000D03*
X106825590Y-102750000D03*
X106825590Y-103250000D03*
X106825590Y-103750000D03*
X106825590Y-104250000D03*
X106825590Y-104750000D03*
X106825590Y-105250000D03*
X106825590Y-105750000D03*
X106825590Y-106250000D03*
X106825590Y-106750000D03*
X106825590Y-107250000D03*
X106825590Y-107750000D03*
X106825590Y-108250000D03*
X106825590Y-108750000D03*
D23*
X104127600Y-89550000D03*
D24*
X104127600Y-110450000D03*
%TD*%
D25*
%TO.C,J8*%
X146270000Y-121828800D03*
X143730000Y-118171200D03*
%TD*%
D26*
%TO.C,MH1*%
X105000000Y-125000000D03*
X105000000Y-75000000D03*
X155000000Y-75000000D03*
X155000000Y-125000000D03*
%TD*%
D25*
%TO.C,J7*%
X116270000Y-121828800D03*
X113730000Y-118171200D03*
%TD*%
M02*
