M48
INCH
T1C0.0118
T2C0.0433
%
G90
G05
T1
X5.5307Y-5.187
X5.5429Y-5.1567
X5.5665Y-5.1567
X5.576Y-4.9634
X5.5795Y-5.1882
X5.5902Y-5.1567
X5.5906Y-4.5616
X5.5906Y-4.6009
X5.5906Y-4.6457
X5.6059Y-2.4457
X5.611Y-2.9626
X5.6378Y-3.1402
X5.6575Y-3.6665
X5.6575Y-4.0051
X5.6575Y-4.4449
X5.6614Y-4.7278
X5.6658Y-5.1165
X5.6791Y-3.6157
X5.685Y-4.7278
X5.689Y-4.4739
X5.689Y-5.1165
X5.6898Y-3.7697
X5.7031Y-3.5831
X5.7087Y-4.2606
X5.7087Y-4.7278
X5.7098Y-4.9945
X5.7099Y-4.1712
X5.7276Y-2.9925
X5.7287Y-3.0937
X5.7378Y-3.2382
X5.7406Y-3.3331
X5.7433Y-3.4354
X5.7484Y-4.9969
X5.7524Y-4.9441
X5.7677Y-4.4896
X5.7677Y-4.5487
X5.7862Y-5.0673
X5.7878Y-2.7406
X5.791Y-2.5957
X5.791Y-2.6279
X5.791Y-2.6622
X5.7953Y-2.4961
X5.8016Y-5.0114
X5.8083Y-4.935
X5.8126Y-4.0022
X5.813Y-3.885
X5.8189Y-3.4571
X5.8189Y-4.1492
X5.8212Y-4.8324
X5.8217Y-3.661
X5.8307Y-4.6274
X5.8307Y-4.7652
X5.8317Y-4.7071
X5.8415Y-3.4571
X5.8465Y-2.7232
X5.8472Y-2.6469
X5.8764Y-5.1272
X5.8819Y-2.4961
X5.8824Y-3.4112
X5.8827Y-4.0854
X5.887Y-3.9636
X5.887Y-4.0022
X5.8878Y-3.9294
X5.891Y-3.625
X5.9047Y-3.3778
X5.9055Y-4.8361
X5.9157Y-4.0022
X5.9161Y-3.9636
X5.9173Y-3.9294
X5.9209Y-2.7638
X5.9213Y-2.6063
X5.9213Y-2.689
X5.9224Y-4.6433
X5.926Y-5.1201
X5.9323Y-4.7465
X5.9343Y-4.6894
X5.9386Y-3.5601
X5.9437Y-4.0858
X5.9606Y-2.4961
X5.9618Y-4.1634
X5.9618Y-4.7189
X5.9764Y-4.5605
X5.9772Y-5.1201
X5.9886Y-3.9051
X5.9913Y-4.6894
X5.9913Y-4.7465
X5.9961Y-4.0394
X6.0Y-2.6063
X6.0Y-2.685
X6.0008Y-2.7642
X6.0236Y-4.8361
X6.0287Y-5.1197
X6.0394Y-2.4961
X6.063Y-4.7888
X6.0669Y-4.6894
X6.0756Y-5.1248
X6.0906Y-4.7174
X6.0939Y-4.7691
X6.1067Y-3.6764
X6.1094Y-4.5764
X6.1118Y-2.6106
X6.1146Y-2.6799
X6.1181Y-2.4961
X6.1185Y-4.1642
X6.126Y-4.8268
X6.1264Y-4.922
X6.1417Y-4.7402
X6.1441Y-3.6024
X6.1469Y-5.0118
X6.1528Y-2.748
X6.1701Y-5.1087
X6.172Y-3.9421
X6.1724Y-4.3685
X6.176Y-3.8378
X6.1772Y-3.5447
X6.1811Y-4.8819
X6.187Y-2.9953
X6.187Y-3.085
X6.1874Y-2.924
X6.2193Y-5.176
X6.2236Y-5.1094
X6.2419Y-4.8522
X6.2441Y-3.5118
X6.248Y-4.563
X6.248Y-4.6496
X6.2693Y-5.0598
X6.2835Y-4.9685
X6.3152Y-2.4911
X6.3209Y-3.4646
X6.3287Y-3.3039
X6.3417Y-5.1263
X6.3705Y-5.1673
X6.4154Y-2.6343
X6.4291Y-2.4921
T2
X5.5118Y-2.7165
X5.5118Y-2.8165
X5.5118Y-2.9165
X5.5118Y-3.0165
X5.5118Y-3.1165
X5.5118Y-3.2165
X5.5118Y-3.3165
X5.5118Y-3.4165
X5.5118Y-3.5165
X5.5118Y-3.6165
X5.5118Y-3.7165
X5.5118Y-3.8165
X5.5118Y-3.9165
X5.5118Y-4.0165
X5.5118Y-4.1165
X5.5118Y-4.2165
X5.5118Y-4.3165
X5.5118Y-4.4165
X5.5118Y-4.5165
X5.5118Y-4.6165
X5.5118Y-4.7165
X5.5118Y-4.8165
X5.5118Y-4.9165
X5.5118Y-5.0165
X6.4118Y-2.7165
X6.4118Y-2.8165
X6.4118Y-2.9165
X6.4118Y-3.0165
X6.4118Y-3.1165
X6.4118Y-3.2165
X6.4118Y-3.3165
X6.4118Y-3.4165
X6.4118Y-3.5165
X6.4118Y-3.6165
X6.4118Y-3.7165
X6.4118Y-3.8165
X6.4118Y-3.9165
X6.4118Y-4.0165
X6.4118Y-4.1165
X6.4118Y-4.2165
X6.4118Y-4.3165
X6.4118Y-4.4165
X6.4118Y-4.5165
X6.4118Y-4.6165
X6.4118Y-4.7165
X6.4118Y-4.8165
X6.4118Y-4.9165
X6.4118Y-5.0165
M30
