%TF.GenerationSoftware,KiCad,Pcbnew,10.0.3*%
%TF.CreationDate,2026-08-24T23:56:03-04:00*%
%TF.ProjectId,01_Microcontroller_Unit_Board,30315f4d-6963-4726-9f63-6f6e74726f6c,rev?*%
%TF.SameCoordinates,Original*%
%TF.FileFunction,Soldermask,Bot*%
%TF.FilePolarity,Negative*%
%FSLAX46Y46*%
G04 Gerber Fmt 4.6, Leading zero omitted, Abs format (unit mm)*
G04 Created by KiCad (PCBNEW 10.0.3) date 2026-08-24 23:56:03*
%MOMM*%
%LPD*%
G01*
G04 APERTURE LIST*
%ADD10C,1.854000*%
%ADD11C,0.889000*%
G04 APERTURE END LIST*
D10*
%TO.C,J3*%
X140000000Y-69000000D03*
X140000000Y-71540000D03*
X140000000Y-74080000D03*
X140000000Y-76620000D03*
X140000000Y-79160000D03*
X140000000Y-81700000D03*
X140000000Y-84240000D03*
X140000000Y-86780000D03*
X140000000Y-89320000D03*
X140000000Y-91860000D03*
X140000000Y-94400000D03*
X140000000Y-96940000D03*
X140000000Y-99480000D03*
X140000000Y-102020000D03*
X140000000Y-104560000D03*
X140000000Y-107100000D03*
X140000000Y-109640000D03*
X140000000Y-112180000D03*
X140000000Y-114720000D03*
X140000000Y-117260000D03*
X140000000Y-119800000D03*
X140000000Y-122340000D03*
X140000000Y-124880000D03*
X140000000Y-127420000D03*
%TD*%
%TO.C,J4*%
X162860000Y-69000000D03*
X162860000Y-71540000D03*
X162860000Y-74080000D03*
X162860000Y-76620000D03*
X162860000Y-79160000D03*
X162860000Y-81700000D03*
X162860000Y-84240000D03*
X162860000Y-86780000D03*
X162860000Y-89320000D03*
X162860000Y-91860000D03*
X162860000Y-94400000D03*
X162860000Y-96940000D03*
X162860000Y-99480000D03*
X162860000Y-102020000D03*
X162860000Y-104560000D03*
X162860000Y-107100000D03*
X162860000Y-109640000D03*
X162860000Y-112180000D03*
X162860000Y-114720000D03*
X162860000Y-117260000D03*
X162860000Y-119800000D03*
X162860000Y-122340000D03*
X162860000Y-124880000D03*
X162860000Y-127420000D03*
%TD*%
D11*
%TO.C,SW3*%
X158100000Y-121299999D03*
X158100000Y-114500001D03*
%TD*%
M02*
