M48
INCH
T1C0.0118
T2C0.0402
T3C0.0433
%
G90
G05
T1
X4.6075Y-5.2862
X4.6378Y-2.9173
X4.6417Y-2.7008
X4.6496Y-2.4354
X4.6772Y-4.9374
X4.6933Y-5.4272
X4.7094Y-3.9469
X4.7197Y-3.5453
X4.7197Y-4.1752
X4.7323Y-3.2598
X4.7409Y-3.7193
X4.7417Y-4.585
X4.7516Y-4.4343
X4.7559Y-2.5079
X4.7559Y-5.1417
X4.7587Y-4.9701
X4.7598Y-4.0772
X4.7736Y-4.872
X4.7898Y-3.824
X4.798Y-4.6413
X4.8299Y-5.2283
X4.8307Y-2.626
X4.8307Y-3.276
X4.8386Y-2.7677
X4.8543Y-2.4437
X4.876Y-3.5433
X4.8799Y-4.4795
X4.8933Y-3.6472
X4.9232Y-3.5433
X4.9291Y-4.9472
X4.9705Y-3.5433
X4.9724Y-2.9331
X4.976Y-3.7327
X5.0004Y-5.1992
X5.0039Y-4.9728
X5.0197Y-4.8228
X5.0224Y-4.1673
X5.0276Y-3.4961
X5.0402Y-4.013
X5.0551Y-2.9803
X5.0551Y-4.3543
X5.0984Y-4.7287
X5.1224Y-4.874
X5.1768Y-3.9685
X5.1772Y-2.9776
X5.1772Y-4.3701
X5.1776Y-3.6394
X5.2122Y-2.4461
X5.2142Y-4.9461
X5.2343Y-5.1791
X5.2677Y-4.2854
X5.274Y-3.1681
X5.2795Y-2.9764
X5.2843Y-4.0385
X5.2909Y-5.4272
X5.2949Y-3.4941
X5.2969Y-3.8124
X5.298Y-4.3898
X5.3043Y-4.1984
X5.3091Y-4.5016
X5.3248Y-5.0846
X5.3268Y-3.0732
X5.3346Y-5.1929
X5.3445Y-3.6713
X5.3453Y-4.0839
X5.3465Y-2.8386
X5.3654Y-4.2535
X5.3795Y-3.4307
X5.3811Y-2.7413
X5.4016Y-3.1614
X5.4106Y-3.0598
X5.4228Y-4.4819
X5.4331Y-3.5433
X5.4331Y-3.7008
X5.4331Y-3.8583
X5.4331Y-4.0157
X5.4331Y-4.1732
X5.4394Y-3.315
X5.4484Y-2.6378
X5.4528Y-3.1689
X5.4626Y-3.4449
X5.4825Y-2.8386
X5.4878Y-4.9476
X5.4929Y-4.7571
X5.5098Y-5.1949
X5.5118Y-3.4449
X5.5118Y-4.252
X5.5177Y-2.7417
X5.5197Y-3.8124
X5.5524Y-4.4232
X5.5551Y-4.526
X5.561Y-3.4449
X5.561Y-4.3307
X5.572Y-3.0846
X5.5807Y-5.1673
X5.5827Y-3.9921
X5.5839Y-2.6378
X5.5906Y-3.5433
X5.5906Y-4.1732
X5.5935Y-4.1024
X5.6102Y-4.3307
X5.6161Y-3.4461
X5.6181Y-2.8386
X5.6295Y-2.95
X5.6358Y-5.2146
X5.6535Y-2.7417
X5.6594Y-4.3307
X5.6693Y-3.4449
X5.672Y-4.9319
X5.6917Y-4.1024
X5.6929Y-3.7858
X5.6929Y-3.9921
X5.7087Y-4.4075
X5.7185Y-3.4449
X5.7217Y-2.6409
X5.7382Y-5.1181
X5.7402Y-5.1693
X5.7402Y-5.2205
X5.748Y-3.5433
X5.748Y-4.1732
X5.7559Y-2.8386
X5.7569Y-3.6713
X5.7575Y-3.7854
X5.7598Y-4.3307
X5.7677Y-3.4449
X5.7843Y-3.9236
X5.7874Y-3.1417
X5.7898Y-4.876
X5.7921Y-2.7417
X5.7972Y-5.1181
X5.7992Y-5.1693
X5.7992Y-5.2205
X5.8091Y-4.3307
X5.8386Y-4.063
X5.8386Y-4.1024
X5.8468Y-4.8422
X5.8543Y-2.6378
X5.8563Y-3.4449
X5.8571Y-3.7846
X5.8573Y-3.6693
X5.8583Y-4.3307
X5.8661Y-5.1535
X5.874Y-4.6961
X5.878Y-3.9724
X5.878Y-4.0236
X5.8804Y-4.1074
X5.8898Y-3.1413
X5.8919Y-2.8386
X5.902Y-4.4031
X5.9055Y-3.4449
X5.9055Y-3.5433
X5.9055Y-3.9961
X5.9055Y-4.1732
X5.9124Y-3.8701
X5.9191Y-4.9587
X5.9283Y-2.7421
X5.9301Y-4.1072
X5.9331Y-3.9724
X5.9331Y-4.0236
X5.9547Y-3.4449
X5.9555Y-3.787
X5.9567Y-4.3307
X5.958Y-3.6713
X5.9705Y-4.063
X5.9744Y-4.1043
X5.9764Y-4.8346
X5.9803Y-4.6953
X5.9882Y-3.1402
X5.9961Y-2.6378
X5.9998Y-5.1537
X6.0028Y-3.4413
X6.0039Y-5.4685
X6.0059Y-4.3307
X6.0217Y-3.9264
X6.0272Y-2.9165
X6.0531Y-3.4449
X6.0547Y-4.9583
X6.0551Y-4.3307
X6.063Y-3.5433
X6.063Y-4.1732
X6.0902Y-5.465
X6.1024Y-2.6748
X6.1024Y-3.4449
X6.1142Y-3.7846
X6.1142Y-3.9469
X6.1146Y-4.0433
X6.115Y-3.8465
X6.1169Y-4.8268
X6.1201Y-4.4189
X6.1374Y-2.7949
X6.1417Y-5.1555
X6.1516Y-3.4449
X6.1535Y-4.3307
X6.1949Y-4.9606
X6.1953Y-2.9287
X6.1992Y-3.4406
X6.2028Y-4.3307
X6.2087Y-5.4685
X6.2205Y-3.5433
X6.2276Y-2.6748
X6.2303Y-3.8465
X6.2314Y-4.0441
X6.2334Y-3.9512
X6.25Y-3.4449
X6.252Y-4.3307
X6.2654Y-4.5894
X6.2754Y-5.1575
X6.2811Y-4.4567
X6.2992Y-3.4449
X6.2992Y-4.252
X6.2992Y-5.4724
X6.3169Y-3.3287
X6.3303Y-4.9626
X6.3484Y-3.4449
X6.3484Y-5.1575
X6.3504Y-3.0866
X6.3526Y-3.8587
X6.3543Y-3.2441
X6.3583Y-3.0236
X6.3681Y-4.0394
X6.3689Y-3.9567
X6.3713Y-4.7768
X6.378Y-3.5433
X6.378Y-3.7008
X6.3858Y-2.9803
X6.3858Y-3.3425
X6.3992Y-4.5654
X6.4055Y-5.4685
X6.4094Y-3.8622
X6.415Y-3.9571
X6.4783Y-3.5531
X6.4843Y-2.8028
X6.4843Y-3.3386
X6.4843Y-3.4417
X6.4961Y-3.0669
X6.5031Y-3.8179
X6.5039Y-4.0433
X6.5039Y-4.1772
X6.5039Y-5.4685
X6.5044Y-3.5807
X6.526Y-4.9827
X6.5325Y-3.6053
X6.5335Y-3.5531
X6.5472Y-2.752
X6.5512Y-3.1732
X6.5535Y-3.3094
X6.56Y-3.8832
X6.5709Y-4.3071
X6.5811Y-4.839
X6.5976Y-2.6776
X6.6063Y-5.4646
X6.6122Y-4.4441
X6.622Y-3.9409
X6.6374Y-3.2161
X6.6571Y-5.0051
X6.6618Y-3.9815
X6.6654Y-4.0394
X6.7016Y-3.9374
X6.7047Y-4.0394
X6.7165Y-5.4646
X6.7457Y-3.289
X6.7476Y-5.1531
X6.7531Y-4.4878
X6.7756Y-3.1925
X6.7827Y-4.987
X6.7952Y-3.94
X6.7953Y-3.9744
X6.7953Y-4.0121
X6.7953Y-4.0551
X6.7955Y-3.9085
X6.811Y-5.4606
X6.8386Y-3.287
X6.8417Y-4.6445
X6.8504Y-3.2244
X6.8531Y-3.585
X6.8602Y-5.0614
X6.8717Y-2.7028
X6.8917Y-2.8079
X6.8984Y-4.4894
X6.9236Y-4.8063
X6.9244Y-3.3232
X6.9291Y-3.5472
X6.9311Y-3.3661
X6.9665Y-3.2102
X7.0476Y-5.1925
X7.0531Y-2.4472
X7.0575Y-5.0531
X7.0575Y-5.3984
X7.0638Y-2.5685
X7.0732Y-3.3146
X7.0787Y-5.2854
X7.0827Y-4.9409
X7.0913Y-4.2272
X7.0984Y-3.7224
X7.1098Y-3.8929
X7.1248Y-3.3953
X7.1433Y-4.1075
X7.1732Y-4.4882
X7.1815Y-4.9909
X7.1831Y-3.8114
X7.1843Y-5.2039
X7.1902Y-2.8276
X7.1917Y-2.6043
X7.1972Y-3.9945
X7.1984Y-4.2413
X7.2008Y-4.8425
X7.2039Y-5.3886
X7.2122Y-3.1169
T2
X5.7055Y-3.0906
X5.7055Y-3.1906
X5.7055Y-3.2906
X5.7555Y-4.5457
X5.7555Y-4.6457
X5.7555Y-4.7457
X5.8055Y-3.0906
X5.8055Y-3.1906
X5.8055Y-3.2906
X5.8555Y-4.6457
X5.8555Y-4.5457
X5.8555Y-4.7457
X5.9055Y-3.0906
X5.9055Y-3.1906
X5.9055Y-3.2906
X5.9555Y-4.5457
X5.9555Y-4.7457
X5.9555Y-4.6457
X6.0055Y-3.0906
X6.0055Y-3.1906
X6.0055Y-3.2906
X6.0555Y-4.5457
X6.0555Y-4.6457
X6.0555Y-4.7457
X6.1055Y-3.0906
X6.1055Y-3.1906
X6.1055Y-3.2906
T3
X4.9555Y-2.5591
X4.9555Y-5.315
X5.0555Y-2.5591
X5.0555Y-5.315
X5.1555Y-2.5591
X5.1555Y-5.315
X5.2555Y-2.5591
X5.2555Y-5.315
X5.3555Y-2.5591
X5.3555Y-5.315
X5.4555Y-2.5591
X5.4555Y-5.315
X5.5555Y-2.5591
X5.5555Y-5.315
X5.6555Y-2.5591
X5.6555Y-5.315
X5.7555Y-2.5591
X5.7555Y-5.315
X5.8555Y-2.5591
X5.8555Y-5.315
X5.9555Y-2.5591
X5.9555Y-5.315
X6.0555Y-2.5591
X6.0555Y-5.315
X6.1555Y-2.5591
X6.1555Y-5.315
X6.2555Y-2.5591
X6.2555Y-5.315
X6.3555Y-2.5591
X6.3555Y-5.315
X6.4555Y-2.5591
X6.4555Y-5.315
X6.5555Y-2.5591
X6.5555Y-5.315
X6.6555Y-2.5591
X6.6555Y-5.315
X6.7555Y-2.5591
X6.7555Y-5.315
X6.8555Y-2.5591
X6.8555Y-5.315
M30
