%TF.GenerationSoftware,KiCad,Pcbnew,10.0.3*%
%TF.CreationDate,2026-08-24T23:23:08-04:00*%
%TF.ProjectId,03_Analog_Front_End_Board,30335f41-6e61-46c6-9f67-5f46726f6e74,rev?*%
%TF.SameCoordinates,Original*%
%TF.FileFunction,Soldermask,Top*%
%TF.FilePolarity,Negative*%
%FSLAX46Y46*%
G04 Gerber Fmt 4.6, Leading zero omitted, Abs format (unit mm)*
G04 Created by KiCad (PCBNEW 10.0.3) date 2026-08-24 23:23:08*
%MOMM*%
%LPD*%
G01*
G04 APERTURE LIST*
G04 Aperture macros list*
%AMRoundRect*
0 Rectangle with rounded corners*
0 $1 Rounding radius*
0 $2 $3 $4 $5 $6 $7 $8 $9 X,Y pos of 4 corners*
0 Add a 4 corners polygon primitive as box body*
4,1,4,$2,$3,$4,$5,$6,$7,$8,$9,$2,$3,0*
0 Add four circle primitives for the rounded corners*
1,1,$1+$1,$2,$3*
1,1,$1+$1,$4,$5*
1,1,$1+$1,$6,$7*
1,1,$1+$1,$8,$9*
0 Add four rect primitives between the rounded corners*
20,1,$1+$1,$2,$3,$4,$5,0*
20,1,$1+$1,$4,$5,$6,$7,0*
20,1,$1+$1,$6,$7,$8,$9,0*
20,1,$1+$1,$8,$9,$2,$3,0*%
%AMFreePoly0*
4,1,33,0.848980,1.258373,0.875042,1.213232,0.876200,1.200000,0.876200,-1.200000,0.858373,-1.248980,0.813232,-1.275042,0.800000,-1.276200,-0.755497,-1.276200,-0.755837,-1.276571,-0.761857,-1.279379,-0.770837,-1.283099,-0.800000,-1.288900,-1.600000,-1.288900,-1.629163,-1.283099,-1.638143,-1.279379,-1.676571,-1.244163,-1.679379,-1.238143,-1.683099,-1.229163,-1.688900,-1.200000,-1.688900,0.400000,
-1.683099,0.429163,-1.679379,0.438143,-1.644163,0.476571,-1.638143,0.479379,-1.629163,0.483099,-1.600000,0.488900,-0.876200,0.488900,-0.876200,1.200000,-0.858373,1.248980,-0.813232,1.275042,-0.800000,1.276200,0.800000,1.276200,0.848980,1.258373,0.848980,1.258373,$1*%
%AMFreePoly1*
4,1,32,0.848980,1.258373,0.875042,1.213232,0.876200,1.200000,0.876200,0.488900,1.600000,0.488900,1.629163,0.483099,1.638143,0.479379,1.676571,0.444163,1.679379,0.438143,1.683099,0.429163,1.688900,0.400000,1.688900,-1.200000,1.683099,-1.229163,1.679379,-1.238143,1.644163,-1.276571,1.638143,-1.279379,1.629163,-1.283099,1.600000,-1.288900,0.800000,-1.288900,0.770837,-1.283099,
0.761857,-1.279379,0.758388,-1.276200,-0.800000,-1.276200,-0.848980,-1.258373,-0.875042,-1.213232,-0.876200,-1.200000,-0.876200,1.200000,-0.858373,1.248980,-0.813232,1.275042,-0.800000,1.276200,0.800000,1.276200,0.848980,1.258373,0.848980,1.258373,$1*%
G04 Aperture macros list end*
%ADD10C,0.100000*%
%ADD11C,0.025400*%
%ADD12RoundRect,0.094050X-0.282150X0.597150X-0.282150X-0.597150X0.282150X-0.597150X0.282150X0.597150X0*%
%ADD13RoundRect,0.076200X0.300000X-0.270000X0.300000X0.270000X-0.300000X0.270000X-0.300000X-0.270000X0*%
%ADD14RoundRect,0.076200X0.505000X0.690000X-0.505000X0.690000X-0.505000X-0.690000X0.505000X-0.690000X0*%
%ADD15RoundRect,0.102000X-1.015000X1.900000X-1.015000X-1.900000X1.015000X-1.900000X1.015000X1.900000X0*%
%ADD16RoundRect,0.076200X0.465000X-0.480000X0.465000X0.480000X-0.465000X0.480000X-0.465000X-0.480000X0*%
%ADD17RoundRect,0.102000X1.900000X1.015000X-1.900000X1.015000X-1.900000X-1.015000X1.900000X-1.015000X0*%
%ADD18RoundRect,0.102000X-1.900000X-1.015000X1.900000X-1.015000X1.900000X1.015000X-1.900000X1.015000X0*%
%ADD19RoundRect,0.076200X-0.505000X-0.690000X0.505000X-0.690000X0.505000X0.690000X-0.505000X0.690000X0*%
%ADD20RoundRect,0.076200X-0.152400X0.425450X-0.152400X-0.425450X0.152400X-0.425450X0.152400X0.425450X0*%
%ADD21RoundRect,0.076200X0.480000X0.465000X-0.480000X0.465000X-0.480000X-0.465000X0.480000X-0.465000X0*%
%ADD22RoundRect,0.076200X0.255000X0.300000X-0.255000X0.300000X-0.255000X-0.300000X0.255000X-0.300000X0*%
%ADD23RoundRect,0.076200X0.690000X-0.505000X0.690000X0.505000X-0.690000X0.505000X-0.690000X-0.505000X0*%
%ADD24RoundRect,0.076200X0.300000X-0.255000X0.300000X0.255000X-0.300000X0.255000X-0.300000X-0.255000X0*%
%ADD25RoundRect,0.076200X-0.255000X-0.300000X0.255000X-0.300000X0.255000X0.300000X-0.255000X0.300000X0*%
%ADD26RoundRect,0.102000X-0.685000X-0.685000X0.685000X-0.685000X0.685000X0.685000X-0.685000X0.685000X0*%
%ADD27C,1.574000*%
%ADD28RoundRect,0.102000X1.015000X-1.900000X1.015000X1.900000X-1.015000X1.900000X-1.015000X-1.900000X0*%
%ADD29RoundRect,0.094050X0.282150X-0.597150X0.282150X0.597150X-0.282150X0.597150X-0.282150X-0.597150X0*%
%ADD30RoundRect,0.076200X-0.480000X-0.465000X0.480000X-0.465000X0.480000X0.465000X-0.480000X0.465000X0*%
%ADD31C,1.854000*%
%ADD32RoundRect,0.076200X1.028700X-0.304800X1.028700X0.304800X-1.028700X0.304800X-1.028700X-0.304800X0*%
%ADD33RoundRect,0.076200X-0.425450X-0.152400X0.425450X-0.152400X0.425450X0.152400X-0.425450X0.152400X0*%
%ADD34RoundRect,0.076200X-0.300000X0.255000X-0.300000X-0.255000X0.300000X-0.255000X0.300000X0.255000X0*%
%ADD35RoundRect,0.076200X-0.452400X0.175000X-0.452400X-0.175000X0.452400X-0.175000X0.452400X0.175000X0*%
%ADD36RoundRect,0.076200X0.175000X0.452400X-0.175000X0.452400X-0.175000X-0.452400X0.175000X-0.452400X0*%
%ADD37RoundRect,0.076200X1.155700X1.155700X-1.155700X1.155700X-1.155700X-1.155700X1.155700X-1.155700X0*%
%ADD38RoundRect,0.076200X-0.270000X-0.300000X0.270000X-0.300000X0.270000X0.300000X-0.270000X0.300000X0*%
%ADD39RoundRect,0.076200X-0.300000X0.270000X-0.300000X-0.270000X0.300000X-0.270000X0.300000X0.270000X0*%
%ADD40RoundRect,0.076200X-0.831850X-0.279400X0.831850X-0.279400X0.831850X0.279400X-0.831850X0.279400X0*%
%ADD41RoundRect,0.076200X0.600000X-0.140000X0.600000X0.140000X-0.600000X0.140000X-0.600000X-0.140000X0*%
%ADD42RoundRect,0.076200X0.600000X-0.150000X0.600000X0.150000X-0.600000X0.150000X-0.600000X-0.150000X0*%
%ADD43RoundRect,0.076200X0.600000X-0.139999X0.600000X0.139999X-0.600000X0.139999X-0.600000X-0.139999X0*%
%ADD44FreePoly0,90.000000*%
%ADD45FreePoly1,90.000000*%
%ADD46RoundRect,0.076200X0.127000X0.457200X-0.127000X0.457200X-0.127000X-0.457200X0.127000X-0.457200X0*%
%ADD47RoundRect,0.076200X0.457200X-0.127000X0.457200X0.127000X-0.457200X0.127000X-0.457200X-0.127000X0*%
%ADD48RoundRect,0.076200X1.492976X-1.714036X1.492976X1.714036X-1.492976X1.714036X-1.492976X-1.714036X0*%
%ADD49RoundRect,0.074050X-0.737150X-0.222150X0.737150X-0.222150X0.737150X0.222150X-0.737150X0.222150X0*%
%ADD50C,0.200000*%
G04 APERTURE END LIST*
D10*
X143650000Y-95400002D02*
X143650000Y-95100000D01*
X156390000Y-95100000D01*
X156390000Y-95400000D01*
X143650000Y-95400002D01*
G36*
X156390000Y-95400000D02*
G01*
X143650000Y-95400002D01*
X143650000Y-95100000D01*
X156390000Y-95100000D01*
X156390000Y-95400000D01*
G37*
X156390002Y-106470000D02*
X156110000Y-106470000D01*
X156110000Y-95100000D01*
X156390000Y-95100002D01*
X156390002Y-106470000D01*
G36*
X156390000Y-95100002D02*
G01*
X156390002Y-106470000D01*
X156110000Y-106470000D01*
X156110000Y-95100000D01*
X156390000Y-95100002D01*
G37*
X137600000Y-89700000D02*
X154800000Y-89700000D01*
X154800000Y-91250000D01*
X137600000Y-91250000D01*
X137600000Y-89700000D01*
G36*
X137600000Y-89700000D02*
G01*
X154800000Y-89700000D01*
X154800000Y-91250000D01*
X137600000Y-91250000D01*
X137600000Y-89700000D01*
G37*
X137600000Y-91250000D02*
X145600000Y-91250000D01*
X145600000Y-93550000D01*
X137600000Y-93550000D01*
X137600000Y-91250000D01*
G36*
X137600000Y-91250000D02*
G01*
X145600000Y-91250000D01*
X145600000Y-93550000D01*
X137600000Y-93550000D01*
X137600000Y-91250000D01*
G37*
X137600000Y-93500000D02*
X139800000Y-93500000D01*
X139800000Y-98850000D01*
X137600000Y-98850000D01*
X137600000Y-93500000D01*
G36*
X137600000Y-93500000D02*
G01*
X139800000Y-93500000D01*
X139800000Y-98850000D01*
X137600000Y-98850000D01*
X137600000Y-93500000D01*
G37*
X137600000Y-98900000D02*
X139800000Y-98900000D01*
X139800000Y-106450000D01*
X137600000Y-106450000D01*
X137600000Y-98900000D01*
G36*
X137600000Y-98900000D02*
G01*
X139800000Y-98900000D01*
X139800000Y-106450000D01*
X137600000Y-106450000D01*
X137600000Y-98900000D01*
G37*
X137600000Y-105600000D02*
X156400000Y-105600000D01*
X156400000Y-106475000D01*
X137600000Y-106475000D01*
X137600000Y-105600000D01*
G36*
X137600000Y-105600000D02*
G01*
X156400000Y-105600000D01*
X156400000Y-106475000D01*
X137600000Y-106475000D01*
X137600000Y-105600000D01*
G37*
X139800000Y-104900000D02*
X153450000Y-104900000D01*
X153450000Y-105700000D01*
X139800000Y-105700000D01*
X139800000Y-104900000D01*
G36*
X139800000Y-104900000D02*
G01*
X153450000Y-104900000D01*
X153450000Y-105700000D01*
X139800000Y-105700000D01*
X139800000Y-104900000D01*
G37*
X143630000Y-95100000D02*
X143920000Y-95100000D01*
X143920000Y-106445000D01*
X143630000Y-106445000D01*
X143630000Y-95100000D01*
G36*
X143630000Y-95100000D02*
G01*
X143920000Y-95100000D01*
X143920000Y-106445000D01*
X143630000Y-106445000D01*
X143630000Y-95100000D01*
G37*
X144000000Y-95450000D02*
X145690000Y-95450000D01*
X145690000Y-99180000D01*
X144000000Y-99180000D01*
X144000000Y-95450000D01*
G36*
X144000000Y-95450000D02*
G01*
X145690000Y-95450000D01*
X145690000Y-99180000D01*
X144000000Y-99180000D01*
X144000000Y-95450000D01*
G37*
X145550000Y-96800000D02*
X146430000Y-96800000D01*
X146430000Y-98010000D01*
X145550000Y-98010000D01*
X145550000Y-96800000D01*
G36*
X145550000Y-96800000D02*
G01*
X146430000Y-96800000D01*
X146430000Y-98010000D01*
X145550000Y-98010000D01*
X145550000Y-96800000D01*
G37*
X145560000Y-98025000D02*
X148470000Y-98025000D01*
X148470000Y-99175000D01*
X145560000Y-99175000D01*
X145560000Y-98025000D01*
G36*
X145560000Y-98025000D02*
G01*
X148470000Y-98025000D01*
X148470000Y-99175000D01*
X145560000Y-99175000D01*
X145560000Y-98025000D01*
G37*
X146540000Y-99210000D02*
X147750000Y-99210000D01*
X147750000Y-100090000D01*
X146540000Y-100090000D01*
X146540000Y-99210000D01*
G36*
X146540000Y-99210000D02*
G01*
X147750000Y-99210000D01*
X147750000Y-100090000D01*
X146540000Y-100090000D01*
X146540000Y-99210000D01*
G37*
X151530000Y-98045000D02*
X153300000Y-98045000D01*
X153300000Y-99195000D01*
X151530000Y-99195000D01*
X151530000Y-98045000D01*
G36*
X151530000Y-98045000D02*
G01*
X153300000Y-98045000D01*
X153300000Y-99195000D01*
X151530000Y-99195000D01*
X151530000Y-98045000D01*
G37*
X152240000Y-99120000D02*
X153300000Y-99120000D01*
X153300000Y-100100000D01*
X152240000Y-100100000D01*
X152240000Y-99120000D01*
G36*
X152240000Y-99120000D02*
G01*
X153300000Y-99120000D01*
X153300000Y-100100000D01*
X152240000Y-100100000D01*
X152240000Y-99120000D01*
G37*
X153400000Y-105065000D02*
X156390000Y-105065000D01*
X156390000Y-106215000D01*
X153400000Y-106215000D01*
X153400000Y-105065000D01*
G36*
X153400000Y-105065000D02*
G01*
X156390000Y-105065000D01*
X156390000Y-106215000D01*
X153400000Y-106215000D01*
X153400000Y-105065000D01*
G37*
X153560000Y-95450000D02*
X156050000Y-95450000D01*
X156050000Y-97150000D01*
X153560000Y-97150000D01*
X153560000Y-95450000D01*
G36*
X153560000Y-95450000D02*
G01*
X156050000Y-95450000D01*
X156050000Y-97150000D01*
X153560000Y-97150000D01*
X153560000Y-95450000D01*
G37*
X153560000Y-96850000D02*
X154750000Y-96850000D01*
X154750000Y-97950000D01*
X153560000Y-97950000D01*
X153560000Y-96850000D01*
G36*
X153560000Y-96850000D02*
G01*
X154750000Y-96850000D01*
X154750000Y-97950000D01*
X153560000Y-97950000D01*
X153560000Y-96850000D01*
G37*
X153849999Y-89700000D02*
X155149999Y-89700000D01*
X155149999Y-93550000D01*
X153849999Y-93550000D01*
X153849999Y-89700000D01*
G36*
X153849999Y-89700000D02*
G01*
X155149999Y-89700000D01*
X155149999Y-93550000D01*
X153849999Y-93550000D01*
X153849999Y-89700000D01*
G37*
X153850000Y-93250000D02*
X162250000Y-93250000D01*
X162250000Y-93550000D01*
X153850000Y-93550000D01*
X153850000Y-93250000D01*
G36*
X153850000Y-93250000D02*
G01*
X162250000Y-93250000D01*
X162250000Y-93550000D01*
X153850000Y-93550000D01*
X153850000Y-93250000D01*
G37*
X155050000Y-89700000D02*
X162260000Y-89700000D01*
X162260000Y-90260000D01*
X155050000Y-90260000D01*
X155050000Y-89700000D01*
G36*
X155050000Y-89700000D02*
G01*
X162260000Y-89700000D01*
X162260000Y-90260000D01*
X155050000Y-90260000D01*
X155050000Y-89700000D01*
G37*
X157950000Y-93420000D02*
X162250000Y-93420000D01*
X162250000Y-97150000D01*
X157950000Y-97150000D01*
X157950000Y-93420000D01*
G36*
X157950000Y-93420000D02*
G01*
X162250000Y-93420000D01*
X162250000Y-97150000D01*
X157950000Y-97150000D01*
X157950000Y-93420000D01*
G37*
X159950000Y-89705000D02*
X162250000Y-89705000D01*
X162250000Y-93555000D01*
X159950000Y-93555000D01*
X159950000Y-89705000D01*
G36*
X159950000Y-89705000D02*
G01*
X162250000Y-89705000D01*
X162250000Y-93555000D01*
X159950000Y-93555000D01*
X159950000Y-89705000D01*
G37*
D11*
%TO.C,J5*%
X182101600Y-112050000D02*
X180501600Y-112050000D01*
X180501600Y-111250000D01*
X182101600Y-111250000D01*
X182101600Y-112050000D01*
G36*
X182101600Y-112050000D02*
G01*
X180501600Y-112050000D01*
X180501600Y-111250000D01*
X182101600Y-111250000D01*
X182101600Y-112050000D01*
G37*
%TD*%
D12*
%TO.C,Q8*%
X141105000Y-69440000D03*
X139205000Y-69440000D03*
X140155000Y-71560000D03*
%TD*%
D13*
%TO.C,C15*%
X141425000Y-100682000D03*
X141425000Y-99818000D03*
%TD*%
D14*
%TO.C,R33*%
X144700000Y-102750000D03*
X142800000Y-102750000D03*
%TD*%
D15*
%TO.C,TP3*%
X180000000Y-72500000D03*
%TD*%
D14*
%TO.C,R34*%
X144700000Y-100250000D03*
X142800000Y-100250000D03*
%TD*%
D16*
%TO.C,C21*%
X164325000Y-100028000D03*
X164325000Y-98472000D03*
%TD*%
D17*
%TO.C,TP11*%
X145250000Y-87500000D03*
%TD*%
D18*
%TO.C,TP16*%
X125000000Y-130000000D03*
%TD*%
D13*
%TO.C,C7*%
X159820000Y-104412000D03*
X159820000Y-103548000D03*
%TD*%
D19*
%TO.C,R30*%
X155300000Y-101500000D03*
X157200000Y-101500000D03*
%TD*%
D18*
%TO.C,TP15*%
X125000000Y-110100000D03*
%TD*%
D20*
%TO.C,OPA5*%
X125649999Y-99976050D03*
X125000000Y-99976050D03*
X124350001Y-99976050D03*
X124350001Y-102223950D03*
X125649999Y-102223950D03*
%TD*%
D18*
%TO.C,TP10*%
X150000000Y-87500000D03*
%TD*%
D21*
%TO.C,C24*%
X125778000Y-103800000D03*
X124222000Y-103800000D03*
%TD*%
D22*
%TO.C,R39*%
X126550000Y-117250000D03*
X125659998Y-117250000D03*
%TD*%
%TO.C,R23*%
X137135000Y-68000000D03*
X136245000Y-68000000D03*
%TD*%
D23*
%TO.C,R32*%
X152500000Y-96200000D03*
X152500000Y-94300000D03*
%TD*%
D24*
%TO.C,R10*%
X173825000Y-89070001D03*
X173825000Y-88179999D03*
%TD*%
D25*
%TO.C,R25*%
X146205000Y-73000000D03*
X147095000Y-73000000D03*
%TD*%
D26*
%TO.C,J6*%
X144920000Y-83580000D03*
D27*
X144920000Y-81040000D03*
X144920000Y-78500000D03*
X147460000Y-83580000D03*
X147460000Y-81040000D03*
X147460000Y-78500000D03*
X150000000Y-83580000D03*
X150000000Y-81040000D03*
X150000000Y-78500000D03*
X152540000Y-83580000D03*
X152540000Y-81040000D03*
X152540000Y-78500000D03*
X155080000Y-83580000D03*
X155080000Y-81040000D03*
X155080000Y-78500000D03*
%TD*%
D28*
%TO.C,TP18*%
X180000000Y-120000000D03*
%TD*%
D29*
%TO.C,Q4*%
X148495000Y-128560000D03*
X150395000Y-128560000D03*
X149445000Y-126440000D03*
%TD*%
D26*
%TO.C,J7*%
X146190000Y-120540000D03*
D27*
X146190000Y-118000000D03*
X146190000Y-115460000D03*
X148730000Y-120540000D03*
X148729999Y-118000000D03*
X148730000Y-115460000D03*
X151270000Y-120540000D03*
X151270001Y-118000000D03*
X151270000Y-115460000D03*
X153810000Y-120540000D03*
X153810000Y-118000000D03*
X153810000Y-115460000D03*
%TD*%
D25*
%TO.C,R12*%
X156000000Y-130060000D03*
X156890000Y-130060000D03*
%TD*%
D18*
%TO.C,TP6*%
X147500000Y-110000000D03*
%TD*%
D24*
%TO.C,R40*%
X126900000Y-120445001D03*
X126900000Y-119554999D03*
%TD*%
D22*
%TO.C,R18*%
X150345000Y-125000000D03*
X149455000Y-125000000D03*
%TD*%
%TO.C,R37*%
X128145001Y-100000000D03*
X127254999Y-100000000D03*
%TD*%
%TO.C,R1*%
X171345000Y-70460000D03*
X170455000Y-70460000D03*
%TD*%
%TO.C,R17*%
X153790000Y-125000000D03*
X152900000Y-125000000D03*
%TD*%
D21*
%TO.C,C3*%
X166128000Y-89000000D03*
X164572000Y-89000000D03*
%TD*%
D30*
%TO.C,C4*%
X166922000Y-108500000D03*
X168478000Y-108500000D03*
%TD*%
%TO.C,C2*%
X173947000Y-86825000D03*
X175503000Y-86825000D03*
%TD*%
D22*
%TO.C,R21*%
X144000000Y-68000000D03*
X143110000Y-68000000D03*
%TD*%
D31*
%TO.C,J1*%
X174130000Y-135000000D03*
X171590000Y-135000000D03*
X169050000Y-135000000D03*
X166510000Y-135000000D03*
X163970000Y-135000000D03*
X161430000Y-135000000D03*
X158890000Y-135000000D03*
X156350000Y-135000000D03*
X153810000Y-135000000D03*
X151270000Y-135000000D03*
X148730000Y-135000000D03*
X146190000Y-135000000D03*
X143650000Y-135000000D03*
X141110000Y-135000000D03*
X138570000Y-135000000D03*
X136030000Y-135000000D03*
X133490000Y-135000000D03*
X130950000Y-135000000D03*
X128410000Y-135000000D03*
X125870000Y-135000000D03*
%TD*%
D18*
%TO.C,TP17*%
X125000000Y-80000000D03*
%TD*%
D20*
%TO.C,OPA3*%
X162649999Y-99376050D03*
X162000000Y-99376050D03*
X161350001Y-99376050D03*
X161350001Y-101623950D03*
X162649999Y-101623950D03*
%TD*%
D30*
%TO.C,C5*%
X166922000Y-93850000D03*
X168478000Y-93850000D03*
%TD*%
D29*
%TO.C,Q1*%
X158940000Y-128560000D03*
X160840000Y-128560000D03*
X159890000Y-126440000D03*
%TD*%
D18*
%TO.C,TP5*%
X152500000Y-110000000D03*
%TD*%
D23*
%TO.C,R35*%
X147500000Y-96200000D03*
X147500000Y-94300000D03*
%TD*%
D29*
%TO.C,Q2*%
X155495000Y-128560000D03*
X157395000Y-128560000D03*
X156445000Y-126440000D03*
%TD*%
D25*
%TO.C,R5*%
X168514999Y-91580000D03*
X169405001Y-91580000D03*
%TD*%
%TO.C,R26*%
X142705000Y-73000000D03*
X143595000Y-73000000D03*
%TD*%
D32*
%TO.C,J4*%
X171621201Y-82470000D03*
X175278799Y-79930000D03*
%TD*%
D25*
%TO.C,R28*%
X135805000Y-73000000D03*
X136695000Y-73000000D03*
%TD*%
D33*
%TO.C,OPA1*%
X168926050Y-71850001D03*
X168926050Y-72500000D03*
X168926050Y-73149999D03*
X171173950Y-73149999D03*
X171173950Y-71850001D03*
%TD*%
D22*
%TO.C,R4*%
X169405001Y-90375000D03*
X168514999Y-90375000D03*
%TD*%
D34*
%TO.C,R41*%
X123100000Y-119554999D03*
X123100000Y-120445001D03*
%TD*%
D12*
%TO.C,Q6*%
X148055000Y-69440000D03*
X146155000Y-69440000D03*
X147105000Y-71560000D03*
%TD*%
D29*
%TO.C,Q3*%
X151940000Y-128560000D03*
X153840000Y-128560000D03*
X152890000Y-126440000D03*
%TD*%
D18*
%TO.C,TP7*%
X142500000Y-110000000D03*
%TD*%
D25*
%TO.C,R3*%
X168304999Y-85600000D03*
X169195001Y-85600000D03*
%TD*%
D22*
%TO.C,R15*%
X160790000Y-124960000D03*
X159900000Y-124960000D03*
%TD*%
D21*
%TO.C,C26*%
X125728000Y-122600000D03*
X124172000Y-122600000D03*
%TD*%
D35*
%TO.C,MUX2*%
X151902402Y-102474999D03*
X151902402Y-101825001D03*
X151902402Y-101174999D03*
X151902402Y-100525001D03*
D36*
X150974999Y-99597598D03*
X150325001Y-99597598D03*
X149674999Y-99597598D03*
X149025001Y-99597598D03*
D35*
X148097598Y-100525001D03*
X148097598Y-101174999D03*
X148097598Y-101825001D03*
X148097598Y-102474999D03*
D36*
X149025001Y-103402402D03*
X149674999Y-103402402D03*
X150325001Y-103402402D03*
X150974999Y-103402402D03*
D37*
X150000000Y-101500000D03*
%TD*%
D25*
%TO.C,R13*%
X152395000Y-130060000D03*
X153285000Y-130060000D03*
%TD*%
D28*
%TO.C,TP2*%
X180000000Y-80000000D03*
%TD*%
D21*
%TO.C,C23*%
X135778000Y-92000000D03*
X134222000Y-92000000D03*
%TD*%
D18*
%TO.C,TP12*%
X140000000Y-87500000D03*
%TD*%
D24*
%TO.C,R6*%
X166300000Y-87670001D03*
X166300000Y-86779999D03*
%TD*%
D18*
%TO.C,TP13*%
X157500000Y-91750000D03*
%TD*%
D25*
%TO.C,R24*%
X149655000Y-73000000D03*
X150545000Y-73000000D03*
%TD*%
%TO.C,R14*%
X149000000Y-130060000D03*
X149890000Y-130060000D03*
%TD*%
D38*
%TO.C,C16*%
X147068000Y-92920000D03*
X147932000Y-92920000D03*
%TD*%
D22*
%TO.C,R19*%
X151045000Y-68000000D03*
X150155000Y-68000000D03*
%TD*%
D21*
%TO.C,C18*%
X138278000Y-110000000D03*
X136722000Y-110000000D03*
%TD*%
D12*
%TO.C,Q5*%
X151505000Y-69440000D03*
X149605000Y-69440000D03*
X150555000Y-71560000D03*
%TD*%
D22*
%TO.C,R22*%
X140550000Y-68000000D03*
X139660000Y-68000000D03*
%TD*%
%TO.C,R7*%
X171795001Y-85600000D03*
X170904999Y-85600000D03*
%TD*%
D25*
%TO.C,R11*%
X159395000Y-130060000D03*
X160285000Y-130060000D03*
%TD*%
D30*
%TO.C,C19*%
X161722000Y-110000000D03*
X163278000Y-110000000D03*
%TD*%
D39*
%TO.C,C11*%
X158575000Y-101068000D03*
X158575000Y-101932000D03*
%TD*%
D40*
%TO.C,OPA4*%
X135574250Y-94295001D03*
X135574250Y-95565000D03*
X135574250Y-96835000D03*
X135574250Y-98104999D03*
X141225750Y-98104999D03*
X141225750Y-96835000D03*
X141225750Y-95565000D03*
X141225750Y-94295001D03*
%TD*%
D22*
%TO.C,R2*%
X169345000Y-70460000D03*
X168455000Y-70460000D03*
%TD*%
D38*
%TO.C,C13*%
X152078396Y-92922500D03*
X152942396Y-92922500D03*
%TD*%
D13*
%TO.C,C9*%
X162170000Y-104413605D03*
X162170000Y-103549605D03*
%TD*%
D12*
%TO.C,Q9*%
X137635000Y-69470000D03*
X135735000Y-69470000D03*
X136685000Y-71590000D03*
%TD*%
D22*
%TO.C,R20*%
X147550000Y-68000000D03*
X146660000Y-68000000D03*
%TD*%
D31*
%TO.C,J2*%
X174130000Y-65000000D03*
X171590000Y-65000000D03*
X169050000Y-65000000D03*
X166510000Y-65000000D03*
X163970000Y-65000000D03*
X161430000Y-65000000D03*
X158890000Y-65000000D03*
X156350000Y-65000000D03*
X153810000Y-65000000D03*
X151270000Y-65000000D03*
X148730000Y-65000000D03*
X146190000Y-65000000D03*
X143650000Y-65000000D03*
X141110000Y-65000000D03*
X138570000Y-65000000D03*
X136030000Y-65000000D03*
X133490000Y-65000000D03*
X130950000Y-65000000D03*
X128410000Y-65000000D03*
X125870000Y-65000000D03*
%TD*%
D38*
%TO.C,C17*%
X149578000Y-92922500D03*
X150442000Y-92922500D03*
%TD*%
D25*
%TO.C,R27*%
X139255000Y-73000000D03*
X140145000Y-73000000D03*
%TD*%
D22*
%TO.C,R9*%
X171425001Y-91580000D03*
X170534999Y-91580000D03*
%TD*%
D30*
%TO.C,C20*%
X163622000Y-96100000D03*
X165178000Y-96100000D03*
%TD*%
D41*
%TO.C,J5*%
X178202010Y-108750000D03*
X178202010Y-108250000D03*
X178202010Y-107750000D03*
X178202010Y-107250000D03*
X178202010Y-106750000D03*
X178202010Y-106250000D03*
D42*
X178202010Y-105749980D03*
X178202010Y-105249980D03*
D41*
X178202010Y-104750000D03*
X178202010Y-104250000D03*
X178202010Y-103750000D03*
X178202010Y-103250000D03*
X178202010Y-102750000D03*
X178202010Y-102250000D03*
X178202010Y-101750000D03*
X178202010Y-101250000D03*
X178202010Y-100750000D03*
D43*
X178202010Y-100249999D03*
D41*
X178202010Y-99750000D03*
X178202010Y-99250000D03*
X178202010Y-98750000D03*
X178202010Y-98250000D03*
X178202010Y-97750000D03*
X178202010Y-97250000D03*
X178202010Y-96750000D03*
X178202010Y-96250000D03*
X178202010Y-95750000D03*
X178202010Y-95250000D03*
X178202010Y-94750000D03*
X178202010Y-94250000D03*
X178202010Y-93750000D03*
X178202010Y-93250000D03*
X178202010Y-92750000D03*
X178202010Y-92250000D03*
X178202010Y-91750000D03*
X178202010Y-91250000D03*
D44*
X180900000Y-110450000D03*
D45*
X180900000Y-89550000D03*
%TD*%
D39*
%TO.C,C10*%
X163325000Y-103568000D03*
X163325000Y-104432000D03*
%TD*%
D16*
%TO.C,C1*%
X172710000Y-72178000D03*
X172710000Y-70622000D03*
%TD*%
D25*
%TO.C,R42*%
X123459998Y-117250000D03*
X124350000Y-117250000D03*
%TD*%
D19*
%TO.C,R31*%
X155300000Y-99000000D03*
X157200000Y-99000000D03*
%TD*%
D17*
%TO.C,TP8*%
X160000000Y-87500000D03*
%TD*%
D46*
%TO.C,MUX1*%
X167250001Y-103685050D03*
X167750000Y-103685050D03*
X168249999Y-103685050D03*
X168750000Y-103685050D03*
X169250000Y-103685050D03*
X169750001Y-103685050D03*
X170250000Y-103685050D03*
X170749999Y-103685050D03*
D47*
X171527300Y-102907749D03*
X171527300Y-102407750D03*
X171527300Y-101907751D03*
X171527300Y-101407750D03*
X171527300Y-100907750D03*
X171527300Y-100407749D03*
X171527300Y-99907750D03*
X171527300Y-99407751D03*
D46*
X170749999Y-98630450D03*
X170250000Y-98630450D03*
X169750001Y-98630450D03*
X169250000Y-98630450D03*
X168750000Y-98630450D03*
X168249999Y-98630450D03*
X167750000Y-98630450D03*
X167250001Y-98630450D03*
D47*
X166472700Y-99407751D03*
X166472700Y-99907750D03*
X166472700Y-100407749D03*
X166472700Y-101407750D03*
X166472700Y-102407750D03*
D48*
X169256967Y-101196176D03*
%TD*%
D18*
%TO.C,TP4*%
X157500000Y-110000000D03*
%TD*%
D20*
%TO.C,OPA6*%
X125649999Y-118876050D03*
X125000000Y-118876050D03*
X124350001Y-118876050D03*
X124350001Y-121123950D03*
X125649999Y-121123950D03*
%TD*%
D39*
%TO.C,C6*%
X158607500Y-103568000D03*
X158607500Y-104432000D03*
%TD*%
D21*
%TO.C,C25*%
X125878000Y-97922000D03*
X124322000Y-97922000D03*
%TD*%
D12*
%TO.C,Q7*%
X144555000Y-69440000D03*
X142655000Y-69440000D03*
X143605000Y-71560000D03*
%TD*%
D39*
%TO.C,C12*%
X158575000Y-98568000D03*
X158575000Y-99432000D03*
%TD*%
D25*
%TO.C,R8*%
X170534999Y-90375000D03*
X171425001Y-90375000D03*
%TD*%
D32*
%TO.C,J3*%
X164871201Y-82420000D03*
X168528799Y-79880000D03*
%TD*%
D13*
%TO.C,C14*%
X141425000Y-103182000D03*
X141425000Y-102318000D03*
%TD*%
D30*
%TO.C,C22*%
X134222000Y-101500000D03*
X135778000Y-101500000D03*
%TD*%
D23*
%TO.C,R36*%
X150000000Y-96200000D03*
X150000000Y-94300000D03*
%TD*%
D22*
%TO.C,R16*%
X157340000Y-124960000D03*
X156450000Y-124960000D03*
%TD*%
D25*
%TO.C,R38*%
X121955000Y-100000000D03*
X122845000Y-100000000D03*
%TD*%
D39*
%TO.C,C8*%
X160970000Y-103568000D03*
X160970000Y-104432000D03*
%TD*%
D17*
%TO.C,TP14*%
X125050000Y-90000000D03*
%TD*%
D49*
%TO.C,OPA2*%
X167900000Y-87024999D03*
X167900000Y-87675000D03*
X167900000Y-88325000D03*
X167900000Y-88975001D03*
X172200000Y-88975001D03*
X172200000Y-88325000D03*
X172200000Y-87675000D03*
X172200000Y-87024999D03*
%TD*%
D17*
%TO.C,TP9*%
X155000000Y-87500000D03*
%TD*%
D19*
%TO.C,R29*%
X155300000Y-104000000D03*
X157200000Y-104000000D03*
%TD*%
D28*
%TO.C,TP1*%
X160000000Y-72500000D03*
%TD*%
D50*
X164515380Y-100980750D02*
X163523000Y-101973130D01*
X160200000Y-97300000D02*
X160200000Y-97000000D01*
X164869120Y-101834750D02*
X164460000Y-102243870D01*
X164460000Y-102243870D02*
X164460000Y-104740000D01*
X166000000Y-100980750D02*
X164515380Y-100980750D01*
X166000000Y-101834750D02*
X164869120Y-101834750D01*
X159600000Y-102900000D02*
X159370000Y-102670000D01*
X163500000Y-102900000D02*
X159600000Y-102900000D01*
X164460000Y-104740000D02*
X163500000Y-105700000D01*
X163500000Y-105700000D02*
X156300000Y-105700000D01*
X159370000Y-98130000D02*
X160200000Y-97300000D01*
X159370000Y-102670000D02*
X159370000Y-98130000D01*
X163523000Y-101973130D02*
X163523000Y-102877000D01*
M02*
