%TF.GenerationSoftware,KiCad,Pcbnew,10.0.3*%
%TF.CreationDate,2026-08-24T23:23:08-04:00*%
%TF.ProjectId,03_Analog_Front_End_Board,30335f41-6e61-46c6-9f67-5f46726f6e74,rev?*%
%TF.SameCoordinates,Original*%
%TF.FileFunction,Copper,L4,Bot*%
%TF.FilePolarity,Positive*%
%FSLAX46Y46*%
G04 Gerber Fmt 4.6, Leading zero omitted, Abs format (unit mm)*
G04 Created by KiCad (PCBNEW 10.0.3) date 2026-08-24 23:23:08*
%MOMM*%
%LPD*%
G01*
G04 APERTURE LIST*
%TA.AperFunction,Conductor*%
%ADD10C,0.200000*%
%TD*%
%TA.AperFunction,Conductor*%
%ADD11C,0.100000*%
%TD*%
%TA.AperFunction,EtchedComponent*%
%ADD12C,0.000000*%
%TD*%
%TA.AperFunction,ComponentPad*%
%ADD13R,1.370000X1.370000*%
%TD*%
%TA.AperFunction,ComponentPad*%
%ADD14C,1.370000*%
%TD*%
%TA.AperFunction,ComponentPad*%
%ADD15C,1.650000*%
%TD*%
%TA.AperFunction,ViaPad*%
%ADD16C,0.600000*%
%TD*%
%TA.AperFunction,Conductor*%
%ADD17C,1.000000*%
%TD*%
%TA.AperFunction,Conductor*%
%ADD18C,0.400000*%
%TD*%
%TA.AperFunction,Conductor*%
%ADD19C,1.500000*%
%TD*%
%TA.AperFunction,Conductor*%
%ADD20C,0.600000*%
%TD*%
%TA.AperFunction,Conductor*%
%ADD21C,0.500000*%
%TD*%
%TA.AperFunction,Conductor*%
%ADD22C,0.280000*%
%TD*%
%TA.AperFunction,Conductor*%
%ADD23C,0.510000*%
%TD*%
G04 APERTURE END LIST*
%TO.N,+12V*%
D10*
X135100000Y-71000000D02*
X152150000Y-71000000D01*
X152150000Y-73500000D01*
X135100000Y-73500000D01*
X135100000Y-71000000D01*
%TA.AperFunction,Conductor*%
G36*
X135100000Y-71000000D02*
G01*
X152150000Y-71000000D01*
X152150000Y-73500000D01*
X135100000Y-73500000D01*
X135100000Y-71000000D01*
G37*
%TD.AperFunction*%
%TO.N,+3V3*%
X136000000Y-66500000D02*
X153000000Y-66500000D01*
X153000000Y-68500000D01*
X136000000Y-68500000D01*
X136000000Y-66500000D01*
%TA.AperFunction,Conductor*%
G36*
X136000000Y-66500000D02*
G01*
X153000000Y-66500000D01*
X153000000Y-68500000D01*
X136000000Y-68500000D01*
X136000000Y-66500000D01*
G37*
%TD.AperFunction*%
X144400000Y-129400000D02*
X161600000Y-129400000D01*
X161600000Y-133250000D01*
X144400000Y-133250000D01*
X144400000Y-129400000D01*
%TA.AperFunction,Conductor*%
G36*
X144400000Y-129400000D02*
G01*
X161600000Y-129400000D01*
X161600000Y-133250000D01*
X144400000Y-133250000D01*
X144400000Y-129400000D01*
G37*
%TD.AperFunction*%
X147340000Y-136650000D02*
X161800000Y-136650000D01*
X161800000Y-138100000D01*
X147340000Y-138100000D01*
X147340000Y-136650000D01*
%TA.AperFunction,Conductor*%
G36*
X147340000Y-136650000D02*
G01*
X161800000Y-136650000D01*
X161800000Y-138100000D01*
X147340000Y-138100000D01*
X147340000Y-136650000D01*
G37*
%TD.AperFunction*%
%TO.N,+12V*%
X147700000Y-124050000D02*
X161560000Y-124050000D01*
X161560000Y-126350000D01*
X147700000Y-126350000D01*
X147700000Y-124050000D01*
%TA.AperFunction,Conductor*%
G36*
X147700000Y-124050000D02*
G01*
X161560000Y-124050000D01*
X161560000Y-126350000D01*
X147700000Y-126350000D01*
X147700000Y-124050000D01*
G37*
%TD.AperFunction*%
%TO.N,GND*%
D11*
X164100000Y-89900000D02*
X166300000Y-89900000D01*
X166300000Y-91900000D01*
X164100000Y-91900000D01*
X164100000Y-89900000D01*
%TA.AperFunction,Conductor*%
G36*
X164100000Y-89900000D02*
G01*
X166300000Y-89900000D01*
X166300000Y-91900000D01*
X164100000Y-91900000D01*
X164100000Y-89900000D01*
G37*
%TD.AperFunction*%
D12*
%TA.AperFunction,EtchedComponent*%
%TD*%
%TO.C,G\u002A\u002A\u002A*%
G36*
X130711367Y-111612986D02*
G01*
X130708437Y-111615915D01*
X130705507Y-111612985D01*
X130708437Y-111610054D01*
X130711367Y-111612986D01*
G37*
%TD.AperFunction*%
%TA.AperFunction,EtchedComponent*%
%TO.C,G\u002A\u002A\u002A*%
G36*
X128314368Y-115234858D02*
G01*
X128311436Y-115237788D01*
X128308506Y-115234858D01*
X128311436Y-115231928D01*
X128314368Y-115234858D01*
G37*
%TD.AperFunction*%
%TA.AperFunction,EtchedComponent*%
G36*
X128447208Y-114161385D02*
G01*
X128448125Y-114163148D01*
X128443301Y-114165292D01*
X128440198Y-114164869D01*
X128439394Y-114161385D01*
X128440253Y-114160683D01*
X128447208Y-114161385D01*
G37*
%TD.AperFunction*%
%TD*%
D13*
%TO.P,J6,1*%
%TO.N,MUX16_SEL3_LS*%
X144920000Y-83580000D03*
D14*
%TO.P,J6,2*%
%TO.N,Net-(MUX1-A3)*%
X144920000Y-81040000D03*
%TO.P,J6,3*%
%TO.N,MUX16_SEL3*%
X144920000Y-78500000D03*
%TO.P,J6,4*%
%TO.N,MUX16_SEL2_LS*%
X147460000Y-83580000D03*
%TO.P,J6,5*%
%TO.N,Net-(MUX1-A2)*%
X147460000Y-81040000D03*
%TO.P,J6,6*%
%TO.N,MUX16_SEL2*%
X147460000Y-78500000D03*
%TO.P,J6,7*%
%TO.N,MUX16_SEL1_LS*%
X150000000Y-83580000D03*
%TO.P,J6,8*%
%TO.N,Net-(MUX1-A1)*%
X150000000Y-81040000D03*
%TO.P,J6,9*%
%TO.N,MUX16_SEL1*%
X150000000Y-78500000D03*
%TO.P,J6,10*%
%TO.N,MUX16_SEL0_LS*%
X152540000Y-83580000D03*
%TO.P,J6,11*%
%TO.N,Net-(MUX1-A0)*%
X152540000Y-81040000D03*
%TO.P,J6,12*%
%TO.N,MUX16_SEL0*%
X152540000Y-78500000D03*
%TO.P,J6,13*%
%TO.N,MUX16_EN_LS*%
X155080000Y-83580000D03*
%TO.P,J6,14*%
%TO.N,Net-(MUX1-EN)*%
X155080000Y-81040000D03*
%TO.P,J6,15*%
%TO.N,MUX16_EN*%
X155080000Y-78500000D03*
%TD*%
D13*
%TO.P,J7,1*%
%TO.N,MUX08_SEL2*%
X146190000Y-120540000D03*
D14*
%TO.P,J7,2*%
%TO.N,Net-(MUX2-A2)*%
X146190000Y-118000000D03*
%TO.P,J7,3*%
%TO.N,MUX08_SEL2_LS*%
X146190000Y-115460000D03*
%TO.P,J7,4*%
%TO.N,MUX08_SEL1*%
X148730000Y-120540000D03*
%TO.P,J7,5*%
%TO.N,Net-(MUX2-A1)*%
X148729999Y-118000000D03*
%TO.P,J7,6*%
%TO.N,MUX08_SEL1_LS*%
X148730000Y-115460000D03*
%TO.P,J7,7*%
%TO.N,MUX08_SEL0*%
X151270000Y-120540000D03*
%TO.P,J7,8*%
%TO.N,Net-(MUX2-A0)*%
X151270001Y-118000000D03*
%TO.P,J7,9*%
%TO.N,MUX08_SEL0_LS*%
X151270000Y-115460000D03*
%TO.P,J7,10*%
%TO.N,MUX08_EN*%
X153810000Y-120540000D03*
%TO.P,J7,11*%
%TO.N,Net-(MUX2-EN)*%
X153810000Y-118000000D03*
%TO.P,J7,12*%
%TO.N,MUX08_EN_LS*%
X153810000Y-115460000D03*
%TD*%
D15*
%TO.P,J1,1*%
%TO.N,GND*%
X174130000Y-135000000D03*
%TO.P,J1,2*%
%TO.N,+3V3*%
X171590000Y-135000000D03*
%TO.P,J1,3*%
%TO.N,GND*%
X169050000Y-135000000D03*
%TO.P,J1,4*%
X166510000Y-135000000D03*
%TO.P,J1,5*%
%TO.N,+12V*%
X163970000Y-135000000D03*
%TO.P,J1,6*%
%TO.N,-12V*%
X161430000Y-135000000D03*
%TO.P,J1,7*%
%TO.N,MUX08_EN*%
X158890000Y-135000000D03*
%TO.P,J1,8*%
%TO.N,MUX08_SEL0*%
X156350000Y-135000000D03*
%TO.P,J1,9*%
%TO.N,MUX08_SEL1*%
X153810000Y-135000000D03*
%TO.P,J1,10*%
%TO.N,MUX08_SEL2*%
X151270000Y-135000000D03*
%TO.P,J1,11*%
%TO.N,GND*%
X148730000Y-135000000D03*
%TO.P,J1,12*%
X146190000Y-135000000D03*
%TO.P,J1,13*%
X143650000Y-135000000D03*
%TO.P,J1,14*%
X141110000Y-135000000D03*
%TO.P,J1,15*%
X138570000Y-135000000D03*
%TO.P,J1,16*%
%TO.N,DAC1*%
X136030000Y-135000000D03*
%TO.P,J1,17*%
%TO.N,DAC2*%
X133490000Y-135000000D03*
%TO.P,J1,18*%
%TO.N,TIA_OUT*%
X130950000Y-135000000D03*
%TO.P,J1,19*%
%TO.N,GND*%
X128410000Y-135000000D03*
%TO.P,J1,20*%
X125870000Y-135000000D03*
%TD*%
%TO.P,J2,1*%
%TO.N,GND*%
X174130000Y-65000000D03*
%TO.P,J2,2*%
%TO.N,+3V3*%
X171590000Y-65000000D03*
%TO.P,J2,3*%
%TO.N,+2V5*%
X169050000Y-65000000D03*
%TO.P,J2,4*%
%TO.N,-2V5*%
X166510000Y-65000000D03*
%TO.P,J2,5*%
%TO.N,+12V*%
X163970000Y-65000000D03*
%TO.P,J2,6*%
%TO.N,-12V*%
X161430000Y-65000000D03*
%TO.P,J2,7*%
%TO.N,GND*%
X158890000Y-65000000D03*
%TO.P,J2,8*%
X156350000Y-65000000D03*
%TO.P,J2,9*%
X153810000Y-65000000D03*
%TO.P,J2,10*%
X151270000Y-65000000D03*
%TO.P,J2,11*%
%TO.N,MUX16_EN*%
X148730000Y-65000000D03*
%TO.P,J2,12*%
%TO.N,MUX16_SEL0*%
X146190000Y-65000000D03*
%TO.P,J2,13*%
%TO.N,MUX16_SEL1*%
X143650000Y-65000000D03*
%TO.P,J2,14*%
%TO.N,MUX16_SEL2*%
X141110000Y-65000000D03*
%TO.P,J2,15*%
%TO.N,MUX16_SEL3*%
X138570000Y-65000000D03*
%TO.P,J2,16*%
%TO.N,DAC1*%
X136030000Y-65000000D03*
%TO.P,J2,17*%
%TO.N,DAC2*%
X133490000Y-65000000D03*
%TO.P,J2,18*%
%TO.N,GND*%
X130950000Y-65000000D03*
%TO.P,J2,19*%
X128410000Y-65000000D03*
%TO.P,J2,20*%
X125870000Y-65000000D03*
%TD*%
D16*
%TO.N,GND*%
X131500000Y-111000000D03*
X150580000Y-69650000D03*
X136680000Y-69630000D03*
X140150000Y-69640000D03*
X143600000Y-69640000D03*
X147120000Y-69640000D03*
X142990000Y-74930000D03*
X155370000Y-122600000D03*
X148507831Y-122992169D03*
X151800000Y-122800000D03*
X147060000Y-123850000D03*
X149200000Y-119280000D03*
X151900000Y-119260000D03*
X141530000Y-78350000D03*
X147000000Y-79800000D03*
X149600000Y-79790000D03*
X152100000Y-79760000D03*
%TO.N,+3V3*%
X152300000Y-67000000D03*
X145330000Y-67080000D03*
X138390000Y-67000000D03*
X145800000Y-131300000D03*
X145800000Y-132600000D03*
X147250000Y-130000000D03*
X159395000Y-131000000D03*
X148700000Y-67000000D03*
X149000000Y-130900000D03*
X147300000Y-131300000D03*
X152395000Y-130905000D03*
X145750000Y-130000000D03*
X147300000Y-132600000D03*
X141830000Y-67000000D03*
X161250000Y-131000000D03*
X156000000Y-130950000D03*
%TO.N,Net-(MUX2-S6)*%
X144600000Y-101400000D03*
X141800000Y-101400000D03*
%TO.N,Net-(MUX2-S5)*%
X144570000Y-104200000D03*
X142075000Y-104200000D03*
%TO.N,GND*%
X138160000Y-84200000D03*
X182200000Y-114000000D03*
X179150000Y-62160000D03*
X159140000Y-116570000D03*
X182480000Y-132180000D03*
X132390000Y-62130000D03*
X118800000Y-125410000D03*
X176000000Y-90100000D03*
X119620000Y-100250000D03*
X117030000Y-134270000D03*
X161830000Y-121330000D03*
X137430000Y-77720000D03*
X134730000Y-106640000D03*
X141100000Y-114960000D03*
X123950000Y-113780000D03*
X120690000Y-112630000D03*
X149300000Y-102200000D03*
X175880000Y-84410000D03*
X134570000Y-111500000D03*
X119880000Y-90050000D03*
X157700000Y-138900000D03*
X182900000Y-123000000D03*
X162200000Y-75700000D03*
X180120000Y-107370000D03*
X120900000Y-103560000D03*
X182840000Y-107730000D03*
X159540000Y-113200000D03*
X167580000Y-68010000D03*
X165760000Y-126560000D03*
X134850000Y-114340000D03*
X157360000Y-74390000D03*
X137740000Y-113840000D03*
X136280000Y-108040000D03*
X171390000Y-130890000D03*
X121870000Y-117890000D03*
X132440000Y-125630000D03*
X142650000Y-87530000D03*
X166400000Y-80600000D03*
X120800000Y-63700000D03*
X129500000Y-120110000D03*
X128400000Y-75700000D03*
X172280000Y-126670000D03*
X183190000Y-79170000D03*
X119880000Y-106050000D03*
X161400000Y-82400000D03*
X130110000Y-123800000D03*
X127570000Y-105850000D03*
X162700000Y-138900000D03*
X126300000Y-74500000D03*
X135770000Y-103730000D03*
X150700000Y-100900000D03*
X174070000Y-91060000D03*
X169300000Y-102600000D03*
X155890000Y-70990000D03*
X173700000Y-83490000D03*
X174250000Y-128560000D03*
X182410000Y-126770000D03*
X182450000Y-96810000D03*
X132950000Y-131550000D03*
X149300000Y-100900000D03*
X169090000Y-127130000D03*
X122700000Y-66700000D03*
X165000000Y-77900000D03*
X153090000Y-74080000D03*
X182980000Y-136870000D03*
X157460000Y-87390000D03*
X171530000Y-113990000D03*
X182630000Y-71820000D03*
X133960000Y-80470000D03*
X152470000Y-87410000D03*
X137200000Y-80300000D03*
X122900000Y-70300000D03*
X180970000Y-86240000D03*
X154690000Y-138810000D03*
X117900000Y-68600000D03*
X121660000Y-97130000D03*
X145000000Y-111950000D03*
X126390000Y-94810000D03*
X182670000Y-66150000D03*
X125200000Y-125660000D03*
X165200000Y-138900000D03*
X164700000Y-71190000D03*
X139950000Y-131950000D03*
X141030000Y-112350000D03*
X124290000Y-92640000D03*
X170600000Y-138800000D03*
X167800000Y-138800000D03*
X118100000Y-61860000D03*
X123300000Y-62070000D03*
X128400000Y-110600000D03*
X135750000Y-93250000D03*
X139520000Y-120830000D03*
X120420000Y-94470000D03*
X127100000Y-126310000D03*
X161300000Y-78400000D03*
X169210000Y-101130000D03*
X179010000Y-131890000D03*
X182810000Y-101460000D03*
X168200000Y-100100000D03*
X179900000Y-125500000D03*
X175220000Y-114030000D03*
X136640000Y-87140000D03*
X119210000Y-137850000D03*
X131490000Y-100800000D03*
X179660000Y-84190000D03*
X120440000Y-116460000D03*
X135500000Y-131900000D03*
X155000000Y-67940000D03*
X181440000Y-104330000D03*
X141750000Y-131250000D03*
X165950000Y-90250000D03*
X131510000Y-92440000D03*
X180300000Y-94550000D03*
X150700000Y-102200000D03*
X176050000Y-85500000D03*
X175860000Y-122080000D03*
X128020000Y-101930000D03*
X162200000Y-84900000D03*
X131500000Y-75630000D03*
X170300000Y-102600000D03*
X152500000Y-138900000D03*
X144070000Y-125270000D03*
X120200000Y-82800000D03*
X122700000Y-83210000D03*
X179260000Y-137120000D03*
X174540000Y-68650000D03*
X173000000Y-138700000D03*
X134490000Y-88750000D03*
X117800000Y-74100000D03*
X120800000Y-130600000D03*
X167950000Y-112880000D03*
X166460000Y-84060000D03*
X139390000Y-125670000D03*
X165925000Y-91575000D03*
X162540000Y-115960000D03*
X165180000Y-96975000D03*
X167160000Y-122910000D03*
X165212500Y-90950000D03*
X173780000Y-117970000D03*
X143150000Y-132450000D03*
X175050000Y-71320000D03*
X127700000Y-88800000D03*
X135300000Y-78060000D03*
X160450000Y-84550000D03*
X160000000Y-139000000D03*
X135250000Y-129150000D03*
X134390000Y-137850000D03*
X171340000Y-83540000D03*
X172100000Y-81090000D03*
X138500000Y-80490000D03*
X164550000Y-90250000D03*
X158180000Y-67940000D03*
X179800000Y-134250000D03*
X179420000Y-65240000D03*
X133800000Y-108850000D03*
X127010000Y-132060000D03*
X168590000Y-81690000D03*
X170220000Y-100010000D03*
X150000000Y-101500000D03*
X120870000Y-126240000D03*
X122680000Y-132800000D03*
X180590000Y-98880000D03*
X155450000Y-112240000D03*
X179260000Y-128350000D03*
X149910000Y-111840000D03*
%TO.N,+2V5*%
X140200000Y-96835000D03*
X134222000Y-102578000D03*
X162940000Y-100510000D03*
%TO.N,Net-(MUX1-A2)*%
X145250000Y-87500000D03*
X146500000Y-87500000D03*
X172600000Y-101907751D03*
X144000000Y-87500000D03*
%TO.N,Net-(MUX2-S2)*%
X155300000Y-100250000D03*
X158329473Y-100359473D03*
%TO.N,-2V5*%
X134540000Y-96835000D03*
X162800000Y-98100000D03*
%TO.N,Net-(MUX1-A1)*%
X150000000Y-87500000D03*
X151250000Y-87500000D03*
X172600000Y-100950000D03*
X148750000Y-87500000D03*
%TO.N,Net-(MUX2-S4)*%
X151332000Y-93250000D03*
X151270000Y-96190000D03*
%TO.N,+12V*%
X142700000Y-72100000D03*
X157350000Y-126000000D03*
X135800000Y-72100000D03*
X140000000Y-108000000D03*
X148300000Y-103200000D03*
X176950000Y-81540000D03*
X139255000Y-72100000D03*
X150345000Y-125950000D03*
X146200000Y-72100000D03*
X153790000Y-125940000D03*
X166900000Y-109400000D03*
X149655000Y-72100000D03*
X160790000Y-126050000D03*
%TO.N,Net-(MUX1-A3)*%
X140000000Y-87500000D03*
X172600000Y-103000000D03*
X138750000Y-87500000D03*
X141250000Y-87500000D03*
%TO.N,Net-(MUX1-A0)*%
X153750000Y-87500000D03*
X156250000Y-87500000D03*
X155000000Y-87500000D03*
X172599104Y-100076296D03*
%TO.N,Net-(MUX1-EN)*%
X160000000Y-87500000D03*
X158750000Y-87500000D03*
X172604761Y-99276314D03*
X161250000Y-87500000D03*
%TO.N,Net-(MUX2-A2)*%
X143750000Y-110000000D03*
X141250000Y-110000000D03*
X148300000Y-104200000D03*
X142500000Y-110000000D03*
%TO.N,Net-(MUX2-A1)*%
X149363284Y-104327391D03*
X147550000Y-110000000D03*
X148800000Y-110000000D03*
X146300000Y-110000000D03*
%TO.N,Net-(MUX2-A0)*%
X150623906Y-104322769D03*
X152550000Y-110000000D03*
X153800000Y-110000000D03*
X151300000Y-110000000D03*
%TO.N,Net-(MUX2-EN)*%
X151750000Y-104250000D03*
X158800000Y-110000000D03*
X157550000Y-110000000D03*
X156300000Y-110000000D03*
%TO.N,+1V65*%
X127500000Y-122500000D03*
X121250000Y-123750000D03*
%TO.N,Net-(MUX2-D)*%
X150175000Y-98300000D03*
X123850000Y-90000000D03*
X126250000Y-90000000D03*
X125050000Y-90000000D03*
%TO.N,-12V*%
X164700000Y-84800000D03*
X151650001Y-103200000D03*
X166623001Y-98633051D03*
X164700000Y-87419999D03*
X166300000Y-69900000D03*
X160000000Y-108000000D03*
%TO.N,DAC1*%
X161500000Y-76800000D03*
X134100000Y-75600000D03*
%TO.N,DAC2*%
X174000000Y-81900000D03*
%TO.N,Net-(OPA3-Pad3)*%
X138000000Y-98000000D03*
X146000000Y-106000000D03*
X161770000Y-100500000D03*
X158000000Y-90000000D03*
X165200000Y-102700000D03*
X150000000Y-106000000D03*
X150000000Y-90000000D03*
X161750000Y-102600000D03*
X138000000Y-94000000D03*
X138000000Y-102000000D03*
X144600000Y-96160000D03*
X146000000Y-90000000D03*
X162000000Y-90000000D03*
X155300000Y-96130000D03*
X138000000Y-90000000D03*
X142000000Y-90000000D03*
X146920000Y-99660000D03*
X138000000Y-106000000D03*
X161355475Y-98009901D03*
X154000000Y-90000000D03*
X162000000Y-94000000D03*
X154000000Y-106000000D03*
X142000000Y-106000000D03*
X152950000Y-99730000D03*
X165200000Y-106100000D03*
%TO.N,Net-(MUX2-S7)*%
X146225000Y-93250000D03*
X146240000Y-96150000D03*
%TO.N,Net-(MUX2-S1)*%
X158278472Y-102720474D03*
X155310000Y-102700000D03*
%TO.N,Net-(MUX2-S3)*%
X155320000Y-97700000D03*
X158250000Y-97700000D03*
%TO.N,Net-(MUX2-S8)*%
X148775000Y-93200000D03*
X148770000Y-96130000D03*
%TD*%
%TO.N,DAC1*%
D17*
X136010000Y-135000000D02*
X137700000Y-133310000D01*
X137700000Y-133310000D02*
X137700000Y-125100000D01*
X137700000Y-125100000D02*
X129500000Y-116900000D01*
X129500000Y-116900000D02*
X129500000Y-71600000D01*
X129500000Y-71600000D02*
X136000000Y-65100000D01*
X136000000Y-65100000D02*
X136000000Y-65000000D01*
%TO.N,+3V3*%
D18*
X155195000Y-138000000D02*
X157750000Y-138000000D01*
X152500000Y-64500000D02*
X152500000Y-66100000D01*
D19*
X171570000Y-135930000D02*
X170100000Y-137400000D01*
X171570000Y-135000000D02*
X171570000Y-135930000D01*
D18*
X157630000Y-132620000D02*
X159250000Y-131000000D01*
D20*
X136070000Y-67500000D02*
X132450000Y-71120000D01*
D18*
X149970000Y-137780000D02*
X149970000Y-132530000D01*
X149750000Y-138000000D02*
X149970000Y-137780000D01*
X152500000Y-66100000D02*
X151100000Y-67500000D01*
X152530000Y-137970000D02*
X152530000Y-131220000D01*
X155795000Y-137400000D02*
X155195000Y-138000000D01*
X157750000Y-138000000D02*
X155000000Y-138000000D01*
X160150000Y-132542412D02*
X160130000Y-132522412D01*
X171570000Y-64570000D02*
X170000000Y-63000000D01*
X151595000Y-130905000D02*
X152395000Y-130905000D01*
X149750000Y-138000000D02*
X148670000Y-138000000D01*
X147460000Y-136790000D02*
X147460000Y-131980000D01*
D20*
X132450000Y-116700000D02*
X145750000Y-130000000D01*
D18*
X155000000Y-138000000D02*
X155080000Y-137920000D01*
X155080000Y-131870000D02*
X156000000Y-130950000D01*
X154000000Y-63000000D02*
X152500000Y-64500000D01*
X155000000Y-138000000D02*
X152500000Y-138000000D01*
D20*
X132450000Y-71120000D02*
X132450000Y-116700000D01*
D18*
X160150000Y-137697588D02*
X160150000Y-132542412D01*
X152500000Y-138000000D02*
X149750000Y-138000000D01*
X170000000Y-63000000D02*
X154000000Y-63000000D01*
X159250000Y-131000000D02*
X159395000Y-131000000D01*
X157750000Y-138000000D02*
X157630000Y-137880000D01*
X155195000Y-138000000D02*
X154570000Y-137375000D01*
X155080000Y-137920000D02*
X155080000Y-131870000D01*
D19*
X170100000Y-137400000D02*
X155795000Y-137400000D01*
D18*
X147460000Y-131980000D02*
X147440000Y-131960000D01*
X160130000Y-137717588D02*
X160150000Y-137697588D01*
X148670000Y-138000000D02*
X147460000Y-136790000D01*
X152500000Y-138000000D02*
X152530000Y-137970000D01*
X157630000Y-137880000D02*
X157630000Y-132620000D01*
%TO.N,GND*%
D10*
X165180000Y-90982500D02*
X165212500Y-90950000D01*
D20*
X139170000Y-102200000D02*
X134730000Y-106640000D01*
X149300000Y-102200000D02*
X139170000Y-102200000D01*
X165180000Y-96975000D02*
X165180000Y-90982500D01*
%TO.N,+2V5*%
X162940000Y-100510000D02*
X163290000Y-100510000D01*
X162940000Y-100510000D02*
X161230000Y-98800000D01*
X153003186Y-98800000D02*
X151503186Y-97300000D01*
X163290000Y-100510000D02*
X170250000Y-93550000D01*
X161230000Y-98800000D02*
X153003186Y-98800000D01*
X137315000Y-96835000D02*
X134222000Y-99928000D01*
X170250000Y-93550000D02*
X170250000Y-66220000D01*
X151503186Y-97300000D02*
X140665000Y-97300000D01*
X140665000Y-97300000D02*
X140200000Y-96835000D01*
D10*
X169120000Y-65000000D02*
X169120000Y-64570000D01*
D20*
X134222000Y-99928000D02*
X134222000Y-102578000D01*
X140200000Y-96835000D02*
X137315000Y-96835000D01*
X170250000Y-66220000D02*
X169030000Y-65000000D01*
%TO.N,-2V5*%
X136575000Y-94800000D02*
X134540000Y-96835000D01*
X162800000Y-98100000D02*
X159500000Y-94800000D01*
X163380000Y-68110000D02*
X166490000Y-65000000D01*
X162800000Y-98100000D02*
X163380000Y-97520000D01*
X163380000Y-97520000D02*
X163380000Y-68110000D01*
X159500000Y-94800000D02*
X136575000Y-94800000D01*
%TO.N,+12V*%
X177000000Y-81590000D02*
X177000000Y-102300000D01*
X142400000Y-108000000D02*
X147200000Y-103200000D01*
X147200000Y-103200000D02*
X148300000Y-103200000D01*
X139380000Y-108620000D02*
X139380000Y-118000000D01*
X176950000Y-81540000D02*
X177000000Y-81590000D01*
X139380000Y-118000000D02*
X146580000Y-125200000D01*
D19*
X163950000Y-135000000D02*
X163950000Y-128350000D01*
D20*
X140000000Y-108000000D02*
X142400000Y-108000000D01*
X160790000Y-124910000D02*
X165200000Y-120500000D01*
X177000000Y-102300000D02*
X169900000Y-109400000D01*
X140000000Y-108000000D02*
X139380000Y-108620000D01*
X165200000Y-120500000D02*
X165200000Y-111100000D01*
X146580000Y-125200000D02*
X154630000Y-125200000D01*
X169900000Y-109400000D02*
X166900000Y-109400000D01*
D18*
X150900000Y-72250000D02*
X153550000Y-69600000D01*
D19*
X160800000Y-125200000D02*
X154630000Y-125200000D01*
D18*
X153550000Y-69600000D02*
X159350000Y-69600000D01*
X143625000Y-72250000D02*
X150900000Y-72250000D01*
D19*
X163950000Y-128350000D02*
X160800000Y-125200000D01*
D21*
X160790000Y-124910000D02*
X160790000Y-126050000D01*
D18*
X159350000Y-69600000D02*
X163950000Y-65000000D01*
D20*
X165200000Y-111100000D02*
X166900000Y-109400000D01*
%TO.N,+1V65*%
X121250000Y-123750000D02*
X126250000Y-123750000D01*
X126250000Y-123750000D02*
X127500000Y-122500000D01*
%TO.N,-12V*%
X164700000Y-80200000D02*
X166300000Y-78600000D01*
X166300000Y-78600000D02*
X166300000Y-69900000D01*
X166623001Y-98633051D02*
X166600000Y-98656052D01*
X166600000Y-105831371D02*
X164431371Y-108000000D01*
X164700000Y-87419999D02*
X164700000Y-80200000D01*
X166600000Y-98656052D02*
X166600000Y-105831371D01*
X152700000Y-103200000D02*
X151650001Y-103200000D01*
X157500000Y-108000000D02*
X152700000Y-103200000D01*
X164431371Y-108000000D02*
X160000000Y-108000000D01*
X160000000Y-108000000D02*
X157500000Y-108000000D01*
%TO.N,DAC1*%
X161500000Y-76800000D02*
X135300000Y-76800000D01*
X135300000Y-76800000D02*
X134100000Y-75600000D01*
D22*
X136000000Y-65000000D02*
X136010000Y-65000000D01*
%TO.N,DAC2*%
D23*
X175200000Y-61800000D02*
X136670000Y-61800000D01*
X136670000Y-61800000D02*
X133470000Y-65000000D01*
X176200000Y-62800000D02*
X175200000Y-61800000D01*
X176200000Y-79700000D02*
X176200000Y-62800000D01*
X174000000Y-81900000D02*
X176200000Y-79700000D01*
%TD*%
M02*
