ISO-10303-21;
HEADER;
FILE_DESCRIPTION (( 'STEP AP214' ),
    '1' );
FILE_NAME ('CRCW2010100RDHEFP.STEP',
    '2019-12-25T14:18:48',
    ( '' ),
    ( '' ),
    'SwSTEP 2.0',
    'SolidWorks 2018',
    '' );
FILE_SCHEMA (( 'AUTOMOTIVE_DESIGN' ));
ENDSEC;

DATA;
#1 = DIRECTION ( 'NONE',  ( -0.0000000000000000000, -0.0000000000000000000, -1.000000000000000000 ) ) ;
#2 = ORIENTED_EDGE ( 'NONE', *, *, #366, .F. ) ;
#3 = CARTESIAN_POINT ( 'NONE',  ( -2.464999999999999858, 0.03500000000000001027, -1.250000000000000222 ) ) ;
#4 = EDGE_CURVE ( 'NONE', #1186, #742, #738, .T. ) ;
#5 = FACE_OUTER_BOUND ( 'NONE', #186, .T. ) ;
#6 = CARTESIAN_POINT ( 'NONE',  ( 2.140000000000000568, 0.6649999999999993694, 1.249999999999999556 ) ) ;
#7 = AXIS2_PLACEMENT_3D ( 'NONE', #1013, #70, #1110 ) ;
#8 = ORIENTED_EDGE ( 'NONE', *, *, #1093, .T. ) ;
#9 = EDGE_CURVE ( 'NONE', #258, #319, #956, .T. ) ;
#10 = ORIENTED_EDGE ( 'NONE', *, *, #182, .F. ) ;
#11 = ADVANCED_FACE ( 'NONE', ( #546 ), #589, .F. ) ;
#12 = DIRECTION ( 'NONE',  ( -1.000000000000000000, 0.0000000000000000000, -0.0000000000000000000 ) ) ;
#13 = VERTEX_POINT ( 'NONE', #977 ) ;
#14 = VECTOR ( 'NONE', #800, 1000.000000000000000 ) ;
#15 = CARTESIAN_POINT ( 'NONE',  ( -1.899999999999999689, 0.7000000000000002887, 1.250000000000000000 ) ) ;
#16 = VERTEX_POINT ( 'NONE', #966 ) ;
#17 = ORIENTED_EDGE ( 'NONE', *, *, #636, .F. ) ;
#18 = CARTESIAN_POINT ( 'NONE',  ( -2.464999999999999858, 0.03500000000000001027, -6.220090542434814296 ) ) ;
#19 = PRESENTATION_STYLE_ASSIGNMENT (( #345 ) ) ;
#20 = FACE_OUTER_BOUND ( 'NONE', #619, .T. ) ;
#21 = VECTOR ( 'NONE', #203, 1000.000000000000000 ) ;
#22 = ADVANCED_FACE ( 'NONE', ( #52 ), #391, .F. ) ;
#23 = ORIENTED_EDGE ( 'NONE', *, *, #656, .F. ) ;
#24 = AXIS2_PLACEMENT_3D ( 'NONE', #467, #563, #828 ) ;
#25 = SURFACE_STYLE_FILL_AREA ( #94 ) ;
#26 = ORIENTED_EDGE ( 'NONE', *, *, #811, .T. ) ;
#27 = DIRECTION ( 'NONE',  ( 0.0000000000000000000, -0.0000000000000000000, -1.000000000000000000 ) ) ;
#28 = CARTESIAN_POINT ( 'NONE',  ( -2.499999999999999556, 0.6999999999999996225, 1.250000000000000000 ) ) ;
#29 = ORIENTED_EDGE ( 'NONE', *, *, #4, .F. ) ;
#30 = EDGE_CURVE ( 'NONE', #1105, #757, #190, .T. ) ;
#31 = ORIENTED_EDGE ( 'NONE', *, *, #269, .F. ) ;
#32 = ADVANCED_FACE ( 'NONE', ( #459 ), #410, .T. ) ;
#33 = CARTESIAN_POINT ( 'NONE',  ( 2.499999999999999556, -3.061616997868382155E-16, -1.250000000000000000 ) ) ;
#34 = LINE ( 'NONE', #1148, #864 ) ;
#35 = DIRECTION ( 'NONE',  ( -4.517509052022923637E-16, 4.452630116751077235E-32, -1.000000000000000000 ) ) ;
#36 = ORIENTED_EDGE ( 'NONE', *, *, #675, .T. ) ;
#37 = ORIENTED_EDGE ( 'NONE', *, *, #565, .T. ) ;
#38 = CARTESIAN_POINT ( 'NONE',  ( 1.899999999999999911, 0.6649999999999998135, 1.250000000000000000 ) ) ;
#39 = ORIENTED_EDGE ( 'NONE', *, *, #928, .T. ) ;
#40 = EDGE_LOOP ( 'NONE', ( #103, #1070, #770, #870 ) ) ;
#41 = LINE ( 'NONE', #998, #1171 ) ;
#42 = AXIS2_PLACEMENT_3D ( 'NONE', #291, #653, #101 ) ;
#43 = CARTESIAN_POINT ( 'NONE',  ( 2.140000000000000568, 0.6649999999999993694, -0.8333333333333331483 ) ) ;
#44 = EDGE_LOOP ( 'NONE', ( #1163, #549, #301, #1151, #218, #237, #119, #268 ) ) ;
#45 = STYLED_ITEM ( 'NONE', ( #448 ), #357 ) ;
#46 = ORIENTED_EDGE ( 'NONE', *, *, #98, .F. ) ;
#47 = DIRECTION ( 'NONE',  ( 1.000000000000000000, 0.0000000000000000000, 0.0000000000000000000 ) ) ;
#48 = EDGE_CURVE ( 'NONE', #343, #1160, #246, .T. ) ;
#49 = LINE ( 'NONE', #890, #790 ) ;
#50 = LINE ( 'NONE', #558, #1140 ) ;
#51 = EDGE_CURVE ( 'NONE', #707, #793, #222, .T. ) ;
#52 = FACE_OUTER_BOUND ( 'NONE', #1047, .T. ) ;
#53 = VERTEX_POINT ( 'NONE', #1172 ) ;
#54 = ORIENTED_EDGE ( 'NONE', *, *, #609, .T. ) ;
#55 = VERTEX_POINT ( 'NONE', #421 ) ;
#56 = DIRECTION ( 'NONE',  ( 0.0000000000000000000, 0.0000000000000000000, 1.000000000000000000 ) ) ;
#57 = LINE ( 'NONE', #553, #131 ) ;
#58 = DIRECTION ( 'NONE',  ( -1.000000000000000000, 0.0000000000000000000, 0.0000000000000000000 ) ) ;
#59 = PRESENTATION_LAYER_ASSIGNMENT (  '', '', ( #279 ) ) ;
#60 = CARTESIAN_POINT ( 'NONE',  ( 2.499999999999999556, 0.6999999999999996225, -1.250000000000000000 ) ) ;
#61 = DIRECTION ( 'NONE',  ( 1.199338686377770440E-16, -1.000000000000000000, 0.0000000000000000000 ) ) ;
#62 = CARTESIAN_POINT ( 'NONE',  ( -2.464999999999999858, 0.6649999999999997025, 1.250000000000000000 ) ) ;
#63 = SURFACE_SIDE_STYLE ('',( #1111 ) ) ;
#64 = LINE ( 'NONE', #1061, #818 ) ;
#65 = CARTESIAN_POINT ( 'NONE',  ( -2.139999999999999680, 0.7000000000000002887, -0.8333333333333328152 ) ) ;
#66 = EDGE_CURVE ( 'NONE', #1195, #779, #1051, .T. ) ;
#67 = ORIENTED_EDGE ( 'NONE', *, *, #161, .T. ) ;
#68 = DIRECTION ( 'NONE',  ( 1.000000000000000000, -0.0000000000000000000, -0.0000000000000000000 ) ) ;
#69 = ORIENTED_EDGE ( 'NONE', *, *, #403, .F. ) ;
#70 = DIRECTION ( 'NONE',  ( 0.0000000000000000000, 0.0000000000000000000, -1.000000000000000000 ) ) ;
#71 = ORIENTED_EDGE ( 'NONE', *, *, #182, .T. ) ;
#72 = LINE ( 'NONE', #241, #987 ) ;
#73 = CARTESIAN_POINT ( 'NONE',  ( -2.464999999999999858, 0.03500000000000001027, -1.250000000000000000 ) ) ;
#74 = AXIS2_PLACEMENT_3D ( 'NONE', #566, #1055, #12 ) ;
#75 = LINE ( 'NONE', #536, #651 ) ;
#76 = DIRECTION ( 'NONE',  ( 0.0000000000000000000, 1.000000000000000000, 0.0000000000000000000 ) ) ;
#77 = EDGE_CURVE ( 'NONE', #579, #16, #648, .T. ) ;
#78 = PLANE ( 'NONE',  #815 ) ;
#79 = DIRECTION ( 'NONE',  ( 1.000000000000000000, -9.856383386231857595E-17, 0.0000000000000000000 ) ) ;
#80 = CARTESIAN_POINT ( 'NONE',  ( -2.464999999999999858, 0.6649999999999997025, -1.250000000000000000 ) ) ;
#81 = ORIENTED_EDGE ( 'NONE', *, *, #551, .F. ) ;
#82 = DIRECTION ( 'NONE',  ( 1.040834085586084059E-15, 0.0000000000000000000, 1.000000000000000000 ) ) ;
#83 = VERTEX_POINT ( 'NONE', #988 ) ;
#84 = SURFACE_STYLE_FILL_AREA ( #230 ) ;
#85 = FACE_OUTER_BOUND ( 'NONE', #102, .T. ) ;
#86 = DIRECTION ( 'NONE',  ( 9.856383386231857595E-17, 1.000000000000000000, 0.0000000000000000000 ) ) ;
#87 = VECTOR ( 'NONE', #124, 1000.000000000000000 ) ;
#88 = CARTESIAN_POINT ( 'NONE',  ( -2.464999999999999858, 0.03500000000000001027, 1.250000000000000000 ) ) ;
#89 = ORIENTED_EDGE ( 'NONE', *, *, #117, .F. ) ;
#90 = CARTESIAN_POINT ( 'NONE',  ( -1.899999999999999911, 0.6649999999999998135, -0.8333333333333328152 ) ) ;
#91 =( LENGTH_UNIT ( ) NAMED_UNIT ( * ) SI_UNIT ( .MILLI., .METRE. ) );
#92 = DIRECTION ( 'NONE',  ( 0.0000000000000000000, -0.0000000000000000000, -1.000000000000000000 ) ) ;
#93 = UNCERTAINTY_MEASURE_WITH_UNIT (LENGTH_MEASURE( 1.000000000000000082E-05 ), #749, 'distance_accuracy_value', 'NONE');
#94 = FILL_AREA_STYLE ('',( #925 ) ) ;
#95 = DIRECTION ( 'NONE',  ( 9.856383386231857595E-17, 1.000000000000000000, -0.0000000000000000000 ) ) ;
#96 = DIRECTION ( 'NONE',  ( -1.000000000000000000, -1.807003620809175125E-16, -0.0000000000000000000 ) ) ;
#97 = LINE ( 'NONE', #851, #358 ) ;
#98 = EDGE_CURVE ( 'NONE', #934, #621, #156, .T. ) ;
#99 = ORIENTED_EDGE ( 'NONE', *, *, #260, .F. ) ;
#100 =( NAMED_UNIT ( * ) PLANE_ANGLE_UNIT ( ) SI_UNIT ( $, .RADIAN. ) );
#101 = DIRECTION ( 'NONE',  ( 1.000000000000000000, 0.0000000000000000000, 0.0000000000000000000 ) ) ;
#102 = EDGE_LOOP ( 'NONE', ( #873, #781, #511, #712, #1202, #23, #704, #1115 ) ) ;
#103 = ORIENTED_EDGE ( 'NONE', *, *, #736, .F. ) ;
#104 = VECTOR ( 'NONE', #614, 1000.000000000000000 ) ;
#105 = LINE ( 'NONE', #958, #309 ) ;
#106 = FACE_OUTER_BOUND ( 'NONE', #44, .T. ) ;
#107 = CARTESIAN_POINT ( 'NONE',  ( 2.140000000000000124, 0.6999999999999998446, -1.250000000000000000 ) ) ;
#108 =( NAMED_UNIT ( * ) PLANE_ANGLE_UNIT ( ) SI_UNIT ( $, .RADIAN. ) );
#109 = ADVANCED_FACE ( 'NONE', ( #294 ), #886, .F. ) ;
#110 = ORIENTED_EDGE ( 'NONE', *, *, #965, .F. ) ;
#111 = SURFACE_STYLE_FILL_AREA ( #843 ) ;
#112 = ORIENTED_EDGE ( 'NONE', *, *, #1016, .T. ) ;
#113 = ADVANCED_FACE ( 'NONE', ( #756 ), #1180, .F. ) ;
#114 = DIRECTION ( 'NONE',  ( 1.000000000000000000, -9.856383386231857595E-17, -1.040834085586083862E-15 ) ) ;
#115 = AXIS2_PLACEMENT_3D ( 'NONE', #18, #669, #954 ) ;
#116 = VERTEX_POINT ( 'NONE', #330 ) ;
#117 = EDGE_CURVE ( 'NONE', #690, #456, #362, .T. ) ;
#118 = DIRECTION ( 'NONE',  ( -1.000000000000000000, 0.0000000000000000000, 0.0000000000000000000 ) ) ;
#119 = ORIENTED_EDGE ( 'NONE', *, *, #30, .F. ) ;
#120 = EDGE_CURVE ( 'NONE', #742, #805, #1008, .T. ) ;
#121 = ADVANCED_FACE ( 'NONE', ( #897 ), #612, .F. ) ;
#122 = FACE_OUTER_BOUND ( 'NONE', #835, .T. ) ;
#123 = CARTESIAN_POINT ( 'NONE',  ( 2.464999999999999858, 0.03500000000000001027, -1.250000000000000000 ) ) ;
#124 = DIRECTION ( 'NONE',  ( -1.000000000000000000, 0.0000000000000000000, 0.0000000000000000000 ) ) ;
#125 = ORIENTED_EDGE ( 'NONE', *, *, #1034, .T. ) ;
#126 = PLANE ( 'NONE',  #74 ) ;
#127 = LINE ( 'NONE', #123, #1199 ) ;
#128 = ORIENTED_EDGE ( 'NONE', *, *, #1076, .T. ) ;
#129 = ORIENTED_EDGE ( 'NONE', *, *, #1060, .T. ) ;
#130 = ORIENTED_EDGE ( 'NONE', *, *, #638, .F. ) ;
#131 = VECTOR ( 'NONE', #838, 1000.000000000000000 ) ;
#132 = ORIENTED_EDGE ( 'NONE', *, *, #628, .T. ) ;
#133 = CARTESIAN_POINT ( 'NONE',  ( -2.464999999999999858, 0.6649999999999997025, -6.220090542434814296 ) ) ;
#134 = VECTOR ( 'NONE', #898, 1000.000000000000000 ) ;
#135 = EDGE_CURVE ( 'NONE', #690, #727, #491, .T. ) ;
#136 = DIRECTION ( 'NONE',  ( 0.0000000000000000000, -1.000000000000000000, -0.0000000000000000000 ) ) ;
#137 = EDGE_LOOP ( 'NONE', ( #143, #816, #166, #822 ) ) ;
#138 = EDGE_CURVE ( 'NONE', #454, #594, #580, .T. ) ;
#139 = LINE ( 'NONE', #1125, #630 ) ;
#140 = PLANE ( 'NONE',  #179 ) ;
#141 = CARTESIAN_POINT ( 'NONE',  ( -1.899999999999999911, 0.6649999999999998135, -1.250000000000000000 ) ) ;
#142 = LINE ( 'NONE', #649, #207 ) ;
#143 = ORIENTED_EDGE ( 'NONE', *, *, #992, .T. ) ;
#144 = CARTESIAN_POINT ( 'NONE',  ( -2.464999999999999858, 0.6649999999999997025, 1.250000000000000000 ) ) ;
#145 = PRESENTATION_STYLE_ASSIGNMENT (( #1102 ) ) ;
#146 = AXIS2_PLACEMENT_3D ( 'NONE', #931, #739, #368 ) ;
#147 = DIRECTION ( 'NONE',  ( 0.0000000000000000000, 0.0000000000000000000, 1.000000000000000000 ) ) ;
#148 = AXIS2_PLACEMENT_3D ( 'NONE', #332, #419, #1178 ) ;
#149 = ORIENTED_EDGE ( 'NONE', *, *, #596, .F. ) ;
#150 = CARTESIAN_POINT ( 'NONE',  ( 1.899999999999999689, 0.03500000000000007966, 1.250000000000000000 ) ) ;
#151 = LINE ( 'NONE', #1006, #1196 ) ;
#152 = CARTESIAN_POINT ( 'NONE',  ( -2.139999999999999680, 0.6649999999999998135, -0.8333333333333328152 ) ) ;
#153 = VECTOR ( 'NONE', #938, 1000.000000000000000 ) ;
#154 = CARTESIAN_POINT ( 'NONE',  ( 2.464999999999999858, 0.6649999999999997025, -1.250000000000000000 ) ) ;
#155 = VECTOR ( 'NONE', #783, 1000.000000000000000 ) ;
#156 = LINE ( 'NONE', #510, #616 ) ;
#157 = CARTESIAN_POINT ( 'NONE',  ( -1.899999999999999689, 0.0000000000000000000, 1.250000000000000000 ) ) ;
#158 = CARTESIAN_POINT ( 'NONE',  ( 1.899999999999999689, 0.0000000000000000000, 1.250000000000000000 ) ) ;
#159 = EDGE_LOOP ( 'NONE', ( #399, #1096, #436, #286 ) ) ;
#160 = DIRECTION ( 'NONE',  ( 1.000000000000000000, 0.0000000000000000000, 4.517509052022919693E-16 ) ) ;
#161 = EDGE_CURVE ( 'NONE', #240, #1195, #505, .T. ) ;
#162 = LINE ( 'NONE', #1002, #947 ) ;
#163 = CARTESIAN_POINT ( 'NONE',  ( 2.140000000000000568, 0.6649999999999993694, -0.8333333333333331483 ) ) ;
#164 = CARTESIAN_POINT ( 'NONE',  ( -1.899999999999999911, 0.6649999999999998135, -0.8333333333333328152 ) ) ;
#165 = DIRECTION ( 'NONE',  ( -0.0000000000000000000, -0.0000000000000000000, -1.000000000000000000 ) ) ;
#166 = ORIENTED_EDGE ( 'NONE', *, *, #231, .F. ) ;
#167 = SHAPE_DEFINITION_REPRESENTATION ( #1164, #702 ) ;
#168 = ORIENTED_EDGE ( 'NONE', *, *, #740, .T. ) ;
#169 = CARTESIAN_POINT ( 'NONE',  ( -1.899999999999999911, 0.6649999999999998135, -0.8333333333333328152 ) ) ;
#170 = DIRECTION ( 'NONE',  ( -5.102694996447304742E-16, 1.000000000000000000, 0.0000000000000000000 ) ) ;
#171 = VECTOR ( 'NONE', #918, 1000.000000000000000 ) ;
#172 = VECTOR ( 'NONE', #502, 1000.000000000000000 ) ;
#173 = LINE ( 'NONE', #90, #972 ) ;
#174 = CARTESIAN_POINT ( 'NONE',  ( -2.499999999999999556, -3.061616997868382155E-16, 1.250000000000000000 ) ) ;
#175 = ORIENTED_EDGE ( 'NONE', *, *, #403, .T. ) ;
#176 = CARTESIAN_POINT ( 'NONE',  ( 2.464999999999999858, 0.6649999999999997025, 1.250000000000000000 ) ) ;
#177 = ORIENTED_EDGE ( 'NONE', *, *, #185, .T. ) ;
#178 = VERTEX_POINT ( 'NONE', #150 ) ;
#179 = AXIS2_PLACEMENT_3D ( 'NONE', #133, #412, #694 ) ;
#180 = FACE_OUTER_BOUND ( 'NONE', #1211, .T. ) ;
#181 = CARTESIAN_POINT ( 'NONE',  ( 1.899999999999999467, 0.6649999999999993694, -0.8333333333333332593 ) ) ;
#182 = EDGE_CURVE ( 'NONE', #747, #454, #72, .T. ) ;
#183 = DIRECTION ( 'NONE',  ( 0.0000000000000000000, 1.000000000000000000, 0.0000000000000000000 ) ) ;
#184 = DIRECTION ( 'NONE',  ( 1.000000000000000000, -0.0000000000000000000, 0.0000000000000000000 ) ) ;
#185 = EDGE_CURVE ( 'NONE', #456, #405, #768, .T. ) ;
#186 = EDGE_LOOP ( 'NONE', ( #430, #696, #352, #314 ) ) ;
#187 = ORIENTED_EDGE ( 'NONE', *, *, #120, .T. ) ;
#188 = DIRECTION ( 'NONE',  ( 0.0000000000000000000, 0.0000000000000000000, -1.000000000000000000 ) ) ;
#189 = LINE ( 'NONE', #975, #678 ) ;
#190 = LINE ( 'NONE', #1063, #709 ) ;
#191 = CARTESIAN_POINT ( 'NONE',  ( -2.499999999999999556, 0.6999999999999996225, -1.250000000000000000 ) ) ;
#192 = VERTEX_POINT ( 'NONE', #333 ) ;
#193 = VERTEX_POINT ( 'NONE', #980 ) ;
#194 = EDGE_LOOP ( 'NONE', ( #631, #274, #567, #322, #1037, #1005, #384, #853 ) ) ;
#195 = ORIENTED_EDGE ( 'NONE', *, *, #1213, .F. ) ;
#196 = FACE_OUTER_BOUND ( 'NONE', #868, .T. ) ;
#197 = DIRECTION ( 'NONE',  ( 0.0000000000000000000, -1.000000000000000000, 0.0000000000000000000 ) ) ;
#198 = AXIS2_PLACEMENT_3D ( 'NONE', #1218, #197, #92 ) ;
#199 = DIRECTION ( 'NONE',  ( -0.0000000000000000000, 0.0000000000000000000, 1.000000000000000000 ) ) ;
#200 = FACE_OUTER_BOUND ( 'NONE', #769, .T. ) ;
#201 = VERTEX_POINT ( 'NONE', #414 ) ;
#202 = ADVANCED_FACE ( 'NONE', ( #5 ), #1190, .T. ) ;
#203 = DIRECTION ( 'NONE',  ( 1.000000000000000000, -1.199338686377770440E-16, 0.0000000000000000000 ) ) ;
#204 = APPLICATION_PROTOCOL_DEFINITION ( 'draft international standard', 'automotive_design', 1998, #475 ) ;
#205 =( GEOMETRIC_REPRESENTATION_CONTEXT ( 3 ) GLOBAL_UNCERTAINTY_ASSIGNED_CONTEXT ( ( #955 ) ) GLOBAL_UNIT_ASSIGNED_CONTEXT ( ( #748, #100, #1031 ) ) REPRESENTATION_CONTEXT ( 'NONE', 'WORKASPACE' ) );
#206 = FACE_OUTER_BOUND ( 'NONE', #524, .T. ) ;
#207 = VECTOR ( 'NONE', #1043, 1000.000000000000000 ) ;
#208 = EDGE_CURVE ( 'NONE', #780, #240, #661, .T. ) ;
#209 = EDGE_LOOP ( 'NONE', ( #1003, #535, #667, #825 ) ) ;
#210 = ADVANCED_FACE ( 'NONE', ( #936 ), #1079, .F. ) ;
#211 = VECTOR ( 'NONE', #347, 1000.000000000000000 ) ;
#212 = CARTESIAN_POINT ( 'NONE',  ( -1.899999999999999689, 0.7000000000000002887, 0.8333333333333332593 ) ) ;
#213 = ADVANCED_FACE ( 'NONE', ( #985 ), #78, .F. ) ;
#214 =( GEOMETRIC_REPRESENTATION_CONTEXT ( 3 ) GLOBAL_UNCERTAINTY_ASSIGNED_CONTEXT ( ( #443 ) ) GLOBAL_UNIT_ASSIGNED_CONTEXT ( ( #91, #108, #377 ) ) REPRESENTATION_CONTEXT ( 'NONE', 'WORKASPACE' ) );
#215 = DIRECTION ( 'NONE',  ( 9.856383386231857595E-17, 1.000000000000000000, -0.0000000000000000000 ) ) ;
#216 = ORIENTED_EDGE ( 'NONE', *, *, #488, .F. ) ;
#217 = VECTOR ( 'NONE', #457, 1000.000000000000000 ) ;
#218 = ORIENTED_EDGE ( 'NONE', *, *, #381, .F. ) ;
#219 = LINE ( 'NONE', #273, #586 ) ;
#220 = CARTESIAN_POINT ( 'NONE',  ( 2.499999999999999556, 0.6999999999999996225, -1.250000000000000000 ) ) ;
#221 = AXIS2_PLACEMENT_3D ( 'NONE', #255, #351, #1100 ) ;
#222 = LINE ( 'NONE', #971, #395 ) ;
#223 = VECTOR ( 'NONE', #833, 1000.000000000000000 ) ;
#224 = MANIFOLD_SOLID_BREP ( 'Cut-Extrude1[2]', #555 ) ;
#225 = DIRECTION ( 'NONE',  ( 0.0000000000000000000, 0.0000000000000000000, -1.000000000000000000 ) ) ;
#226 = ORIENTED_EDGE ( 'NONE', *, *, #881, .F. ) ;
#227 = EDGE_CURVE ( 'NONE', #405, #915, #151, .T. ) ;
#228 = VERTEX_POINT ( 'NONE', #802 ) ;
#229 = LINE ( 'NONE', #1206, #668 ) ;
#230 = FILL_AREA_STYLE ('',( #238 ) ) ;
#231 = EDGE_CURVE ( 'NONE', #1124, #941, #935, .T. ) ;
#232 = DIRECTION ( 'NONE',  ( -1.000000000000000000, -1.807003620809175125E-16, -0.0000000000000000000 ) ) ;
#233 = EDGE_LOOP ( 'NONE', ( #861, #449, #195, #1220 ) ) ;
#234 = CARTESIAN_POINT ( 'NONE',  ( -2.464999999999999858, 0.6649999999999997025, 1.250000000000000000 ) ) ;
#235 = VECTOR ( 'NONE', #867, 1000.000000000000000 ) ;
#236 = ORIENTED_EDGE ( 'NONE', *, *, #416, .F. ) ;
#237 = ORIENTED_EDGE ( 'NONE', *, *, #307, .F. ) ;
#238 = FILL_AREA_STYLE_COLOUR ( '', #289 ) ;
#239 = VECTOR ( 'NONE', #629, 1000.000000000000000 ) ;
#240 = VERTEX_POINT ( 'NONE', #901 ) ;
#241 = CARTESIAN_POINT ( 'NONE',  ( 2.464999999999999858, 0.6649999999999997025, -1.250000000000000000 ) ) ;
#242 = EDGE_CURVE ( 'NONE', #1138, #53, #1109, .T. ) ;
#243 = EDGE_LOOP ( 'NONE', ( #67, #527, #623, #981 ) ) ;
#244 = CARTESIAN_POINT ( 'NONE',  ( 1.899999999999999911, 0.6999999999999998446, 1.250000000000000000 ) ) ;
#245 = VECTOR ( 'NONE', #349, 1000.000000000000000 ) ;
#246 = LINE ( 'NONE', #234, #1129 ) ;
#247 = VECTOR ( 'NONE', #290, 1000.000000000000000 ) ;
#248 = PLANE ( 'NONE',  #945 ) ;
#249 = DIRECTION ( 'NONE',  ( -1.000000000000000000, 0.0000000000000000000, 0.0000000000000000000 ) ) ;
#250 = VERTEX_POINT ( 'NONE', #627 ) ;
#251 = ORIENTED_EDGE ( 'NONE', *, *, #973, .T. ) ;
#252 = DIRECTION ( 'NONE',  ( 0.0000000000000000000, 0.0000000000000000000, -1.000000000000000000 ) ) ;
#253 = VECTOR ( 'NONE', #1014, 1000.000000000000000 ) ;
#254 = DIRECTION ( 'NONE',  ( 1.000000000000000000, 5.102694996447304742E-16, -0.0000000000000000000 ) ) ;
#255 = CARTESIAN_POINT ( 'NONE',  ( 0.0000000000000000000, 0.0000000000000000000, 1.250000000000000000 ) ) ;
#256 = DIRECTION ( 'NONE',  ( 1.000000000000000000, 0.0000000000000000000, -0.0000000000000000000 ) ) ;
#257 = DIRECTION ( 'NONE',  ( 0.0000000000000000000, -0.0000000000000000000, -1.000000000000000000 ) ) ;
#258 = VERTEX_POINT ( 'NONE', #176 ) ;
#259 = AXIS2_PLACEMENT_3D ( 'NONE', #88, #469, #1212 ) ;
#260 = EDGE_CURVE ( 'NONE', #913, #780, #355, .T. ) ;
#261 = CARTESIAN_POINT ( 'NONE',  ( 1.899999999999999689, 0.0000000000000000000, 1.250000000000000000 ) ) ;
#262 = CARTESIAN_POINT ( 'NONE',  ( 2.140000000000000568, 0.6649999999999997025, 1.250000000000000000 ) ) ;
#263 = CARTESIAN_POINT ( 'NONE',  ( -1.899999999999999911, 0.6649999999999997025, 1.250000000000000000 ) ) ;
#264 = STYLED_ITEM ( 'NONE', ( #341 ), #625 ) ;
#265 = ORIENTED_EDGE ( 'NONE', *, *, #948, .T. ) ;
#266 = CARTESIAN_POINT ( 'NONE',  ( 1.899999999999999689, 0.6649999999999993694, 0.8333333333333328152 ) ) ;
#267 = LINE ( 'NONE', #744, #477 ) ;
#268 = ORIENTED_EDGE ( 'NONE', *, *, #1103, .F. ) ;
#269 = EDGE_CURVE ( 'NONE', #1160, #83, #219, .T. ) ;
#270 = PLANE ( 'NONE',  #1142 ) ;
#271 = VECTOR ( 'NONE', #730, 1000.000000000000000 ) ;
#272 = DIRECTION ( 'NONE',  ( 0.0000000000000000000, 1.000000000000000000, 0.0000000000000000000 ) ) ;
#273 = CARTESIAN_POINT ( 'NONE',  ( -2.464999999999999858, 0.03500000000000001027, 1.250000000000000000 ) ) ;
#274 = ORIENTED_EDGE ( 'NONE', *, *, #866, .F. ) ;
#275 = CARTESIAN_POINT ( 'NONE',  ( 2.499999999999999556, -3.061616997868382155E-16, 1.250000000000000000 ) ) ;
#276 = ORIENTED_EDGE ( 'NONE', *, *, #596, .T. ) ;
#277 =( NAMED_UNIT ( * ) PLANE_ANGLE_UNIT ( ) SI_UNIT ( $, .RADIAN. ) );
#278 = DIRECTION ( 'NONE',  ( -1.000000000000000000, 0.0000000000000000000, 0.0000000000000000000 ) ) ;
#279 = STYLED_ITEM ( 'NONE', ( #455 ), #702 ) ;
#280 = ORIENTED_EDGE ( 'NONE', *, *, #30, .T. ) ;
#281 = DIRECTION ( 'NONE',  ( 1.141265444721583757E-16, 1.000000000000000000, -9.898899796398211746E-33 ) ) ;
#282 = PRESENTATION_LAYER_ASSIGNMENT (  '', '', ( #878 ) ) ;
#283 = CARTESIAN_POINT ( 'NONE',  ( 1.899999999999999689, 0.03500000000000007966, 1.250000000000000000 ) ) ;
#284 = DIRECTION ( 'NONE',  ( 0.0000000000000000000, -1.000000000000000000, -0.0000000000000000000 ) ) ;
#285 = EDGE_CURVE ( 'NONE', #727, #53, #1179, .T. ) ;
#286 = ORIENTED_EDGE ( 'NONE', *, *, #260, .T. ) ;
#287 = PLANE ( 'NONE',  #752 ) ;
#288 = EDGE_CURVE ( 'NONE', #337, #250, #891, .T. ) ;
#289 = COLOUR_RGB ( '',0.2509803921568627416, 0.2509803921568627416, 0.2509803921568627416 ) ;
#290 = DIRECTION ( 'NONE',  ( 0.0000000000000000000, 0.0000000000000000000, 1.000000000000000000 ) ) ;
#291 = CARTESIAN_POINT ( 'NONE',  ( 0.0000000000000000000, 0.0000000000000000000, 0.0000000000000000000 ) ) ;
#292 = ORIENTED_EDGE ( 'NONE', *, *, #884, .T. ) ;
#293 = ORIENTED_EDGE ( 'NONE', *, *, #338, .T. ) ;
#294 = FACE_OUTER_BOUND ( 'NONE', #876, .T. ) ;
#295 = DIRECTION ( 'NONE',  ( -1.000000000000000000, 1.141265444721583757E-16, -0.0000000000000000000 ) ) ;
#296 = ORIENTED_EDGE ( 'NONE', *, *, #573, .F. ) ;
#297 = SURFACE_SIDE_STYLE ('',( #111 ) ) ;
#298 = FACE_OUTER_BOUND ( 'NONE', #209, .T. ) ;
#299 = ADVANCED_FACE ( 'NONE', ( #691 ), #270, .T. ) ;
#300 = CARTESIAN_POINT ( 'NONE',  ( 2.140000000000000124, 0.6649999999999993694, -1.250000000000000000 ) ) ;
#301 = ORIENTED_EDGE ( 'NONE', *, *, #9, .F. ) ;
#302 = EDGE_LOOP ( 'NONE', ( #1131, #129, #671, #31 ) ) ;
#303 = CARTESIAN_POINT ( 'NONE',  ( -1.900000000000000133, -3.883626166217664100, 1.250000000000000000 ) ) ;
#304 = ADVANCED_FACE ( 'NONE', ( #848 ), #350, .F. ) ;
#305 = VECTOR ( 'NONE', #160, 1000.000000000000000 ) ;
#306 = AXIS2_PLACEMENT_3D ( 'NONE', #689, #406, #499 ) ;
#307 = EDGE_CURVE ( 'NONE', #757, #178, #685, .T. ) ;
#308 = DIRECTION ( 'NONE',  ( 0.0000000000000000000, 0.0000000000000000000, 1.000000000000000000 ) ) ;
#309 = VECTOR ( 'NONE', #760, 1000.000000000000000 ) ;
#310 = ADVANCED_FACE ( 'NONE', ( #788 ), #359, .T. ) ;
#311 = DIRECTION ( 'NONE',  ( -0.0000000000000000000, 1.000000000000000000, -0.0000000000000000000 ) ) ;
#312 = DIRECTION ( 'NONE',  ( 1.000000000000000000, -1.807003620809175125E-16, -0.0000000000000000000 ) ) ;
#313 = PLANE ( 'NONE',  #335 ) ;
#314 = ORIENTED_EDGE ( 'NONE', *, *, #344, .F. ) ;
#315 = CARTESIAN_POINT ( 'NONE',  ( -1.899999999999999689, 0.03500000000000007966, -1.250000000000000000 ) ) ;
#316 = DIRECTION ( 'NONE',  ( 1.000000000000000000, 0.0000000000000000000, -0.0000000000000000000 ) ) ;
#317 = FACE_OUTER_BOUND ( 'NONE', #562, .T. ) ;
#318 = CARTESIAN_POINT ( 'NONE',  ( 1.899999999999999689, 0.6649999999999993694, 0.8333333333333328152 ) ) ;
#319 = VERTEX_POINT ( 'NONE', #262 ) ;
#320 = EDGE_LOOP ( 'NONE', ( #483, #327, #473, #251 ) ) ;
#321 = EDGE_CURVE ( 'NONE', #16, #1195, #1028, .T. ) ;
#322 = ORIENTED_EDGE ( 'NONE', *, *, #693, .F. ) ;
#323 =( GEOMETRIC_REPRESENTATION_CONTEXT ( 3 ) GLOBAL_UNCERTAINTY_ASSIGNED_CONTEXT ( ( #1177 ) ) GLOBAL_UNIT_ASSIGNED_CONTEXT ( ( #408, #701, #587 ) ) REPRESENTATION_CONTEXT ( 'NONE', 'WORKASPACE' ) );
#324 = AXIS2_PLACEMENT_3D ( 'NONE', #1089, #58, #513 ) ;
#325 = ORIENTED_EDGE ( 'NONE', *, *, #1077, .T. ) ;
#326 = VECTOR ( 'NONE', #284, 1000.000000000000000 ) ;
#327 = ORIENTED_EDGE ( 'NONE', *, *, #610, .F. ) ;
#328 = DIRECTION ( 'NONE',  ( -8.673617379884035472E-17, 0.0000000000000000000, -1.000000000000000000 ) ) ;
#329 = LINE ( 'NONE', #554, #392 ) ;
#330 = CARTESIAN_POINT ( 'NONE',  ( 2.464999999999999858, 0.03500000000000001027, 1.250000000000000000 ) ) ;
#331 = ORIENTED_EDGE ( 'NONE', *, *, #1145, .T. ) ;
#332 = CARTESIAN_POINT ( 'NONE',  ( 0.0000000000000000000, 0.0000000000000000000, 1.250000000000000000 ) ) ;
#333 = CARTESIAN_POINT ( 'NONE',  ( -2.140000000000000124, 0.6649999999999997025, -1.250000000000000000 ) ) ;
#334 = CARTESIAN_POINT ( 'NONE',  ( 2.140000000000000568, 0.6649999999999993694, 0.8333333333333327042 ) ) ;
#335 = AXIS2_PLACEMENT_3D ( 'NONE', #858, #494, #396 ) ;
#336 = CARTESIAN_POINT ( 'NONE',  ( 2.464999999999999858, 0.03500000000000001027, -6.220090542434814296 ) ) ;
#337 = VERTEX_POINT ( 'NONE', #1216 ) ;
#338 = EDGE_CURVE ( 'NONE', #915, #600, #57, .T. ) ;
#339 = CARTESIAN_POINT ( 'NONE',  ( -1.899999999999999689, 0.03500000000000007966, -1.250000000000000000 ) ) ;
#340 = LINE ( 'NONE', #303, #677 ) ;
#341 = PRESENTATION_STYLE_ASSIGNMENT (( #415 ) ) ;
#342 = ORIENTED_EDGE ( 'NONE', *, *, #471, .T. ) ;
#343 = VERTEX_POINT ( 'NONE', #372 ) ;
#344 = EDGE_CURVE ( 'NONE', #116, #343, #267, .T. ) ;
#345 = SURFACE_STYLE_USAGE ( .BOTH. , #63 ) ;
#346 = ORIENTED_EDGE ( 'NONE', *, *, #338, .F. ) ;
#347 = DIRECTION ( 'NONE',  ( 0.0000000000000000000, -0.0000000000000000000, -1.000000000000000000 ) ) ;
#348 = FACE_OUTER_BOUND ( 'NONE', #548, .T. ) ;
#349 = DIRECTION ( 'NONE',  ( -0.0000000000000000000, -1.000000000000000000, -0.0000000000000000000 ) ) ;
#350 = PLANE ( 'NONE',  #7 ) ;
#351 = DIRECTION ( 'NONE',  ( 0.0000000000000000000, 0.0000000000000000000, -1.000000000000000000 ) ) ;
#352 = ORIENTED_EDGE ( 'NONE', *, *, #736, .T. ) ;
#353 = FILL_AREA_STYLE_COLOUR ( '', #969 ) ;
#354 = ORIENTED_EDGE ( 'NONE', *, *, #1093, .F. ) ;
#355 = LINE ( 'NONE', #817, #390 ) ;
#356 = DIRECTION ( 'NONE',  ( 0.0000000000000000000, -0.0000000000000000000, -1.000000000000000000 ) ) ;
#357 = MANIFOLD_SOLID_BREP ( 'Cut-Extrude1[1]', #999 ) ;
#358 = VECTOR ( 'NONE', #487, 1000.000000000000000 ) ;
#359 = PLANE ( 'NONE',  #529 ) ;
#360 = DIRECTION ( 'NONE',  ( 0.0000000000000000000, -1.000000000000000000, 0.0000000000000000000 ) ) ;
#361 = DIRECTION ( 'NONE',  ( 1.000000000000000000, 0.0000000000000000000, 4.517509052022919693E-16 ) ) ;
#362 = LINE ( 'NONE', #1176, #429 ) ;
#363 = CARTESIAN_POINT ( 'NONE',  ( 1.899999999999999911, 0.6649999999999997025, 1.250000000000000000 ) ) ;
#364 = LINE ( 'NONE', #830, #885 ) ;
#365 = DIRECTION ( 'NONE',  ( 0.0000000000000000000, -0.0000000000000000000, -1.000000000000000000 ) ) ;
#366 = EDGE_CURVE ( 'NONE', #489, #83, #514, .T. ) ;
#367 = DIRECTION ( 'NONE',  ( 9.856383386231857595E-17, 1.000000000000000000, -0.0000000000000000000 ) ) ;
#368 = DIRECTION ( 'NONE',  ( 0.0000000000000000000, 0.0000000000000000000, 1.000000000000000000 ) ) ;
#369 = ORIENTED_EDGE ( 'NONE', *, *, #227, .F. ) ;
#370 = FACE_OUTER_BOUND ( 'NONE', #427, .T. ) ;
#371 = ORIENTED_EDGE ( 'NONE', *, *, #859, .F. ) ;
#372 = CARTESIAN_POINT ( 'NONE',  ( 2.464999999999999858, 0.6649999999999997025, 1.250000000000000000 ) ) ;
#373 = VERTEX_POINT ( 'NONE', #644 ) ;
#374 = ORIENTED_EDGE ( 'NONE', *, *, #700, .T. ) ;
#375 = FACE_OUTER_BOUND ( 'NONE', #765, .T. ) ;
#376 = AXIS2_PLACEMENT_3D ( 'NONE', #550, #188, #827 ) ;
#377 =( NAMED_UNIT ( * ) SI_UNIT ( $, .STERADIAN. ) SOLID_ANGLE_UNIT ( ) );
#378 = EDGE_CURVE ( 'NONE', #978, #805, #460, .T. ) ;
#379 = ORIENTED_EDGE ( 'NONE', *, *, #242, .F. ) ;
#380 = ORIENTED_EDGE ( 'NONE', *, *, #1103, .T. ) ;
#381 = EDGE_CURVE ( 'NONE', #178, #193, #422, .T. ) ;
#382 = VECTOR ( 'NONE', #423, 1000.000000000000000 ) ;
#383 = FACE_OUTER_BOUND ( 'NONE', #604, .T. ) ;
#384 = ORIENTED_EDGE ( 'NONE', *, *, #208, .F. ) ;
#385 = ADVANCED_FACE ( 'NONE', ( #370 ), #464, .T. ) ;
#386 = ORIENTED_EDGE ( 'NONE', *, *, #321, .T. ) ;
#387 = VECTOR ( 'NONE', #361, 1000.000000000000000 ) ;
#388 = DIRECTION ( 'NONE',  ( 1.000000000000000000, -1.807003620809175125E-16, -0.0000000000000000000 ) ) ;
#389 = ORIENTED_EDGE ( 'NONE', *, *, #378, .T. ) ;
#390 = VECTOR ( 'NONE', #165, 1000.000000000000000 ) ;
#391 = PLANE ( 'NONE',  #306 ) ;
#392 = VECTOR ( 'NONE', #1, 1000.000000000000000 ) ;
#393 = FACE_OUTER_BOUND ( 'NONE', #711, .T. ) ;
#394 = ADVANCED_FACE ( 'NONE', ( #383 ), #737, .F. ) ;
#395 = VECTOR ( 'NONE', #312, 1000.000000000000000 ) ;
#396 = DIRECTION ( 'NONE',  ( -1.000000000000000000, 1.807003620809175371E-16, 0.0000000000000000000 ) ) ;
#397 = EDGE_CURVE ( 'NONE', #618, #201, #329, .T. ) ;
#398 = CARTESIAN_POINT ( 'NONE',  ( -2.464999999999999858, 0.03500000000000001027, 1.250000000000000000 ) ) ;
#399 = ORIENTED_EDGE ( 'NONE', *, *, #208, .T. ) ;
#400 = DIRECTION ( 'NONE',  ( 0.0000000000000000000, -0.0000000000000000000, -1.000000000000000000 ) ) ;
#401 = AXIS2_PLACEMENT_3D ( 'NONE', #1150, #118, #225 ) ;
#402 = LINE ( 'NONE', #810, #597 ) ;
#403 = EDGE_CURVE ( 'NONE', #1186, #978, #142, .T. ) ;
#404 = CARTESIAN_POINT ( 'NONE',  ( -2.139999999999999680, 0.6649999999999998135, 1.250000000000000000 ) ) ;
#405 = VERTEX_POINT ( 'NONE', #1133 ) ;
#406 = DIRECTION ( 'NONE',  ( 0.0000000000000000000, 1.000000000000000000, 0.0000000000000000000 ) ) ;
#407 = ORIENTED_EDGE ( 'NONE', *, *, #135, .F. ) ;
#408 =( LENGTH_UNIT ( ) NAMED_UNIT ( * ) SI_UNIT ( .MILLI., .METRE. ) );
#409 = VECTOR ( 'NONE', #1183, 1000.000000000000000 ) ;
#410 = PLANE ( 'NONE',  #698 ) ;
#411 = EDGE_LOOP ( 'NONE', ( #1065, #128, #829, #1219 ) ) ;
#412 = DIRECTION ( 'NONE',  ( 0.0000000000000000000, 1.000000000000000000, 0.0000000000000000000 ) ) ;
#413 = EDGE_LOOP ( 'NONE', ( #2, #506, #724, #927 ) ) ;
#414 = CARTESIAN_POINT ( 'NONE',  ( -1.899999999999999911, 0.7000000000000002887, -0.8333333333333328152 ) ) ;
#415 = SURFACE_STYLE_USAGE ( .BOTH. , #1156 ) ;
#416 = EDGE_CURVE ( 'NONE', #896, #201, #173, .T. ) ;
#417 = ORIENTED_EDGE ( 'NONE', *, *, #573, .T. ) ;
#418 = EDGE_CURVE ( 'NONE', #319, #707, #50, .T. ) ;
#419 = DIRECTION ( 'NONE',  ( 0.0000000000000000000, 0.0000000000000000000, -1.000000000000000000 ) ) ;
#420 = EDGE_LOOP ( 'NONE', ( #1204, #880, #149, #1223 ) ) ;
#421 = CARTESIAN_POINT ( 'NONE',  ( -1.899999999999999689, 0.03500000000000007966, 1.250000000000000000 ) ) ;
#422 = LINE ( 'NONE', #283, #21 ) ;
#423 = DIRECTION ( 'NONE',  ( 1.000000000000000000, -1.199338686377770440E-16, 0.0000000000000000000 ) ) ;
#424 = LINE ( 'NONE', #772, #1181 ) ;
#425 = DIRECTION ( 'NONE',  ( 9.856383386231857595E-17, 1.000000000000000000, 0.0000000000000000000 ) ) ;
#426 = DIRECTION ( 'NONE',  ( 9.856383386231857595E-17, 1.000000000000000000, 0.0000000000000000000 ) ) ;
#427 = EDGE_LOOP ( 'NONE', ( #89, #943, #771, #216 ) ) ;
#428 = DIRECTION ( 'NONE',  ( 1.000000000000000000, -5.102694996447304742E-16, 0.0000000000000000000 ) ) ;
#429 = VECTOR ( 'NONE', #799, 1000.000000000000000 ) ;
#430 = ORIENTED_EDGE ( 'NONE', *, *, #755, .F. ) ;
#431 = LINE ( 'NONE', #993, #1042 ) ;
#432 = DIRECTION ( 'NONE',  ( 0.0000000000000000000, 0.0000000000000000000, -1.000000000000000000 ) ) ;
#433 = PRODUCT_DEFINITION ( 'UNKNOWN', '', #809, #532 ) ;
#434 = EDGE_LOOP ( 'NONE', ( #504, #725, #484, #407 ) ) ;
#435 = CARTESIAN_POINT ( 'NONE',  ( 2.140000000000000568, 0.6649999999999993694, 1.249999999999999556 ) ) ;
#436 = ORIENTED_EDGE ( 'NONE', *, *, #740, .F. ) ;
#437 = EDGE_CURVE ( 'NONE', #319, #824, #939, .T. ) ;
#438 = PLANE ( 'NONE',  #148 ) ;
#439 = CARTESIAN_POINT ( 'NONE',  ( 1.899999999999999467, -3.883626166217664100, -1.250000000000000000 ) ) ;
#440 = LINE ( 'NONE', #33, #1074 ) ;
#441 = VECTOR ( 'NONE', #930, 1000.000000000000000 ) ;
#442 = PLANE ( 'NONE',  #221 ) ;
#443 = UNCERTAINTY_MEASURE_WITH_UNIT (LENGTH_MEASURE( 1.000000000000000082E-05 ), #91, 'distance_accuracy_value', 'NONE');
#444 = DIRECTION ( 'NONE',  ( 9.856383386231857595E-17, 1.000000000000000000, -0.0000000000000000000 ) ) ;
#445 = EDGE_CURVE ( 'NONE', #665, #594, #664, .T. ) ;
#446 = CARTESIAN_POINT ( 'NONE',  ( 1.899999999999999911, 0.6999999999999998446, -1.250000000000000000 ) ) ;
#447 = ORIENTED_EDGE ( 'NONE', *, *, #1056, .F. ) ;
#448 = PRESENTATION_STYLE_ASSIGNMENT (( #476 ) ) ;
#449 = ORIENTED_EDGE ( 'NONE', *, *, #138, .F. ) ;
#450 = LINE ( 'NONE', #1197, #211 ) ;
#451 = CARTESIAN_POINT ( 'NONE',  ( -2.499999999999999556, 0.6999999999999996225, 1.250000000000000000 ) ) ;
#452 = CARTESIAN_POINT ( 'NONE',  ( -2.464999999999999858, 0.03500000000000001027, -1.250000000000000222 ) ) ;
#453 = CARTESIAN_POINT ( 'NONE',  ( 2.464999999999999858, 0.03500000000000001027, -1.250000000000000222 ) ) ;
#454 = VERTEX_POINT ( 'NONE', #474 ) ;
#455 = PRESENTATION_STYLE_ASSIGNMENT (( #1038 ) ) ;
#456 = VERTEX_POINT ( 'NONE', #753 ) ;
#457 = DIRECTION ( 'NONE',  ( 9.856383386231857595E-17, 1.000000000000000000, -0.0000000000000000000 ) ) ;
#458 = CARTESIAN_POINT ( 'NONE',  ( 1.899999999999999911, 0.6649999999999998135, -1.250000000000000000 ) ) ;
#459 = FACE_OUTER_BOUND ( 'NONE', #40, .T. ) ;
#460 = LINE ( 'NONE', #932, #223 ) ;
#461 = CARTESIAN_POINT ( 'NONE',  ( 1.899999999999999689, 0.03500000000000007966, -1.250000000000000000 ) ) ;
#462 = ORIENTED_EDGE ( 'NONE', *, *, #700, .F. ) ;
#463 = ORIENTED_EDGE ( 'NONE', *, *, #764, .T. ) ;
#464 = PLANE ( 'NONE',  #593 ) ;
#465 = VECTOR ( 'NONE', #76, 1000.000000000000000 ) ;
#466 = CARTESIAN_POINT ( 'NONE',  ( 2.464999999999999858, 0.03500000000000001027, 1.250000000000000000 ) ) ;
#467 = CARTESIAN_POINT ( 'NONE',  ( -1.899999999999999689, 0.03500000000000007966, 1.250000000000000000 ) ) ;
#468 =( GEOMETRIC_REPRESENTATION_CONTEXT ( 3 ) GLOBAL_UNCERTAINTY_ASSIGNED_CONTEXT ( ( #784 ) ) GLOBAL_UNIT_ASSIGNED_CONTEXT ( ( #716, #1210, #731 ) ) REPRESENTATION_CONTEXT ( 'NONE', 'WORKASPACE' ) );
#469 = DIRECTION ( 'NONE',  ( -1.000000000000000000, 0.0000000000000000000, 0.0000000000000000000 ) ) ;
#470 = ORIENTED_EDGE ( 'NONE', *, *, #866, .T. ) ;
#471 = EDGE_CURVE ( 'NONE', #53, #915, #1113, .T. ) ;
#472 = LINE ( 'NONE', #461, #706 ) ;
#473 = ORIENTED_EDGE ( 'NONE', *, *, #921, .F. ) ;
#474 = CARTESIAN_POINT ( 'NONE',  ( 2.140000000000000124, 0.6649999999999993694, -1.250000000000000000 ) ) ;
#475 = APPLICATION_CONTEXT ( 'automotive_design' ) ;
#476 = SURFACE_STYLE_USAGE ( .BOTH. , #1221 ) ;
#477 = VECTOR ( 'NONE', #1123, 1000.000000000000000 ) ;
#478 = FACE_OUTER_BOUND ( 'NONE', #952, .T. ) ;
#479 = AXIS2_PLACEMENT_3D ( 'NONE', #1191, #912, #624 ) ;
#480 = DIRECTION ( 'NONE',  ( 0.0000000000000000000, 0.0000000000000000000, 1.000000000000000000 ) ) ;
#481 = ADVANCED_FACE ( 'NONE', ( #85 ), #313, .F. ) ;
#482 = UNCERTAINTY_MEASURE_WITH_UNIT (LENGTH_MEASURE( 1.000000000000000082E-05 ), #821, 'distance_accuracy_value', 'NONE');
#483 = ORIENTED_EDGE ( 'NONE', *, *, #503, .T. ) ;
#484 = ORIENTED_EDGE ( 'NONE', *, *, #285, .F. ) ;
#485 = EDGE_CURVE ( 'NONE', #594, #741, #1023, .T. ) ;
#486 = LINE ( 'NONE', #705, #708 ) ;
#487 = DIRECTION ( 'NONE',  ( -0.0000000000000000000, -0.0000000000000000000, 1.000000000000000000 ) ) ;
#488 = EDGE_CURVE ( 'NONE', #456, #600, #340, .T. ) ;
#489 = VERTEX_POINT ( 'NONE', #572 ) ;
#490 = VERTEX_POINT ( 'NONE', #674 ) ;
#491 = LINE ( 'NONE', #796, #1095 ) ;
#492 = ADVANCED_FACE ( 'NONE', ( #751 ), #126, .T. ) ;
#493 = CARTESIAN_POINT ( 'NONE',  ( -2.464999999999999858, 0.6649999999999997025, -6.220090542434814296 ) ) ;
#494 = DIRECTION ( 'NONE',  ( -1.807003620809175371E-16, -1.000000000000000000, 0.0000000000000000000 ) ) ;
#495 = ORIENTED_EDGE ( 'NONE', *, *, #1020, .F. ) ;
#496 = ADVANCED_FACE ( 'NONE', ( #1071 ), #663, .F. ) ;
#497 = CARTESIAN_POINT ( 'NONE',  ( 2.140000000000000568, 0.6999999999999998446, 1.249999999999999556 ) ) ;
#498 = COLOUR_RGB ( '',0.7921568627450980005, 0.8196078431372548767, 0.9333333333333333481 ) ;
#499 = DIRECTION ( 'NONE',  ( 0.0000000000000000000, -0.0000000000000000000, 1.000000000000000000 ) ) ;
#500 = LINE ( 'NONE', #872, #970 ) ;
#501 =( GEOMETRIC_REPRESENTATION_CONTEXT ( 3 ) GLOBAL_UNCERTAINTY_ASSIGNED_CONTEXT ( ( #93 ) ) GLOBAL_UNIT_ASSIGNED_CONTEXT ( ( #749, #940, #754 ) ) REPRESENTATION_CONTEXT ( 'NONE', 'WORKASPACE' ) );
#502 = DIRECTION ( 'NONE',  ( 9.856383386231857595E-17, 1.000000000000000000, -0.0000000000000000000 ) ) ;
#503 = EDGE_CURVE ( 'NONE', #695, #1045, #105, .T. ) ;
#504 = ORIENTED_EDGE ( 'NONE', *, *, #1034, .F. ) ;
#505 = LINE ( 'NONE', #888, #837 ) ;
#506 = ORIENTED_EDGE ( 'NONE', *, *, #1056, .T. ) ;
#507 = EDGE_CURVE ( 'NONE', #618, #908, #957, .T. ) ;
#508 = CARTESIAN_POINT ( 'NONE',  ( 2.140000000000000568, 0.6999999999999998446, -0.8333333333333331483 ) ) ;
#509 = ORIENTED_EDGE ( 'NONE', *, *, #437, .T. ) ;
#510 = CARTESIAN_POINT ( 'NONE',  ( -1.899999999999999689, 0.6649999999999998135, 0.8333333333333332593 ) ) ;
#511 = ORIENTED_EDGE ( 'NONE', *, *, #794, .F. ) ;
#512 = VECTOR ( 'NONE', #147, 1000.000000000000000 ) ;
#513 = DIRECTION ( 'NONE',  ( 0.0000000000000000000, 0.0000000000000000000, 1.000000000000000000 ) ) ;
#514 = LINE ( 'NONE', #652, #247 ) ;
#515 = EDGE_LOOP ( 'NONE', ( #684, #717, #673, #447 ) ) ;
#516 = DIRECTION ( 'NONE',  ( 1.000000000000000000, 0.0000000000000000000, 0.0000000000000000000 ) ) ;
#517 = DIRECTION ( 'NONE',  ( 1.807003620809175371E-16, -1.000000000000000000, 0.0000000000000000000 ) ) ;
#518 = ORIENTED_EDGE ( 'NONE', *, *, #1166, .T. ) ;
#519 = MECHANICAL_DESIGN_GEOMETRIC_PRESENTATION_REPRESENTATION (  '', ( #878 ), #468 ) ;
#520 = CARTESIAN_POINT ( 'NONE',  ( -2.499999999999999556, 0.6999999999999996225, 1.250000000000000000 ) ) ;
#521 = CARTESIAN_POINT ( 'NONE',  ( 0.0000000000000000000, 0.0000000000000000000, 1.250000000000000000 ) ) ;
#522 = EDGE_CURVE ( 'NONE', #192, #13, #1053, .T. ) ;
#523 = PLANE ( 'NONE',  #545 ) ;
#524 = EDGE_LOOP ( 'NONE', ( #1222, #1039, #836, #602 ) ) ;
#525 = VECTOR ( 'NONE', #365, 1000.000000000000000 ) ;
#526 = DIRECTION ( 'NONE',  ( 1.000000000000000000, 1.807003620809175371E-16, 0.0000000000000000000 ) ) ;
#527 = ORIENTED_EDGE ( 'NONE', *, *, #321, .F. ) ;
#528 = DIRECTION ( 'NONE',  ( -0.0000000000000000000, -0.0000000000000000000, 1.000000000000000000 ) ) ;
#529 = AXIS2_PLACEMENT_3D ( 'NONE', #907, #1017, #641 ) ;
#530 = PLANE ( 'NONE',  #1054 ) ;
#531 = LINE ( 'NONE', #687, #647 ) ;
#532 = PRODUCT_DEFINITION_CONTEXT ( 'detailed design', #658, 'design' ) ;
#533 = EDGE_CURVE ( 'NONE', #990, #896, #564, .T. ) ;
#534 = ORIENTED_EDGE ( 'NONE', *, *, #397, .F. ) ;
#535 = ORIENTED_EDGE ( 'NONE', *, *, #973, .F. ) ;
#536 = CARTESIAN_POINT ( 'NONE',  ( -1.899999999999999689, 0.6649999999999998135, 0.8333333333333332593 ) ) ;
#537 = ORIENTED_EDGE ( 'NONE', *, *, #924, .T. ) ;
#538 = CARTESIAN_POINT ( 'NONE',  ( 1.899999999999999689, 0.03500000000000007966, 1.250000000000000000 ) ) ;
#539 = ORIENTED_EDGE ( 'NONE', *, *, #522, .T. ) ;
#540 = PLANE ( 'NONE',  #479 ) ;
#541 = FACE_OUTER_BOUND ( 'NONE', #1185, .T. ) ;
#542 = ORIENTED_EDGE ( 'NONE', *, *, #120, .F. ) ;
#543 = FACE_OUTER_BOUND ( 'NONE', #411, .T. ) ;
#544 = PLANE ( 'NONE',  #259 ) ;
#545 = AXIS2_PLACEMENT_3D ( 'NONE', #164, #1188, #256 ) ;
#546 = FACE_OUTER_BOUND ( 'NONE', #320, .T. ) ;
#547 = CARTESIAN_POINT ( 'NONE',  ( -1.899999999999999911, 0.7000000000000002887, -1.250000000000000000 ) ) ;
#548 = EDGE_LOOP ( 'NONE', ( #920, #17, #1092, #331 ) ) ;
#549 = ORIENTED_EDGE ( 'NONE', *, *, #418, .F. ) ;
#550 = CARTESIAN_POINT ( 'NONE',  ( 0.0000000000000000000, 0.0000000000000000000, -1.250000000000000000 ) ) ;
#551 = EDGE_CURVE ( 'NONE', #793, #741, #424, .T. ) ;
#552 = VECTOR ( 'NONE', #823, 1000.000000000000000 ) ;
#553 = CARTESIAN_POINT ( 'NONE',  ( -1.899999999999999911, 0.7000000000000002887, -1.250000000000000000 ) ) ;
#554 = CARTESIAN_POINT ( 'NONE',  ( -1.899999999999999911, 0.6999999999999997335, 1.250000000000000000 ) ) ;
#555 = CLOSED_SHELL ( 'NONE', ( #683, #963, #1155, #862, #571, #481, #496, #750, #1040, #1152, #577, #758, #11, #946 ) ) ;
#556 = DIRECTION ( 'NONE',  ( -1.000000000000000000, 1.141265444721583757E-16, 0.0000000000000000000 ) ) ;
#557 = LINE ( 'NONE', #497, #155 ) ;
#558 = CARTESIAN_POINT ( 'NONE',  ( 2.140000000000000568, 0.6649999999999993694, 1.249999999999999556 ) ) ;
#559 = DIRECTION ( 'NONE',  ( -1.040834085586083862E-15, -0.0000000000000000000, -1.000000000000000000 ) ) ;
#560 = DIRECTION ( 'NONE',  ( 1.000000000000000000, 0.0000000000000000000, 0.0000000000000000000 ) ) ;
#561 = ORIENTED_EDGE ( 'NONE', *, *, #857, .T. ) ;
#562 = EDGE_LOOP ( 'NONE', ( #177, #8, #125, #960 ) ) ;
#563 = DIRECTION ( 'NONE',  ( -1.000000000000000000, 0.0000000000000000000, 0.0000000000000000000 ) ) ;
#564 = LINE ( 'NONE', #679, #1088 ) ;
#565 = EDGE_CURVE ( 'NONE', #733, #373, #34, .T. ) ;
#566 = CARTESIAN_POINT ( 'NONE',  ( 0.0000000000000000000, 0.0000000000000000000, -1.250000000000000000 ) ) ;
#567 = ORIENTED_EDGE ( 'NONE', *, *, #378, .F. ) ;
#568 = EDGE_CURVE ( 'NONE', #16, #55, #574, .T. ) ;
#569 = LINE ( 'NONE', #834, #326 ) ;
#570 = ORIENTED_EDGE ( 'NONE', *, *, #1020, .T. ) ;
#571 = ADVANCED_FACE ( 'NONE', ( #1112 ), #863, .F. ) ;
#572 = CARTESIAN_POINT ( 'NONE',  ( -2.464999999999999858, 0.03500000000000001027, -1.250000000000000222 ) ) ;
#573 = EDGE_CURVE ( 'NONE', #228, #747, #127, .T. ) ;
#574 = LINE ( 'NONE', #584, #1154 ) ;
#575 = VECTOR ( 'NONE', #388, 1000.000000000000000 ) ;
#576 = PLANE ( 'NONE',  #115 ) ;
#577 = ADVANCED_FACE ( 'NONE', ( #1127 ), #961, .F. ) ;
#578 = ORIENTED_EDGE ( 'NONE', *, *, #66, .T. ) ;
#579 = VERTEX_POINT ( 'NONE', #855 ) ;
#580 = LINE ( 'NONE', #879, #104 ) ;
#581 = VECTOR ( 'NONE', #360, 1000.000000000000000 ) ;
#582 = AXIS2_PLACEMENT_3D ( 'NONE', #1187, #61, #728 ) ;
#583 = DIRECTION ( 'NONE',  ( 9.856383386231857595E-17, 1.000000000000000000, 0.0000000000000000000 ) ) ;
#584 = CARTESIAN_POINT ( 'NONE',  ( -1.899999999999999689, 0.03500000000000007966, 1.250000000000000000 ) ) ;
#585 = CARTESIAN_POINT ( 'NONE',  ( 2.464999999999999858, 0.6649999999999997025, 1.250000000000000000 ) ) ;
#586 = VECTOR ( 'NONE', #722, 1000.000000000000000 ) ;
#587 =( NAMED_UNIT ( * ) SI_UNIT ( $, .STERADIAN. ) SOLID_ANGLE_UNIT ( ) );
#588 = ADVANCED_FACE ( 'NONE', ( #635 ), #576, .T. ) ;
#589 = PLANE ( 'NONE',  #989 ) ;
#590 = ORIENTED_EDGE ( 'NONE', *, *, #285, .T. ) ;
#591 = ORIENTED_EDGE ( 'NONE', *, *, #138, .T. ) ;
#592 = DIRECTION ( 'NONE',  ( 1.000000000000000000, -1.141265444721583757E-16, 0.0000000000000000000 ) ) ;
#593 = AXIS2_PLACEMENT_3D ( 'NONE', #1128, #199, #1030 ) ;
#594 = VERTEX_POINT ( 'NONE', #874 ) ;
#595 = ORIENTED_EDGE ( 'NONE', *, *, #416, .T. ) ;
#596 = EDGE_CURVE ( 'NONE', #621, #733, #97, .T. ) ;
#597 = VECTOR ( 'NONE', #1091, 1000.000000000000000 ) ;
#598 = CARTESIAN_POINT ( 'NONE',  ( 1.899999999999999689, 0.03500000000000007966, 1.250000000000000000 ) ) ;
#599 = DIRECTION ( 'NONE',  ( 0.0000000000000000000, -0.0000000000000000000, 1.000000000000000000 ) ) ;
#600 = VERTEX_POINT ( 'NONE', #15 ) ;
#601 = DIRECTION ( 'NONE',  ( -1.000000000000000000, -1.199338686377770440E-16, 0.0000000000000000000 ) ) ;
#602 = ORIENTED_EDGE ( 'NONE', *, *, #1209, .T. ) ;
#603 = PLANE ( 'NONE',  #670 ) ;
#604 = EDGE_LOOP ( 'NONE', ( #578, #371, #951, #386 ) ) ;
#605 = DIRECTION ( 'NONE',  ( -0.0000000000000000000, 1.000000000000000000, -0.0000000000000000000 ) ) ;
#606 = CARTESIAN_POINT ( 'NONE',  ( 2.464999999999999858, 0.6649999999999997025, -6.220090542434814296 ) ) ;
#607 = STYLED_ITEM ( 'NONE', ( #145 ), #860 ) ;
#608 = DIRECTION ( 'NONE',  ( 1.000000000000000000, 0.0000000000000000000, 0.0000000000000000000 ) ) ;
#609 = EDGE_CURVE ( 'NONE', #990, #1018, #832, .T. ) ;
#610 = EDGE_CURVE ( 'NONE', #1124, #1045, #937, .T. ) ;
#611 = CARTESIAN_POINT ( 'NONE',  ( 1.899999999999999467, 0.6999999999999998446, -0.8333333333333332593 ) ) ;
#612 = PLANE ( 'NONE',  #680 ) ;
#613 = CARTESIAN_POINT ( 'NONE',  ( -2.464999999999999858, 0.6649999999999997025, -1.250000000000000000 ) ) ;
#614 = DIRECTION ( 'NONE',  ( 9.856383386231857595E-17, 1.000000000000000000, -0.0000000000000000000 ) ) ;
#615 = LINE ( 'NONE', #28, #777 ) ;
#616 = VECTOR ( 'NONE', #249, 1000.000000000000000 ) ;
#617 = DIRECTION ( 'NONE',  ( 1.000000000000000000, 0.0000000000000000000, 0.0000000000000000000 ) ) ;
#618 = VERTEX_POINT ( 'NONE', #774 ) ;
#619 = EDGE_LOOP ( 'NONE', ( #495, #883, #280, #974 ) ) ;
#620 = CARTESIAN_POINT ( 'NONE',  ( -2.140000000000000124, 0.6649999999999998135, -1.249999999999999556 ) ) ;
#621 = VERTEX_POINT ( 'NONE', #1168 ) ;
#622 = VECTOR ( 'NONE', #328, 1000.000000000000000 ) ;
#623 = ORIENTED_EDGE ( 'NONE', *, *, #77, .F. ) ;
#624 = DIRECTION ( 'NONE',  ( -1.000000000000000000, 1.199338686377770440E-16, 0.0000000000000000000 ) ) ;
#625 = MANIFOLD_SOLID_BREP ( 'Boss-Extrude3', #1175 ) ;
#626 = VECTOR ( 'NONE', #356, 1000.000000000000000 ) ;
#627 = CARTESIAN_POINT ( 'NONE',  ( -2.464999999999999858, 0.6649999999999997025, -1.250000000000000222 ) ) ;
#628 = EDGE_CURVE ( 'NONE', #600, #727, #531, .T. ) ;
#629 = DIRECTION ( 'NONE',  ( 1.040834085586084059E-15, 0.0000000000000000000, 1.000000000000000000 ) ) ;
#630 = VECTOR ( 'NONE', #308, 1000.000000000000000 ) ;
#631 = ORIENTED_EDGE ( 'NONE', *, *, #522, .F. ) ;
#632 = DIRECTION ( 'NONE',  ( -0.0000000000000000000, 0.0000000000000000000, 1.000000000000000000 ) ) ;
#633 = AXIS2_PLACEMENT_3D ( 'NONE', #944, #847, #480 ) ;
#634 = PLANE ( 'NONE',  #903 ) ;
#635 = FACE_OUTER_BOUND ( 'NONE', #302, .T. ) ;
#636 = EDGE_CURVE ( 'NONE', #178, #719, #189, .T. ) ;
#637 = CARTESIAN_POINT ( 'NONE',  ( -2.464999999999999858, 0.6649999999999997025, -1.250000000000000222 ) ) ;
#638 = EDGE_CURVE ( 'NONE', #741, #1026, #440, .T. ) ;
#639 = ORIENTED_EDGE ( 'NONE', *, *, #227, .T. ) ;
#640 =( NAMED_UNIT ( * ) SI_UNIT ( $, .STERADIAN. ) SOLID_ANGLE_UNIT ( ) );
#641 = DIRECTION ( 'NONE',  ( -1.000000000000000000, 0.0000000000000000000, -0.0000000000000000000 ) ) ;
#642 = VECTOR ( 'NONE', #655, 1000.000000000000000 ) ;
#643 = CARTESIAN_POINT ( 'NONE',  ( -2.464999999999999858, 0.03500000000000001027, 1.250000000000000000 ) ) ;
#644 = CARTESIAN_POINT ( 'NONE',  ( -2.139999999999999680, 0.6999999999999997335, 1.250000000000000000 ) ) ;
#645 = DIRECTION ( 'NONE',  ( -9.856383386231857595E-17, -1.000000000000000000, 0.0000000000000000000 ) ) ;
#646 = DIRECTION ( 'NONE',  ( -1.000000000000000000, -1.199338686377770440E-16, 0.0000000000000000000 ) ) ;
#647 = VECTOR ( 'NONE', #592, 1000.000000000000000 ) ;
#648 = LINE ( 'NONE', #157, #893 ) ;
#649 = CARTESIAN_POINT ( 'NONE',  ( -2.464999999999999858, 0.03500000000000001027, 1.250000000000000000 ) ) ;
#650 = ORIENTED_EDGE ( 'NONE', *, *, #307, .T. ) ;
#651 = VECTOR ( 'NONE', #444, 1000.000000000000000 ) ;
#652 = CARTESIAN_POINT ( 'NONE',  ( -2.464999999999999858, 0.03500000000000001027, -6.220090542434814296 ) ) ;
#653 = DIRECTION ( 'NONE',  ( 0.0000000000000000000, 0.0000000000000000000, 1.000000000000000000 ) ) ;
#654 = PRESENTATION_LAYER_ASSIGNMENT (  '', '', ( #45 ) ) ;
#655 = DIRECTION ( 'NONE',  ( 1.000000000000000000, 0.0000000000000000000, 0.0000000000000000000 ) ) ;
#656 = EDGE_CURVE ( 'NONE', #707, #695, #557, .T. ) ;
#657 = ADVANCED_FACE ( 'NONE', ( #317 ), #140, .F. ) ;
#658 = APPLICATION_CONTEXT ( 'automotive_design' ) ;
#659 = LINE ( 'NONE', #1032, #786 ) ;
#660 = EDGE_LOOP ( 'NONE', ( #296, #846, #561, #36 ) ) ;
#661 = LINE ( 'NONE', #1085, #171 ) ;
#662 = LINE ( 'NONE', #43, #409 ) ;
#663 = PLANE ( 'NONE',  #401 ) ;
#664 = LINE ( 'NONE', #107, #153 ) ;
#665 = VERTEX_POINT ( 'NONE', #508 ) ;
#666 = ORIENTED_EDGE ( 'NONE', *, *, #948, .F. ) ;
#667 = ORIENTED_EDGE ( 'NONE', *, *, #437, .F. ) ;
#668 = VECTOR ( 'NONE', #632, 1000.000000000000000 ) ;
#669 = DIRECTION ( 'NONE',  ( -1.000000000000000000, 0.0000000000000000000, 0.0000000000000000000 ) ) ;
#670 = AXIS2_PLACEMENT_3D ( 'NONE', #598, #316, #964 ) ;
#671 = ORIENTED_EDGE ( 'NONE', *, *, #366, .T. ) ;
#672 = AXIS2_PLACEMENT_3D ( 'NONE', #520, #517, #526 ) ;
#673 = ORIENTED_EDGE ( 'NONE', *, *, #899, .F. ) ;
#674 = CARTESIAN_POINT ( 'NONE',  ( 2.464999999999999858, 0.03500000000000001027, -1.250000000000000222 ) ) ;
#675 = EDGE_CURVE ( 'NONE', #258, #747, #500, .T. ) ;
#676 = ADVANCED_FACE ( 'NONE', ( #723 ), #967, .F. ) ;
#677 = VECTOR ( 'NONE', #583, 1000.000000000000000 ) ;
#678 = VECTOR ( 'NONE', #692, 1000.000000000000000 ) ;
#679 = CARTESIAN_POINT ( 'NONE',  ( -1.899999999999999911, 0.6649999999999998135, -0.8333333333333328152 ) ) ;
#680 = AXIS2_PLACEMENT_3D ( 'NONE', #994, #608, #984 ) ;
#681 = ORIENTED_EDGE ( 'NONE', *, *, #397, .T. ) ;
#682 = VECTOR ( 'NONE', #1184, 1000.000000000000000 ) ;
#683 = ADVANCED_FACE ( 'NONE', ( #1035 ), #603, .F. ) ;
#684 = ORIENTED_EDGE ( 'NONE', *, *, #1060, .F. ) ;
#685 = LINE ( 'NONE', #538, #1097 ) ;
#686 = LINE ( 'NONE', #715, #14 ) ;
#687 = CARTESIAN_POINT ( 'NONE',  ( -1.899999999999999689, 0.7000000000000002887, 1.250000000000000000 ) ) ;
#688 = EDGE_LOOP ( 'NONE', ( #39, #807, #226, #539 ) ) ;
#689 = CARTESIAN_POINT ( 'NONE',  ( -2.464999999999999858, 0.6649999999999997025, 1.250000000000000000 ) ) ;
#690 = VERTEX_POINT ( 'NONE', #38 ) ;
#691 = FACE_OUTER_BOUND ( 'NONE', #850, .T. ) ;
#692 = DIRECTION ( 'NONE',  ( 0.0000000000000000000, -0.0000000000000000000, -1.000000000000000000 ) ) ;
#693 = EDGE_CURVE ( 'NONE', #779, #978, #64, .T. ) ;
#694 = DIRECTION ( 'NONE',  ( 0.0000000000000000000, -0.0000000000000000000, 1.000000000000000000 ) ) ;
#695 = VERTEX_POINT ( 'NONE', #877 ) ;
#696 = ORIENTED_EDGE ( 'NONE', *, *, #899, .T. ) ;
#697 = COLOUR_RGB ( '',0.7921568627450980005, 0.8196078431372548767, 0.9333333333333333481 ) ;
#698 = AXIS2_PLACEMENT_3D ( 'NONE', #493, #1057, #599 ) ;
#699 = VECTOR ( 'NONE', #814, 1000.000000000000000 ) ;
#700 = EDGE_CURVE ( 'NONE', #373, #913, #615, .T. ) ;
#701 =( NAMED_UNIT ( * ) PLANE_ANGLE_UNIT ( ) SI_UNIT ( $, .RADIAN. ) );
#702 = ADVANCED_BREP_SHAPE_REPRESENTATION ( 'CRCW2010100RDHEFP', ( #860, #625, #357, #224, #42 ), #214 ) ;
#703 = DIRECTION ( 'NONE',  ( -1.000000000000000000, 0.0000000000000000000, 0.0000000000000000000 ) ) ;
#704 = ORIENTED_EDGE ( 'NONE', *, *, #51, .T. ) ;
#705 = CARTESIAN_POINT ( 'NONE',  ( -2.464999999999999858, 0.6649999999999997025, 1.250000000000000000 ) ) ;
#706 = VECTOR ( 'NONE', #1225, 1000.000000000000000 ) ;
#707 = VERTEX_POINT ( 'NONE', #1068 ) ;
#708 = VECTOR ( 'NONE', #516, 1000.000000000000000 ) ;
#709 = VECTOR ( 'NONE', #1158, 1000.000000000000000 ) ;
#710 = ORIENTED_EDGE ( 'NONE', *, *, #693, .T. ) ;
#711 = EDGE_LOOP ( 'NONE', ( #26, #236, #785, #54 ) ) ;
#712 = ORIENTED_EDGE ( 'NONE', *, *, #992, .F. ) ;
#713 = LINE ( 'NONE', #158, #626 ) ;
#714 = CARTESIAN_POINT ( 'NONE',  ( 2.499999999999999556, -3.061616997868382155E-16, -1.250000000000000000 ) ) ;
#715 = CARTESIAN_POINT ( 'NONE',  ( 2.464999999999999858, 0.03500000000000001027, 1.250000000000000000 ) ) ;
#716 =( LENGTH_UNIT ( ) NAMED_UNIT ( * ) SI_UNIT ( .MILLI., .METRE. ) );
#717 = ORIENTED_EDGE ( 'NONE', *, *, #288, .F. ) ;
#718 = DIRECTION ( 'NONE',  ( 9.856383386231857595E-17, 1.000000000000000000, -0.0000000000000000000 ) ) ;
#719 = VERTEX_POINT ( 'NONE', #1066 ) ;
#720 = FILL_AREA_STYLE ('',( #1000 ) ) ;
#721 = EDGE_CURVE ( 'NONE', #1009, #665, #662, .T. ) ;
#722 = DIRECTION ( 'NONE',  ( -0.0000000000000000000, -1.000000000000000000, -0.0000000000000000000 ) ) ;
#723 = FACE_OUTER_BOUND ( 'NONE', #420, .T. ) ;
#724 = ORIENTED_EDGE ( 'NONE', *, *, #755, .T. ) ;
#725 = ORIENTED_EDGE ( 'NONE', *, *, #242, .T. ) ;
#726 = CARTESIAN_POINT ( 'NONE',  ( -1.900000000000000355, -3.883626166217664100, -1.250000000000000000 ) ) ;
#727 = VERTEX_POINT ( 'NONE', #244 ) ;
#728 = DIRECTION ( 'NONE',  ( 1.000000000000000000, 1.199338686377770440E-16, 0.0000000000000000000 ) ) ;
#729 = FACE_OUTER_BOUND ( 'NONE', #434, .T. ) ;
#730 = DIRECTION ( 'NONE',  ( 1.000000000000000000, 0.0000000000000000000, 0.0000000000000000000 ) ) ;
#731 =( NAMED_UNIT ( * ) SI_UNIT ( $, .STERADIAN. ) SOLID_ANGLE_UNIT ( ) );
#732 = EDGE_LOOP ( 'NONE', ( #130, #81, #380, #112 ) ) ;
#733 = VERTEX_POINT ( 'NONE', #404 ) ;
#734 = CARTESIAN_POINT ( 'NONE',  ( 1.899999999999999689, 0.6649999999999993694, 0.8333333333333328152 ) ) ;
#735 = PRESENTATION_LAYER_ASSIGNMENT (  '', '', ( #607 ) ) ;
#736 = EDGE_CURVE ( 'NONE', #337, #343, #766, .T. ) ;
#737 = PLANE ( 'NONE',  #24 ) ;
#738 = LINE ( 'NONE', #398, #1024 ) ;
#739 = DIRECTION ( 'NONE',  ( 1.000000000000000000, 0.0000000000000000000, -0.0000000000000000000 ) ) ;
#740 = EDGE_CURVE ( 'NONE', #913, #579, #1217, .T. ) ;
#741 = VERTEX_POINT ( 'NONE', #60 ) ;
#742 = VERTEX_POINT ( 'NONE', #62 ) ;
#743 = LINE ( 'NONE', #1106, #134 ) ;
#744 = CARTESIAN_POINT ( 'NONE',  ( 2.464999999999999858, 0.03500000000000001027, 1.250000000000000000 ) ) ;
#745 = PLANE ( 'NONE',  #146 ) ;
#746 = ORIENTED_EDGE ( 'NONE', *, *, #950, .F. ) ;
#747 = VERTEX_POINT ( 'NONE', #154 ) ;
#748 =( LENGTH_UNIT ( ) NAMED_UNIT ( * ) SI_UNIT ( .MILLI., .METRE. ) );
#749 =( LENGTH_UNIT ( ) NAMED_UNIT ( * ) SI_UNIT ( .MILLI., .METRE. ) );
#750 = ADVANCED_FACE ( 'NONE', ( #20 ), #248, .F. ) ;
#751 = FACE_OUTER_BOUND ( 'NONE', #515, .T. ) ;
#752 = AXIS2_PLACEMENT_3D ( 'NONE', #1135, #826, #645 ) ;
#753 = CARTESIAN_POINT ( 'NONE',  ( -1.900000000000000133, 0.6649999999999998135, 1.250000000000000000 ) ) ;
#754 =( NAMED_UNIT ( * ) SI_UNIT ( $, .STERADIAN. ) SOLID_ANGLE_UNIT ( ) );
#755 = EDGE_CURVE ( 'NONE', #490, #116, #1022, .T. ) ;
#756 = FACE_OUTER_BOUND ( 'NONE', #1015, .T. ) ;
#757 = VERTEX_POINT ( 'NONE', #261 ) ;
#758 = ADVANCED_FACE ( 'NONE', ( #206 ), #1083, .F. ) ;
#759 = LINE ( 'NONE', #263, #1147 ) ;
#760 = DIRECTION ( 'NONE',  ( -1.000000000000000000, -0.0000000000000000000, 4.517509052022923637E-16 ) ) ;
#761 = MECHANICAL_DESIGN_GEOMETRIC_PRESENTATION_REPRESENTATION (  '', ( #264 ), #323 ) ;
#762 = EDGE_CURVE ( 'NONE', #719, #228, #910, .T. ) ;
#763 = DIRECTION ( 'NONE',  ( -1.040834085586083862E-15, 0.0000000000000000000, -1.000000000000000000 ) ) ;
#764 = EDGE_CURVE ( 'NONE', #742, #733, #486, .T. ) ;
#765 = EDGE_LOOP ( 'NONE', ( #463, #37, #374, #168, #983, #1058, #325, #1143 ) ) ;
#766 = LINE ( 'NONE', #606, #512 ) ;
#767 = DIRECTION ( 'NONE',  ( -1.000000000000000000, 0.0000000000000000000, 0.0000000000000000000 ) ) ;
#768 = LINE ( 'NONE', #141, #622 ) ;
#769 = EDGE_LOOP ( 'NONE', ( #293, #132, #590, #342 ) ) ;
#770 = ORIENTED_EDGE ( 'NONE', *, *, #1182, .T. ) ;
#771 = ORIENTED_EDGE ( 'NONE', *, *, #628, .F. ) ;
#772 = CARTESIAN_POINT ( 'NONE',  ( 2.499999999999999556, 0.6999999999999996225, 1.250000000000000000 ) ) ;
#773 = ADVANCED_FACE ( 'NONE', ( #543 ), #438, .F. ) ;
#774 = CARTESIAN_POINT ( 'NONE',  ( -1.899999999999999689, 0.7000000000000002887, 0.8333333333333332593 ) ) ;
#775 = LINE ( 'NONE', #926, #1162 ) ;
#776 = ORIENTED_EDGE ( 'NONE', *, *, #533, .T. ) ;
#777 = VECTOR ( 'NONE', #232, 1000.000000000000000 ) ;
#778 = AXIS2_PLACEMENT_3D ( 'NONE', #782, #1072, #789 ) ;
#779 = VERTEX_POINT ( 'NONE', #339 ) ;
#780 = VERTEX_POINT ( 'NONE', #791 ) ;
#781 = ORIENTED_EDGE ( 'NONE', *, *, #445, .F. ) ;
#782 = CARTESIAN_POINT ( 'NONE',  ( -2.139999999999999680, 0.6649999999999998135, 1.250000000000000000 ) ) ;
#783 = DIRECTION ( 'NONE',  ( 0.0000000000000000000, 0.0000000000000000000, -1.000000000000000000 ) ) ;
#784 = UNCERTAINTY_MEASURE_WITH_UNIT (LENGTH_MEASURE( 1.000000000000000082E-05 ), #716, 'distance_accuracy_value', 'NONE');
#785 = ORIENTED_EDGE ( 'NONE', *, *, #533, .F. ) ;
#786 = VECTOR ( 'NONE', #559, 1000.000000000000000 ) ;
#787 = ORIENTED_EDGE ( 'NONE', *, *, #811, .F. ) ;
#788 = FACE_OUTER_BOUND ( 'NONE', #194, .T. ) ;
#789 = DIRECTION ( 'NONE',  ( -9.856383386231857595E-17, -1.000000000000000000, 0.0000000000000000000 ) ) ;
#790 = VECTOR ( 'NONE', #68, 1000.000000000000000 ) ;
#791 = CARTESIAN_POINT ( 'NONE',  ( -2.499999999999999556, 0.6999999999999996225, -1.250000000000000000 ) ) ;
#792 = MECHANICAL_DESIGN_GEOMETRIC_PRESENTATION_REPRESENTATION (  '', ( #607 ), #856 ) ;
#793 = VERTEX_POINT ( 'NONE', #1192 ) ;
#794 = EDGE_CURVE ( 'NONE', #1080, #665, #1048, .T. ) ;
#795 = CARTESIAN_POINT ( 'NONE',  ( 1.899999999999999467, 0.6649999999999993694, -0.8333333333333332593 ) ) ;
#796 = CARTESIAN_POINT ( 'NONE',  ( 1.899999999999999467, -3.883626166217664100, 1.250000000000000000 ) ) ;
#797 = CARTESIAN_POINT ( 'NONE',  ( 1.899999999999999689, 0.0000000000000000000, 1.250000000000000000 ) ) ;
#798 = AXIS2_PLACEMENT_3D ( 'NONE', #336, #47, #892 ) ;
#799 = DIRECTION ( 'NONE',  ( -1.000000000000000000, 0.0000000000000000000, -0.0000000000000000000 ) ) ;
#800 = DIRECTION ( 'NONE',  ( 0.0000000000000000000, 1.000000000000000000, 0.0000000000000000000 ) ) ;
#801 = VECTOR ( 'NONE', #1153, 1000.000000000000000 ) ;
#802 = CARTESIAN_POINT ( 'NONE',  ( 2.464999999999999858, 0.03500000000000001027, -1.250000000000000000 ) ) ;
#803 = ORIENTED_EDGE ( 'NONE', *, *, #1166, .F. ) ;
#804 = PLANE ( 'NONE',  #968 ) ;
#805 = VERTEX_POINT ( 'NONE', #613 ) ;
#806 = SURFACE_SIDE_STYLE ('',( #1224 ) ) ;
#807 = ORIENTED_EDGE ( 'NONE', *, *, #609, .F. ) ;
#808 = LINE ( 'NONE', #3, #642 ) ;
#809 = PRODUCT_DEFINITION_FORMATION_WITH_SPECIFIED_SOURCE ( 'ANY', '', #1101, .NOT_KNOWN. ) ;
#810 = CARTESIAN_POINT ( 'NONE',  ( 1.899999999999999689, 0.0000000000000000000, -1.250000000000000000 ) ) ;
#811 = EDGE_CURVE ( 'NONE', #1018, #201, #49, .T. ) ;
#812 = CARTESIAN_POINT ( 'NONE',  ( -2.140000000000000124, 0.7000000000000002887, -1.249999999999999556 ) ) ;
#813 = DIRECTION ( 'NONE',  ( -0.0000000000000000000, -0.0000000000000000000, -1.000000000000000000 ) ) ;
#814 = DIRECTION ( 'NONE',  ( -0.0000000000000000000, -0.0000000000000000000, -1.000000000000000000 ) ) ;
#815 = AXIS2_PLACEMENT_3D ( 'NONE', #1120, #170, #1194 ) ;
#816 = ORIENTED_EDGE ( 'NONE', *, *, #1209, .F. ) ;
#817 = CARTESIAN_POINT ( 'NONE',  ( -2.499999999999999556, 0.6999999999999996225, 1.250000000000000000 ) ) ;
#818 = VECTOR ( 'NONE', #601, 1000.000000000000000 ) ;
#819 = VECTOR ( 'NONE', #295, 1000.000000000000000 ) ;
#820 = ORIENTED_EDGE ( 'NONE', *, *, #921, .T. ) ;
#821 =( LENGTH_UNIT ( ) NAMED_UNIT ( * ) SI_UNIT ( .MILLI., .METRE. ) );
#822 = ORIENTED_EDGE ( 'NONE', *, *, #610, .T. ) ;
#823 = DIRECTION ( 'NONE',  ( -0.0000000000000000000, -0.0000000000000000000, -1.000000000000000000 ) ) ;
#824 = VERTEX_POINT ( 'NONE', #334 ) ;
#825 = ORIENTED_EDGE ( 'NONE', *, *, #418, .T. ) ;
#826 = DIRECTION ( 'NONE',  ( -1.000000000000000000, 9.856383386231857595E-17, 8.673617379884035472E-17 ) ) ;
#827 = DIRECTION ( 'NONE',  ( 1.000000000000000000, 0.0000000000000000000, 0.0000000000000000000 ) ) ;
#828 = DIRECTION ( 'NONE',  ( 0.0000000000000000000, 0.0000000000000000000, 1.000000000000000000 ) ) ;
#829 = ORIENTED_EDGE ( 'NONE', *, *, #344, .T. ) ;
#830 = CARTESIAN_POINT ( 'NONE',  ( -1.899999999999999689, 0.03500000000000007966, 1.250000000000000000 ) ) ;
#831 = VECTOR ( 'NONE', #1001, 1000.000000000000000 ) ;
#832 = LINE ( 'NONE', #1078, #172 ) ;
#833 = DIRECTION ( 'NONE',  ( 0.0000000000000000000, 1.000000000000000000, 0.0000000000000000000 ) ) ;
#834 = CARTESIAN_POINT ( 'NONE',  ( 2.499999999999999556, -3.061616997868382155E-16, 1.250000000000000000 ) ) ;
#835 = EDGE_LOOP ( 'NONE', ( #389, #542, #29, #175 ) ) ;
#836 = ORIENTED_EDGE ( 'NONE', *, *, #884, .F. ) ;
#837 = VECTOR ( 'NONE', #254, 1000.000000000000000 ) ;
#838 = DIRECTION ( 'NONE',  ( 8.673617379884035472E-17, 0.0000000000000000000, 1.000000000000000000 ) ) ;
#839 = ORIENTED_EDGE ( 'NONE', *, *, #997, .F. ) ;
#840 = AXIS2_PLACEMENT_3D ( 'NONE', #795, #887, #904 ) ;
#841 = VECTOR ( 'NONE', #909, 1000.000000000000000 ) ;
#842 = CARTESIAN_POINT ( 'NONE',  ( -1.899999999999999911, 0.7000000000000002887, -1.250000000000000000 ) ) ;
#843 = FILL_AREA_STYLE ('',( #933 ) ) ;
#844 = ORIENTED_EDGE ( 'NONE', *, *, #638, .T. ) ;
#845 = VECTOR ( 'NONE', #96, 1000.000000000000000 ) ;
#846 = ORIENTED_EDGE ( 'NONE', *, *, #1145, .F. ) ;
#847 = DIRECTION ( 'NONE',  ( 1.000000000000000000, 0.0000000000000000000, -0.0000000000000000000 ) ) ;
#848 = FACE_OUTER_BOUND ( 'NONE', #959, .T. ) ;
#849 = ADVANCED_FACE ( 'NONE', ( #393 ), #523, .F. ) ;
#850 = EDGE_LOOP ( 'NONE', ( #354, #639, #905, #379 ) ) ;
#851 = CARTESIAN_POINT ( 'NONE',  ( -2.139999999999999680, 0.6649999999999998135, 1.250000000000000000 ) ) ;
#852 = ORIENTED_EDGE ( 'NONE', *, *, #485, .T. ) ;
#853 = ORIENTED_EDGE ( 'NONE', *, *, #1149, .F. ) ;
#854 = VECTOR ( 'NONE', #560, 1000.000000000000000 ) ;
#855 = CARTESIAN_POINT ( 'NONE',  ( -2.499999999999999556, -3.061616997868382155E-16, 1.250000000000000000 ) ) ;
#856 =( GEOMETRIC_REPRESENTATION_CONTEXT ( 3 ) GLOBAL_UNCERTAINTY_ASSIGNED_CONTEXT ( ( #482 ) ) GLOBAL_UNIT_ASSIGNED_CONTEXT ( ( #821, #277, #640 ) ) REPRESENTATION_CONTEXT ( 'NONE', 'WORKASPACE' ) );
#857 = EDGE_CURVE ( 'NONE', #193, #258, #686, .T. ) ;
#858 = CARTESIAN_POINT ( 'NONE',  ( 2.499999999999999556, 0.6999999999999996225, 1.250000000000000000 ) ) ;
#859 = EDGE_CURVE ( 'NONE', #55, #779, #431, .T. ) ;
#860 = MANIFOLD_SOLID_BREP ( 'Boss-Extrude2', #1062 ) ;
#861 = ORIENTED_EDGE ( 'NONE', *, *, #445, .T. ) ;
#862 = ADVANCED_FACE ( 'NONE', ( #478 ), #530, .F. ) ;
#863 = PLANE ( 'NONE',  #633 ) ;
#864 = VECTOR ( 'NONE', #215, 1000.000000000000000 ) ;
#865 = VECTOR ( 'NONE', #605, 1000.000000000000000 ) ;
#866 = EDGE_CURVE ( 'NONE', #805, #192, #929, .T. ) ;
#867 = DIRECTION ( 'NONE',  ( 9.856383386231857595E-17, 1.000000000000000000, -0.0000000000000000000 ) ) ;
#868 = EDGE_LOOP ( 'NONE', ( #889, #1215, #346, #369 ) ) ;
#869 = ADVANCED_FACE ( 'NONE', ( #729 ), #634, .T. ) ;
#870 = ORIENTED_EDGE ( 'NONE', *, *, #48, .F. ) ;
#871 = LINE ( 'NONE', #453, #465 ) ;
#872 = CARTESIAN_POINT ( 'NONE',  ( 2.464999999999999858, 0.6649999999999997025, 1.250000000000000000 ) ) ;
#873 = ORIENTED_EDGE ( 'NONE', *, *, #485, .F. ) ;
#874 = CARTESIAN_POINT ( 'NONE',  ( 2.140000000000000568, 0.6999999999999997335, -1.250000000000000000 ) ) ;
#875 = FACE_OUTER_BOUND ( 'NONE', #660, .T. ) ;
#876 = EDGE_LOOP ( 'NONE', ( #534, #1132, #265, #595 ) ) ;
#877 = CARTESIAN_POINT ( 'NONE',  ( 2.140000000000000568, 0.6999999999999998446, 0.8333333333333327042 ) ) ;
#878 = STYLED_ITEM ( 'NONE', ( #19 ), #224 ) ;
#879 = CARTESIAN_POINT ( 'NONE',  ( 2.140000000000000124, 0.6649999999999993694, -1.250000000000000000 ) ) ;
#880 = ORIENTED_EDGE ( 'NONE', *, *, #565, .F. ) ;
#881 = EDGE_CURVE ( 'NONE', #192, #990, #1011, .T. ) ;
#882 = ORIENTED_EDGE ( 'NONE', *, *, #1213, .T. ) ;
#883 = ORIENTED_EDGE ( 'NONE', *, *, #1016, .F. ) ;
#884 = EDGE_CURVE ( 'NONE', #941, #1009, #916, .T. ) ;
#885 = VECTOR ( 'NONE', #646, 1000.000000000000000 ) ;
#886 = PLANE ( 'NONE',  #324 ) ;
#887 = DIRECTION ( 'NONE',  ( -4.517509052022919693E-16, 4.452630116751073403E-32, 1.000000000000000000 ) ) ;
#888 = CARTESIAN_POINT ( 'NONE',  ( -1.899999999999999689, 0.0000000000000000000, -1.250000000000000000 ) ) ;
#889 = ORIENTED_EDGE ( 'NONE', *, *, #185, .F. ) ;
#890 = CARTESIAN_POINT ( 'NONE',  ( -1.899999999999999911, 0.7000000000000002887, -0.8333333333333328152 ) ) ;
#891 = LINE ( 'NONE', #637, #1086 ) ;
#892 = DIRECTION ( 'NONE',  ( 0.0000000000000000000, 0.0000000000000000000, -1.000000000000000000 ) ) ;
#893 = VECTOR ( 'NONE', #1082, 1000.000000000000000 ) ;
#894 = CARTESIAN_POINT ( 'NONE',  ( 2.140000000000000568, 0.6649999999999993694, 0.8333333333333327042 ) ) ;
#895 = CARTESIAN_POINT ( 'NONE',  ( 2.464999999999999858, 0.03500000000000001027, -6.220090542434814296 ) ) ;
#896 = VERTEX_POINT ( 'NONE', #169 ) ;
#897 = FACE_OUTER_BOUND ( 'NONE', #159, .T. ) ;
#898 = DIRECTION ( 'NONE',  ( 0.0000000000000000000, -0.0000000000000000000, -1.000000000000000000 ) ) ;
#899 = EDGE_CURVE ( 'NONE', #490, #337, #871, .T. ) ;
#900 = CARTESIAN_POINT ( 'NONE',  ( 1.899999999999999467, 0.6649999999999993694, -0.8333333333333332593 ) ) ;
#901 = CARTESIAN_POINT ( 'NONE',  ( -2.499999999999999556, -3.061616997868382155E-16, -1.250000000000000000 ) ) ;
#902 = DIRECTION ( 'NONE',  ( -0.0000000000000000000, -0.0000000000000000000, -1.000000000000000000 ) ) ;
#903 = AXIS2_PLACEMENT_3D ( 'NONE', #914, #917, #1198 ) ;
#904 = DIRECTION ( 'NONE',  ( 1.000000000000000000, 0.0000000000000000000, 4.517509052022919693E-16 ) ) ;
#905 = ORIENTED_EDGE ( 'NONE', *, *, #471, .F. ) ;
#906 = LINE ( 'NONE', #191, #845 ) ;
#907 = CARTESIAN_POINT ( 'NONE',  ( 0.0000000000000000000, 0.0000000000000000000, -1.250000000000000000 ) ) ;
#908 = VERTEX_POINT ( 'NONE', #1208 ) ;
#909 = DIRECTION ( 'NONE',  ( 1.040834085586084059E-15, 0.0000000000000000000, 1.000000000000000000 ) ) ;
#910 = LINE ( 'NONE', #1174, #382 ) ;
#911 = DIRECTION ( 'NONE',  ( -1.000000000000000000, 0.0000000000000000000, -0.0000000000000000000 ) ) ;
#912 = DIRECTION ( 'NONE',  ( -1.199338686377770440E-16, -1.000000000000000000, 0.0000000000000000000 ) ) ;
#913 = VERTEX_POINT ( 'NONE', #451 ) ;
#914 = CARTESIAN_POINT ( 'NONE',  ( 1.899999999999999467, -3.883626166217664100, -1.250000000000000000 ) ) ;
#915 = VERTEX_POINT ( 'NONE', #547 ) ;
#916 = LINE ( 'NONE', #1108, #387 ) ;
#917 = DIRECTION ( 'NONE',  ( 1.000000000000000000, -9.856383386231857595E-17, 0.0000000000000000000 ) ) ;
#918 = DIRECTION ( 'NONE',  ( -0.0000000000000000000, -1.000000000000000000, -0.0000000000000000000 ) ) ;
#919 = ORIENTED_EDGE ( 'NONE', *, *, #507, .T. ) ;
#920 = ORIENTED_EDGE ( 'NONE', *, *, #762, .F. ) ;
#921 = EDGE_CURVE ( 'NONE', #824, #1124, #1099, .T. ) ;
#922 = VECTOR ( 'NONE', #813, 1000.000000000000000 ) ;
#923 = CARTESIAN_POINT ( 'NONE',  ( 1.899999999999999689, 0.0000000000000000000, -1.250000000000000000 ) ) ;
#924 = EDGE_CURVE ( 'NONE', #934, #618, #75, .T. ) ;
#925 = FILL_AREA_STYLE_COLOUR ( '', #697 ) ;
#926 = CARTESIAN_POINT ( 'NONE',  ( -1.900000000000000355, 0.6649999999999998135, -1.250000000000000000 ) ) ;
#927 = ORIENTED_EDGE ( 'NONE', *, *, #1076, .F. ) ;
#928 = EDGE_CURVE ( 'NONE', #13, #1018, #962, .T. ) ;
#929 = LINE ( 'NONE', #80, #271 ) ;
#930 = DIRECTION ( 'NONE',  ( 0.0000000000000000000, 0.0000000000000000000, -1.000000000000000000 ) ) ;
#931 = CARTESIAN_POINT ( 'NONE',  ( 2.464999999999999858, 0.03500000000000001027, 1.250000000000000000 ) ) ;
#932 = CARTESIAN_POINT ( 'NONE',  ( -2.464999999999999858, 0.03500000000000001027, -1.250000000000000000 ) ) ;
#933 = FILL_AREA_STYLE_COLOUR ( '', #498 ) ;
#934 = VERTEX_POINT ( 'NONE', #1012 ) ;
#935 = LINE ( 'NONE', #363, #1126 ) ;
#936 = FACE_OUTER_BOUND ( 'NONE', #688, .T. ) ;
#937 = LINE ( 'NONE', #1161, #235 ) ;
#938 = DIRECTION ( 'NONE',  ( -1.040834085586083862E-15, -0.0000000000000000000, -1.000000000000000000 ) ) ;
#939 = LINE ( 'NONE', #6, #441 ) ;
#940 =( NAMED_UNIT ( * ) PLANE_ANGLE_UNIT ( ) SI_UNIT ( $, .RADIAN. ) );
#941 = VERTEX_POINT ( 'NONE', #181 ) ;
#942 = ORIENTED_EDGE ( 'NONE', *, *, #231, .T. ) ;
#943 = ORIENTED_EDGE ( 'NONE', *, *, #135, .T. ) ;
#944 = CARTESIAN_POINT ( 'NONE',  ( 1.899999999999999911, 0.6999999999999997335, 1.250000000000000000 ) ) ;
#945 = AXIS2_PLACEMENT_3D ( 'NONE', #797, #1004, #428 ) ;
#946 = ADVANCED_FACE ( 'NONE', ( #298 ), #804, .F. ) ;
#947 = VECTOR ( 'NONE', #528, 1000.000000000000000 ) ;
#948 = EDGE_CURVE ( 'NONE', #934, #896, #759, .T. ) ;
#949 = DIRECTION ( 'NONE',  ( 1.000000000000000000, -0.0000000000000000000, -0.0000000000000000000 ) ) ;
#950 = EDGE_CURVE ( 'NONE', #757, #1084, #713, .T. ) ;
#951 = ORIENTED_EDGE ( 'NONE', *, *, #568, .F. ) ;
#952 = EDGE_LOOP ( 'NONE', ( #292, #882, #10, #1144, #1052, #509, #820, #942 ) ) ;
#953 = ADVANCED_FACE ( 'NONE', ( #375 ), #442, .F. ) ;
#954 = DIRECTION ( 'NONE',  ( 0.0000000000000000000, 0.0000000000000000000, 1.000000000000000000 ) ) ;
#955 = UNCERTAINTY_MEASURE_WITH_UNIT (LENGTH_MEASURE( 1.000000000000000082E-05 ), #748, 'distance_accuracy_value', 'NONE');
#956 = LINE ( 'NONE', #585, #87 ) ;
#957 = LINE ( 'NONE', #212, #1167 ) ;
#958 = CARTESIAN_POINT ( 'NONE',  ( 1.899999999999999689, 0.6999999999999998446, 0.8333333333333328152 ) ) ;
#959 = EDGE_LOOP ( 'NONE', ( #919, #839, #46, #537 ) ) ;
#960 = ORIENTED_EDGE ( 'NONE', *, *, #117, .T. ) ;
#961 = PLANE ( 'NONE',  #1122 ) ;
#962 = LINE ( 'NONE', #812, #841 ) ;
#963 = ADVANCED_FACE ( 'NONE', ( #348 ), #540, .F. ) ;
#964 = DIRECTION ( 'NONE',  ( 0.0000000000000000000, 0.0000000000000000000, 1.000000000000000000 ) ) ;
#965 = EDGE_CURVE ( 'NONE', #908, #373, #162, .T. ) ;
#966 = CARTESIAN_POINT ( 'NONE',  ( -1.899999999999999689, 0.0000000000000000000, 1.250000000000000000 ) ) ;
#967 = PLANE ( 'NONE',  #778 ) ;
#968 = AXIS2_PLACEMENT_3D ( 'NONE', #435, #79, #426 ) ;
#969 = COLOUR_RGB ( '',0.7921568627450980005, 0.8196078431372548767, 0.9333333333333333481 ) ;
#970 = VECTOR ( 'NONE', #400, 1000.000000000000000 ) ;
#971 = CARTESIAN_POINT ( 'NONE',  ( 2.499999999999999556, 0.6999999999999996225, 1.250000000000000000 ) ) ;
#972 = VECTOR ( 'NONE', #95, 1000.000000000000000 ) ;
#973 = EDGE_CURVE ( 'NONE', #824, #695, #1134, .T. ) ;
#974 = ORIENTED_EDGE ( 'NONE', *, *, #950, .T. ) ;
#975 = CARTESIAN_POINT ( 'NONE',  ( 1.899999999999999689, 0.03500000000000007966, 1.250000000000000000 ) ) ;
#976 = ORIENTED_EDGE ( 'NONE', *, *, #507, .F. ) ;
#977 = CARTESIAN_POINT ( 'NONE',  ( -2.140000000000000124, 0.7000000000000002887, -1.249999999999999556 ) ) ;
#978 = VERTEX_POINT ( 'NONE', #73 ) ;
#979 = COLOUR_RGB ( '',1.000000000000000000, 1.000000000000000000, 1.000000000000000000 ) ;
#980 = CARTESIAN_POINT ( 'NONE',  ( 2.464999999999999858, 0.03500000000000001027, 1.250000000000000000 ) ) ;
#981 = ORIENTED_EDGE ( 'NONE', *, *, #1041, .T. ) ;
#982 = LINE ( 'NONE', #466, #525 ) ;
#983 = ORIENTED_EDGE ( 'NONE', *, *, #77, .T. ) ;
#984 = DIRECTION ( 'NONE',  ( 0.0000000000000000000, 0.0000000000000000000, -1.000000000000000000 ) ) ;
#985 = FACE_OUTER_BOUND ( 'NONE', #243, .T. ) ;
#986 = VECTOR ( 'NONE', #56, 1000.000000000000000 ) ;
#987 = VECTOR ( 'NONE', #703, 1000.000000000000000 ) ;
#988 = CARTESIAN_POINT ( 'NONE',  ( -2.464999999999999858, 0.03500000000000001027, 1.250000000000000000 ) ) ;
#989 = AXIS2_PLACEMENT_3D ( 'NONE', #318, #35, #1165 ) ;
#990 = VERTEX_POINT ( 'NONE', #152 ) ;
#991 = ORIENTED_EDGE ( 'NONE', *, *, #98, .T. ) ;
#992 = EDGE_CURVE ( 'NONE', #1045, #1080, #743, .T. ) ;
#993 = CARTESIAN_POINT ( 'NONE',  ( -1.899999999999999689, 0.03500000000000007966, 1.250000000000000000 ) ) ;
#994 = CARTESIAN_POINT ( 'NONE',  ( -2.499999999999999556, -3.061616997868382155E-16, 1.250000000000000000 ) ) ;
#995 = CARTESIAN_POINT ( 'NONE',  ( 1.899999999999999689, 0.6999999999999998446, 0.8333333333333328152 ) ) ;
#996 = CARTESIAN_POINT ( 'NONE',  ( -2.499999999999999556, -3.061616997868382155E-16, 1.250000000000000000 ) ) ;
#997 = EDGE_CURVE ( 'NONE', #621, #908, #41, .T. ) ;
#998 = CARTESIAN_POINT ( 'NONE',  ( -2.139999999999999680, 0.6649999999999998135, 0.8333333333333332593 ) ) ;
#999 = CLOSED_SHELL ( 'NONE', ( #394, #1044, #1050, #22, #109, #113, #121, #213, #953, #310, #849, #210, #676, #304 ) ) ;
#1000 = FILL_AREA_STYLE_COLOUR ( '', #979 ) ;
#1001 = DIRECTION ( 'NONE',  ( 9.856383386231857595E-17, 1.000000000000000000, 0.0000000000000000000 ) ) ;
#1002 = CARTESIAN_POINT ( 'NONE',  ( -2.139999999999999680, 0.7000000000000002887, 1.250000000000000000 ) ) ;
#1003 = ORIENTED_EDGE ( 'NONE', *, *, #656, .T. ) ;
#1004 = DIRECTION ( 'NONE',  ( 5.102694996447304742E-16, 1.000000000000000000, 0.0000000000000000000 ) ) ;
#1005 = ORIENTED_EDGE ( 'NONE', *, *, #161, .F. ) ;
#1006 = CARTESIAN_POINT ( 'NONE',  ( -1.900000000000000355, -3.883626166217664100, -1.250000000000000000 ) ) ;
#1007 = EDGE_LOOP ( 'NONE', ( #803, #746, #650, #1064 ) ) ;
#1008 = LINE ( 'NONE', #144, #682 ) ;
#1009 = VERTEX_POINT ( 'NONE', #163 ) ;
#1010 = DIRECTION ( 'NONE',  ( 9.856383386231857595E-17, 1.000000000000000000, -0.0000000000000000000 ) ) ;
#1011 = LINE ( 'NONE', #1021, #239 ) ;
#1012 = CARTESIAN_POINT ( 'NONE',  ( -1.899999999999999689, 0.6649999999999998135, 0.8333333333333332593 ) ) ;
#1013 = CARTESIAN_POINT ( 'NONE',  ( -1.899999999999999689, 0.6649999999999998135, 0.8333333333333332593 ) ) ;
#1014 = DIRECTION ( 'NONE',  ( -1.000000000000000000, -0.0000000000000000000, 4.517509052022923637E-16 ) ) ;
#1015 = EDGE_LOOP ( 'NONE', ( #462, #110, #976, #681, #787, #1090, #1107, #99 ) ) ;
#1016 = EDGE_CURVE ( 'NONE', #1105, #1026, #450, .T. ) ;
#1017 = DIRECTION ( 'NONE',  ( 0.0000000000000000000, 0.0000000000000000000, -1.000000000000000000 ) ) ;
#1018 = VERTEX_POINT ( 'NONE', #65 ) ;
#1019 = PLANE ( 'NONE',  #1173 ) ;
#1020 = EDGE_CURVE ( 'NONE', #1026, #1084, #402, .T. ) ;
#1021 = CARTESIAN_POINT ( 'NONE',  ( -2.140000000000000124, 0.6649999999999998135, -1.249999999999999556 ) ) ;
#1022 = LINE ( 'NONE', #895, #986 ) ;
#1023 = LINE ( 'NONE', #220, #575 ) ;
#1024 = VECTOR ( 'NONE', #1169, 1000.000000000000000 ) ;
#1025 = CARTESIAN_POINT ( 'NONE',  ( 1.899999999999999467, 0.6999999999999998446, -0.8333333333333332593 ) ) ;
#1026 = VERTEX_POINT ( 'NONE', #714 ) ;
#1027 = ORIENTED_EDGE ( 'NONE', *, *, #859, .T. ) ;
#1028 = LINE ( 'NONE', #1200, #552 ) ;
#1029 = CARTESIAN_POINT ( 'NONE',  ( -2.464999999999999858, 0.03500000000000001027, 1.250000000000000000 ) ) ;
#1030 = DIRECTION ( 'NONE',  ( 1.000000000000000000, 0.0000000000000000000, 0.0000000000000000000 ) ) ;
#1031 =( NAMED_UNIT ( * ) SI_UNIT ( $, .STERADIAN. ) SOLID_ANGLE_UNIT ( ) );
#1032 = CARTESIAN_POINT ( 'NONE',  ( 2.140000000000000124, 0.6649999999999993694, -1.250000000000000000 ) ) ;
#1033 = CARTESIAN_POINT ( 'NONE',  ( -2.464999999999999858, 0.6649999999999997025, 1.250000000000000000 ) ) ;
#1034 = EDGE_CURVE ( 'NONE', #1138, #690, #229, .T. ) ;
#1035 = FACE_OUTER_BOUND ( 'NONE', #1007, .T. ) ;
#1036 = APPLICATION_PROTOCOL_DEFINITION ( 'draft international standard', 'automotive_design', 1998, #658 ) ;
#1037 = ORIENTED_EDGE ( 'NONE', *, *, #66, .F. ) ;
#1038 = SURFACE_STYLE_USAGE ( .BOTH. , #297 ) ;
#1039 = ORIENTED_EDGE ( 'NONE', *, *, #721, .F. ) ;
#1040 = ADVANCED_FACE ( 'NONE', ( #106 ), #1114, .F. ) ;
#1041 = EDGE_CURVE ( 'NONE', #579, #240, #1159, .T. ) ;
#1042 = VECTOR ( 'NONE', #1094, 1000.000000000000000 ) ;
#1043 = DIRECTION ( 'NONE',  ( -0.0000000000000000000, -0.0000000000000000000, -1.000000000000000000 ) ) ;
#1044 = ADVANCED_FACE ( 'NONE', ( #180 ), #1087, .F. ) ;
#1045 = VERTEX_POINT ( 'NONE', #995 ) ;
#1046 = FACE_OUTER_BOUND ( 'NONE', #413, .T. ) ;
#1047 = EDGE_LOOP ( 'NONE', ( #991, #276, #1157, #187, #470, #1117, #776, #666 ) ) ;
#1048 = LINE ( 'NONE', #611, #305 ) ;
#1049 = CARTESIAN_POINT ( 'NONE',  ( -2.140000000000000124, 0.6649999999999998135, -1.249999999999999556 ) ) ;
#1050 = ADVANCED_FACE ( 'NONE', ( #122 ), #544, .F. ) ;
#1051 = LINE ( 'NONE', #315, #865 ) ;
#1052 = ORIENTED_EDGE ( 'NONE', *, *, #9, .T. ) ;
#1053 = LINE ( 'NONE', #1049, #801 ) ;
#1054 = AXIS2_PLACEMENT_3D ( 'NONE', #1116, #272, #1203 ) ;
#1055 = DIRECTION ( 'NONE',  ( 0.0000000000000000000, 0.0000000000000000000, -1.000000000000000000 ) ) ;
#1056 = EDGE_CURVE ( 'NONE', #489, #490, #808, .T. ) ;
#1057 = DIRECTION ( 'NONE',  ( 0.0000000000000000000, 1.000000000000000000, 0.0000000000000000000 ) ) ;
#1058 = ORIENTED_EDGE ( 'NONE', *, *, #568, .T. ) ;
#1059 = ADVANCED_FACE ( 'NONE', ( #196 ), #287, .T. ) ;
#1060 = EDGE_CURVE ( 'NONE', #250, #489, #1081, .T. ) ;
#1061 = CARTESIAN_POINT ( 'NONE',  ( -1.899999999999999689, 0.03500000000000007966, -1.250000000000000000 ) ) ;
#1062 = CLOSED_SHELL ( 'NONE', ( #492, #773, #1146, #202, #32, #588 ) ) ;
#1063 = CARTESIAN_POINT ( 'NONE',  ( 1.899999999999999689, 0.0000000000000000000, 1.250000000000000000 ) ) ;
#1064 = ORIENTED_EDGE ( 'NONE', *, *, #636, .T. ) ;
#1065 = ORIENTED_EDGE ( 'NONE', *, *, #269, .T. ) ;
#1066 = CARTESIAN_POINT ( 'NONE',  ( 1.899999999999999689, 0.03500000000000007966, -1.250000000000000000 ) ) ;
#1067 = MECHANICAL_DESIGN_GEOMETRIC_PRESENTATION_REPRESENTATION (  '', ( #279 ), #501 ) ;
#1068 = CARTESIAN_POINT ( 'NONE',  ( 2.140000000000000568, 0.6999999999999998446, 1.249999999999999556 ) ) ;
#1069 = DIRECTION ( 'NONE',  ( -1.000000000000000000, -0.0000000000000000000, -0.0000000000000000000 ) ) ;
#1070 = ORIENTED_EDGE ( 'NONE', *, *, #288, .T. ) ;
#1071 = FACE_OUTER_BOUND ( 'NONE', #732, .T. ) ;
#1072 = DIRECTION ( 'NONE',  ( -1.000000000000000000, 9.856383386231857595E-17, 0.0000000000000000000 ) ) ;
#1073 = MECHANICAL_DESIGN_GEOMETRIC_PRESENTATION_REPRESENTATION (  '', ( #45 ), #205 ) ;
#1074 = VECTOR ( 'NONE', #136, 1000.000000000000000 ) ;
#1075 = CARTESIAN_POINT ( 'NONE',  ( -1.899999999999999689, 0.0000000000000000000, -1.250000000000000000 ) ) ;
#1076 = EDGE_CURVE ( 'NONE', #83, #116, #1119, .T. ) ;
#1077 = EDGE_CURVE ( 'NONE', #55, #1186, #364, .T. ) ;
#1078 = CARTESIAN_POINT ( 'NONE',  ( -2.139999999999999680, 0.6649999999999998135, -0.8333333333333328152 ) ) ;
#1079 = PLANE ( 'NONE',  #1189 ) ;
#1080 = VERTEX_POINT ( 'NONE', #1025 ) ;
#1081 = LINE ( 'NONE', #452, #581 ) ;
#1082 = DIRECTION ( 'NONE',  ( 1.000000000000000000, 5.102694996447304742E-16, -0.0000000000000000000 ) ) ;
#1083 = PLANE ( 'NONE',  #840 ) ;
#1084 = VERTEX_POINT ( 'NONE', #923 ) ;
#1085 = CARTESIAN_POINT ( 'NONE',  ( -2.499999999999999556, -3.061616997868382155E-16, -1.250000000000000000 ) ) ;
#1086 = VECTOR ( 'NONE', #278, 1000.000000000000000 ) ;
#1087 = PLANE ( 'NONE',  #582 ) ;
#1088 = VECTOR ( 'NONE', #949, 1000.000000000000000 ) ;
#1089 = CARTESIAN_POINT ( 'NONE',  ( -1.899999999999999911, 0.6999999999999997335, 1.250000000000000000 ) ) ;
#1090 = ORIENTED_EDGE ( 'NONE', *, *, #928, .F. ) ;
#1091 = DIRECTION ( 'NONE',  ( -1.000000000000000000, 5.102694996447304742E-16, 0.0000000000000000000 ) ) ;
#1092 = ORIENTED_EDGE ( 'NONE', *, *, #381, .T. ) ;
#1093 = EDGE_CURVE ( 'NONE', #405, #1138, #775, .T. ) ;
#1094 = DIRECTION ( 'NONE',  ( -0.0000000000000000000, -0.0000000000000000000, -1.000000000000000000 ) ) ;
#1095 = VECTOR ( 'NONE', #425, 1000.000000000000000 ) ;
#1096 = ORIENTED_EDGE ( 'NONE', *, *, #1041, .F. ) ;
#1097 = VECTOR ( 'NONE', #183, 1000.000000000000000 ) ;
#1098 = DIRECTION ( 'NONE',  ( -1.000000000000000000, 9.856383386231857595E-17, 1.040834085586084059E-15 ) ) ;
#1099 = LINE ( 'NONE', #266, #253 ) ;
#1100 = DIRECTION ( 'NONE',  ( -1.000000000000000000, 0.0000000000000000000, -0.0000000000000000000 ) ) ;
#1101 = PRODUCT ( 'CRCW2010100RDHEFP', 'CRCW2010100RDHEFP', '', ( #1137 ) ) ;
#1102 = SURFACE_STYLE_USAGE ( .BOTH. , #806 ) ;
#1103 = EDGE_CURVE ( 'NONE', #793, #1105, #569, .T. ) ;
#1104 = FILL_AREA_STYLE ('',( #353 ) ) ;
#1105 = VERTEX_POINT ( 'NONE', #275 ) ;
#1106 = CARTESIAN_POINT ( 'NONE',  ( 1.899999999999999911, 0.6999999999999997335, 1.250000000000000000 ) ) ;
#1107 = ORIENTED_EDGE ( 'NONE', *, *, #1149, .T. ) ;
#1108 = CARTESIAN_POINT ( 'NONE',  ( 1.899999999999999467, 0.6649999999999993694, -0.8333333333333332593 ) ) ;
#1109 = LINE ( 'NONE', #439, #831 ) ;
#1110 = DIRECTION ( 'NONE',  ( -1.000000000000000000, 0.0000000000000000000, 0.0000000000000000000 ) ) ;
#1111 = SURFACE_STYLE_FILL_AREA ( #1104 ) ;
#1112 = FACE_OUTER_BOUND ( 'NONE', #137, .T. ) ;
#1113 = LINE ( 'NONE', #842, #819 ) ;
#1114 = PLANE ( 'NONE',  #1201 ) ;
#1115 = ORIENTED_EDGE ( 'NONE', *, *, #551, .T. ) ;
#1116 = CARTESIAN_POINT ( 'NONE',  ( 2.464999999999999858, 0.6649999999999997025, 1.250000000000000000 ) ) ;
#1117 = ORIENTED_EDGE ( 'NONE', *, *, #881, .T. ) ;
#1118 = CARTESIAN_POINT ( 'NONE',  ( 7.988858113051086795E-17, 0.7000000000000000666, -6.929229857478749864E-33 ) ) ;
#1119 = LINE ( 'NONE', #643, #854 ) ;
#1120 = CARTESIAN_POINT ( 'NONE',  ( -1.899999999999999689, 0.0000000000000000000, 1.250000000000000000 ) ) ;
#1121 = PLANE ( 'NONE',  #376 ) ;
#1122 = AXIS2_PLACEMENT_3D ( 'NONE', #300, #114, #763 ) ;
#1123 = DIRECTION ( 'NONE',  ( 0.0000000000000000000, 1.000000000000000000, 0.0000000000000000000 ) ) ;
#1124 = VERTEX_POINT ( 'NONE', #734 ) ;
#1125 = CARTESIAN_POINT ( 'NONE',  ( -2.464999999999999858, 0.6649999999999997025, -6.220090542434814296 ) ) ;
#1126 = VECTOR ( 'NONE', #257, 1000.000000000000000 ) ;
#1127 = FACE_OUTER_BOUND ( 'NONE', #233, .T. ) ;
#1128 = CARTESIAN_POINT ( 'NONE',  ( -1.900000000000000133, -3.883626166217664100, 1.250000000000000000 ) ) ;
#1129 = VECTOR ( 'NONE', #1069, 1000.000000000000000 ) ;
#1130 = PLANE ( 'NONE',  #198 ) ;
#1131 = ORIENTED_EDGE ( 'NONE', *, *, #1182, .F. ) ;
#1132 = ORIENTED_EDGE ( 'NONE', *, *, #924, .F. ) ;
#1133 = CARTESIAN_POINT ( 'NONE',  ( -1.900000000000000355, 0.6649999999999998135, -1.250000000000000000 ) ) ;
#1134 = LINE ( 'NONE', #894, #1205 ) ;
#1135 = CARTESIAN_POINT ( 'NONE',  ( -1.900000000000000355, -3.883626166217664100, -1.250000000000000000 ) ) ;
#1136 = ADVANCED_FACE ( 'NONE', ( #200 ), #1019, .T. ) ;
#1137 = PRODUCT_CONTEXT ( 'NONE', #475, 'mechanical' ) ;
#1138 = VERTEX_POINT ( 'NONE', #458 ) ;
#1139 = PRODUCT_RELATED_PRODUCT_CATEGORY ( 'part', '', ( #1101 ) ) ;
#1140 = VECTOR ( 'NONE', #367, 1000.000000000000000 ) ;
#1141 = DIRECTION ( 'NONE',  ( 0.0000000000000000000, 1.000000000000000000, 0.0000000000000000000 ) ) ;
#1142 = AXIS2_PLACEMENT_3D ( 'NONE', #726, #432, #911 ) ;
#1143 = ORIENTED_EDGE ( 'NONE', *, *, #4, .T. ) ;
#1144 = ORIENTED_EDGE ( 'NONE', *, *, #675, .F. ) ;
#1145 = EDGE_CURVE ( 'NONE', #193, #228, #982, .T. ) ;
#1146 = ADVANCED_FACE ( 'NONE', ( #1046 ), #1130, .T. ) ;
#1147 = VECTOR ( 'NONE', #902, 1000.000000000000000 ) ;
#1148 = CARTESIAN_POINT ( 'NONE',  ( -2.139999999999999680, 0.6649999999999998135, 1.250000000000000000 ) ) ;
#1149 = EDGE_CURVE ( 'NONE', #13, #780, #906, .T. ) ;
#1150 = CARTESIAN_POINT ( 'NONE',  ( 2.499999999999999556, -3.061616997868382155E-16, 1.250000000000000000 ) ) ;
#1151 = ORIENTED_EDGE ( 'NONE', *, *, #857, .F. ) ;
#1152 = ADVANCED_FACE ( 'NONE', ( #541 ), #1121, .T. ) ;
#1153 = DIRECTION ( 'NONE',  ( 9.856383386231857595E-17, 1.000000000000000000, -0.0000000000000000000 ) ) ;
#1154 = VECTOR ( 'NONE', #311, 1000.000000000000000 ) ;
#1155 = ADVANCED_FACE ( 'NONE', ( #875 ), #745, .F. ) ;
#1156 = SURFACE_SIDE_STYLE ('',( #84 ) ) ;
#1157 = ORIENTED_EDGE ( 'NONE', *, *, #764, .F. ) ;
#1158 = DIRECTION ( 'NONE',  ( -1.000000000000000000, 5.102694996447304742E-16, 0.0000000000000000000 ) ) ;
#1159 = LINE ( 'NONE', #174, #699 ) ;
#1160 = VERTEX_POINT ( 'NONE', #1033 ) ;
#1161 = CARTESIAN_POINT ( 'NONE',  ( 1.899999999999999689, 0.6649999999999993694, 0.8333333333333328152 ) ) ;
#1162 = VECTOR ( 'NONE', #184, 1000.000000000000000 ) ;
#1163 = ORIENTED_EDGE ( 'NONE', *, *, #51, .F. ) ;
#1164 = PRODUCT_DEFINITION_SHAPE ( 'NONE', 'NONE',  #433 ) ;
#1165 = DIRECTION ( 'NONE',  ( -1.000000000000000000, 0.0000000000000000000, 4.517509052022923637E-16 ) ) ;
#1166 = EDGE_CURVE ( 'NONE', #1084, #719, #472, .T. ) ;
#1167 = VECTOR ( 'NONE', #767, 1000.000000000000000 ) ;
#1168 = CARTESIAN_POINT ( 'NONE',  ( -2.139999999999999680, 0.6649999999999998135, 0.8333333333333332593 ) ) ;
#1169 = DIRECTION ( 'NONE',  ( 0.0000000000000000000, 1.000000000000000000, 0.0000000000000000000 ) ) ;
#1170 = ORIENTED_EDGE ( 'NONE', *, *, #1077, .F. ) ;
#1171 = VECTOR ( 'NONE', #1010, 1000.000000000000000 ) ;
#1172 = CARTESIAN_POINT ( 'NONE',  ( 1.899999999999999911, 0.6999999999999998446, -1.250000000000000000 ) ) ;
#1173 = AXIS2_PLACEMENT_3D ( 'NONE', #1118, #281, #556 ) ;
#1174 = CARTESIAN_POINT ( 'NONE',  ( 1.899999999999999689, 0.03500000000000007966, -1.250000000000000000 ) ) ;
#1175 = CLOSED_SHELL ( 'NONE', ( #1059, #299, #869, #385, #1136, #657 ) ) ;
#1176 = CARTESIAN_POINT ( 'NONE',  ( -1.900000000000000133, 0.6649999999999998135, 1.250000000000000000 ) ) ;
#1177 = UNCERTAINTY_MEASURE_WITH_UNIT (LENGTH_MEASURE( 1.000000000000000082E-05 ), #408, 'distance_accuracy_value', 'NONE');
#1178 = DIRECTION ( 'NONE',  ( -1.000000000000000000, 0.0000000000000000000, -0.0000000000000000000 ) ) ;
#1179 = LINE ( 'NONE', #446, #922 ) ;
#1180 = PLANE ( 'NONE',  #672 ) ;
#1181 = VECTOR ( 'NONE', #27, 1000.000000000000000 ) ;
#1182 = EDGE_CURVE ( 'NONE', #250, #1160, #139, .T. ) ;
#1183 = DIRECTION ( 'NONE',  ( 9.856383386231857595E-17, 1.000000000000000000, -0.0000000000000000000 ) ) ;
#1184 = DIRECTION ( 'NONE',  ( -0.0000000000000000000, -0.0000000000000000000, -1.000000000000000000 ) ) ;
#1185 = EDGE_LOOP ( 'NONE', ( #591, #852, #844, #570, #518, #1193, #417, #71 ) ) ;
#1186 = VERTEX_POINT ( 'NONE', #1029 ) ;
#1187 = CARTESIAN_POINT ( 'NONE',  ( -1.899999999999999689, 0.03500000000000007966, 1.250000000000000000 ) ) ;
#1188 = DIRECTION ( 'NONE',  ( 0.0000000000000000000, 0.0000000000000000000, 1.000000000000000000 ) ) ;
#1189 = AXIS2_PLACEMENT_3D ( 'NONE', #620, #1098, #82 ) ;
#1190 = PLANE ( 'NONE',  #798 ) ;
#1191 = CARTESIAN_POINT ( 'NONE',  ( 1.899999999999999689, 0.03500000000000007966, 1.250000000000000000 ) ) ;
#1192 = CARTESIAN_POINT ( 'NONE',  ( 2.499999999999999556, 0.6999999999999996225, 1.250000000000000000 ) ) ;
#1193 = ORIENTED_EDGE ( 'NONE', *, *, #762, .T. ) ;
#1194 = DIRECTION ( 'NONE',  ( -1.000000000000000000, -5.102694996447304742E-16, 0.0000000000000000000 ) ) ;
#1195 = VERTEX_POINT ( 'NONE', #1075 ) ;
#1196 = VECTOR ( 'NONE', #86, 1000.000000000000000 ) ;
#1197 = CARTESIAN_POINT ( 'NONE',  ( 2.499999999999999556, -3.061616997868382155E-16, 1.250000000000000000 ) ) ;
#1198 = DIRECTION ( 'NONE',  ( 9.856383386231857595E-17, 1.000000000000000000, 0.0000000000000000000 ) ) ;
#1199 = VECTOR ( 'NONE', #1141, 1000.000000000000000 ) ;
#1200 = CARTESIAN_POINT ( 'NONE',  ( -1.899999999999999689, 0.0000000000000000000, 1.250000000000000000 ) ) ;
#1201 = AXIS2_PLACEMENT_3D ( 'NONE', #521, #252, #617 ) ;
#1202 = ORIENTED_EDGE ( 'NONE', *, *, #503, .F. ) ;
#1203 = DIRECTION ( 'NONE',  ( 0.0000000000000000000, 0.0000000000000000000, 1.000000000000000000 ) ) ;
#1204 = ORIENTED_EDGE ( 'NONE', *, *, #965, .T. ) ;
#1205 = VECTOR ( 'NONE', #718, 1000.000000000000000 ) ;
#1206 = CARTESIAN_POINT ( 'NONE',  ( 1.899999999999999911, 0.6649999999999998135, -1.250000000000000000 ) ) ;
#1207 = PRESENTATION_LAYER_ASSIGNMENT (  '', '', ( #264 ) ) ;
#1208 = CARTESIAN_POINT ( 'NONE',  ( -2.139999999999999680, 0.7000000000000002887, 0.8333333333333332593 ) ) ;
#1209 = EDGE_CURVE ( 'NONE', #941, #1080, #1214, .T. ) ;
#1210 =( NAMED_UNIT ( * ) PLANE_ANGLE_UNIT ( ) SI_UNIT ( $, .RADIAN. ) );
#1211 = EDGE_LOOP ( 'NONE', ( #710, #69, #1170, #1027 ) ) ;
#1212 = DIRECTION ( 'NONE',  ( 0.0000000000000000000, 0.0000000000000000000, 1.000000000000000000 ) ) ;
#1213 = EDGE_CURVE ( 'NONE', #1009, #454, #659, .T. ) ;
#1214 = LINE ( 'NONE', #900, #217 ) ;
#1215 = ORIENTED_EDGE ( 'NONE', *, *, #488, .T. ) ;
#1216 = CARTESIAN_POINT ( 'NONE',  ( 2.464999999999999858, 0.6649999999999997025, -1.250000000000000222 ) ) ;
#1217 = LINE ( 'NONE', #996, #245 ) ;
#1218 = CARTESIAN_POINT ( 'NONE',  ( -2.464999999999999858, 0.03500000000000001027, -6.220090542434814296 ) ) ;
#1219 = ORIENTED_EDGE ( 'NONE', *, *, #48, .T. ) ;
#1220 = ORIENTED_EDGE ( 'NONE', *, *, #721, .T. ) ;
#1221 = SURFACE_SIDE_STYLE ('',( #25 ) ) ;
#1222 = ORIENTED_EDGE ( 'NONE', *, *, #794, .T. ) ;
#1223 = ORIENTED_EDGE ( 'NONE', *, *, #997, .T. ) ;
#1224 = SURFACE_STYLE_FILL_AREA ( #720 ) ;
#1225 = DIRECTION ( 'NONE',  ( 0.0000000000000000000, 1.000000000000000000, 0.0000000000000000000 ) ) ;
ENDSEC;
END-ISO-10303-21;
