%TF.GenerationSoftware,KiCad,Pcbnew,9.0.7*%
%TF.CreationDate,2026-03-19T01:08:54-04:00*%
%TF.ProjectId,Calibration Board,43616c69-6272-4617-9469-6f6e20426f61,rev?*%
%TF.SameCoordinates,Original*%
%TF.FileFunction,Soldermask,Top*%
%TF.FilePolarity,Negative*%
%FSLAX46Y46*%
G04 Gerber Fmt 4.6, Leading zero omitted, Abs format (unit mm)*
G04 Created by KiCad (PCBNEW 9.0.7) date 2026-03-19 01:08:54*
%MOMM*%
%LPD*%
G01*
G04 APERTURE LIST*
G04 Aperture macros list*
%AMRoundRect*
0 Rectangle with rounded corners*
0 $1 Rounding radius*
0 $2 $3 $4 $5 $6 $7 $8 $9 X,Y pos of 4 corners*
0 Add a 4 corners polygon primitive as box body*
4,1,4,$2,$3,$4,$5,$6,$7,$8,$9,$2,$3,0*
0 Add four circle primitives for the rounded corners*
1,1,$1+$1,$2,$3*
1,1,$1+$1,$4,$5*
1,1,$1+$1,$6,$7*
1,1,$1+$1,$8,$9*
0 Add four rect primitives between the rounded corners*
20,1,$1+$1,$2,$3,$4,$5,0*
20,1,$1+$1,$4,$5,$6,$7,0*
20,1,$1+$1,$6,$7,$8,$9,0*
20,1,$1+$1,$8,$9,$2,$3,0*%
%AMFreePoly0*
4,1,32,0.859954,1.282520,0.897008,1.231520,0.902000,1.200000,0.902000,-1.200000,0.882520,-1.259954,0.831520,-1.297008,0.800000,-1.302000,-0.749600,-1.302000,-0.751983,-1.303214,-0.760963,-1.306934,-0.800000,-1.314700,-1.600000,-1.314700,-1.639037,-1.306934,-1.648017,-1.303214,-1.695951,-1.262272,-1.703214,-1.248017,-1.706934,-1.239037,-1.714700,-1.200000,-1.714700,0.400000,-1.706934,0.439037,
-1.703214,0.448017,-1.662272,0.495951,-1.648017,0.503214,-1.639037,0.506934,-1.600000,0.514700,-0.902000,0.514700,-0.902000,1.200000,-0.882520,1.259954,-0.831520,1.297008,-0.800000,1.302000,0.800000,1.302000,0.859954,1.282520,0.859954,1.282520,$1*%
%AMFreePoly1*
4,1,32,0.859954,1.282520,0.897008,1.231520,0.902000,1.200000,0.902000,0.514700,1.600000,0.514700,1.639037,0.506934,1.648017,0.503214,1.695951,0.462272,1.703214,0.448017,1.706934,0.439037,1.714700,0.400000,1.714700,-1.200000,1.706934,-1.239037,1.703214,-1.248017,1.662272,-1.295951,1.648017,-1.303214,1.639037,-1.306934,1.600000,-1.314700,0.800000,-1.314700,0.760963,-1.306934,
0.751983,-1.303214,0.750562,-1.302000,-0.800000,-1.302000,-0.859954,-1.282520,-0.897008,-1.231520,-0.902000,-1.200000,-0.902000,1.200000,-0.882520,1.259954,-0.831520,1.297008,-0.800000,1.302000,0.800000,1.302000,0.859954,1.282520,0.859954,1.282520,$1*%
G04 Aperture macros list end*
%ADD10C,0.025400*%
%ADD11RoundRect,0.015000X-0.600000X0.140000X-0.600000X-0.140000X0.600000X-0.140000X0.600000X0.140000X0*%
%ADD12RoundRect,0.015000X-0.600000X0.150000X-0.600000X-0.150000X0.600000X-0.150000X0.600000X0.150000X0*%
%ADD13RoundRect,0.015000X-0.600000X0.139999X-0.600000X-0.139999X0.600000X-0.139999X0.600000X0.139999X0*%
%ADD14FreePoly0,270.000000*%
%ADD15FreePoly1,270.000000*%
%ADD16RoundRect,0.025000X0.774700X-0.495300X0.774700X0.495300X-0.774700X0.495300X-0.774700X-0.495300X0*%
%ADD17RoundRect,0.025000X-0.304800X-1.028700X0.304800X-1.028700X0.304800X1.028700X-0.304800X1.028700X0*%
%ADD18C,1.524000*%
%ADD19C,2.413000*%
%ADD20C,4.400000*%
G04 APERTURE END LIST*
D10*
%TO.C,J1*%
X123550410Y-91900000D02*
X121950410Y-91900000D01*
X121950410Y-91100000D01*
X123550410Y-91100000D01*
X123550410Y-91900000D01*
G36*
X123550410Y-91900000D02*
G01*
X121950410Y-91900000D01*
X121950410Y-91100000D01*
X123550410Y-91100000D01*
X123550410Y-91900000D01*
G37*
%TD*%
D11*
%TO.C,J1*%
X125850000Y-94400000D03*
X125850000Y-94900000D03*
X125850000Y-95400000D03*
X125850000Y-95900000D03*
X125850000Y-96400000D03*
X125850000Y-96900000D03*
D12*
X125850000Y-97400020D03*
X125850000Y-97900020D03*
D11*
X125850000Y-98400000D03*
X125850000Y-98900000D03*
X125850000Y-99400000D03*
X125850000Y-99900000D03*
X125850000Y-100400000D03*
X125850000Y-100900000D03*
X125850000Y-101400000D03*
X125850000Y-101900000D03*
X125850000Y-102400000D03*
D13*
X125850000Y-102900001D03*
D11*
X125850000Y-103400000D03*
X125850000Y-103900000D03*
X125850000Y-104400000D03*
X125850000Y-104900000D03*
X125850000Y-105400000D03*
X125850000Y-105900000D03*
X125850000Y-106400000D03*
X125850000Y-106900000D03*
X125850000Y-107400000D03*
X125850000Y-107900000D03*
X125850000Y-108400000D03*
X125850000Y-108900000D03*
X125850000Y-109400000D03*
X125850000Y-109900000D03*
X125850000Y-110400000D03*
X125850000Y-110900000D03*
X125850000Y-111400000D03*
X125850000Y-111900000D03*
D14*
X123152010Y-92700000D03*
D15*
X123152010Y-113600000D03*
%TD*%
D16*
%TO.C,J2*%
X146700000Y-124080000D03*
X152516600Y-124080000D03*
X146700000Y-121540000D03*
X152516600Y-121540000D03*
X146700000Y-119000000D03*
X152516600Y-119000000D03*
X146700000Y-116460000D03*
X152516600Y-116460000D03*
X146700000Y-113920000D03*
X152516600Y-113920000D03*
X146700000Y-111380000D03*
X152516600Y-111380000D03*
X146700000Y-108840000D03*
X152516600Y-108840000D03*
X146700000Y-106300000D03*
X152516600Y-106300000D03*
%TD*%
D17*
%TO.C,J6*%
X163330000Y-86374550D03*
X165870000Y-90032150D03*
%TD*%
D18*
%TO.C,J4*%
X167113500Y-103150000D03*
D19*
X174913499Y-99350000D03*
X174913499Y-106950000D03*
%TD*%
D20*
%TO.C,MH1*%
X124600000Y-128150000D03*
X124600000Y-78150000D03*
X174600000Y-78150000D03*
X174600000Y-128150000D03*
%TD*%
D17*
%TO.C,J5*%
X133330000Y-86274550D03*
X135870000Y-89932150D03*
%TD*%
D16*
%TO.C,J3*%
X146700000Y-102390000D03*
X152516600Y-102390000D03*
X146700000Y-99850000D03*
X152516600Y-99850000D03*
X146700000Y-97310000D03*
X152516600Y-97310000D03*
X146700000Y-94770000D03*
X152516600Y-94770000D03*
X146700000Y-92230000D03*
X152516600Y-92230000D03*
X146700000Y-89690000D03*
X152516600Y-89690000D03*
X146700000Y-87150000D03*
X152516600Y-87150000D03*
X146700000Y-84610000D03*
X152516600Y-84610000D03*
%TD*%
M02*
