%TF.GenerationSoftware,KiCad,Pcbnew,9.0.7*%
%TF.CreationDate,2026-03-19T01:08:54-04:00*%
%TF.ProjectId,Calibration Board,43616c69-6272-4617-9469-6f6e20426f61,rev?*%
%TF.SameCoordinates,Original*%
%TF.FileFunction,Paste,Top*%
%TF.FilePolarity,Positive*%
%FSLAX46Y46*%
G04 Gerber Fmt 4.6, Leading zero omitted, Abs format (unit mm)*
G04 Created by KiCad (PCBNEW 9.0.7) date 2026-03-19 01:08:54*
%MOMM*%
%LPD*%
G01*
G04 APERTURE LIST*
G04 Aperture macros list*
%AMFreePoly0*
4,1,14,0.800000,-1.200000,-0.787300,-1.200000,-0.791020,-1.208980,-0.800000,-1.212700,-1.600000,-1.212700,-1.608980,-1.208980,-1.612700,-1.200000,-1.612700,0.400000,-1.608980,0.408980,-1.600000,0.412700,-0.800000,0.412700,-0.800000,1.200000,0.800000,1.200000,0.800000,-1.200000,0.800000,-1.200000,$1*%
%AMFreePoly1*
4,1,14,0.800000,0.412700,1.600000,0.412700,1.608980,0.408980,1.612700,0.400000,1.612700,-1.200000,1.608980,-1.208980,1.600000,-1.212700,0.800000,-1.212700,0.791020,-1.208980,0.787300,-1.200000,-0.800000,-1.200000,-0.800000,1.200000,0.800000,1.200000,0.800000,0.412700,0.800000,0.412700,$1*%
G04 Aperture macros list end*
%ADD10C,0.025400*%
%ADD11R,1.200000X0.280000*%
%ADD12R,1.200000X0.300000*%
%ADD13R,1.200000X0.279998*%
%ADD14FreePoly0,270.000000*%
%ADD15FreePoly1,270.000000*%
%ADD16R,1.549400X0.990600*%
%ADD17R,0.609600X2.057400*%
G04 APERTURE END LIST*
D10*
%TO.C,J1*%
X123550410Y-91900000D02*
X121950410Y-91900000D01*
X121950410Y-91100000D01*
X123550410Y-91100000D01*
X123550410Y-91900000D01*
G36*
X123550410Y-91900000D02*
G01*
X121950410Y-91900000D01*
X121950410Y-91100000D01*
X123550410Y-91100000D01*
X123550410Y-91900000D01*
G37*
%TD*%
D11*
%TO.C,J1*%
X125850000Y-94400000D03*
X125850000Y-94900000D03*
X125850000Y-95400000D03*
X125850000Y-95900000D03*
X125850000Y-96400000D03*
X125850000Y-96900000D03*
D12*
X125850000Y-97400020D03*
X125850000Y-97900020D03*
D11*
X125850000Y-98400000D03*
X125850000Y-98900000D03*
X125850000Y-99400000D03*
X125850000Y-99900000D03*
X125850000Y-100400000D03*
X125850000Y-100900000D03*
X125850000Y-101400000D03*
X125850000Y-101900000D03*
X125850000Y-102400000D03*
D13*
X125850000Y-102900001D03*
D11*
X125850000Y-103400000D03*
X125850000Y-103900000D03*
X125850000Y-104400000D03*
X125850000Y-104900000D03*
X125850000Y-105400000D03*
X125850000Y-105900000D03*
X125850000Y-106400000D03*
X125850000Y-106900000D03*
X125850000Y-107400000D03*
X125850000Y-107900000D03*
X125850000Y-108400000D03*
X125850000Y-108900000D03*
X125850000Y-109400000D03*
X125850000Y-109900000D03*
X125850000Y-110400000D03*
X125850000Y-110900000D03*
X125850000Y-111400000D03*
X125850000Y-111900000D03*
D14*
X123152010Y-92700000D03*
D15*
X123152010Y-113600000D03*
%TD*%
D16*
%TO.C,J2*%
X146700000Y-124080000D03*
X152516600Y-124080000D03*
X146700000Y-121540000D03*
X152516600Y-121540000D03*
X146700000Y-119000000D03*
X152516600Y-119000000D03*
X146700000Y-116460000D03*
X152516600Y-116460000D03*
X146700000Y-113920000D03*
X152516600Y-113920000D03*
X146700000Y-111380000D03*
X152516600Y-111380000D03*
X146700000Y-108840000D03*
X152516600Y-108840000D03*
X146700000Y-106300000D03*
X152516600Y-106300000D03*
%TD*%
D17*
%TO.C,J6*%
X163330000Y-86374550D03*
X165870000Y-90032150D03*
%TD*%
%TO.C,J5*%
X133330000Y-86274550D03*
X135870000Y-89932150D03*
%TD*%
D16*
%TO.C,J3*%
X146700000Y-102390000D03*
X152516600Y-102390000D03*
X146700000Y-99850000D03*
X152516600Y-99850000D03*
X146700000Y-97310000D03*
X152516600Y-97310000D03*
X146700000Y-94770000D03*
X152516600Y-94770000D03*
X146700000Y-92230000D03*
X152516600Y-92230000D03*
X146700000Y-89690000D03*
X152516600Y-89690000D03*
X146700000Y-87150000D03*
X152516600Y-87150000D03*
X146700000Y-84610000D03*
X152516600Y-84610000D03*
%TD*%
M02*
