M48
INCH
T1C0.0118
T2C0.0400
T3C0.0750
T4C0.0866
%
G90
G05
T1
X4.8622Y-4.7047
X4.9061Y-3.326
X5.1043Y-4.7776
X5.1337Y-5.0027
X5.2047Y-4.6161
X5.2206Y-3.0455
X5.374Y-4.939
X5.4534Y-4.8371
X5.4727Y-3.0059
X5.4954Y-3.2155
X5.5591Y-5.0886
X5.6994Y-3.105
X5.9744Y-3.124
X6.0906Y-5.1063
X6.0932Y-2.9974
X6.3346Y-5.1575
X6.4744Y-5.0197
X6.4921Y-3.122
X6.8581Y-3.462
X6.9213Y-4.5217
X6.9508Y-4.6969
X6.963Y-3.666
T2
X6.5793Y-4.061
T3
X6.8864Y-3.9114
X6.8864Y-4.2106
T4
X4.9055Y-3.0768
X4.9055Y-5.0453
X6.874Y-3.0768
X6.874Y-5.0453
M30
