%TF.GenerationSoftware,KiCad,Pcbnew,9.0.7*%
%TF.CreationDate,2026-03-19T01:08:54-04:00*%
%TF.ProjectId,Calibration Board,43616c69-6272-4617-9469-6f6e20426f61,rev?*%
%TF.SameCoordinates,Original*%
%TF.FileFunction,Copper,L1,Top*%
%TF.FilePolarity,Positive*%
%FSLAX46Y46*%
G04 Gerber Fmt 4.6, Leading zero omitted, Abs format (unit mm)*
G04 Created by KiCad (PCBNEW 9.0.7) date 2026-03-19 01:08:54*
%MOMM*%
%LPD*%
G01*
G04 APERTURE LIST*
G04 Aperture macros list*
%AMFreePoly0*
4,1,14,0.800000,-1.200000,-0.787300,-1.200000,-0.791020,-1.208980,-0.800000,-1.212700,-1.600000,-1.212700,-1.608980,-1.208980,-1.612700,-1.200000,-1.612700,0.400000,-1.608980,0.408980,-1.600000,0.412700,-0.800000,0.412700,-0.800000,1.200000,0.800000,1.200000,0.800000,-1.200000,0.800000,-1.200000,$1*%
%AMFreePoly1*
4,1,14,0.800000,0.412700,1.600000,0.412700,1.608980,0.408980,1.612700,0.400000,1.612700,-1.200000,1.608980,-1.208980,1.600000,-1.212700,0.800000,-1.212700,0.791020,-1.208980,0.787300,-1.200000,-0.800000,-1.200000,-0.800000,1.200000,0.800000,1.200000,0.800000,0.412700,0.800000,0.412700,$1*%
G04 Aperture macros list end*
%TA.AperFunction,Conductor*%
%ADD10C,1.000000*%
%TD*%
%TA.AperFunction,Conductor*%
%ADD11C,0.200000*%
%TD*%
%TA.AperFunction,SMDPad,CuDef*%
%ADD12R,1.200000X0.280000*%
%TD*%
%TA.AperFunction,SMDPad,CuDef*%
%ADD13R,1.200000X0.300000*%
%TD*%
%TA.AperFunction,SMDPad,CuDef*%
%ADD14R,1.200000X0.279998*%
%TD*%
%TA.AperFunction,SMDPad,CuDef*%
%ADD15FreePoly0,270.000000*%
%TD*%
%TA.AperFunction,SMDPad,CuDef*%
%ADD16FreePoly1,270.000000*%
%TD*%
%TA.AperFunction,SMDPad,CuDef*%
%ADD17R,1.549400X0.990600*%
%TD*%
%TA.AperFunction,SMDPad,CuDef*%
%ADD18R,0.609600X2.057400*%
%TD*%
%TA.AperFunction,ComponentPad*%
%ADD19C,1.524000*%
%TD*%
%TA.AperFunction,ComponentPad*%
%ADD20C,2.413000*%
%TD*%
%TA.AperFunction,ComponentPad*%
%ADD21C,4.400000*%
%TD*%
%TA.AperFunction,ViaPad*%
%ADD22C,0.600000*%
%TD*%
G04 APERTURE END LIST*
D10*
%TO.N,Net-(J4-SIG)*%
X168316610Y-103150000D02*
G75*
G02*
X165900000Y-103150000I-1208305J0D01*
G01*
X165900000Y-103150000D02*
G75*
G02*
X168316610Y-103150000I1208305J0D01*
G01*
D11*
X168700000Y-98250000D02*
X171325400Y-98250000D01*
X171325400Y-107850000D01*
X168700000Y-107850000D01*
X168700000Y-98250000D01*
%TA.AperFunction,Conductor*%
G36*
X168700000Y-98250000D02*
G01*
X171325400Y-98250000D01*
X171325400Y-107850000D01*
X168700000Y-107850000D01*
X168700000Y-98250000D01*
G37*
%TD.AperFunction*%
X155100000Y-104050000D02*
X171300000Y-104050000D01*
X171300000Y-126150000D01*
X155100000Y-126150000D01*
X155100000Y-104050000D01*
%TA.AperFunction,Conductor*%
G36*
X155100000Y-104050000D02*
G01*
X171300000Y-104050000D01*
X171300000Y-126150000D01*
X155100000Y-126150000D01*
X155100000Y-104050000D01*
G37*
%TD.AperFunction*%
X149600000Y-83150000D02*
X165800000Y-83150000D01*
X165800000Y-126150000D01*
X149600000Y-126150000D01*
X149600000Y-83150000D01*
%TA.AperFunction,Conductor*%
G36*
X149600000Y-83150000D02*
G01*
X165800000Y-83150000D01*
X165800000Y-126150000D01*
X149600000Y-126150000D01*
X149600000Y-83150000D01*
G37*
%TD.AperFunction*%
X155100000Y-83150000D02*
X171300000Y-83150000D01*
X171300000Y-102225000D01*
X155100000Y-102225000D01*
X155100000Y-83150000D01*
%TA.AperFunction,Conductor*%
G36*
X155100000Y-83150000D02*
G01*
X171300000Y-83150000D01*
X171300000Y-102225000D01*
X155100000Y-102225000D01*
X155100000Y-83150000D01*
G37*
%TD.AperFunction*%
%TD*%
D12*
%TO.P,J1,1*%
%TO.N,GND*%
X125850000Y-94400000D03*
%TO.P,J1,2*%
%TO.N,unconnected-(J1-Pad2)*%
X125850000Y-94900000D03*
%TO.P,J1,3*%
%TO.N,GND*%
X125850000Y-95400000D03*
%TO.P,J1,4*%
%TO.N,unconnected-(J1-Pad4)*%
X125850000Y-95900000D03*
%TO.P,J1,5*%
%TO.N,GND*%
X125850000Y-96400000D03*
%TO.P,J1,6*%
%TO.N,DRAIN16*%
X125850000Y-96900000D03*
D13*
%TO.P,J1,7*%
%TO.N,GND*%
X125850000Y-97400020D03*
%TO.P,J1,8*%
%TO.N,DRAIN15*%
X125850000Y-97900020D03*
D12*
%TO.P,J1,9*%
%TO.N,GND*%
X125850000Y-98400000D03*
%TO.P,J1,10*%
%TO.N,DRAIN14*%
X125850000Y-98900000D03*
%TO.P,J1,11*%
%TO.N,GND*%
X125850000Y-99400000D03*
%TO.P,J1,12*%
%TO.N,DRAIN13*%
X125850000Y-99900000D03*
%TO.P,J1,13*%
%TO.N,GND*%
X125850000Y-100400000D03*
%TO.P,J1,14*%
%TO.N,DRAIN12*%
X125850000Y-100900000D03*
%TO.P,J1,15*%
%TO.N,GND*%
X125850000Y-101400000D03*
%TO.P,J1,16*%
%TO.N,DRAIN11*%
X125850000Y-101900000D03*
%TO.P,J1,17*%
%TO.N,GND*%
X125850000Y-102400000D03*
D14*
%TO.P,J1,18*%
%TO.N,DRAIN10*%
X125850000Y-102900001D03*
D12*
%TO.P,J1,19*%
%TO.N,GND*%
X125850000Y-103400000D03*
%TO.P,J1,20*%
%TO.N,DRAIN9*%
X125850000Y-103900000D03*
%TO.P,J1,21*%
%TO.N,GND*%
X125850000Y-104400000D03*
%TO.P,J1,22*%
%TO.N,DRAIN8*%
X125850000Y-104900000D03*
%TO.P,J1,23*%
%TO.N,GND*%
X125850000Y-105400000D03*
%TO.P,J1,24*%
%TO.N,DRAIN7*%
X125850000Y-105900000D03*
%TO.P,J1,25*%
%TO.N,GND*%
X125850000Y-106400000D03*
%TO.P,J1,26*%
%TO.N,DRAIN6*%
X125850000Y-106900000D03*
%TO.P,J1,27*%
%TO.N,GND*%
X125850000Y-107400000D03*
%TO.P,J1,28*%
%TO.N,DRAIN5*%
X125850000Y-107900000D03*
%TO.P,J1,29*%
%TO.N,GND*%
X125850000Y-108400000D03*
%TO.P,J1,30*%
%TO.N,DRAIN4*%
X125850000Y-108900000D03*
%TO.P,J1,31*%
%TO.N,GND*%
X125850000Y-109400000D03*
%TO.P,J1,32*%
%TO.N,DRAIN3*%
X125850000Y-109900000D03*
%TO.P,J1,33*%
%TO.N,GND*%
X125850000Y-110400000D03*
%TO.P,J1,34*%
%TO.N,DRAIN2*%
X125850000Y-110900000D03*
%TO.P,J1,35*%
%TO.N,GND*%
X125850000Y-111400000D03*
%TO.P,J1,36*%
%TO.N,DRAIN1*%
X125850000Y-111900000D03*
D15*
%TO.P,J1,P1*%
%TO.N,GND*%
X123152010Y-92700000D03*
D16*
%TO.P,J1,P2*%
X123152010Y-113600000D03*
%TD*%
D17*
%TO.P,J2,1*%
%TO.N,DRAIN1*%
X146700000Y-124080000D03*
%TO.P,J2,2*%
%TO.N,Net-(J4-SIG)*%
X152516600Y-124080000D03*
%TO.P,J2,3*%
%TO.N,DRAIN2*%
X146700000Y-121540000D03*
%TO.P,J2,4*%
%TO.N,Net-(J4-SIG)*%
X152516600Y-121540000D03*
%TO.P,J2,5*%
%TO.N,DRAIN3*%
X146700000Y-119000000D03*
%TO.P,J2,6*%
%TO.N,Net-(J4-SIG)*%
X152516600Y-119000000D03*
%TO.P,J2,7*%
%TO.N,DRAIN4*%
X146700000Y-116460000D03*
%TO.P,J2,8*%
%TO.N,Net-(J4-SIG)*%
X152516600Y-116460000D03*
%TO.P,J2,9*%
%TO.N,DRAIN5*%
X146700000Y-113920000D03*
%TO.P,J2,10*%
%TO.N,Net-(J4-SIG)*%
X152516600Y-113920000D03*
%TO.P,J2,11*%
%TO.N,DRAIN6*%
X146700000Y-111380000D03*
%TO.P,J2,12*%
%TO.N,Net-(J4-SIG)*%
X152516600Y-111380000D03*
%TO.P,J2,13*%
%TO.N,DRAIN7*%
X146700000Y-108840000D03*
%TO.P,J2,14*%
%TO.N,Net-(J4-SIG)*%
X152516600Y-108840000D03*
%TO.P,J2,15*%
%TO.N,DRAIN8*%
X146700000Y-106300000D03*
%TO.P,J2,16*%
%TO.N,Net-(J4-SIG)*%
X152516600Y-106300000D03*
%TD*%
D18*
%TO.P,J6,1*%
%TO.N,Net-(J4-SIG)*%
X163330000Y-86374550D03*
%TO.P,J6,2*%
X165870000Y-90032150D03*
%TD*%
D19*
%TO.P,J4,1,SIG*%
%TO.N,Net-(J4-SIG)*%
X167113500Y-103150000D03*
D20*
%TO.P,J4,2,SHD*%
%TO.N,GND*%
X174913499Y-99350000D03*
%TO.P,J4,3,SHD*%
X174913499Y-106950000D03*
%TD*%
D21*
%TO.P,MH1,MH1*%
%TO.N,GND*%
X124600000Y-128150000D03*
%TO.P,MH1,MH2*%
X124600000Y-78150000D03*
%TO.P,MH1,MH3*%
X174600000Y-78150000D03*
%TO.P,MH1,MH4*%
X174600000Y-128150000D03*
%TD*%
D18*
%TO.P,J5,1*%
%TO.N,GND*%
X133330000Y-86274550D03*
%TO.P,J5,2*%
X135870000Y-89932150D03*
%TD*%
D17*
%TO.P,J3,1*%
%TO.N,DRAIN9*%
X146700000Y-102390000D03*
%TO.P,J3,2*%
%TO.N,Net-(J4-SIG)*%
X152516600Y-102390000D03*
%TO.P,J3,3*%
%TO.N,DRAIN10*%
X146700000Y-99850000D03*
%TO.P,J3,4*%
%TO.N,Net-(J4-SIG)*%
X152516600Y-99850000D03*
%TO.P,J3,5*%
%TO.N,DRAIN11*%
X146700000Y-97310000D03*
%TO.P,J3,6*%
%TO.N,Net-(J4-SIG)*%
X152516600Y-97310000D03*
%TO.P,J3,7*%
%TO.N,DRAIN12*%
X146700000Y-94770000D03*
%TO.P,J3,8*%
%TO.N,Net-(J4-SIG)*%
X152516600Y-94770000D03*
%TO.P,J3,9*%
%TO.N,DRAIN13*%
X146700000Y-92230000D03*
%TO.P,J3,10*%
%TO.N,Net-(J4-SIG)*%
X152516600Y-92230000D03*
%TO.P,J3,11*%
%TO.N,DRAIN14*%
X146700000Y-89690000D03*
%TO.P,J3,12*%
%TO.N,Net-(J4-SIG)*%
X152516600Y-89690000D03*
%TO.P,J3,13*%
%TO.N,DRAIN15*%
X146700000Y-87150000D03*
%TO.P,J3,14*%
%TO.N,Net-(J4-SIG)*%
X152516600Y-87150000D03*
%TO.P,J3,15*%
%TO.N,DRAIN16*%
X146700000Y-84610000D03*
%TO.P,J3,16*%
%TO.N,Net-(J4-SIG)*%
X152516600Y-84610000D03*
%TD*%
D22*
%TO.N,GND*%
X176859452Y-93116551D03*
X123500000Y-119500000D03*
X129650000Y-121350000D03*
X136500000Y-125450000D03*
X138515581Y-122861419D03*
X139582505Y-81674399D03*
X160900000Y-131000000D03*
X124614156Y-84480965D03*
X132200000Y-117250000D03*
X141200000Y-129250000D03*
X164900000Y-79300000D03*
X164450000Y-127500000D03*
X151750000Y-79350000D03*
X144763857Y-78867834D03*
X174196813Y-87935199D03*
X139006800Y-76349121D03*
X130394731Y-127067603D03*
X176550000Y-119300000D03*
X175800000Y-114850000D03*
X132602073Y-77356606D03*
X154700000Y-129700000D03*
X154766744Y-76133232D03*
%TD*%
D11*
%TO.N,DRAIN7*%
X143760020Y-105900020D02*
X125850000Y-105900020D01*
X146700000Y-108840000D02*
X143760020Y-105900020D01*
%TO.N,DRAIN1*%
X146700000Y-124080000D02*
X146430000Y-124080000D01*
X134250020Y-111900020D02*
X125850000Y-111900020D01*
X146430000Y-124080000D02*
X134250020Y-111900020D01*
%TO.N,DRAIN11*%
X146700000Y-97310000D02*
X142109980Y-101900020D01*
X142109980Y-101900020D02*
X125850000Y-101900020D01*
%TO.N,DRAIN3*%
X137600020Y-109900020D02*
X125850000Y-109900020D01*
X146700000Y-119000000D02*
X137600020Y-109900020D01*
%TO.N,DRAIN14*%
X146700000Y-89690000D02*
X137489980Y-98900020D01*
X137489980Y-98900020D02*
X125850000Y-98900020D01*
%TO.N,DRAIN6*%
X142220020Y-106900020D02*
X125850000Y-106900020D01*
X146700000Y-111380000D02*
X142220020Y-106900020D01*
%TO.N,DRAIN8*%
X145300020Y-104900020D02*
X125850000Y-104900020D01*
X146700000Y-106300000D02*
X145300020Y-104900020D01*
%TO.N,DRAIN15*%
X135949980Y-97900020D02*
X125850000Y-97900020D01*
X146700000Y-87150000D02*
X135949980Y-97900020D01*
%TO.N,DRAIN12*%
X140569980Y-100900020D02*
X125850000Y-100900020D01*
X146700000Y-94770000D02*
X140569980Y-100900020D01*
%TO.N,DRAIN16*%
X146700000Y-84610000D02*
X146440000Y-84610000D01*
X146440000Y-84610000D02*
X134149980Y-96900020D01*
X134149980Y-96900020D02*
X125850000Y-96900020D01*
%TO.N,DRAIN2*%
X136060020Y-110900020D02*
X125850000Y-110900020D01*
X146700000Y-121540000D02*
X136060020Y-110900020D01*
%TO.N,DRAIN5*%
X140680020Y-107900020D02*
X125850000Y-107900020D01*
X146700000Y-113920000D02*
X140680020Y-107900020D01*
%TO.N,DRAIN4*%
X146700000Y-116460000D02*
X139140020Y-108900020D01*
X139140020Y-108900020D02*
X125850000Y-108900020D01*
%TO.N,DRAIN10*%
X146700000Y-99850000D02*
X143649981Y-102900019D01*
X143649981Y-102900019D02*
X125850000Y-102900019D01*
%TO.N,DRAIN9*%
X146700000Y-102390000D02*
X145189981Y-103900019D01*
X145189981Y-103900019D02*
X125850000Y-103900019D01*
X146700000Y-102390000D02*
X146700000Y-102550000D01*
%TO.N,DRAIN13*%
X139029980Y-99900020D02*
X125850000Y-99900020D01*
X146700000Y-92230000D02*
X139029980Y-99900020D01*
%TD*%
%TA.AperFunction,Conductor*%
%TO.N,GND*%
G36*
X179058691Y-73669407D02*
G01*
X179094655Y-73718907D01*
X179099500Y-73749500D01*
X179099500Y-132550500D01*
X179080593Y-132608691D01*
X179031093Y-132644655D01*
X179000500Y-132649500D01*
X120199500Y-132649500D01*
X120141309Y-132630593D01*
X120105345Y-132581093D01*
X120100500Y-132550500D01*
X120100500Y-111745172D01*
X125099500Y-111745172D01*
X125099500Y-112054827D01*
X125108232Y-112098720D01*
X125108233Y-112098722D01*
X125141496Y-112148504D01*
X125191278Y-112181767D01*
X125202327Y-112183964D01*
X125235172Y-112190499D01*
X125235178Y-112190499D01*
X125235180Y-112190500D01*
X125760011Y-112190500D01*
X125785635Y-112193873D01*
X125810438Y-112200520D01*
X134084541Y-112200520D01*
X134142732Y-112219427D01*
X134154545Y-112229516D01*
X145745804Y-123820775D01*
X145773581Y-123875292D01*
X145774800Y-123890779D01*
X145774800Y-124590127D01*
X145783532Y-124634020D01*
X145783533Y-124634022D01*
X145816796Y-124683804D01*
X145866578Y-124717067D01*
X145877627Y-124719264D01*
X145910472Y-124725799D01*
X145910478Y-124725799D01*
X145910480Y-124725800D01*
X145910481Y-124725800D01*
X147489519Y-124725800D01*
X147489520Y-124725800D01*
X147489521Y-124725799D01*
X147489527Y-124725799D01*
X147511323Y-124721462D01*
X147533422Y-124717067D01*
X147583204Y-124683804D01*
X147616467Y-124634022D01*
X147625200Y-124590120D01*
X147625200Y-123569880D01*
X147625199Y-123569878D01*
X147625199Y-123569872D01*
X147616467Y-123525979D01*
X147616465Y-123525975D01*
X147583205Y-123476198D01*
X147583204Y-123476196D01*
X147582540Y-123475752D01*
X147533424Y-123442934D01*
X147533420Y-123442932D01*
X147489527Y-123434200D01*
X147489520Y-123434200D01*
X146250179Y-123434200D01*
X146191988Y-123415293D01*
X146180175Y-123405204D01*
X141100175Y-118325204D01*
X134434531Y-111659560D01*
X134434528Y-111659558D01*
X134366012Y-111620000D01*
X134366008Y-111619998D01*
X134289584Y-111599520D01*
X134289582Y-111599520D01*
X125810438Y-111599520D01*
X125785781Y-111606127D01*
X125760158Y-111609500D01*
X125235172Y-111609500D01*
X125191279Y-111618232D01*
X125191275Y-111618234D01*
X125141498Y-111651494D01*
X125141494Y-111651498D01*
X125108234Y-111701275D01*
X125108232Y-111701279D01*
X125099500Y-111745172D01*
X120100500Y-111745172D01*
X120100500Y-110745172D01*
X125099500Y-110745172D01*
X125099500Y-111054827D01*
X125108232Y-111098720D01*
X125108233Y-111098722D01*
X125141496Y-111148504D01*
X125191278Y-111181767D01*
X125202327Y-111183964D01*
X125235172Y-111190499D01*
X125235178Y-111190499D01*
X125235180Y-111190500D01*
X125760011Y-111190500D01*
X125785635Y-111193873D01*
X125810438Y-111200520D01*
X135894541Y-111200520D01*
X135952732Y-111219427D01*
X135964545Y-111229516D01*
X145745804Y-121010775D01*
X145773581Y-121065292D01*
X145774800Y-121080779D01*
X145774800Y-122050127D01*
X145783532Y-122094020D01*
X145783533Y-122094022D01*
X145816796Y-122143804D01*
X145866578Y-122177067D01*
X145877627Y-122179264D01*
X145910472Y-122185799D01*
X145910478Y-122185799D01*
X145910480Y-122185800D01*
X145910481Y-122185800D01*
X147489519Y-122185800D01*
X147489520Y-122185800D01*
X147489521Y-122185799D01*
X147489527Y-122185799D01*
X147511323Y-122181462D01*
X147533422Y-122177067D01*
X147583204Y-122143804D01*
X147616467Y-122094022D01*
X147625200Y-122050120D01*
X147625200Y-121029880D01*
X147625199Y-121029878D01*
X147625199Y-121029872D01*
X147616467Y-120985979D01*
X147616465Y-120985975D01*
X147583205Y-120936198D01*
X147583204Y-120936196D01*
X147582540Y-120935752D01*
X147533424Y-120902934D01*
X147533420Y-120902932D01*
X147489527Y-120894200D01*
X147489520Y-120894200D01*
X146520179Y-120894200D01*
X146461988Y-120875293D01*
X146450175Y-120865204D01*
X141370175Y-115785204D01*
X136244531Y-110659560D01*
X136244528Y-110659558D01*
X136176012Y-110620000D01*
X136176008Y-110619998D01*
X136099584Y-110599520D01*
X136099582Y-110599520D01*
X125810438Y-110599520D01*
X125785781Y-110606127D01*
X125760158Y-110609500D01*
X125235172Y-110609500D01*
X125191279Y-110618232D01*
X125191275Y-110618234D01*
X125141498Y-110651494D01*
X125141494Y-110651498D01*
X125108234Y-110701275D01*
X125108232Y-110701279D01*
X125099500Y-110745172D01*
X120100500Y-110745172D01*
X120100500Y-109745172D01*
X125099500Y-109745172D01*
X125099500Y-110054827D01*
X125108232Y-110098720D01*
X125108233Y-110098722D01*
X125141496Y-110148504D01*
X125191278Y-110181767D01*
X125202327Y-110183964D01*
X125235172Y-110190499D01*
X125235178Y-110190499D01*
X125235180Y-110190500D01*
X125760011Y-110190500D01*
X125785635Y-110193873D01*
X125810438Y-110200520D01*
X137434541Y-110200520D01*
X137492732Y-110219427D01*
X137504545Y-110229516D01*
X145745804Y-118470775D01*
X145773581Y-118525292D01*
X145774800Y-118540779D01*
X145774800Y-119510127D01*
X145783532Y-119554020D01*
X145783533Y-119554022D01*
X145816796Y-119603804D01*
X145866578Y-119637067D01*
X145877627Y-119639264D01*
X145910472Y-119645799D01*
X145910478Y-119645799D01*
X145910480Y-119645800D01*
X145910481Y-119645800D01*
X147489519Y-119645800D01*
X147489520Y-119645800D01*
X147489521Y-119645799D01*
X147489527Y-119645799D01*
X147511323Y-119641462D01*
X147533422Y-119637067D01*
X147583204Y-119603804D01*
X147616467Y-119554022D01*
X147625200Y-119510120D01*
X147625200Y-118489880D01*
X147625199Y-118489878D01*
X147625199Y-118489872D01*
X147616467Y-118445979D01*
X147616465Y-118445975D01*
X147583205Y-118396198D01*
X147583204Y-118396196D01*
X147582540Y-118395752D01*
X147533424Y-118362934D01*
X147533420Y-118362932D01*
X147489527Y-118354200D01*
X147489520Y-118354200D01*
X146520179Y-118354200D01*
X146461988Y-118335293D01*
X146450175Y-118325204D01*
X142555089Y-114430118D01*
X137784531Y-109659560D01*
X137784528Y-109659558D01*
X137716012Y-109620000D01*
X137716008Y-109619998D01*
X137639584Y-109599520D01*
X137639582Y-109599520D01*
X125810438Y-109599520D01*
X125785781Y-109606127D01*
X125760158Y-109609500D01*
X125235172Y-109609500D01*
X125191279Y-109618232D01*
X125191275Y-109618234D01*
X125141498Y-109651494D01*
X125141494Y-109651498D01*
X125108234Y-109701275D01*
X125108232Y-109701279D01*
X125099500Y-109745172D01*
X120100500Y-109745172D01*
X120100500Y-108745172D01*
X125099500Y-108745172D01*
X125099500Y-109054827D01*
X125108232Y-109098720D01*
X125108233Y-109098722D01*
X125141496Y-109148504D01*
X125191278Y-109181767D01*
X125202327Y-109183964D01*
X125235172Y-109190499D01*
X125235178Y-109190499D01*
X125235180Y-109190500D01*
X125760011Y-109190500D01*
X125785635Y-109193873D01*
X125810438Y-109200520D01*
X138974541Y-109200520D01*
X139032732Y-109219427D01*
X139044545Y-109229516D01*
X145745804Y-115930775D01*
X145773581Y-115985292D01*
X145774800Y-116000779D01*
X145774800Y-116970127D01*
X145783532Y-117014020D01*
X145783533Y-117014022D01*
X145816796Y-117063804D01*
X145866578Y-117097067D01*
X145877627Y-117099264D01*
X145910472Y-117105799D01*
X145910478Y-117105799D01*
X145910480Y-117105800D01*
X145910481Y-117105800D01*
X147489519Y-117105800D01*
X147489520Y-117105800D01*
X147489521Y-117105799D01*
X147489527Y-117105799D01*
X147511323Y-117101462D01*
X147533422Y-117097067D01*
X147583204Y-117063804D01*
X147616467Y-117014022D01*
X147625200Y-116970120D01*
X147625200Y-115949880D01*
X147625199Y-115949878D01*
X147625199Y-115949872D01*
X147616467Y-115905979D01*
X147616465Y-115905975D01*
X147583205Y-115856198D01*
X147583204Y-115856196D01*
X147582540Y-115855752D01*
X147533424Y-115822934D01*
X147533420Y-115822932D01*
X147489527Y-115814200D01*
X147489520Y-115814200D01*
X146520179Y-115814200D01*
X146461988Y-115795293D01*
X146450175Y-115785204D01*
X142894487Y-112229516D01*
X139324531Y-108659560D01*
X139317480Y-108655489D01*
X139256009Y-108619999D01*
X139256007Y-108619998D01*
X139256005Y-108619997D01*
X139179584Y-108599520D01*
X139179582Y-108599520D01*
X125810438Y-108599520D01*
X125785781Y-108606127D01*
X125760158Y-108609500D01*
X125235172Y-108609500D01*
X125191279Y-108618232D01*
X125191275Y-108618234D01*
X125141498Y-108651494D01*
X125141494Y-108651498D01*
X125108234Y-108701275D01*
X125108232Y-108701279D01*
X125099500Y-108745172D01*
X120100500Y-108745172D01*
X120100500Y-107745172D01*
X125099500Y-107745172D01*
X125099500Y-108054827D01*
X125108232Y-108098720D01*
X125108233Y-108098722D01*
X125141496Y-108148504D01*
X125191278Y-108181767D01*
X125202327Y-108183964D01*
X125235172Y-108190499D01*
X125235178Y-108190499D01*
X125235180Y-108190500D01*
X125760011Y-108190500D01*
X125785635Y-108193873D01*
X125810438Y-108200520D01*
X140514541Y-108200520D01*
X140572732Y-108219427D01*
X140584545Y-108229516D01*
X145745804Y-113390775D01*
X145773581Y-113445292D01*
X145774800Y-113460779D01*
X145774800Y-114430127D01*
X145783532Y-114474020D01*
X145783533Y-114474022D01*
X145816796Y-114523804D01*
X145866578Y-114557067D01*
X145877627Y-114559264D01*
X145910472Y-114565799D01*
X145910478Y-114565799D01*
X145910480Y-114565800D01*
X145910481Y-114565800D01*
X147489519Y-114565800D01*
X147489520Y-114565800D01*
X147489521Y-114565799D01*
X147489527Y-114565799D01*
X147511323Y-114561462D01*
X147533422Y-114557067D01*
X147583204Y-114523804D01*
X147616467Y-114474022D01*
X147625200Y-114430120D01*
X147625200Y-113409880D01*
X147625199Y-113409878D01*
X147625199Y-113409872D01*
X147616467Y-113365979D01*
X147616465Y-113365975D01*
X147583205Y-113316198D01*
X147583204Y-113316196D01*
X147582540Y-113315752D01*
X147533424Y-113282934D01*
X147533420Y-113282932D01*
X147489527Y-113274200D01*
X147489520Y-113274200D01*
X146520179Y-113274200D01*
X146461988Y-113255293D01*
X146450175Y-113245204D01*
X143804491Y-110599520D01*
X140864531Y-107659560D01*
X140864528Y-107659558D01*
X140796012Y-107620000D01*
X140796008Y-107619998D01*
X140719584Y-107599520D01*
X140719582Y-107599520D01*
X125810438Y-107599520D01*
X125785781Y-107606127D01*
X125760158Y-107609500D01*
X125235172Y-107609500D01*
X125191279Y-107618232D01*
X125191275Y-107618234D01*
X125141498Y-107651494D01*
X125141494Y-107651498D01*
X125108234Y-107701275D01*
X125108232Y-107701279D01*
X125099500Y-107745172D01*
X120100500Y-107745172D01*
X120100500Y-106745172D01*
X125099500Y-106745172D01*
X125099500Y-107054827D01*
X125108232Y-107098720D01*
X125108233Y-107098722D01*
X125141496Y-107148504D01*
X125191278Y-107181767D01*
X125202327Y-107183964D01*
X125235172Y-107190499D01*
X125235178Y-107190499D01*
X125235180Y-107190500D01*
X125760011Y-107190500D01*
X125785635Y-107193873D01*
X125810438Y-107200520D01*
X142054541Y-107200520D01*
X142112732Y-107219427D01*
X142124545Y-107229516D01*
X145745804Y-110850775D01*
X145773581Y-110905292D01*
X145774800Y-110920779D01*
X145774800Y-111890127D01*
X145783532Y-111934020D01*
X145783533Y-111934022D01*
X145816796Y-111983804D01*
X145866578Y-112017067D01*
X145877627Y-112019264D01*
X145910472Y-112025799D01*
X145910478Y-112025799D01*
X145910480Y-112025800D01*
X145910481Y-112025800D01*
X147489519Y-112025800D01*
X147489520Y-112025800D01*
X147489521Y-112025799D01*
X147489527Y-112025799D01*
X147511323Y-112021462D01*
X147533422Y-112017067D01*
X147583204Y-111983804D01*
X147616467Y-111934022D01*
X147625200Y-111890120D01*
X147625200Y-110869880D01*
X147625199Y-110869878D01*
X147625199Y-110869872D01*
X147616467Y-110825979D01*
X147616465Y-110825975D01*
X147583205Y-110776198D01*
X147583204Y-110776196D01*
X147536773Y-110745172D01*
X147533424Y-110742934D01*
X147533420Y-110742932D01*
X147489527Y-110734200D01*
X147489520Y-110734200D01*
X146520179Y-110734200D01*
X146461988Y-110715293D01*
X146450175Y-110705204D01*
X144446246Y-108701275D01*
X142404531Y-106659560D01*
X142404528Y-106659558D01*
X142336012Y-106620000D01*
X142336008Y-106619998D01*
X142259584Y-106599520D01*
X142259582Y-106599520D01*
X125810438Y-106599520D01*
X125785781Y-106606127D01*
X125760158Y-106609500D01*
X125235172Y-106609500D01*
X125191279Y-106618232D01*
X125191275Y-106618234D01*
X125141498Y-106651494D01*
X125141494Y-106651498D01*
X125108234Y-106701275D01*
X125108232Y-106701279D01*
X125099500Y-106745172D01*
X120100500Y-106745172D01*
X120100500Y-105745172D01*
X125099500Y-105745172D01*
X125099500Y-106054827D01*
X125108232Y-106098720D01*
X125108233Y-106098722D01*
X125141496Y-106148504D01*
X125191278Y-106181767D01*
X125202327Y-106183964D01*
X125235172Y-106190499D01*
X125235178Y-106190499D01*
X125235180Y-106190500D01*
X125760011Y-106190500D01*
X125785635Y-106193873D01*
X125810438Y-106200520D01*
X143594541Y-106200520D01*
X143652732Y-106219427D01*
X143664545Y-106229516D01*
X145745804Y-108310775D01*
X145773581Y-108365292D01*
X145774800Y-108380779D01*
X145774800Y-109350127D01*
X145783532Y-109394020D01*
X145783533Y-109394022D01*
X145816796Y-109443804D01*
X145866578Y-109477067D01*
X145877627Y-109479264D01*
X145910472Y-109485799D01*
X145910478Y-109485799D01*
X145910480Y-109485800D01*
X145910481Y-109485800D01*
X147489519Y-109485800D01*
X147489520Y-109485800D01*
X147489521Y-109485799D01*
X147489527Y-109485799D01*
X147511323Y-109481462D01*
X147533422Y-109477067D01*
X147583204Y-109443804D01*
X147616467Y-109394022D01*
X147625200Y-109350120D01*
X147625200Y-108329880D01*
X147625199Y-108329878D01*
X147625199Y-108329872D01*
X147616467Y-108285979D01*
X147616465Y-108285975D01*
X147583205Y-108236198D01*
X147583204Y-108236196D01*
X147558107Y-108219427D01*
X147533424Y-108202934D01*
X147533420Y-108202932D01*
X147489527Y-108194200D01*
X147489520Y-108194200D01*
X146520179Y-108194200D01*
X146461988Y-108175293D01*
X146450175Y-108165204D01*
X145222036Y-106937065D01*
X143944531Y-105659560D01*
X143935249Y-105654201D01*
X143935247Y-105654199D01*
X143935247Y-105654200D01*
X143876009Y-105619999D01*
X143876008Y-105619998D01*
X143876007Y-105619998D01*
X143799584Y-105599520D01*
X143799582Y-105599520D01*
X125810438Y-105599520D01*
X125785781Y-105606127D01*
X125760158Y-105609500D01*
X125235172Y-105609500D01*
X125191279Y-105618232D01*
X125191275Y-105618234D01*
X125141498Y-105651494D01*
X125141494Y-105651498D01*
X125108234Y-105701275D01*
X125108232Y-105701279D01*
X125099500Y-105745172D01*
X120100500Y-105745172D01*
X120100500Y-104745172D01*
X125099500Y-104745172D01*
X125099500Y-105054827D01*
X125108232Y-105098720D01*
X125108233Y-105098722D01*
X125141496Y-105148504D01*
X125191278Y-105181767D01*
X125202327Y-105183964D01*
X125235172Y-105190499D01*
X125235178Y-105190499D01*
X125235180Y-105190500D01*
X125760011Y-105190500D01*
X125785635Y-105193873D01*
X125810438Y-105200520D01*
X145134541Y-105200520D01*
X145192732Y-105219427D01*
X145204545Y-105229516D01*
X145745804Y-105770775D01*
X145773581Y-105825292D01*
X145774800Y-105840779D01*
X145774800Y-106810127D01*
X145783532Y-106854020D01*
X145783533Y-106854022D01*
X145816796Y-106903804D01*
X145866578Y-106937067D01*
X145877627Y-106939264D01*
X145910472Y-106945799D01*
X145910478Y-106945799D01*
X145910480Y-106945800D01*
X145910481Y-106945800D01*
X147489519Y-106945800D01*
X147489520Y-106945800D01*
X147489521Y-106945799D01*
X147489527Y-106945799D01*
X147511323Y-106941462D01*
X147533422Y-106937067D01*
X147583204Y-106903804D01*
X147616467Y-106854022D01*
X147625200Y-106810120D01*
X147625200Y-105789880D01*
X147625199Y-105789878D01*
X147625199Y-105789872D01*
X147616467Y-105745979D01*
X147616465Y-105745975D01*
X147586600Y-105701279D01*
X147583204Y-105696196D01*
X147582540Y-105695752D01*
X147533424Y-105662934D01*
X147533420Y-105662932D01*
X147489527Y-105654200D01*
X147489520Y-105654200D01*
X146520179Y-105654200D01*
X146461988Y-105635293D01*
X146450175Y-105625204D01*
X145973472Y-105148501D01*
X145484531Y-104659560D01*
X145484528Y-104659558D01*
X145416012Y-104620000D01*
X145416008Y-104619998D01*
X145339584Y-104599520D01*
X145339582Y-104599520D01*
X125810438Y-104599520D01*
X125785781Y-104606127D01*
X125760158Y-104609500D01*
X125235172Y-104609500D01*
X125191279Y-104618232D01*
X125191275Y-104618234D01*
X125141498Y-104651494D01*
X125141494Y-104651498D01*
X125108234Y-104701275D01*
X125108232Y-104701279D01*
X125099500Y-104745172D01*
X120100500Y-104745172D01*
X120100500Y-103745172D01*
X125099500Y-103745172D01*
X125099500Y-104054827D01*
X125108232Y-104098720D01*
X125108233Y-104098722D01*
X125141496Y-104148504D01*
X125191278Y-104181767D01*
X125202327Y-104183964D01*
X125235172Y-104190499D01*
X125235178Y-104190499D01*
X125235180Y-104190500D01*
X125760012Y-104190500D01*
X125785635Y-104193873D01*
X125810438Y-104200519D01*
X125810439Y-104200519D01*
X145229544Y-104200519D01*
X145229544Y-104200518D01*
X145305970Y-104180040D01*
X145374492Y-104140479D01*
X145430441Y-104084530D01*
X146450175Y-103064796D01*
X146504692Y-103037019D01*
X146520179Y-103035800D01*
X147489519Y-103035800D01*
X147489520Y-103035800D01*
X147489521Y-103035799D01*
X147489527Y-103035799D01*
X147511323Y-103031462D01*
X147533422Y-103027067D01*
X147583204Y-102993804D01*
X147616467Y-102944022D01*
X147621400Y-102919225D01*
X147625199Y-102900127D01*
X147625200Y-102900118D01*
X147625200Y-101879881D01*
X147625199Y-101879872D01*
X147616467Y-101835979D01*
X147616465Y-101835975D01*
X147583205Y-101786198D01*
X147583204Y-101786196D01*
X147582540Y-101785752D01*
X147533424Y-101752934D01*
X147533420Y-101752932D01*
X147489527Y-101744200D01*
X147489520Y-101744200D01*
X145910480Y-101744200D01*
X145910472Y-101744200D01*
X145866579Y-101752932D01*
X145866575Y-101752934D01*
X145816798Y-101786194D01*
X145816794Y-101786198D01*
X145783534Y-101835975D01*
X145783532Y-101835979D01*
X145774800Y-101879872D01*
X145774800Y-102849221D01*
X145755893Y-102907412D01*
X145745804Y-102919225D01*
X145094506Y-103570523D01*
X145039989Y-103598300D01*
X145024502Y-103599519D01*
X125810438Y-103599519D01*
X125785897Y-103606094D01*
X125785777Y-103606127D01*
X125760154Y-103609500D01*
X125235172Y-103609500D01*
X125191279Y-103618232D01*
X125191275Y-103618234D01*
X125141498Y-103651494D01*
X125141494Y-103651498D01*
X125108234Y-103701275D01*
X125108232Y-103701279D01*
X125099500Y-103745172D01*
X120100500Y-103745172D01*
X120100500Y-102745174D01*
X125099500Y-102745174D01*
X125099500Y-103054827D01*
X125108232Y-103098720D01*
X125108233Y-103098722D01*
X125141496Y-103148504D01*
X125191278Y-103181767D01*
X125202327Y-103183964D01*
X125235172Y-103190499D01*
X125235178Y-103190499D01*
X125235180Y-103190500D01*
X125760012Y-103190500D01*
X125785635Y-103193873D01*
X125810438Y-103200519D01*
X125810439Y-103200519D01*
X143689544Y-103200519D01*
X143689544Y-103200518D01*
X143765970Y-103180040D01*
X143834492Y-103140479D01*
X143890441Y-103084530D01*
X146450175Y-100524796D01*
X146504692Y-100497019D01*
X146520179Y-100495800D01*
X147489519Y-100495800D01*
X147489520Y-100495800D01*
X147489521Y-100495799D01*
X147489527Y-100495799D01*
X147511323Y-100491462D01*
X147533422Y-100487067D01*
X147583204Y-100453804D01*
X147616467Y-100404022D01*
X147621400Y-100379225D01*
X147625199Y-100360127D01*
X147625200Y-100360118D01*
X147625200Y-99339881D01*
X147625199Y-99339872D01*
X147616467Y-99295979D01*
X147616465Y-99295975D01*
X147583205Y-99246198D01*
X147583204Y-99246196D01*
X147582540Y-99245752D01*
X147533424Y-99212934D01*
X147533420Y-99212932D01*
X147489527Y-99204200D01*
X147489520Y-99204200D01*
X145910480Y-99204200D01*
X145910472Y-99204200D01*
X145866579Y-99212932D01*
X145866575Y-99212934D01*
X145816798Y-99246194D01*
X145816794Y-99246198D01*
X145783534Y-99295975D01*
X145783532Y-99295979D01*
X145774800Y-99339872D01*
X145774800Y-100309221D01*
X145755893Y-100367412D01*
X145745804Y-100379225D01*
X143554506Y-102570523D01*
X143499989Y-102598300D01*
X143484502Y-102599519D01*
X125810438Y-102599519D01*
X125785774Y-102606128D01*
X125760149Y-102609502D01*
X125235172Y-102609502D01*
X125191279Y-102618234D01*
X125191275Y-102618236D01*
X125141498Y-102651496D01*
X125141494Y-102651500D01*
X125108234Y-102701277D01*
X125108232Y-102701281D01*
X125099500Y-102745174D01*
X120100500Y-102745174D01*
X120100500Y-101745172D01*
X125099500Y-101745172D01*
X125099500Y-102054827D01*
X125108232Y-102098720D01*
X125108233Y-102098722D01*
X125141496Y-102148504D01*
X125191278Y-102181767D01*
X125202327Y-102183964D01*
X125235172Y-102190499D01*
X125235178Y-102190499D01*
X125235180Y-102190500D01*
X125760011Y-102190500D01*
X125785635Y-102193873D01*
X125810438Y-102200520D01*
X142149543Y-102200520D01*
X142149543Y-102200519D01*
X142225969Y-102180041D01*
X142294491Y-102140480D01*
X142350440Y-102084531D01*
X146450175Y-97984796D01*
X146504692Y-97957019D01*
X146520179Y-97955800D01*
X147489519Y-97955800D01*
X147489520Y-97955800D01*
X147489521Y-97955799D01*
X147489527Y-97955799D01*
X147511323Y-97951462D01*
X147533422Y-97947067D01*
X147583204Y-97913804D01*
X147616467Y-97864022D01*
X147621400Y-97839225D01*
X147625199Y-97820127D01*
X147625200Y-97820118D01*
X147625200Y-96799881D01*
X147625199Y-96799872D01*
X147616467Y-96755979D01*
X147616465Y-96755975D01*
X147583205Y-96706198D01*
X147583204Y-96706196D01*
X147575839Y-96701275D01*
X147533424Y-96672934D01*
X147533420Y-96672932D01*
X147489527Y-96664200D01*
X147489520Y-96664200D01*
X145910480Y-96664200D01*
X145910472Y-96664200D01*
X145866579Y-96672932D01*
X145866575Y-96672934D01*
X145816798Y-96706194D01*
X145816794Y-96706198D01*
X145783534Y-96755975D01*
X145783532Y-96755979D01*
X145774800Y-96799872D01*
X145774800Y-97769221D01*
X145755893Y-97827412D01*
X145745804Y-97839225D01*
X142014505Y-101570524D01*
X141959988Y-101598301D01*
X141944501Y-101599520D01*
X125810438Y-101599520D01*
X125785781Y-101606127D01*
X125760158Y-101609500D01*
X125235172Y-101609500D01*
X125191279Y-101618232D01*
X125191275Y-101618234D01*
X125141498Y-101651494D01*
X125141494Y-101651498D01*
X125108234Y-101701275D01*
X125108232Y-101701279D01*
X125099500Y-101745172D01*
X120100500Y-101745172D01*
X120100500Y-100745172D01*
X125099500Y-100745172D01*
X125099500Y-101054827D01*
X125108232Y-101098720D01*
X125108233Y-101098722D01*
X125141496Y-101148504D01*
X125191278Y-101181767D01*
X125202327Y-101183964D01*
X125235172Y-101190499D01*
X125235178Y-101190499D01*
X125235180Y-101190500D01*
X125760011Y-101190500D01*
X125785635Y-101193873D01*
X125810438Y-101200520D01*
X140609543Y-101200520D01*
X140609543Y-101200519D01*
X140685969Y-101180041D01*
X140754491Y-101140480D01*
X140810440Y-101084531D01*
X146450175Y-95444796D01*
X146504692Y-95417019D01*
X146520179Y-95415800D01*
X147489519Y-95415800D01*
X147489520Y-95415800D01*
X147489521Y-95415799D01*
X147489527Y-95415799D01*
X147511323Y-95411462D01*
X147533422Y-95407067D01*
X147583204Y-95373804D01*
X147616467Y-95324022D01*
X147621400Y-95299225D01*
X147625199Y-95280127D01*
X147625200Y-95280118D01*
X147625200Y-94259881D01*
X147625199Y-94259872D01*
X147616467Y-94215979D01*
X147616465Y-94215975D01*
X147583205Y-94166198D01*
X147583204Y-94166196D01*
X147582540Y-94165752D01*
X147533424Y-94132934D01*
X147533420Y-94132932D01*
X147489527Y-94124200D01*
X147489520Y-94124200D01*
X145910480Y-94124200D01*
X145910472Y-94124200D01*
X145866579Y-94132932D01*
X145866575Y-94132934D01*
X145816798Y-94166194D01*
X145816794Y-94166198D01*
X145783534Y-94215975D01*
X145783532Y-94215979D01*
X145774800Y-94259872D01*
X145774800Y-95229221D01*
X145755893Y-95287412D01*
X145745804Y-95299225D01*
X140474505Y-100570524D01*
X140419988Y-100598301D01*
X140404501Y-100599520D01*
X125810438Y-100599520D01*
X125785781Y-100606127D01*
X125760158Y-100609500D01*
X125235172Y-100609500D01*
X125191279Y-100618232D01*
X125191275Y-100618234D01*
X125141498Y-100651494D01*
X125141494Y-100651498D01*
X125108234Y-100701275D01*
X125108232Y-100701279D01*
X125099500Y-100745172D01*
X120100500Y-100745172D01*
X120100500Y-99745172D01*
X125099500Y-99745172D01*
X125099500Y-100054827D01*
X125108232Y-100098720D01*
X125108233Y-100098722D01*
X125141496Y-100148504D01*
X125191278Y-100181767D01*
X125202327Y-100183964D01*
X125235172Y-100190499D01*
X125235178Y-100190499D01*
X125235180Y-100190500D01*
X125760011Y-100190500D01*
X125785635Y-100193873D01*
X125810438Y-100200520D01*
X139069543Y-100200520D01*
X139069543Y-100200519D01*
X139145969Y-100180041D01*
X139214491Y-100140480D01*
X139270440Y-100084531D01*
X146450175Y-92904796D01*
X146504692Y-92877019D01*
X146520179Y-92875800D01*
X147489519Y-92875800D01*
X147489520Y-92875800D01*
X147489521Y-92875799D01*
X147489527Y-92875799D01*
X147511323Y-92871462D01*
X147533422Y-92867067D01*
X147583204Y-92833804D01*
X147616467Y-92784022D01*
X147621400Y-92759225D01*
X147625199Y-92740127D01*
X147625200Y-92740118D01*
X147625200Y-91719881D01*
X147625199Y-91719872D01*
X147616467Y-91675979D01*
X147616465Y-91675975D01*
X147583205Y-91626198D01*
X147583204Y-91626196D01*
X147582540Y-91625752D01*
X147533424Y-91592934D01*
X147533420Y-91592932D01*
X147489527Y-91584200D01*
X147489520Y-91584200D01*
X145910480Y-91584200D01*
X145910472Y-91584200D01*
X145866579Y-91592932D01*
X145866575Y-91592934D01*
X145816798Y-91626194D01*
X145816794Y-91626198D01*
X145783534Y-91675975D01*
X145783532Y-91675979D01*
X145774800Y-91719872D01*
X145774800Y-92689221D01*
X145755893Y-92747412D01*
X145745804Y-92759225D01*
X138934505Y-99570524D01*
X138879988Y-99598301D01*
X138864501Y-99599520D01*
X125810438Y-99599520D01*
X125785781Y-99606127D01*
X125760158Y-99609500D01*
X125235172Y-99609500D01*
X125191279Y-99618232D01*
X125191275Y-99618234D01*
X125141498Y-99651494D01*
X125141494Y-99651498D01*
X125108234Y-99701275D01*
X125108232Y-99701279D01*
X125099500Y-99745172D01*
X120100500Y-99745172D01*
X120100500Y-98745172D01*
X125099500Y-98745172D01*
X125099500Y-99054827D01*
X125108232Y-99098720D01*
X125108233Y-99098722D01*
X125141496Y-99148504D01*
X125191278Y-99181767D01*
X125202327Y-99183964D01*
X125235172Y-99190499D01*
X125235178Y-99190499D01*
X125235180Y-99190500D01*
X125760011Y-99190500D01*
X125785635Y-99193873D01*
X125810438Y-99200520D01*
X137529543Y-99200520D01*
X137529543Y-99200519D01*
X137605969Y-99180041D01*
X137674491Y-99140480D01*
X137730440Y-99084531D01*
X146450175Y-90364796D01*
X146504692Y-90337019D01*
X146520179Y-90335800D01*
X147489519Y-90335800D01*
X147489520Y-90335800D01*
X147489521Y-90335799D01*
X147489527Y-90335799D01*
X147511323Y-90331462D01*
X147533422Y-90327067D01*
X147583204Y-90293804D01*
X147616467Y-90244022D01*
X147621400Y-90219225D01*
X147625199Y-90200127D01*
X147625200Y-90200118D01*
X147625200Y-89179881D01*
X147625199Y-89179872D01*
X147616467Y-89135979D01*
X147616465Y-89135975D01*
X147583205Y-89086198D01*
X147583204Y-89086196D01*
X147582540Y-89085752D01*
X147533424Y-89052934D01*
X147533420Y-89052932D01*
X147489527Y-89044200D01*
X147489520Y-89044200D01*
X145910480Y-89044200D01*
X145910472Y-89044200D01*
X145866579Y-89052932D01*
X145866575Y-89052934D01*
X145816798Y-89086194D01*
X145816794Y-89086198D01*
X145783534Y-89135975D01*
X145783532Y-89135979D01*
X145774800Y-89179872D01*
X145774800Y-90149221D01*
X145755893Y-90207412D01*
X145745804Y-90219225D01*
X137394505Y-98570524D01*
X137339988Y-98598301D01*
X137324501Y-98599520D01*
X125810438Y-98599520D01*
X125785781Y-98606127D01*
X125760158Y-98609500D01*
X125235172Y-98609500D01*
X125191279Y-98618232D01*
X125191275Y-98618234D01*
X125141498Y-98651494D01*
X125141494Y-98651498D01*
X125108234Y-98701275D01*
X125108232Y-98701279D01*
X125099500Y-98745172D01*
X120100500Y-98745172D01*
X120100500Y-97735192D01*
X125099500Y-97735192D01*
X125099500Y-98064847D01*
X125108232Y-98108740D01*
X125108234Y-98108744D01*
X125121259Y-98128237D01*
X125141496Y-98158524D01*
X125191278Y-98191787D01*
X125202327Y-98193984D01*
X125235172Y-98200519D01*
X125235178Y-98200519D01*
X125235180Y-98200520D01*
X125235181Y-98200520D01*
X135989543Y-98200520D01*
X135989543Y-98200519D01*
X136065969Y-98180041D01*
X136134491Y-98140480D01*
X136190440Y-98084531D01*
X146450175Y-87824796D01*
X146504692Y-87797019D01*
X146520179Y-87795800D01*
X147489519Y-87795800D01*
X147489520Y-87795800D01*
X147489521Y-87795799D01*
X147489527Y-87795799D01*
X147511323Y-87791462D01*
X147533422Y-87787067D01*
X147583204Y-87753804D01*
X147616467Y-87704022D01*
X147621400Y-87679225D01*
X147625199Y-87660127D01*
X147625200Y-87660118D01*
X147625200Y-86639881D01*
X147625199Y-86639872D01*
X147616467Y-86595979D01*
X147616465Y-86595975D01*
X147583205Y-86546198D01*
X147583204Y-86546196D01*
X147582540Y-86545752D01*
X147533424Y-86512934D01*
X147533420Y-86512932D01*
X147489527Y-86504200D01*
X147489520Y-86504200D01*
X145910480Y-86504200D01*
X145910472Y-86504200D01*
X145866579Y-86512932D01*
X145866575Y-86512934D01*
X145816798Y-86546194D01*
X145816794Y-86546198D01*
X145783534Y-86595975D01*
X145783532Y-86595979D01*
X145774800Y-86639872D01*
X145774800Y-87609221D01*
X145755893Y-87667412D01*
X145745804Y-87679225D01*
X135854505Y-97570524D01*
X135799988Y-97598301D01*
X135784501Y-97599520D01*
X125235172Y-97599520D01*
X125191279Y-97608252D01*
X125191275Y-97608254D01*
X125141498Y-97641514D01*
X125141494Y-97641518D01*
X125108234Y-97691295D01*
X125108232Y-97691299D01*
X125099500Y-97735192D01*
X120100500Y-97735192D01*
X120100500Y-96745172D01*
X125099500Y-96745172D01*
X125099500Y-97054827D01*
X125108232Y-97098720D01*
X125108233Y-97098722D01*
X125141496Y-97148504D01*
X125191278Y-97181767D01*
X125202327Y-97183964D01*
X125235172Y-97190499D01*
X125235178Y-97190499D01*
X125235180Y-97190500D01*
X125760011Y-97190500D01*
X125785635Y-97193873D01*
X125810438Y-97200520D01*
X134189543Y-97200520D01*
X134189543Y-97200519D01*
X134265969Y-97180041D01*
X134334491Y-97140480D01*
X134390440Y-97084531D01*
X146190175Y-85284796D01*
X146244692Y-85257019D01*
X146260179Y-85255800D01*
X147489519Y-85255800D01*
X147489520Y-85255800D01*
X147489521Y-85255799D01*
X147489527Y-85255799D01*
X147511323Y-85251462D01*
X147533422Y-85247067D01*
X147583204Y-85213804D01*
X147616467Y-85164022D01*
X147625200Y-85120120D01*
X147625200Y-84099880D01*
X147625199Y-84099878D01*
X147625199Y-84099872D01*
X147616467Y-84055979D01*
X147616465Y-84055975D01*
X147583205Y-84006198D01*
X147583204Y-84006196D01*
X147582540Y-84005752D01*
X147533424Y-83972934D01*
X147533420Y-83972932D01*
X147489527Y-83964200D01*
X147489520Y-83964200D01*
X145910480Y-83964200D01*
X145910472Y-83964200D01*
X145866579Y-83972932D01*
X145866575Y-83972934D01*
X145816798Y-84006194D01*
X145816794Y-84006198D01*
X145783534Y-84055975D01*
X145783532Y-84055979D01*
X145774800Y-84099872D01*
X145774800Y-84809221D01*
X145755893Y-84867412D01*
X145745804Y-84879225D01*
X134054505Y-96570524D01*
X133999988Y-96598301D01*
X133984501Y-96599520D01*
X125810438Y-96599520D01*
X125785781Y-96606127D01*
X125760158Y-96609500D01*
X125235172Y-96609500D01*
X125191279Y-96618232D01*
X125191275Y-96618234D01*
X125141498Y-96651494D01*
X125141494Y-96651498D01*
X125108234Y-96701275D01*
X125108232Y-96701279D01*
X125099500Y-96745172D01*
X120100500Y-96745172D01*
X120100500Y-95745172D01*
X125099500Y-95745172D01*
X125099500Y-96054827D01*
X125108232Y-96098720D01*
X125108233Y-96098722D01*
X125141496Y-96148504D01*
X125191278Y-96181767D01*
X125202327Y-96183964D01*
X125235172Y-96190499D01*
X125235178Y-96190499D01*
X125235180Y-96190500D01*
X125235181Y-96190500D01*
X126464819Y-96190500D01*
X126464820Y-96190500D01*
X126464821Y-96190499D01*
X126464827Y-96190499D01*
X126486623Y-96186162D01*
X126508722Y-96181767D01*
X126558504Y-96148504D01*
X126591767Y-96098722D01*
X126600500Y-96054820D01*
X126600500Y-95745180D01*
X126600499Y-95745178D01*
X126600499Y-95745172D01*
X126591767Y-95701279D01*
X126591765Y-95701275D01*
X126558505Y-95651498D01*
X126558504Y-95651496D01*
X126557840Y-95651052D01*
X126508724Y-95618234D01*
X126508720Y-95618232D01*
X126464827Y-95609500D01*
X126464820Y-95609500D01*
X125235180Y-95609500D01*
X125235172Y-95609500D01*
X125191279Y-95618232D01*
X125191275Y-95618234D01*
X125141498Y-95651494D01*
X125141494Y-95651498D01*
X125108234Y-95701275D01*
X125108232Y-95701279D01*
X125099500Y-95745172D01*
X120100500Y-95745172D01*
X120100500Y-94745172D01*
X125099500Y-94745172D01*
X125099500Y-95054827D01*
X125108232Y-95098720D01*
X125108233Y-95098722D01*
X125141496Y-95148504D01*
X125191278Y-95181767D01*
X125202327Y-95183964D01*
X125235172Y-95190499D01*
X125235178Y-95190499D01*
X125235180Y-95190500D01*
X125235181Y-95190500D01*
X126464819Y-95190500D01*
X126464820Y-95190500D01*
X126464821Y-95190499D01*
X126464827Y-95190499D01*
X126486623Y-95186162D01*
X126508722Y-95181767D01*
X126558504Y-95148504D01*
X126591767Y-95098722D01*
X126600500Y-95054820D01*
X126600500Y-94745180D01*
X126600499Y-94745178D01*
X126600499Y-94745172D01*
X126591767Y-94701279D01*
X126591765Y-94701275D01*
X126558505Y-94651498D01*
X126558504Y-94651496D01*
X126557840Y-94651052D01*
X126508724Y-94618234D01*
X126508720Y-94618232D01*
X126464827Y-94609500D01*
X126464820Y-94609500D01*
X125235180Y-94609500D01*
X125235172Y-94609500D01*
X125191279Y-94618232D01*
X125191275Y-94618234D01*
X125141498Y-94651494D01*
X125141494Y-94651498D01*
X125108234Y-94701275D01*
X125108232Y-94701279D01*
X125099500Y-94745172D01*
X120100500Y-94745172D01*
X120100500Y-83110435D01*
X149299500Y-83110435D01*
X149299500Y-126189564D01*
X149319978Y-126265988D01*
X149319980Y-126265992D01*
X149359538Y-126334508D01*
X149359540Y-126334511D01*
X149415489Y-126390460D01*
X149415491Y-126390461D01*
X149484007Y-126430019D01*
X149484011Y-126430021D01*
X149560435Y-126450499D01*
X149560437Y-126450500D01*
X149560438Y-126450500D01*
X171339563Y-126450500D01*
X171339563Y-126450499D01*
X171415989Y-126430021D01*
X171484511Y-126390460D01*
X171540460Y-126334511D01*
X171580021Y-126265989D01*
X171600500Y-126189562D01*
X171600500Y-107997388D01*
X171603873Y-107971764D01*
X171605419Y-107965990D01*
X171605421Y-107965989D01*
X171625900Y-107889562D01*
X171625900Y-98210438D01*
X171611989Y-98158521D01*
X171603874Y-98128237D01*
X171600500Y-98102613D01*
X171600500Y-83110437D01*
X171600499Y-83110435D01*
X171580021Y-83034011D01*
X171580019Y-83034007D01*
X171540461Y-82965491D01*
X171540460Y-82965489D01*
X171484511Y-82909540D01*
X171484508Y-82909538D01*
X171415992Y-82869980D01*
X171415988Y-82869978D01*
X171339564Y-82849500D01*
X171339562Y-82849500D01*
X165839562Y-82849500D01*
X149639562Y-82849500D01*
X149560438Y-82849500D01*
X149560435Y-82849500D01*
X149484011Y-82869978D01*
X149484007Y-82869980D01*
X149415491Y-82909538D01*
X149359538Y-82965491D01*
X149319980Y-83034007D01*
X149319978Y-83034011D01*
X149299500Y-83110435D01*
X120100500Y-83110435D01*
X120100500Y-73749500D01*
X120119407Y-73691309D01*
X120168907Y-73655345D01*
X120199500Y-73650500D01*
X179000500Y-73650500D01*
X179058691Y-73669407D01*
G37*
%TD.AperFunction*%
%TD*%
M02*
